%TF.GenerationSoftware,KiCad,Pcbnew,(6.0.10)*%
%TF.CreationDate,2023-03-19T11:26:14+01:00*%
%TF.ProjectId,arduino-level-shifter-shield,61726475-696e-46f2-9d6c-6576656c2d73,1*%
%TF.SameCoordinates,Original*%
%TF.FileFunction,Paste,Top*%
%TF.FilePolarity,Positive*%
%FSLAX46Y46*%
G04 Gerber Fmt 4.6, Leading zero omitted, Abs format (unit mm)*
G04 Created by KiCad (PCBNEW (6.0.10)) date 2023-03-19 11:26:14*
%MOMM*%
%LPD*%
G01*
G04 APERTURE LIST*
G04 Aperture macros list*
%AMRoundRect*
0 Rectangle with rounded corners*
0 $1 Rounding radius*
0 $2 $3 $4 $5 $6 $7 $8 $9 X,Y pos of 4 corners*
0 Add a 4 corners polygon primitive as box body*
4,1,4,$2,$3,$4,$5,$6,$7,$8,$9,$2,$3,0*
0 Add four circle primitives for the rounded corners*
1,1,$1+$1,$2,$3*
1,1,$1+$1,$4,$5*
1,1,$1+$1,$6,$7*
1,1,$1+$1,$8,$9*
0 Add four rect primitives between the rounded corners*
20,1,$1+$1,$2,$3,$4,$5,0*
20,1,$1+$1,$4,$5,$6,$7,0*
20,1,$1+$1,$6,$7,$8,$9,0*
20,1,$1+$1,$8,$9,$2,$3,0*%
G04 Aperture macros list end*
%ADD10RoundRect,0.250000X-0.250000X-0.475000X0.250000X-0.475000X0.250000X0.475000X-0.250000X0.475000X0*%
%ADD11RoundRect,0.250000X0.250000X0.475000X-0.250000X0.475000X-0.250000X-0.475000X0.250000X-0.475000X0*%
%ADD12R,3.050000X2.750000*%
%ADD13R,2.200000X1.200000*%
%ADD14RoundRect,0.100000X-0.637500X-0.100000X0.637500X-0.100000X0.637500X0.100000X-0.637500X0.100000X0*%
%ADD15RoundRect,0.200000X-0.275000X0.200000X-0.275000X-0.200000X0.275000X-0.200000X0.275000X0.200000X0*%
%ADD16RoundRect,0.250000X-0.475000X0.250000X-0.475000X-0.250000X0.475000X-0.250000X0.475000X0.250000X0*%
%ADD17RoundRect,0.200000X0.200000X0.275000X-0.200000X0.275000X-0.200000X-0.275000X0.200000X-0.275000X0*%
%ADD18RoundRect,0.200000X0.275000X-0.200000X0.275000X0.200000X-0.275000X0.200000X-0.275000X-0.200000X0*%
%ADD19RoundRect,0.200000X-0.200000X-0.275000X0.200000X-0.275000X0.200000X0.275000X-0.200000X0.275000X0*%
%ADD20RoundRect,0.250000X0.475000X-0.250000X0.475000X0.250000X-0.475000X0.250000X-0.475000X-0.250000X0*%
%ADD21RoundRect,0.100000X-0.100000X0.637500X-0.100000X-0.637500X0.100000X-0.637500X0.100000X0.637500X0*%
G04 APERTURE END LIST*
D10*
%TO.C,C34*%
X37479000Y16256000D03*
X39379000Y16256000D03*
%TD*%
D11*
%TO.C,C35*%
X43189000Y16256000D03*
X41289000Y16256000D03*
%TD*%
D12*
%TO.C,U11*%
X40918000Y26290000D03*
X37568000Y26290000D03*
X40918000Y23240000D03*
X37568000Y23240000D03*
D13*
X32943000Y27045000D03*
X32943000Y22485000D03*
%TD*%
D14*
%TO.C,U32*%
X39254500Y14101000D03*
X39254500Y13451000D03*
X39254500Y12801000D03*
X39254500Y12151000D03*
X39254500Y11501000D03*
X39254500Y10851000D03*
X39254500Y10201000D03*
X39254500Y9551000D03*
X39254500Y8901000D03*
X39254500Y8251000D03*
X44979500Y8251000D03*
X44979500Y8901000D03*
X44979500Y9551000D03*
X44979500Y10201000D03*
X44979500Y10851000D03*
X44979500Y11501000D03*
X44979500Y12151000D03*
X44979500Y12801000D03*
X44979500Y13451000D03*
X44979500Y14101000D03*
%TD*%
D15*
%TO.C,R24*%
X14605000Y42100000D03*
X14605000Y40450000D03*
%TD*%
D11*
%TO.C,C21*%
X10285000Y22479000D03*
X8385000Y22479000D03*
%TD*%
D16*
%TO.C,C14*%
X46355000Y42225000D03*
X46355000Y40325000D03*
%TD*%
D17*
%TO.C,R13*%
X29400000Y27305000D03*
X27750000Y27305000D03*
%TD*%
%TO.C,R11*%
X39245000Y29305000D03*
X37595000Y29305000D03*
%TD*%
D10*
%TO.C,C32*%
X21341000Y10921000D03*
X23241000Y10921000D03*
%TD*%
D11*
%TO.C,C11*%
X29525000Y22479000D03*
X27625000Y22479000D03*
%TD*%
D10*
%TO.C,C31*%
X21341000Y13207000D03*
X23241000Y13207000D03*
%TD*%
D11*
%TO.C,C12*%
X29525000Y24765000D03*
X27625000Y24765000D03*
%TD*%
D12*
%TO.C,U31*%
X9924000Y12447000D03*
X13274000Y12447000D03*
X13274000Y9397000D03*
X9924000Y9397000D03*
D13*
X17899000Y8642000D03*
X17899000Y13202000D03*
%TD*%
D18*
%TO.C,R33*%
X26162000Y8954000D03*
X26162000Y10604000D03*
%TD*%
D12*
%TO.C,U21*%
X18459000Y26290000D03*
X21809000Y23240000D03*
X21809000Y26290000D03*
X18459000Y23240000D03*
D13*
X13834000Y27045000D03*
X13834000Y22485000D03*
%TD*%
D15*
%TO.C,R14*%
X36449000Y42100000D03*
X36449000Y40450000D03*
%TD*%
D19*
%TO.C,R34*%
X41339000Y6350000D03*
X42989000Y6350000D03*
%TD*%
D17*
%TO.C,R21*%
X20130000Y29305000D03*
X18480000Y29305000D03*
%TD*%
D19*
%TO.C,R31*%
X11621000Y6350000D03*
X13271000Y6350000D03*
%TD*%
D17*
%TO.C,R23*%
X10160000Y27305000D03*
X8510000Y27305000D03*
%TD*%
D20*
%TO.C,C25*%
X24511000Y36515000D03*
X24511000Y38415000D03*
%TD*%
D21*
%TO.C,U22*%
X22356000Y44137500D03*
X21706000Y44137500D03*
X21056000Y44137500D03*
X20406000Y44137500D03*
X19756000Y44137500D03*
X19106000Y44137500D03*
X18456000Y44137500D03*
X17806000Y44137500D03*
X17156000Y44137500D03*
X16506000Y44137500D03*
X16506000Y38412500D03*
X17156000Y38412500D03*
X17806000Y38412500D03*
X18456000Y38412500D03*
X19106000Y38412500D03*
X19756000Y38412500D03*
X20406000Y38412500D03*
X21056000Y38412500D03*
X21706000Y38412500D03*
X22356000Y38412500D03*
%TD*%
D20*
%TO.C,C15*%
X46345000Y36515000D03*
X46345000Y38415000D03*
%TD*%
D11*
%TO.C,C22*%
X10285000Y24765000D03*
X8385000Y24765000D03*
%TD*%
D21*
%TO.C,U12*%
X44200000Y44137500D03*
X43550000Y44137500D03*
X42900000Y44137500D03*
X42250000Y44137500D03*
X41600000Y44137500D03*
X40950000Y44137500D03*
X40300000Y44137500D03*
X39650000Y44137500D03*
X39000000Y44137500D03*
X38350000Y44137500D03*
X38350000Y38412500D03*
X39000000Y38412500D03*
X39650000Y38412500D03*
X40300000Y38412500D03*
X40950000Y38412500D03*
X41600000Y38412500D03*
X42250000Y38412500D03*
X42900000Y38412500D03*
X43550000Y38412500D03*
X44200000Y38412500D03*
%TD*%
D16*
%TO.C,C24*%
X24511000Y42225000D03*
X24511000Y40325000D03*
%TD*%
M02*
