%TF.GenerationSoftware,KiCad,Pcbnew,(6.0.10)*%
%TF.CreationDate,2023-03-19T11:26:14+01:00*%
%TF.ProjectId,arduino-level-shifter-shield,61726475-696e-46f2-9d6c-6576656c2d73,1*%
%TF.SameCoordinates,Original*%
%TF.FileFunction,Copper,L2,Bot*%
%TF.FilePolarity,Positive*%
%FSLAX46Y46*%
G04 Gerber Fmt 4.6, Leading zero omitted, Abs format (unit mm)*
G04 Created by KiCad (PCBNEW (6.0.10)) date 2023-03-19 11:26:14*
%MOMM*%
%LPD*%
G01*
G04 APERTURE LIST*
%TA.AperFunction,ComponentPad*%
%ADD10R,1.700000X1.700000*%
%TD*%
%TA.AperFunction,ComponentPad*%
%ADD11O,1.700000X1.700000*%
%TD*%
%TA.AperFunction,ComponentPad*%
%ADD12O,3.500000X2.200000*%
%TD*%
%TA.AperFunction,ComponentPad*%
%ADD13R,2.500000X1.500000*%
%TD*%
%TA.AperFunction,ComponentPad*%
%ADD14O,2.500000X1.500000*%
%TD*%
%TA.AperFunction,ComponentPad*%
%ADD15R,1.600000X1.600000*%
%TD*%
%TA.AperFunction,ComponentPad*%
%ADD16C,1.600000*%
%TD*%
%TA.AperFunction,ComponentPad*%
%ADD17C,1.440000*%
%TD*%
%TA.AperFunction,ViaPad*%
%ADD18C,0.900000*%
%TD*%
%TA.AperFunction,ViaPad*%
%ADD19C,0.800000*%
%TD*%
%TA.AperFunction,Conductor*%
%ADD20C,0.500000*%
%TD*%
%TA.AperFunction,Conductor*%
%ADD21C,0.300000*%
%TD*%
G04 APERTURE END LIST*
D10*
%TO.P,J53,1,Pin_1*%
%TO.N,/D8_A*%
X28960000Y48260000D03*
D11*
%TO.P,J53,2,Pin_2*%
%TO.N,/D9_A*%
X26420000Y48260000D03*
%TO.P,J53,3,Pin_3*%
%TO.N,/D10_A*%
X23880000Y48260000D03*
%TO.P,J53,4,Pin_4*%
%TO.N,/D11_A*%
X21340000Y48260000D03*
%TO.P,J53,5,Pin_5*%
%TO.N,/D12_A*%
X18800000Y48260000D03*
%TO.P,J53,6,Pin_6*%
%TO.N,/D13_A*%
X16260000Y48260000D03*
%TO.P,J53,7,Pin_7*%
%TO.N,GND*%
X13720000Y48260000D03*
%TO.P,J53,8,Pin_8*%
%TO.N,unconnected-(J53-Pad8)*%
X11180000Y48260000D03*
%TO.P,J53,9,Pin_9*%
%TO.N,/SDA_A*%
X8640000Y48260000D03*
%TO.P,J53,10,Pin_10*%
%TO.N,/SCL_A*%
X6100000Y48260000D03*
%TD*%
D12*
%TO.P,SW2,*%
%TO.N,*%
X3556000Y42943200D03*
X3556000Y30743200D03*
D13*
%TO.P,SW2,1,1*%
%TO.N,+3V3*%
X3556000Y40843200D03*
D14*
%TO.P,SW2,2,2*%
%TO.N,/VCC2*%
X3556000Y36843200D03*
%TO.P,SW2,3,3*%
%TO.N,/VCC2_REG*%
X3556000Y34843200D03*
%TO.P,SW2,4,4*%
%TO.N,/VCC2_EXT*%
X3556000Y32843200D03*
%TD*%
D10*
%TO.P,J46,1,Pin_1*%
%TO.N,/D0_B*%
X50800000Y50800000D03*
D11*
%TO.P,J46,2,Pin_2*%
%TO.N,/D1_B*%
X48260000Y50800000D03*
%TO.P,J46,3,Pin_3*%
%TO.N,/D2_B*%
X45720000Y50800000D03*
%TO.P,J46,4,Pin_4*%
%TO.N,/D3_B*%
X43180000Y50800000D03*
%TO.P,J46,5,Pin_5*%
%TO.N,/D4_B*%
X40640000Y50800000D03*
%TO.P,J46,6,Pin_6*%
%TO.N,/D5_B*%
X38100000Y50800000D03*
%TO.P,J46,7,Pin_7*%
%TO.N,/D6_B*%
X35560000Y50800000D03*
%TO.P,J46,8,Pin_8*%
%TO.N,/D7_B*%
X33020000Y50800000D03*
%TD*%
D15*
%TO.P,C13,1*%
%TO.N,/VCC1*%
X32004000Y43092379D03*
D16*
%TO.P,C13,2*%
%TO.N,GND*%
X32004000Y40592379D03*
%TD*%
D10*
%TO.P,J41,1,Pin_1*%
%TO.N,unconnected-(J41-Pad1)*%
X15240000Y2540000D03*
D11*
%TO.P,J41,2,Pin_2*%
%TO.N,unconnected-(J41-Pad2)*%
X17780000Y2540000D03*
%TO.P,J41,3,Pin_3*%
%TO.N,unconnected-(J41-Pad3)*%
X20320000Y2540000D03*
%TO.P,J41,4,Pin_4*%
%TO.N,+3V3*%
X22860000Y2540000D03*
%TO.P,J41,5,Pin_5*%
%TO.N,+5V*%
X25400000Y2540000D03*
%TO.P,J41,6,Pin_6*%
%TO.N,GND*%
X27940000Y2540000D03*
%TO.P,J41,7,Pin_7*%
X30480000Y2540000D03*
%TO.P,J41,8,Pin_8*%
%TO.N,unconnected-(J41-Pad8)*%
X33020000Y2540000D03*
%TD*%
D10*
%TO.P,J56,1,Pin_1*%
%TO.N,/D0_A*%
X50800000Y48260000D03*
D11*
%TO.P,J56,2,Pin_2*%
%TO.N,/D1_A*%
X48260000Y48260000D03*
%TO.P,J56,3,Pin_3*%
%TO.N,/D2_A*%
X45720000Y48260000D03*
%TO.P,J56,4,Pin_4*%
%TO.N,/D3_A*%
X43180000Y48260000D03*
%TO.P,J56,5,Pin_5*%
%TO.N,/D4_A*%
X40640000Y48260000D03*
%TO.P,J56,6,Pin_6*%
%TO.N,/D5_A*%
X38100000Y48260000D03*
%TO.P,J56,7,Pin_7*%
%TO.N,/D6_A*%
X35560000Y48260000D03*
%TO.P,J56,8,Pin_8*%
%TO.N,/D7_A*%
X33020000Y48260000D03*
%TD*%
D10*
%TO.P,J55,1,Pin_1*%
%TO.N,/VCC3*%
X48460000Y25400000D03*
D11*
%TO.P,J55,2,Pin_2*%
%TO.N,/MOSI_A*%
X48460000Y22860000D03*
%TO.P,J55,3,Pin_3*%
%TO.N,GND*%
X48460000Y20320000D03*
%TD*%
D17*
%TO.P,R32,1*%
%TO.N,/VCC3_ADJ_MAX*%
X32004000Y6350000D03*
%TO.P,R32,2*%
%TO.N,/VCC3_ADJ_MIN*%
X29464000Y8890000D03*
%TO.P,R32,3*%
%TO.N,N/C*%
X32004000Y11430000D03*
%TD*%
D10*
%TO.P,J51,1,Pin_1*%
%TO.N,/S0_A*%
X51000000Y17780000D03*
D11*
%TO.P,J51,2,Pin_2*%
%TO.N,/S1_A*%
X51000000Y15240000D03*
%TO.P,J51,3,Pin_3*%
%TO.N,/S2_A*%
X51000000Y12700000D03*
%TO.P,J51,4,Pin_4*%
%TO.N,/S3_A*%
X51000000Y10160000D03*
%TO.P,J51,5,Pin_5*%
%TO.N,/VCC3*%
X51000000Y7620000D03*
%TD*%
D12*
%TO.P,SW3,*%
%TO.N,*%
X3556000Y22623200D03*
X3556000Y10423200D03*
D13*
%TO.P,SW3,1,1*%
%TO.N,+3V3*%
X3556000Y20523200D03*
D14*
%TO.P,SW3,2,2*%
%TO.N,/VCC3*%
X3556000Y16523200D03*
%TO.P,SW3,3,3*%
%TO.N,/VCC3_REG*%
X3556000Y14523200D03*
%TO.P,SW3,4,4*%
%TO.N,/VCC3_EXT*%
X3556000Y12523200D03*
%TD*%
D15*
%TO.P,C23,1*%
%TO.N,/VCC2*%
X10160000Y43092379D03*
D16*
%TO.P,C23,2*%
%TO.N,GND*%
X10160000Y40592379D03*
%TD*%
D10*
%TO.P,J43,1,Pin_1*%
%TO.N,unconnected-(J43-Pad1)*%
X50800000Y2540000D03*
D11*
%TO.P,J43,2,Pin_2*%
%TO.N,unconnected-(J43-Pad2)*%
X48260000Y2540000D03*
%TO.P,J43,3,Pin_3*%
%TO.N,unconnected-(J43-Pad3)*%
X45720000Y2540000D03*
%TO.P,J43,4,Pin_4*%
%TO.N,unconnected-(J43-Pad4)*%
X43180000Y2540000D03*
%TO.P,J43,5,Pin_5*%
%TO.N,unconnected-(J43-Pad5)*%
X40640000Y2540000D03*
%TO.P,J43,6,Pin_6*%
%TO.N,unconnected-(J43-Pad6)*%
X38100000Y2540000D03*
%TD*%
D10*
%TO.P,J52,1,Pin_1*%
%TO.N,/S0_B*%
X53540000Y17780000D03*
D11*
%TO.P,J52,2,Pin_2*%
%TO.N,/S1_B*%
X53540000Y15240000D03*
%TO.P,J52,3,Pin_3*%
%TO.N,/S2_B*%
X53540000Y12700000D03*
%TO.P,J52,4,Pin_4*%
%TO.N,/S3_B*%
X53540000Y10160000D03*
%TO.P,J52,5,Pin_5*%
%TO.N,GND*%
X53540000Y7620000D03*
%TD*%
D10*
%TO.P,J54,1,Pin_1*%
%TO.N,/MISO_A*%
X45920000Y25400000D03*
D11*
%TO.P,J54,2,Pin_2*%
%TO.N,/SCK_A*%
X45920000Y22860000D03*
%TO.P,J54,3,Pin_3*%
%TO.N,/RESET_A*%
X45920000Y20320000D03*
%TD*%
D17*
%TO.P,R22,1*%
%TO.N,/VCC2_ADJ_MAX*%
X12700000Y33655000D03*
%TO.P,R22,2*%
%TO.N,/VCC2_ADJ_MIN*%
X10160000Y31115000D03*
%TO.P,R22,3*%
%TO.N,N/C*%
X7620000Y33655000D03*
%TD*%
%TO.P,R12,1*%
%TO.N,/VCC1_ADJ_MAX*%
X34544000Y33655000D03*
%TO.P,R12,2*%
%TO.N,/VCC1_ADJ_MIN*%
X32004000Y31115000D03*
%TO.P,R12,3*%
%TO.N,N/C*%
X29464000Y33655000D03*
%TD*%
D10*
%TO.P,J1,1,Pin_1*%
%TO.N,/VCC1*%
X38100000Y33020000D03*
D11*
%TO.P,J1,2,Pin_2*%
%TO.N,GND*%
X40640000Y33020000D03*
%TO.P,J1,3,Pin_3*%
X43180000Y33020000D03*
%TO.P,J1,4,Pin_4*%
%TO.N,/VCC1_EXT*%
X45720000Y33020000D03*
%TO.P,J1,5,Pin_5*%
X48260000Y33020000D03*
%TD*%
D10*
%TO.P,J3,1,Pin_1*%
%TO.N,/VCC3_EXT*%
X5080000Y2540000D03*
D11*
%TO.P,J3,2,Pin_2*%
X7620000Y2540000D03*
%TO.P,J3,3,Pin_3*%
%TO.N,GND*%
X10160000Y2540000D03*
%TD*%
D10*
%TO.P,J42,1,Pin_1*%
%TO.N,/D8_B*%
X28960000Y50800000D03*
D11*
%TO.P,J42,2,Pin_2*%
%TO.N,/D9_B*%
X26420000Y50800000D03*
%TO.P,J42,3,Pin_3*%
%TO.N,/D10_B*%
X23880000Y50800000D03*
%TO.P,J42,4,Pin_4*%
%TO.N,/D11_B*%
X21340000Y50800000D03*
%TO.P,J42,5,Pin_5*%
%TO.N,/D12_B*%
X18800000Y50800000D03*
%TO.P,J42,6,Pin_6*%
%TO.N,/D13_B*%
X16260000Y50800000D03*
%TO.P,J42,7,Pin_7*%
%TO.N,GND*%
X13720000Y50800000D03*
%TO.P,J42,8,Pin_8*%
%TO.N,unconnected-(J42-Pad8)*%
X11180000Y50800000D03*
%TO.P,J42,9,Pin_9*%
%TO.N,/SDA_B*%
X8640000Y50800000D03*
%TO.P,J42,10,Pin_10*%
%TO.N,/SCL_B*%
X6100000Y50800000D03*
%TD*%
D10*
%TO.P,J2,1,Pin_1*%
%TO.N,/VCC2*%
X16002000Y33020000D03*
D11*
%TO.P,J2,2,Pin_2*%
%TO.N,GND*%
X18542000Y33020000D03*
%TO.P,J2,3,Pin_3*%
X21082000Y33020000D03*
%TO.P,J2,4,Pin_4*%
%TO.N,/VCC2_EXT*%
X23622000Y33020000D03*
%TO.P,J2,5,Pin_5*%
X26162000Y33020000D03*
%TD*%
D15*
%TO.P,C33,1*%
%TO.N,/VCC3*%
X32004000Y18327379D03*
D16*
%TO.P,C33,2*%
%TO.N,GND*%
X32004000Y15827379D03*
%TD*%
D12*
%TO.P,SW1,*%
%TO.N,*%
X53340000Y30730000D03*
X53340000Y42930000D03*
D13*
%TO.P,SW1,1,1*%
%TO.N,+3V3*%
X53340000Y32830000D03*
D14*
%TO.P,SW1,2,2*%
%TO.N,/VCC1*%
X53340000Y36830000D03*
%TO.P,SW1,3,3*%
%TO.N,/VCC1_REG*%
X53340000Y38830000D03*
%TO.P,SW1,4,4*%
%TO.N,/VCC1_EXT*%
X53340000Y40830000D03*
%TD*%
D10*
%TO.P,J45,1,Pin_1*%
%TO.N,+5V*%
X53540000Y25400000D03*
D11*
%TO.P,J45,2,Pin_2*%
%TO.N,/MOSI_B*%
X53540000Y22860000D03*
%TO.P,J45,3,Pin_3*%
%TO.N,GND*%
X53540000Y20320000D03*
%TD*%
D10*
%TO.P,J44,1,Pin_1*%
%TO.N,/MISO_B*%
X51000000Y25400000D03*
D11*
%TO.P,J44,2,Pin_2*%
%TO.N,/SCK_B*%
X51000000Y22860000D03*
%TO.P,J44,3,Pin_3*%
%TO.N,/RESET_B*%
X51000000Y20320000D03*
%TD*%
D18*
%TO.N,+5V*%
X21717000Y35560000D03*
X17899000Y14978000D03*
X13834000Y20710000D03*
X43561000Y35560000D03*
X30861000Y22479000D03*
%TO.N,GND*%
X26162000Y11938000D03*
X47945000Y40325000D03*
X15425500Y38412500D03*
X26096000Y40325000D03*
X44297600Y17272000D03*
X24714200Y13208000D03*
X26289000Y24765000D03*
X24714200Y10922000D03*
X26289000Y27305000D03*
X26289000Y22479000D03*
X39379000Y19304000D03*
X48107600Y18516600D03*
X14605000Y39243000D03*
X36449000Y39370000D03*
X44196000Y6350000D03*
X6985000Y22479000D03*
X6985000Y24765000D03*
X47945000Y38415000D03*
X7239000Y27305000D03*
X26096000Y38415000D03*
X44979500Y7260500D03*
X37279500Y38412500D03*
%TO.N,/VCC3*%
X36195000Y18302000D03*
D19*
%TO.N,/D8_B*%
X22479000Y39878000D03*
%TO.N,/D9_B*%
X21336000Y39878000D03*
%TO.N,/D10_B*%
X20701000Y40767000D03*
%TO.N,/D11_B*%
X20066000Y41783000D03*
%TO.N,/D12_B*%
X18796000Y41783000D03*
%TO.N,/D13_B*%
X18161000Y40767000D03*
%TO.N,/SDA_B*%
X17526000Y39878000D03*
%TO.N,/SCL_B*%
X17399000Y36830000D03*
%TO.N,/D0_B*%
X44323000Y40005000D03*
%TO.N,/D1_B*%
X43180000Y40005000D03*
%TO.N,/D2_B*%
X42545000Y40894000D03*
%TO.N,/D3_B*%
X41910000Y41783000D03*
%TO.N,/D4_B*%
X40640000Y41783000D03*
%TO.N,/D5_B*%
X40005000Y40894000D03*
%TO.N,/D6_B*%
X39370000Y40005000D03*
%TO.N,/D7_B*%
X39243000Y36830000D03*
%TO.N,/S0_A*%
X43434000Y10541000D03*
%TO.N,/S1_A*%
X42545000Y9906000D03*
%TO.N,/S2_A*%
X41656000Y9271000D03*
%TO.N,/S3_A*%
X40767000Y8636000D03*
%TO.N,/MISO_A*%
X40767000Y14097000D03*
%TO.N,/SCK_A*%
X41656000Y13081000D03*
%TO.N,/MOSI_A*%
X43434000Y11811000D03*
%TO.N,/RESET_A*%
X42545000Y12446000D03*
%TD*%
D20*
%TO.N,+5V*%
X17899000Y11565000D02*
X17899000Y14978000D01*
X30099000Y35560000D02*
X35052000Y30607000D01*
X35052000Y30607000D02*
X50546000Y30607000D01*
X25400000Y2540000D02*
X25400000Y4064000D01*
X25400000Y4064000D02*
X17899000Y11565000D01*
X43561000Y35560000D02*
X49022000Y35560000D01*
X30861000Y22479000D02*
X30861000Y26416000D01*
X13834000Y19043000D02*
X13834000Y20710000D01*
X50546000Y34036000D02*
X50546000Y30607000D01*
X30861000Y26416000D02*
X35052000Y30607000D01*
X49022000Y35560000D02*
X50546000Y34036000D01*
X17899000Y14978000D02*
X13834000Y19043000D01*
X21717000Y35560000D02*
X30099000Y35560000D01*
X50546000Y28394000D02*
X53540000Y25400000D01*
X50546000Y30607000D02*
X50546000Y28394000D01*
%TO.N,/VCC1*%
X38100000Y33147000D02*
X38100000Y33020000D01*
X53340000Y36830000D02*
X41783000Y36830000D01*
X41783000Y36830000D02*
X38100000Y33147000D01*
%TO.N,/VCC3*%
X36195000Y18302000D02*
X44817000Y26924000D01*
X46936000Y26924000D02*
X48460000Y25400000D01*
X44817000Y26924000D02*
X46936000Y26924000D01*
%TO.N,/VCC2_EXT*%
X9398000Y32893000D02*
X10922000Y32893000D01*
X3556000Y32843200D02*
X5842000Y32843200D01*
X6965200Y31720000D02*
X8225000Y31720000D01*
X8225000Y31720000D02*
X9398000Y32893000D01*
X5842000Y32843200D02*
X6965200Y31720000D01*
X12446000Y31369000D02*
X21971000Y31369000D01*
X21971000Y31369000D02*
X23622000Y33020000D01*
X10922000Y32893000D02*
X12446000Y31369000D01*
X23622000Y33020000D02*
X26162000Y33020000D01*
D21*
%TO.N,/D8_B*%
X27686000Y45085000D02*
X27686000Y49526000D01*
X27686000Y49526000D02*
X28960000Y50800000D01*
X22479000Y39878000D02*
X27686000Y45085000D01*
%TO.N,/D9_B*%
X25146000Y49526000D02*
X26420000Y50800000D01*
X21336000Y39878000D02*
X21336000Y40259000D01*
X21336000Y40259000D02*
X25146000Y44069000D01*
X25146000Y44069000D02*
X25146000Y49526000D01*
%TO.N,/D10_B*%
X22606000Y42672000D02*
X22606000Y49526000D01*
X20701000Y40767000D02*
X22606000Y42672000D01*
X22606000Y49526000D02*
X23880000Y50800000D01*
%TO.N,/D11_B*%
X20066000Y49526000D02*
X21340000Y50800000D01*
X20066000Y41783000D02*
X20066000Y49526000D01*
%TO.N,/D12_B*%
X17526000Y49526000D02*
X18800000Y50800000D01*
X18796000Y41783000D02*
X17526000Y43053000D01*
X17526000Y43053000D02*
X17526000Y49526000D01*
%TO.N,/D13_B*%
X18161000Y40767000D02*
X14986000Y43942000D01*
X14986000Y43942000D02*
X14986000Y49526000D01*
X14986000Y49526000D02*
X16260000Y50800000D01*
%TO.N,/SDA_B*%
X17526000Y39878000D02*
X9906000Y47498000D01*
X9906000Y49534000D02*
X8640000Y50800000D01*
X9906000Y47498000D02*
X9906000Y49534000D01*
%TO.N,/SCL_B*%
X7366000Y49534000D02*
X6100000Y50800000D01*
X17399000Y36830000D02*
X17399000Y38481000D01*
X8128000Y46736000D02*
X7366000Y47498000D01*
X9144000Y46736000D02*
X8128000Y46736000D01*
X17399000Y38481000D02*
X9144000Y46736000D01*
X7366000Y47498000D02*
X7366000Y49534000D01*
%TO.N,/D0_B*%
X49530000Y45212000D02*
X49530000Y49530000D01*
X44323000Y40005000D02*
X49530000Y45212000D01*
X49530000Y49530000D02*
X50800000Y50800000D01*
%TO.N,/D1_B*%
X46990000Y49530000D02*
X48260000Y50800000D01*
X46990000Y43942000D02*
X46990000Y49530000D01*
X43180000Y40132000D02*
X46990000Y43942000D01*
X43180000Y40005000D02*
X43180000Y40132000D01*
%TO.N,/D2_B*%
X44450000Y49530000D02*
X45720000Y50800000D01*
X42545000Y40894000D02*
X44450000Y42799000D01*
X44450000Y42799000D02*
X44450000Y49530000D01*
%TO.N,/D3_B*%
X41910000Y49530000D02*
X43180000Y50800000D01*
X41910000Y41783000D02*
X41910000Y49530000D01*
%TO.N,/D4_B*%
X39370000Y43053000D02*
X39370000Y49530000D01*
X39370000Y49530000D02*
X40640000Y50800000D01*
X40640000Y41783000D02*
X39370000Y43053000D01*
%TO.N,/D5_B*%
X40005000Y40894000D02*
X36830000Y44069000D01*
X36830000Y44069000D02*
X36830000Y49530000D01*
X36830000Y49530000D02*
X38100000Y50800000D01*
%TO.N,/D6_B*%
X34290000Y49530000D02*
X35560000Y50800000D01*
X34290000Y45085000D02*
X34290000Y49530000D01*
X39370000Y40005000D02*
X34290000Y45085000D01*
%TO.N,/D7_B*%
X39243000Y36830000D02*
X39243000Y38481000D01*
X31750000Y45974000D02*
X31750000Y49530000D01*
X31750000Y49530000D02*
X33020000Y50800000D01*
X39243000Y38481000D02*
X31750000Y45974000D01*
%TO.N,/S0_A*%
X51000000Y17780000D02*
X50927000Y17780000D01*
X50927000Y17780000D02*
X43688000Y10541000D01*
X43688000Y10541000D02*
X43434000Y10541000D01*
%TO.N,/S1_A*%
X45412000Y9652000D02*
X51000000Y15240000D01*
X42545000Y9906000D02*
X42799000Y9652000D01*
X42799000Y9652000D02*
X45412000Y9652000D01*
%TO.N,/S2_A*%
X41656000Y9271000D02*
X42037000Y8890000D01*
X47190000Y8890000D02*
X51000000Y12700000D01*
X42037000Y8890000D02*
X47190000Y8890000D01*
%TO.N,/S3_A*%
X41275000Y8128000D02*
X40767000Y8636000D01*
X51000000Y10160000D02*
X48968000Y8128000D01*
X48968000Y8128000D02*
X41275000Y8128000D01*
%TO.N,/MISO_A*%
X40767000Y20247000D02*
X45920000Y25400000D01*
X40767000Y14097000D02*
X40767000Y20247000D01*
%TO.N,/SCK_A*%
X41656000Y18596000D02*
X45920000Y22860000D01*
X41656000Y13081000D02*
X41656000Y18596000D01*
%TO.N,/MOSI_A*%
X49733200Y18110200D02*
X49733200Y21586800D01*
X49733200Y21586800D02*
X48460000Y22860000D01*
X43434000Y11811000D02*
X49733200Y18110200D01*
%TO.N,/RESET_A*%
X42545000Y16945000D02*
X45920000Y20320000D01*
X42545000Y12446000D02*
X42545000Y16945000D01*
%TD*%
%TA.AperFunction,Conductor*%
%TO.N,GND*%
G36*
X53411675Y52888647D02*
G01*
X53428546Y52888647D01*
X53450000Y52884864D01*
X53469635Y52888326D01*
X53472167Y52888255D01*
X53738284Y52873310D01*
X53766030Y52870184D01*
X53901472Y52847172D01*
X54036919Y52824159D01*
X54064123Y52817949D01*
X54328154Y52741883D01*
X54354504Y52732663D01*
X54608355Y52627514D01*
X54633497Y52615407D01*
X54873987Y52482493D01*
X54897627Y52467639D01*
X55121710Y52308643D01*
X55143540Y52291234D01*
X55348408Y52108153D01*
X55368153Y52088408D01*
X55551234Y51883540D01*
X55568643Y51861710D01*
X55727639Y51637627D01*
X55742493Y51613987D01*
X55875407Y51373497D01*
X55887514Y51348355D01*
X55992241Y51095522D01*
X55992663Y51094504D01*
X56001883Y51068154D01*
X56077949Y50804123D01*
X56084159Y50776919D01*
X56107172Y50641472D01*
X56130184Y50506030D01*
X56133310Y50478284D01*
X56148255Y50212167D01*
X56148326Y50209635D01*
X56144864Y50190000D01*
X56148647Y50168546D01*
X56148647Y50151675D01*
X56149500Y50141924D01*
X56149500Y3238076D01*
X56148647Y3228325D01*
X56148647Y3211454D01*
X56144864Y3190000D01*
X56148326Y3170365D01*
X56148255Y3167833D01*
X56133310Y2901716D01*
X56130184Y2873970D01*
X56084160Y2603087D01*
X56077949Y2575877D01*
X56001885Y2311851D01*
X55992663Y2285496D01*
X55887514Y2031645D01*
X55875407Y2006503D01*
X55748003Y1775982D01*
X55742496Y1766017D01*
X55727639Y1742373D01*
X55568643Y1518290D01*
X55551234Y1496460D01*
X55368153Y1291592D01*
X55348408Y1271847D01*
X55143540Y1088766D01*
X55121710Y1071357D01*
X54897627Y912361D01*
X54873987Y897507D01*
X54633497Y764593D01*
X54608355Y752486D01*
X54355522Y647759D01*
X54354504Y647337D01*
X54328154Y638117D01*
X54064123Y562051D01*
X54036919Y555841D01*
X53901472Y532828D01*
X53766030Y509816D01*
X53738284Y506690D01*
X53472167Y491745D01*
X53469635Y491674D01*
X53450000Y495136D01*
X53428546Y491353D01*
X53411675Y491353D01*
X53401924Y490500D01*
X3498076Y490500D01*
X3488325Y491353D01*
X3471454Y491353D01*
X3450000Y495136D01*
X3430365Y491674D01*
X3427833Y491745D01*
X3161716Y506690D01*
X3133970Y509816D01*
X2998529Y532828D01*
X2863081Y555841D01*
X2835877Y562051D01*
X2571846Y638117D01*
X2545496Y647337D01*
X2544478Y647759D01*
X2291645Y752486D01*
X2266503Y764593D01*
X2026013Y897507D01*
X2002373Y912361D01*
X1778290Y1071357D01*
X1756460Y1088766D01*
X1551592Y1271847D01*
X1531847Y1291592D01*
X1348766Y1496460D01*
X1331357Y1518290D01*
X1241200Y1645354D01*
X3929500Y1645354D01*
X3932618Y1619154D01*
X3978061Y1516847D01*
X4057287Y1437759D01*
X4159673Y1392494D01*
X4185354Y1389500D01*
X5974646Y1389500D01*
X5981961Y1390371D01*
X5981969Y1390371D01*
X5982296Y1390410D01*
X5982299Y1390411D01*
X6000846Y1392618D01*
X6103153Y1438061D01*
X6182241Y1517287D01*
X6227506Y1619673D01*
X6230500Y1645354D01*
X6230500Y1728762D01*
X6249454Y1824050D01*
X6303430Y1904832D01*
X6384212Y1958808D01*
X6479500Y1977762D01*
X6574788Y1958808D01*
X6655570Y1904832D01*
X6682844Y1872471D01*
X6741405Y1789609D01*
X6892865Y1642063D01*
X7068677Y1524589D01*
X7136019Y1495657D01*
X7252464Y1445628D01*
X7252468Y1445627D01*
X7262953Y1441122D01*
X7469186Y1394456D01*
X7584745Y1389915D01*
X7669060Y1386602D01*
X7669064Y1386602D01*
X7680470Y1386154D01*
X7889730Y1416496D01*
X8089955Y1484463D01*
X8274442Y1587781D01*
X8283216Y1595078D01*
X8283220Y1595081D01*
X8428231Y1715685D01*
X8437012Y1722988D01*
X8572219Y1885558D01*
X8572710Y1885149D01*
X8636130Y1946932D01*
X8726368Y1982935D01*
X8823515Y1981664D01*
X8912780Y1943314D01*
X8980575Y1873723D01*
X8987387Y1862608D01*
X8992638Y1853513D01*
X9115653Y1677830D01*
X9129576Y1661236D01*
X9281239Y1509573D01*
X9297823Y1495657D01*
X9473522Y1372631D01*
X9492268Y1361808D01*
X9686657Y1271163D01*
X9707014Y1263754D01*
X9886309Y1215712D01*
X9907123Y1214348D01*
X9909011Y1218175D01*
X9910000Y1225689D01*
X9910000Y1233891D01*
X10410000Y1233891D01*
X10414069Y1213433D01*
X10418257Y1212600D01*
X10425771Y1213590D01*
X10612986Y1263754D01*
X10633343Y1271163D01*
X10827732Y1361808D01*
X10846478Y1372631D01*
X11022177Y1495657D01*
X11038761Y1509573D01*
X11190424Y1661236D01*
X11204347Y1677830D01*
X11327365Y1853518D01*
X11338195Y1872275D01*
X11428834Y2066652D01*
X11436246Y2087015D01*
X11484288Y2266309D01*
X11485652Y2287123D01*
X11481825Y2289011D01*
X11474311Y2290000D01*
X10434527Y2290000D01*
X10414069Y2285931D01*
X10410000Y2265473D01*
X10410000Y1233891D01*
X9910000Y1233891D01*
X9910000Y2814527D01*
X10410000Y2814527D01*
X10414069Y2794069D01*
X10434527Y2790000D01*
X11466109Y2790000D01*
X11486567Y2794069D01*
X11487400Y2798257D01*
X11486410Y2805771D01*
X11436246Y2992985D01*
X11428834Y3013348D01*
X11338195Y3207725D01*
X11327365Y3226482D01*
X11204347Y3402170D01*
X11190424Y3418764D01*
X11038761Y3570427D01*
X11022177Y3584343D01*
X10846478Y3707369D01*
X10827732Y3718192D01*
X10633343Y3808837D01*
X10612986Y3816246D01*
X10433691Y3864288D01*
X10412877Y3865652D01*
X10410989Y3861825D01*
X10410000Y3854311D01*
X10410000Y2814527D01*
X9910000Y2814527D01*
X9910000Y3846109D01*
X9905931Y3866567D01*
X9901743Y3867400D01*
X9894229Y3866410D01*
X9707015Y3816246D01*
X9686652Y3808834D01*
X9492275Y3718195D01*
X9473518Y3707365D01*
X9297830Y3584347D01*
X9281236Y3570424D01*
X9129576Y3418764D01*
X9115653Y3402170D01*
X8992638Y3226487D01*
X8985726Y3214515D01*
X8921667Y3141471D01*
X8834531Y3098500D01*
X8737584Y3092146D01*
X8645585Y3123376D01*
X8570574Y3190033D01*
X8551086Y3216131D01*
X8478651Y3313133D01*
X8323381Y3456663D01*
X8286632Y3479850D01*
X8154210Y3563403D01*
X8154206Y3563405D01*
X8144554Y3569495D01*
X8003750Y3625670D01*
X7958756Y3643621D01*
X7958752Y3643622D01*
X7948160Y3647848D01*
X7936975Y3650073D01*
X7936971Y3650074D01*
X7751968Y3686873D01*
X7751964Y3686873D01*
X7740775Y3689099D01*
X7624912Y3690616D01*
X7540752Y3691718D01*
X7540748Y3691718D01*
X7529346Y3691867D01*
X7418569Y3672832D01*
X7332206Y3657993D01*
X7332202Y3657992D01*
X7320953Y3656059D01*
X7310238Y3652106D01*
X7133289Y3586826D01*
X7133286Y3586824D01*
X7122575Y3582873D01*
X6940856Y3474762D01*
X6924988Y3460846D01*
X6790462Y3342871D01*
X6790458Y3342867D01*
X6781881Y3335345D01*
X6774816Y3326383D01*
X6774815Y3326382D01*
X6761944Y3310055D01*
X6677448Y3202871D01*
X6675044Y3199822D01*
X6601167Y3136725D01*
X6508768Y3106702D01*
X6411912Y3114324D01*
X6325346Y3158432D01*
X6262249Y3232309D01*
X6232226Y3324708D01*
X6230500Y3353976D01*
X6230500Y3434646D01*
X6227382Y3460846D01*
X6181939Y3563153D01*
X6102713Y3642241D01*
X6000327Y3687506D01*
X5974646Y3690500D01*
X4185354Y3690500D01*
X4178039Y3689629D01*
X4178031Y3689629D01*
X4177704Y3689590D01*
X4177701Y3689589D01*
X4159154Y3687382D01*
X4056847Y3641939D01*
X3977759Y3562713D01*
X3932494Y3460327D01*
X3929500Y3434646D01*
X3929500Y1645354D01*
X1241200Y1645354D01*
X1172361Y1742373D01*
X1157504Y1766017D01*
X1151997Y1775982D01*
X1024593Y2006503D01*
X1012486Y2031645D01*
X907337Y2285496D01*
X898115Y2311851D01*
X822051Y2575877D01*
X815840Y2603087D01*
X769816Y2873970D01*
X766690Y2901716D01*
X751745Y3167833D01*
X751674Y3170365D01*
X755136Y3190000D01*
X751353Y3211454D01*
X751353Y3228325D01*
X750500Y3238076D01*
X750500Y10489411D01*
X1501996Y10489411D01*
X1502391Y10478884D01*
X1502391Y10478880D01*
X1506455Y10370658D01*
X1510913Y10251905D01*
X1559719Y10019296D01*
X1647020Y9798237D01*
X1652488Y9789226D01*
X1652490Y9789222D01*
X1689102Y9728888D01*
X1770319Y9595047D01*
X1777230Y9587083D01*
X1777232Y9587080D01*
X1899027Y9446723D01*
X1926090Y9415536D01*
X2109880Y9264838D01*
X2316433Y9147261D01*
X2539844Y9066166D01*
X2550228Y9064288D01*
X2550229Y9064288D01*
X2765650Y9025334D01*
X2765653Y9025334D01*
X2773725Y9023874D01*
X2788336Y9023185D01*
X2795707Y9022837D01*
X2795721Y9022837D01*
X2798619Y9022700D01*
X4265680Y9022700D01*
X4348482Y9029726D01*
X4432316Y9036839D01*
X4432321Y9036840D01*
X4442823Y9037731D01*
X4453028Y9040380D01*
X4453030Y9040380D01*
X4662672Y9094792D01*
X4662673Y9094792D01*
X4672874Y9097440D01*
X4688465Y9104463D01*
X4879960Y9190725D01*
X4879963Y9190727D01*
X4889576Y9195057D01*
X5031351Y9290506D01*
X5077987Y9321903D01*
X5077991Y9321906D01*
X5086732Y9327791D01*
X5171706Y9408852D01*
X5251075Y9484566D01*
X5251077Y9484568D01*
X5258705Y9491845D01*
X5400579Y9682530D01*
X5508295Y9894393D01*
X5578775Y10121376D01*
X5610004Y10356989D01*
X5609495Y10370560D01*
X5604154Y10512802D01*
X5601087Y10594495D01*
X5552281Y10827104D01*
X5464980Y11048163D01*
X5455237Y11064220D01*
X5382914Y11183403D01*
X5341681Y11251353D01*
X5327368Y11267848D01*
X5192820Y11422901D01*
X5192819Y11422902D01*
X5185910Y11430864D01*
X5002120Y11581562D01*
X4993453Y11586496D01*
X4925831Y11655910D01*
X4889829Y11746148D01*
X4891100Y11843294D01*
X4927066Y11928027D01*
X4931118Y11932925D01*
X4943596Y11956002D01*
X5023313Y12103436D01*
X5023314Y12103439D01*
X5029103Y12114145D01*
X5059225Y12211454D01*
X5086421Y12299309D01*
X5086421Y12299311D01*
X5090023Y12310946D01*
X5111557Y12515831D01*
X5092886Y12720997D01*
X5034720Y12918628D01*
X4939274Y13101198D01*
X4810185Y13261753D01*
X4749276Y13312862D01*
X4725948Y13332437D01*
X4665137Y13408207D01*
X4637950Y13501480D01*
X4648528Y13598058D01*
X4695259Y13683236D01*
X4728624Y13716139D01*
X4799800Y13774189D01*
X4813492Y13790739D01*
X4923358Y13923545D01*
X4931118Y13932925D01*
X4937756Y13945202D01*
X5023313Y14103436D01*
X5023314Y14103439D01*
X5029103Y14114145D01*
X5090023Y14310946D01*
X5111557Y14515831D01*
X5092886Y14720997D01*
X5034720Y14918628D01*
X4939274Y15101198D01*
X4810185Y15261753D01*
X4745368Y15316141D01*
X4725948Y15332437D01*
X4665137Y15408207D01*
X4637950Y15501480D01*
X4648528Y15598058D01*
X4695259Y15683236D01*
X4728624Y15716139D01*
X4799800Y15774189D01*
X4931118Y15932925D01*
X4974486Y16013133D01*
X5023313Y16103436D01*
X5023314Y16103439D01*
X5029103Y16114145D01*
X5049196Y16179056D01*
X5086421Y16299309D01*
X5086421Y16299311D01*
X5090023Y16310946D01*
X5111557Y16515831D01*
X5092886Y16720997D01*
X5034720Y16918628D01*
X4939274Y17101198D01*
X4810185Y17261753D01*
X4794234Y17275138D01*
X4674944Y17375234D01*
X4652370Y17394176D01*
X4626974Y17408138D01*
X4482503Y17487561D01*
X4482502Y17487561D01*
X4471838Y17493424D01*
X4460244Y17497102D01*
X4460239Y17497104D01*
X4287069Y17552036D01*
X4275468Y17555716D01*
X4217867Y17562177D01*
X4122056Y17572924D01*
X4122052Y17572924D01*
X4115136Y17573700D01*
X3004159Y17573700D01*
X2998116Y17573107D01*
X2998106Y17573107D01*
X2909167Y17564386D01*
X2850970Y17558680D01*
X2653749Y17499135D01*
X2642992Y17493415D01*
X2642991Y17493415D01*
X2562799Y17450776D01*
X2471849Y17402418D01*
X2312200Y17272211D01*
X2304441Y17262832D01*
X2304440Y17262831D01*
X2277277Y17229997D01*
X2180882Y17113475D01*
X2175092Y17102766D01*
X2175091Y17102765D01*
X2149834Y17056052D01*
X2082897Y16932255D01*
X2079296Y16920622D01*
X2026094Y16748753D01*
X2021977Y16735454D01*
X2000443Y16530569D01*
X2019114Y16325403D01*
X2077280Y16127772D01*
X2172726Y15945202D01*
X2301815Y15784647D01*
X2341710Y15751171D01*
X2386052Y15713963D01*
X2446863Y15638193D01*
X2474050Y15544920D01*
X2463472Y15448342D01*
X2416741Y15363164D01*
X2383376Y15330261D01*
X2312200Y15272211D01*
X2304441Y15262832D01*
X2304440Y15262831D01*
X2246541Y15192843D01*
X2180882Y15113475D01*
X2175092Y15102766D01*
X2175091Y15102765D01*
X2103406Y14970185D01*
X2082897Y14932255D01*
X2079296Y14920622D01*
X2032685Y14770045D01*
X2021977Y14735454D01*
X2000443Y14530569D01*
X2019114Y14325403D01*
X2077280Y14127772D01*
X2172726Y13945202D01*
X2301815Y13784647D01*
X2326201Y13764185D01*
X2386052Y13713963D01*
X2446863Y13638193D01*
X2474050Y13544920D01*
X2463472Y13448342D01*
X2416741Y13363164D01*
X2383376Y13330261D01*
X2312200Y13272211D01*
X2180882Y13113475D01*
X2175092Y13102766D01*
X2175091Y13102765D01*
X2095562Y12955678D01*
X2082897Y12932255D01*
X2079296Y12920622D01*
X2029229Y12758880D01*
X2021977Y12735454D01*
X2000443Y12530569D01*
X2019114Y12325403D01*
X2077280Y12127772D01*
X2172726Y11945202D01*
X2180362Y11935704D01*
X2187026Y11925521D01*
X2184253Y11923706D01*
X2218556Y11858017D01*
X2227149Y11761242D01*
X2198053Y11668547D01*
X2135699Y11594041D01*
X2118662Y11581486D01*
X2025268Y11518609D01*
X2001757Y11496181D01*
X1861494Y11362376D01*
X1853295Y11354555D01*
X1711421Y11163870D01*
X1603705Y10952007D01*
X1595005Y10923989D01*
X1550045Y10779192D01*
X1533225Y10725024D01*
X1501996Y10489411D01*
X750500Y10489411D01*
X750500Y22689411D01*
X1501996Y22689411D01*
X1502391Y22678884D01*
X1502391Y22678880D01*
X1504133Y22632487D01*
X1510913Y22451905D01*
X1559719Y22219296D01*
X1647020Y21998237D01*
X1652488Y21989226D01*
X1652490Y21989222D01*
X1722365Y21874072D01*
X1770319Y21795047D01*
X1777230Y21787083D01*
X1777232Y21787080D01*
X1859873Y21691845D01*
X1926090Y21615536D01*
X1934242Y21608852D01*
X1941805Y21601497D01*
X1940515Y21600170D01*
X1993283Y21535930D01*
X2021526Y21442971D01*
X2014274Y21356600D01*
X2008494Y21343527D01*
X2005500Y21317846D01*
X2005500Y19728554D01*
X2008618Y19702354D01*
X2054061Y19600047D01*
X2133287Y19520959D01*
X2235673Y19475694D01*
X2261354Y19472700D01*
X4850646Y19472700D01*
X4857961Y19473571D01*
X4857969Y19473571D01*
X4858296Y19473610D01*
X4858299Y19473611D01*
X4876846Y19475818D01*
X4979153Y19521261D01*
X5058241Y19600487D01*
X5103506Y19702873D01*
X5106500Y19728554D01*
X5106500Y20720545D01*
X13078825Y20720545D01*
X13080183Y20706694D01*
X13080183Y20706691D01*
X13092776Y20578257D01*
X13095255Y20552975D01*
X13148402Y20393209D01*
X13155612Y20381304D01*
X13200754Y20306766D01*
X13235013Y20250197D01*
X13235624Y20249188D01*
X13235538Y20249136D01*
X13274902Y20169664D01*
X13283500Y20104797D01*
X13283500Y19060591D01*
X13283282Y19050164D01*
X13280790Y18990706D01*
X13287945Y18960204D01*
X13289402Y18953991D01*
X13293677Y18930922D01*
X13298794Y18893568D01*
X13305537Y18877987D01*
X13308031Y18869053D01*
X13311356Y18860392D01*
X13315232Y18843864D01*
X13323409Y18828991D01*
X13323410Y18828987D01*
X13333403Y18810810D01*
X13343721Y18789747D01*
X13347011Y18782145D01*
X13358695Y18755145D01*
X13369380Y18741950D01*
X13375172Y18732385D01*
X13381605Y18723129D01*
X13387893Y18711692D01*
X13394897Y18703578D01*
X13414884Y18683591D01*
X13432323Y18664222D01*
X13453614Y18637930D01*
X13467454Y18628094D01*
X13477359Y18618793D01*
X13492352Y18606123D01*
X15295676Y16802800D01*
X17084468Y15014008D01*
X17138444Y14933226D01*
X17156210Y14862234D01*
X17160255Y14820975D01*
X17213402Y14661209D01*
X17300013Y14518197D01*
X17300624Y14517188D01*
X17300538Y14517136D01*
X17339902Y14437664D01*
X17348500Y14372797D01*
X17348500Y11582591D01*
X17348282Y11572164D01*
X17345790Y11512706D01*
X17349666Y11496181D01*
X17354402Y11475991D01*
X17358677Y11452922D01*
X17363794Y11415568D01*
X17370537Y11399987D01*
X17373031Y11391053D01*
X17376356Y11382392D01*
X17380232Y11365864D01*
X17388409Y11350991D01*
X17388410Y11350987D01*
X17398403Y11332810D01*
X17408721Y11311747D01*
X17423695Y11277145D01*
X17434380Y11263950D01*
X17440172Y11254385D01*
X17446605Y11245129D01*
X17452893Y11233692D01*
X17459897Y11225578D01*
X17479884Y11205591D01*
X17497323Y11186222D01*
X17518614Y11159930D01*
X17532454Y11150094D01*
X17542359Y11140793D01*
X17557352Y11128123D01*
X24776570Y3908906D01*
X24830546Y3828124D01*
X24849500Y3732836D01*
X24849500Y3692892D01*
X24830546Y3597604D01*
X24776570Y3516822D01*
X24739440Y3487946D01*
X24739903Y3487309D01*
X24730669Y3480600D01*
X24720856Y3474762D01*
X24704988Y3460846D01*
X24570462Y3342871D01*
X24570458Y3342867D01*
X24561881Y3335345D01*
X24554816Y3326383D01*
X24554815Y3326382D01*
X24541944Y3310055D01*
X24430976Y3169292D01*
X24425663Y3159193D01*
X24425662Y3159192D01*
X24349622Y3014664D01*
X24288480Y2939160D01*
X24203099Y2892802D01*
X24106476Y2882647D01*
X24013322Y2910240D01*
X23937818Y2971382D01*
X23905941Y3020469D01*
X23859657Y3114324D01*
X23850217Y3133466D01*
X23850216Y3133468D01*
X23845165Y3143710D01*
X23718651Y3313133D01*
X23563381Y3456663D01*
X23526632Y3479850D01*
X23394210Y3563403D01*
X23394206Y3563405D01*
X23384554Y3569495D01*
X23243750Y3625670D01*
X23198756Y3643621D01*
X23198752Y3643622D01*
X23188160Y3647848D01*
X23176975Y3650073D01*
X23176971Y3650074D01*
X22991968Y3686873D01*
X22991964Y3686873D01*
X22980775Y3689099D01*
X22864912Y3690616D01*
X22780752Y3691718D01*
X22780748Y3691718D01*
X22769346Y3691867D01*
X22658569Y3672832D01*
X22572206Y3657993D01*
X22572202Y3657992D01*
X22560953Y3656059D01*
X22550238Y3652106D01*
X22373289Y3586826D01*
X22373286Y3586824D01*
X22362575Y3582873D01*
X22180856Y3474762D01*
X22164988Y3460846D01*
X22030462Y3342871D01*
X22030458Y3342867D01*
X22021881Y3335345D01*
X22014816Y3326383D01*
X22014815Y3326382D01*
X22001944Y3310055D01*
X21890976Y3169292D01*
X21885663Y3159193D01*
X21885662Y3159192D01*
X21809622Y3014664D01*
X21748480Y2939160D01*
X21663099Y2892802D01*
X21566476Y2882647D01*
X21473322Y2910240D01*
X21397818Y2971382D01*
X21365941Y3020469D01*
X21319657Y3114324D01*
X21310217Y3133466D01*
X21310216Y3133468D01*
X21305165Y3143710D01*
X21178651Y3313133D01*
X21023381Y3456663D01*
X20986632Y3479850D01*
X20854210Y3563403D01*
X20854206Y3563405D01*
X20844554Y3569495D01*
X20703750Y3625670D01*
X20658756Y3643621D01*
X20658752Y3643622D01*
X20648160Y3647848D01*
X20636975Y3650073D01*
X20636971Y3650074D01*
X20451968Y3686873D01*
X20451964Y3686873D01*
X20440775Y3689099D01*
X20324912Y3690616D01*
X20240752Y3691718D01*
X20240748Y3691718D01*
X20229346Y3691867D01*
X20118569Y3672832D01*
X20032206Y3657993D01*
X20032202Y3657992D01*
X20020953Y3656059D01*
X20010238Y3652106D01*
X19833289Y3586826D01*
X19833286Y3586824D01*
X19822575Y3582873D01*
X19640856Y3474762D01*
X19624988Y3460846D01*
X19490462Y3342871D01*
X19490458Y3342867D01*
X19481881Y3335345D01*
X19474816Y3326383D01*
X19474815Y3326382D01*
X19461944Y3310055D01*
X19350976Y3169292D01*
X19345663Y3159193D01*
X19345662Y3159192D01*
X19269622Y3014664D01*
X19208480Y2939160D01*
X19123099Y2892802D01*
X19026476Y2882647D01*
X18933322Y2910240D01*
X18857818Y2971382D01*
X18825941Y3020469D01*
X18779657Y3114324D01*
X18770217Y3133466D01*
X18770216Y3133468D01*
X18765165Y3143710D01*
X18638651Y3313133D01*
X18483381Y3456663D01*
X18446632Y3479850D01*
X18314210Y3563403D01*
X18314206Y3563405D01*
X18304554Y3569495D01*
X18163750Y3625670D01*
X18118756Y3643621D01*
X18118752Y3643622D01*
X18108160Y3647848D01*
X18096975Y3650073D01*
X18096971Y3650074D01*
X17911968Y3686873D01*
X17911964Y3686873D01*
X17900775Y3689099D01*
X17784912Y3690616D01*
X17700752Y3691718D01*
X17700748Y3691718D01*
X17689346Y3691867D01*
X17578569Y3672832D01*
X17492206Y3657993D01*
X17492202Y3657992D01*
X17480953Y3656059D01*
X17470238Y3652106D01*
X17293289Y3586826D01*
X17293286Y3586824D01*
X17282575Y3582873D01*
X17100856Y3474762D01*
X17084988Y3460846D01*
X16950462Y3342871D01*
X16950458Y3342867D01*
X16941881Y3335345D01*
X16934816Y3326383D01*
X16934815Y3326382D01*
X16921944Y3310055D01*
X16837448Y3202871D01*
X16835044Y3199822D01*
X16761167Y3136725D01*
X16668768Y3106702D01*
X16571912Y3114324D01*
X16485346Y3158432D01*
X16422249Y3232309D01*
X16392226Y3324708D01*
X16390500Y3353976D01*
X16390500Y3434646D01*
X16387382Y3460846D01*
X16341939Y3563153D01*
X16262713Y3642241D01*
X16160327Y3687506D01*
X16134646Y3690500D01*
X14345354Y3690500D01*
X14338039Y3689629D01*
X14338031Y3689629D01*
X14337704Y3689590D01*
X14337701Y3689589D01*
X14319154Y3687382D01*
X14216847Y3641939D01*
X14137759Y3562713D01*
X14092494Y3460327D01*
X14089500Y3434646D01*
X14089500Y1645354D01*
X14092618Y1619154D01*
X14138061Y1516847D01*
X14217287Y1437759D01*
X14319673Y1392494D01*
X14345354Y1389500D01*
X16134646Y1389500D01*
X16141961Y1390371D01*
X16141969Y1390371D01*
X16142296Y1390410D01*
X16142299Y1390411D01*
X16160846Y1392618D01*
X16263153Y1438061D01*
X16342241Y1517287D01*
X16387506Y1619673D01*
X16390500Y1645354D01*
X16390500Y1728762D01*
X16409454Y1824050D01*
X16463430Y1904832D01*
X16544212Y1958808D01*
X16639500Y1977762D01*
X16734788Y1958808D01*
X16815570Y1904832D01*
X16842844Y1872471D01*
X16901405Y1789609D01*
X17052865Y1642063D01*
X17228677Y1524589D01*
X17296019Y1495657D01*
X17412464Y1445628D01*
X17412468Y1445627D01*
X17422953Y1441122D01*
X17629186Y1394456D01*
X17744745Y1389915D01*
X17829060Y1386602D01*
X17829064Y1386602D01*
X17840470Y1386154D01*
X18049730Y1416496D01*
X18249955Y1484463D01*
X18434442Y1587781D01*
X18443216Y1595078D01*
X18443220Y1595081D01*
X18588231Y1715685D01*
X18597012Y1722988D01*
X18632799Y1766017D01*
X18724919Y1876780D01*
X18724922Y1876784D01*
X18732219Y1885558D01*
X18834883Y2068877D01*
X18897980Y2142754D01*
X18984546Y2186861D01*
X19081402Y2194483D01*
X19173802Y2164460D01*
X19247679Y2101363D01*
X19278262Y2051454D01*
X19310436Y1981664D01*
X19319369Y1962286D01*
X19325955Y1952967D01*
X19427648Y1809075D01*
X19441405Y1789609D01*
X19592865Y1642063D01*
X19768677Y1524589D01*
X19836019Y1495657D01*
X19952464Y1445628D01*
X19952468Y1445627D01*
X19962953Y1441122D01*
X20169186Y1394456D01*
X20284745Y1389915D01*
X20369060Y1386602D01*
X20369064Y1386602D01*
X20380470Y1386154D01*
X20589730Y1416496D01*
X20789955Y1484463D01*
X20974442Y1587781D01*
X20983216Y1595078D01*
X20983220Y1595081D01*
X21128231Y1715685D01*
X21137012Y1722988D01*
X21172799Y1766017D01*
X21264919Y1876780D01*
X21264922Y1876784D01*
X21272219Y1885558D01*
X21374883Y2068877D01*
X21437980Y2142754D01*
X21524546Y2186861D01*
X21621402Y2194483D01*
X21713802Y2164460D01*
X21787679Y2101363D01*
X21818262Y2051454D01*
X21850436Y1981664D01*
X21859369Y1962286D01*
X21865955Y1952967D01*
X21967648Y1809075D01*
X21981405Y1789609D01*
X22132865Y1642063D01*
X22308677Y1524589D01*
X22376019Y1495657D01*
X22492464Y1445628D01*
X22492468Y1445627D01*
X22502953Y1441122D01*
X22709186Y1394456D01*
X22824745Y1389915D01*
X22909060Y1386602D01*
X22909064Y1386602D01*
X22920470Y1386154D01*
X23129730Y1416496D01*
X23329955Y1484463D01*
X23514442Y1587781D01*
X23523216Y1595078D01*
X23523220Y1595081D01*
X23668231Y1715685D01*
X23677012Y1722988D01*
X23712799Y1766017D01*
X23804919Y1876780D01*
X23804922Y1876784D01*
X23812219Y1885558D01*
X23914883Y2068877D01*
X23977980Y2142754D01*
X24064546Y2186861D01*
X24161402Y2194483D01*
X24253802Y2164460D01*
X24327679Y2101363D01*
X24358262Y2051454D01*
X24390436Y1981664D01*
X24399369Y1962286D01*
X24405955Y1952967D01*
X24507648Y1809075D01*
X24521405Y1789609D01*
X24672865Y1642063D01*
X24848677Y1524589D01*
X24916019Y1495657D01*
X25032464Y1445628D01*
X25032468Y1445627D01*
X25042953Y1441122D01*
X25249186Y1394456D01*
X25364745Y1389915D01*
X25449060Y1386602D01*
X25449064Y1386602D01*
X25460470Y1386154D01*
X25669730Y1416496D01*
X25869955Y1484463D01*
X26054442Y1587781D01*
X26063216Y1595078D01*
X26063220Y1595081D01*
X26208231Y1715685D01*
X26217012Y1722988D01*
X26352219Y1885558D01*
X26352710Y1885149D01*
X26416130Y1946932D01*
X26506368Y1982935D01*
X26603515Y1981664D01*
X26692780Y1943314D01*
X26760575Y1873723D01*
X26767387Y1862608D01*
X26772638Y1853513D01*
X26895653Y1677830D01*
X26909576Y1661236D01*
X27061239Y1509573D01*
X27077823Y1495657D01*
X27253522Y1372631D01*
X27272268Y1361808D01*
X27466657Y1271163D01*
X27487014Y1263754D01*
X27666309Y1215712D01*
X27687123Y1214348D01*
X27689011Y1218175D01*
X27690000Y1225689D01*
X27690000Y1233891D01*
X28190000Y1233891D01*
X28194069Y1213433D01*
X28198257Y1212600D01*
X28205771Y1213590D01*
X28392986Y1263754D01*
X28413343Y1271163D01*
X28607732Y1361808D01*
X28626478Y1372631D01*
X28802177Y1495657D01*
X28818761Y1509573D01*
X28970424Y1661236D01*
X28984350Y1677833D01*
X29006032Y1708798D01*
X29076213Y1775982D01*
X29166763Y1811194D01*
X29263894Y1809075D01*
X29352821Y1769945D01*
X29413968Y1708798D01*
X29435650Y1677833D01*
X29449576Y1661236D01*
X29601239Y1509573D01*
X29617823Y1495657D01*
X29793522Y1372631D01*
X29812268Y1361808D01*
X30006657Y1271163D01*
X30027014Y1263754D01*
X30206309Y1215712D01*
X30227123Y1214348D01*
X30229011Y1218175D01*
X30230000Y1225689D01*
X30230000Y1233891D01*
X30730000Y1233891D01*
X30734069Y1213433D01*
X30738257Y1212600D01*
X30745771Y1213590D01*
X30932986Y1263754D01*
X30953343Y1271163D01*
X31147732Y1361808D01*
X31166478Y1372631D01*
X31342177Y1495657D01*
X31358761Y1509573D01*
X31510424Y1661236D01*
X31524347Y1677830D01*
X31647360Y1853510D01*
X31654697Y1866219D01*
X31718755Y1939265D01*
X31805889Y1982237D01*
X31902836Y1988593D01*
X31994836Y1957366D01*
X32067882Y1893308D01*
X32073684Y1885432D01*
X32127648Y1809075D01*
X32141405Y1789609D01*
X32292865Y1642063D01*
X32468677Y1524589D01*
X32536019Y1495657D01*
X32652464Y1445628D01*
X32652468Y1445627D01*
X32662953Y1441122D01*
X32869186Y1394456D01*
X32984745Y1389915D01*
X33069060Y1386602D01*
X33069064Y1386602D01*
X33080470Y1386154D01*
X33289730Y1416496D01*
X33489955Y1484463D01*
X33674442Y1587781D01*
X33683216Y1595078D01*
X33683220Y1595081D01*
X33828231Y1715685D01*
X33837012Y1722988D01*
X33872799Y1766017D01*
X33964919Y1876780D01*
X33964922Y1876784D01*
X33972219Y1885558D01*
X34075537Y2070045D01*
X34143504Y2270270D01*
X34173846Y2479530D01*
X34175429Y2540000D01*
X34172650Y2570246D01*
X36944967Y2570246D01*
X36958796Y2359251D01*
X36961605Y2348190D01*
X36961606Y2348185D01*
X36982613Y2265473D01*
X37010845Y2154310D01*
X37015624Y2143943D01*
X37015626Y2143938D01*
X37050230Y2068877D01*
X37099369Y1962286D01*
X37105955Y1952967D01*
X37207648Y1809075D01*
X37221405Y1789609D01*
X37372865Y1642063D01*
X37548677Y1524589D01*
X37616019Y1495657D01*
X37732464Y1445628D01*
X37732468Y1445627D01*
X37742953Y1441122D01*
X37949186Y1394456D01*
X38064745Y1389915D01*
X38149060Y1386602D01*
X38149064Y1386602D01*
X38160470Y1386154D01*
X38369730Y1416496D01*
X38569955Y1484463D01*
X38754442Y1587781D01*
X38763216Y1595078D01*
X38763220Y1595081D01*
X38908231Y1715685D01*
X38917012Y1722988D01*
X38952799Y1766017D01*
X39044919Y1876780D01*
X39044922Y1876784D01*
X39052219Y1885558D01*
X39154883Y2068877D01*
X39217980Y2142754D01*
X39304546Y2186861D01*
X39401402Y2194483D01*
X39493802Y2164460D01*
X39567679Y2101363D01*
X39598262Y2051454D01*
X39630436Y1981664D01*
X39639369Y1962286D01*
X39645955Y1952967D01*
X39747648Y1809075D01*
X39761405Y1789609D01*
X39912865Y1642063D01*
X40088677Y1524589D01*
X40156019Y1495657D01*
X40272464Y1445628D01*
X40272468Y1445627D01*
X40282953Y1441122D01*
X40489186Y1394456D01*
X40604745Y1389915D01*
X40689060Y1386602D01*
X40689064Y1386602D01*
X40700470Y1386154D01*
X40909730Y1416496D01*
X41109955Y1484463D01*
X41294442Y1587781D01*
X41303216Y1595078D01*
X41303220Y1595081D01*
X41448231Y1715685D01*
X41457012Y1722988D01*
X41492799Y1766017D01*
X41584919Y1876780D01*
X41584922Y1876784D01*
X41592219Y1885558D01*
X41694883Y2068877D01*
X41757980Y2142754D01*
X41844546Y2186861D01*
X41941402Y2194483D01*
X42033802Y2164460D01*
X42107679Y2101363D01*
X42138262Y2051454D01*
X42170436Y1981664D01*
X42179369Y1962286D01*
X42185955Y1952967D01*
X42287648Y1809075D01*
X42301405Y1789609D01*
X42452865Y1642063D01*
X42628677Y1524589D01*
X42696019Y1495657D01*
X42812464Y1445628D01*
X42812468Y1445627D01*
X42822953Y1441122D01*
X43029186Y1394456D01*
X43144745Y1389915D01*
X43229060Y1386602D01*
X43229064Y1386602D01*
X43240470Y1386154D01*
X43449730Y1416496D01*
X43649955Y1484463D01*
X43834442Y1587781D01*
X43843216Y1595078D01*
X43843220Y1595081D01*
X43988231Y1715685D01*
X43997012Y1722988D01*
X44032799Y1766017D01*
X44124919Y1876780D01*
X44124922Y1876784D01*
X44132219Y1885558D01*
X44234883Y2068877D01*
X44297980Y2142754D01*
X44384546Y2186861D01*
X44481402Y2194483D01*
X44573802Y2164460D01*
X44647679Y2101363D01*
X44678262Y2051454D01*
X44710436Y1981664D01*
X44719369Y1962286D01*
X44725955Y1952967D01*
X44827648Y1809075D01*
X44841405Y1789609D01*
X44992865Y1642063D01*
X45168677Y1524589D01*
X45236019Y1495657D01*
X45352464Y1445628D01*
X45352468Y1445627D01*
X45362953Y1441122D01*
X45569186Y1394456D01*
X45684745Y1389915D01*
X45769060Y1386602D01*
X45769064Y1386602D01*
X45780470Y1386154D01*
X45989730Y1416496D01*
X46189955Y1484463D01*
X46374442Y1587781D01*
X46383216Y1595078D01*
X46383220Y1595081D01*
X46528231Y1715685D01*
X46537012Y1722988D01*
X46572799Y1766017D01*
X46664919Y1876780D01*
X46664922Y1876784D01*
X46672219Y1885558D01*
X46774883Y2068877D01*
X46837980Y2142754D01*
X46924546Y2186861D01*
X47021402Y2194483D01*
X47113802Y2164460D01*
X47187679Y2101363D01*
X47218262Y2051454D01*
X47250436Y1981664D01*
X47259369Y1962286D01*
X47265955Y1952967D01*
X47367648Y1809075D01*
X47381405Y1789609D01*
X47532865Y1642063D01*
X47708677Y1524589D01*
X47776019Y1495657D01*
X47892464Y1445628D01*
X47892468Y1445627D01*
X47902953Y1441122D01*
X48109186Y1394456D01*
X48224745Y1389915D01*
X48309060Y1386602D01*
X48309064Y1386602D01*
X48320470Y1386154D01*
X48529730Y1416496D01*
X48729955Y1484463D01*
X48914442Y1587781D01*
X48923216Y1595078D01*
X48923220Y1595081D01*
X49068231Y1715685D01*
X49077012Y1722988D01*
X49202376Y1873723D01*
X49209058Y1881757D01*
X49284561Y1942899D01*
X49377715Y1970492D01*
X49474338Y1960337D01*
X49559720Y1913979D01*
X49620862Y1838476D01*
X49648455Y1745322D01*
X49649500Y1722537D01*
X49649500Y1645354D01*
X49652618Y1619154D01*
X49698061Y1516847D01*
X49777287Y1437759D01*
X49879673Y1392494D01*
X49905354Y1389500D01*
X51694646Y1389500D01*
X51701961Y1390371D01*
X51701969Y1390371D01*
X51702296Y1390410D01*
X51702299Y1390411D01*
X51720846Y1392618D01*
X51823153Y1438061D01*
X51902241Y1517287D01*
X51947506Y1619673D01*
X51950500Y1645354D01*
X51950500Y3434646D01*
X51947382Y3460846D01*
X51901939Y3563153D01*
X51822713Y3642241D01*
X51720327Y3687506D01*
X51694646Y3690500D01*
X49905354Y3690500D01*
X49898039Y3689629D01*
X49898031Y3689629D01*
X49897704Y3689590D01*
X49897701Y3689589D01*
X49879154Y3687382D01*
X49776847Y3641939D01*
X49697759Y3562713D01*
X49652494Y3460327D01*
X49649500Y3434646D01*
X49649500Y3351853D01*
X49630546Y3256565D01*
X49576570Y3175783D01*
X49495788Y3121807D01*
X49400500Y3102853D01*
X49305212Y3121807D01*
X49224430Y3175783D01*
X49200988Y3202871D01*
X49125483Y3303985D01*
X49125478Y3303991D01*
X49118651Y3313133D01*
X48963381Y3456663D01*
X48926632Y3479850D01*
X48794210Y3563403D01*
X48794206Y3563405D01*
X48784554Y3569495D01*
X48643750Y3625670D01*
X48598756Y3643621D01*
X48598752Y3643622D01*
X48588160Y3647848D01*
X48576975Y3650073D01*
X48576971Y3650074D01*
X48391968Y3686873D01*
X48391964Y3686873D01*
X48380775Y3689099D01*
X48264912Y3690616D01*
X48180752Y3691718D01*
X48180748Y3691718D01*
X48169346Y3691867D01*
X48058569Y3672832D01*
X47972206Y3657993D01*
X47972202Y3657992D01*
X47960953Y3656059D01*
X47950238Y3652106D01*
X47773289Y3586826D01*
X47773286Y3586824D01*
X47762575Y3582873D01*
X47580856Y3474762D01*
X47564988Y3460846D01*
X47430462Y3342871D01*
X47430458Y3342867D01*
X47421881Y3335345D01*
X47414816Y3326383D01*
X47414815Y3326382D01*
X47401944Y3310055D01*
X47290976Y3169292D01*
X47285663Y3159193D01*
X47285662Y3159192D01*
X47209622Y3014664D01*
X47148480Y2939160D01*
X47063099Y2892802D01*
X46966476Y2882647D01*
X46873322Y2910240D01*
X46797818Y2971382D01*
X46765941Y3020469D01*
X46719657Y3114324D01*
X46710217Y3133466D01*
X46710216Y3133468D01*
X46705165Y3143710D01*
X46578651Y3313133D01*
X46423381Y3456663D01*
X46386632Y3479850D01*
X46254210Y3563403D01*
X46254206Y3563405D01*
X46244554Y3569495D01*
X46103750Y3625670D01*
X46058756Y3643621D01*
X46058752Y3643622D01*
X46048160Y3647848D01*
X46036975Y3650073D01*
X46036971Y3650074D01*
X45851968Y3686873D01*
X45851964Y3686873D01*
X45840775Y3689099D01*
X45724912Y3690616D01*
X45640752Y3691718D01*
X45640748Y3691718D01*
X45629346Y3691867D01*
X45518569Y3672832D01*
X45432206Y3657993D01*
X45432202Y3657992D01*
X45420953Y3656059D01*
X45410238Y3652106D01*
X45233289Y3586826D01*
X45233286Y3586824D01*
X45222575Y3582873D01*
X45040856Y3474762D01*
X45024988Y3460846D01*
X44890462Y3342871D01*
X44890458Y3342867D01*
X44881881Y3335345D01*
X44874816Y3326383D01*
X44874815Y3326382D01*
X44861944Y3310055D01*
X44750976Y3169292D01*
X44745663Y3159193D01*
X44745662Y3159192D01*
X44669622Y3014664D01*
X44608480Y2939160D01*
X44523099Y2892802D01*
X44426476Y2882647D01*
X44333322Y2910240D01*
X44257818Y2971382D01*
X44225941Y3020469D01*
X44179657Y3114324D01*
X44170217Y3133466D01*
X44170216Y3133468D01*
X44165165Y3143710D01*
X44038651Y3313133D01*
X43883381Y3456663D01*
X43846632Y3479850D01*
X43714210Y3563403D01*
X43714206Y3563405D01*
X43704554Y3569495D01*
X43563750Y3625670D01*
X43518756Y3643621D01*
X43518752Y3643622D01*
X43508160Y3647848D01*
X43496975Y3650073D01*
X43496971Y3650074D01*
X43311968Y3686873D01*
X43311964Y3686873D01*
X43300775Y3689099D01*
X43184912Y3690616D01*
X43100752Y3691718D01*
X43100748Y3691718D01*
X43089346Y3691867D01*
X42978569Y3672832D01*
X42892206Y3657993D01*
X42892202Y3657992D01*
X42880953Y3656059D01*
X42870238Y3652106D01*
X42693289Y3586826D01*
X42693286Y3586824D01*
X42682575Y3582873D01*
X42500856Y3474762D01*
X42484988Y3460846D01*
X42350462Y3342871D01*
X42350458Y3342867D01*
X42341881Y3335345D01*
X42334816Y3326383D01*
X42334815Y3326382D01*
X42321944Y3310055D01*
X42210976Y3169292D01*
X42205663Y3159193D01*
X42205662Y3159192D01*
X42129622Y3014664D01*
X42068480Y2939160D01*
X41983099Y2892802D01*
X41886476Y2882647D01*
X41793322Y2910240D01*
X41717818Y2971382D01*
X41685941Y3020469D01*
X41639657Y3114324D01*
X41630217Y3133466D01*
X41630216Y3133468D01*
X41625165Y3143710D01*
X41498651Y3313133D01*
X41343381Y3456663D01*
X41306632Y3479850D01*
X41174210Y3563403D01*
X41174206Y3563405D01*
X41164554Y3569495D01*
X41023750Y3625670D01*
X40978756Y3643621D01*
X40978752Y3643622D01*
X40968160Y3647848D01*
X40956975Y3650073D01*
X40956971Y3650074D01*
X40771968Y3686873D01*
X40771964Y3686873D01*
X40760775Y3689099D01*
X40644912Y3690616D01*
X40560752Y3691718D01*
X40560748Y3691718D01*
X40549346Y3691867D01*
X40438569Y3672832D01*
X40352206Y3657993D01*
X40352202Y3657992D01*
X40340953Y3656059D01*
X40330238Y3652106D01*
X40153289Y3586826D01*
X40153286Y3586824D01*
X40142575Y3582873D01*
X39960856Y3474762D01*
X39944988Y3460846D01*
X39810462Y3342871D01*
X39810458Y3342867D01*
X39801881Y3335345D01*
X39794816Y3326383D01*
X39794815Y3326382D01*
X39781944Y3310055D01*
X39670976Y3169292D01*
X39665663Y3159193D01*
X39665662Y3159192D01*
X39589622Y3014664D01*
X39528480Y2939160D01*
X39443099Y2892802D01*
X39346476Y2882647D01*
X39253322Y2910240D01*
X39177818Y2971382D01*
X39145941Y3020469D01*
X39099657Y3114324D01*
X39090217Y3133466D01*
X39090216Y3133468D01*
X39085165Y3143710D01*
X38958651Y3313133D01*
X38803381Y3456663D01*
X38766632Y3479850D01*
X38634210Y3563403D01*
X38634206Y3563405D01*
X38624554Y3569495D01*
X38483750Y3625670D01*
X38438756Y3643621D01*
X38438752Y3643622D01*
X38428160Y3647848D01*
X38416975Y3650073D01*
X38416971Y3650074D01*
X38231968Y3686873D01*
X38231964Y3686873D01*
X38220775Y3689099D01*
X38104912Y3690616D01*
X38020752Y3691718D01*
X38020748Y3691718D01*
X38009346Y3691867D01*
X37898569Y3672832D01*
X37812206Y3657993D01*
X37812202Y3657992D01*
X37800953Y3656059D01*
X37790238Y3652106D01*
X37613289Y3586826D01*
X37613286Y3586824D01*
X37602575Y3582873D01*
X37420856Y3474762D01*
X37404988Y3460846D01*
X37270462Y3342871D01*
X37270458Y3342867D01*
X37261881Y3335345D01*
X37254816Y3326383D01*
X37254815Y3326382D01*
X37241944Y3310055D01*
X37130976Y3169292D01*
X37032523Y2982164D01*
X36969820Y2780227D01*
X36944967Y2570246D01*
X34172650Y2570246D01*
X34156081Y2750560D01*
X34098686Y2954069D01*
X34005165Y3143710D01*
X33878651Y3313133D01*
X33723381Y3456663D01*
X33686632Y3479850D01*
X33554210Y3563403D01*
X33554206Y3563405D01*
X33544554Y3569495D01*
X33403750Y3625670D01*
X33358756Y3643621D01*
X33358752Y3643622D01*
X33348160Y3647848D01*
X33336975Y3650073D01*
X33336971Y3650074D01*
X33151968Y3686873D01*
X33151964Y3686873D01*
X33140775Y3689099D01*
X33024912Y3690616D01*
X32940752Y3691718D01*
X32940748Y3691718D01*
X32929346Y3691867D01*
X32818569Y3672832D01*
X32732206Y3657993D01*
X32732202Y3657992D01*
X32720953Y3656059D01*
X32710238Y3652106D01*
X32533289Y3586826D01*
X32533286Y3586824D01*
X32522575Y3582873D01*
X32340856Y3474762D01*
X32324988Y3460846D01*
X32190462Y3342871D01*
X32190458Y3342867D01*
X32181881Y3335345D01*
X32064523Y3186477D01*
X31990649Y3123381D01*
X31898249Y3093358D01*
X31801394Y3100980D01*
X31714828Y3145087D01*
X31653341Y3216131D01*
X31647362Y3226487D01*
X31524347Y3402170D01*
X31510424Y3418764D01*
X31358761Y3570427D01*
X31342177Y3584343D01*
X31166478Y3707369D01*
X31147732Y3718192D01*
X30953343Y3808837D01*
X30932986Y3816246D01*
X30753691Y3864288D01*
X30732877Y3865652D01*
X30730989Y3861825D01*
X30730000Y3854311D01*
X30730000Y1233891D01*
X30230000Y1233891D01*
X30230000Y2265473D01*
X30225931Y2285931D01*
X30205473Y2290000D01*
X28214527Y2290000D01*
X28194069Y2285931D01*
X28190000Y2265473D01*
X28190000Y1233891D01*
X27690000Y1233891D01*
X27690000Y2814527D01*
X28190000Y2814527D01*
X28194069Y2794069D01*
X28214527Y2790000D01*
X30205473Y2790000D01*
X30225931Y2794069D01*
X30230000Y2814527D01*
X30230000Y3846109D01*
X30225931Y3866567D01*
X30221743Y3867400D01*
X30214229Y3866410D01*
X30027015Y3816246D01*
X30006652Y3808834D01*
X29812275Y3718195D01*
X29793518Y3707365D01*
X29617830Y3584347D01*
X29601236Y3570424D01*
X29449576Y3418764D01*
X29435650Y3402167D01*
X29413968Y3371202D01*
X29343787Y3304018D01*
X29253237Y3268806D01*
X29156106Y3270925D01*
X29067179Y3310055D01*
X29006032Y3371202D01*
X28984350Y3402167D01*
X28970424Y3418764D01*
X28818761Y3570427D01*
X28802177Y3584343D01*
X28626478Y3707369D01*
X28607732Y3718192D01*
X28413343Y3808837D01*
X28392986Y3816246D01*
X28213691Y3864288D01*
X28192877Y3865652D01*
X28190989Y3861825D01*
X28190000Y3854311D01*
X28190000Y2814527D01*
X27690000Y2814527D01*
X27690000Y3846109D01*
X27685931Y3866567D01*
X27681743Y3867400D01*
X27674229Y3866410D01*
X27487015Y3816246D01*
X27466652Y3808834D01*
X27272275Y3718195D01*
X27253518Y3707365D01*
X27077830Y3584347D01*
X27061236Y3570424D01*
X26909576Y3418764D01*
X26895653Y3402170D01*
X26772638Y3226487D01*
X26765726Y3214515D01*
X26701667Y3141471D01*
X26614531Y3098500D01*
X26517584Y3092146D01*
X26425585Y3123376D01*
X26350574Y3190033D01*
X26331086Y3216131D01*
X26258651Y3313133D01*
X26103381Y3456663D01*
X26066629Y3479852D01*
X25996157Y3546727D01*
X25956640Y3635483D01*
X25950500Y3690437D01*
X25950500Y4046409D01*
X25950718Y4056836D01*
X25952499Y4099334D01*
X25953210Y4116294D01*
X25944596Y4153017D01*
X25940323Y4176078D01*
X25937510Y4196611D01*
X25935206Y4213432D01*
X25928463Y4229013D01*
X25925969Y4237947D01*
X25922644Y4246608D01*
X25918768Y4263136D01*
X25910591Y4278009D01*
X25910590Y4278013D01*
X25900597Y4296190D01*
X25890279Y4317253D01*
X25882049Y4336270D01*
X25875305Y4351855D01*
X25864620Y4365050D01*
X25858828Y4374615D01*
X25852395Y4383871D01*
X25846107Y4395308D01*
X25839103Y4403422D01*
X25819116Y4423409D01*
X25801677Y4442778D01*
X25791071Y4455875D01*
X25780386Y4469070D01*
X25766546Y4478906D01*
X25756641Y4488207D01*
X25741648Y4500877D01*
X23878208Y6364317D01*
X30978662Y6364317D01*
X30979681Y6352181D01*
X30979681Y6352180D01*
X30979767Y6351163D01*
X30995408Y6164889D01*
X30998763Y6153188D01*
X30998764Y6153184D01*
X31019106Y6082246D01*
X31050572Y5972511D01*
X31056138Y5961681D01*
X31056139Y5961678D01*
X31076365Y5922323D01*
X31142051Y5794512D01*
X31266362Y5637671D01*
X31418769Y5507962D01*
X31593467Y5410327D01*
X31688634Y5379405D01*
X31772220Y5352246D01*
X31772222Y5352245D01*
X31783802Y5348483D01*
X31982525Y5324787D01*
X31994664Y5325721D01*
X31994666Y5325721D01*
X32169920Y5339206D01*
X32169925Y5339207D01*
X32182065Y5340141D01*
X32278445Y5367051D01*
X32363095Y5390685D01*
X32363097Y5390686D01*
X32374824Y5393960D01*
X32553457Y5484194D01*
X32711162Y5607407D01*
X32788719Y5697258D01*
X32833973Y5749684D01*
X32833975Y5749687D01*
X32841931Y5758904D01*
X32940784Y5932917D01*
X33003955Y6122816D01*
X33029038Y6321368D01*
X33029438Y6350000D01*
X33009909Y6549175D01*
X32952065Y6740764D01*
X32858109Y6917469D01*
X32826044Y6956785D01*
X32739319Y7063121D01*
X32739316Y7063124D01*
X32731621Y7072559D01*
X32577418Y7200127D01*
X32552330Y7213692D01*
X32412082Y7289524D01*
X32412079Y7289525D01*
X32401373Y7295314D01*
X32372638Y7304209D01*
X32221830Y7350892D01*
X32221828Y7350892D01*
X32210193Y7354494D01*
X32011159Y7375413D01*
X31811852Y7357275D01*
X31619864Y7300770D01*
X31609068Y7295126D01*
X31598353Y7289524D01*
X31442508Y7208050D01*
X31286539Y7082647D01*
X31278711Y7073318D01*
X31278710Y7073317D01*
X31269998Y7062935D01*
X31157897Y6929339D01*
X31152032Y6918670D01*
X31152029Y6918666D01*
X31105169Y6833427D01*
X31061484Y6753963D01*
X31000970Y6563201D01*
X30978662Y6364317D01*
X23878208Y6364317D01*
X21338207Y8904317D01*
X28438662Y8904317D01*
X28439681Y8892181D01*
X28439681Y8892180D01*
X28453114Y8732212D01*
X28455408Y8704889D01*
X28458763Y8693188D01*
X28458764Y8693184D01*
X28471025Y8650427D01*
X28510572Y8512511D01*
X28516138Y8501681D01*
X28516139Y8501678D01*
X28536365Y8462323D01*
X28602051Y8334512D01*
X28609621Y8324961D01*
X28653157Y8270033D01*
X28726362Y8177671D01*
X28878769Y8047962D01*
X29053467Y7950327D01*
X29148635Y7919405D01*
X29232220Y7892246D01*
X29232222Y7892245D01*
X29243802Y7888483D01*
X29442525Y7864787D01*
X29454664Y7865721D01*
X29454666Y7865721D01*
X29629920Y7879206D01*
X29629925Y7879207D01*
X29642065Y7880141D01*
X29768715Y7915502D01*
X29823095Y7930685D01*
X29823097Y7930686D01*
X29834824Y7933960D01*
X30013457Y8024194D01*
X30026097Y8034069D01*
X30161564Y8139908D01*
X30161565Y8139909D01*
X30171162Y8147407D01*
X30292282Y8287725D01*
X30293973Y8289684D01*
X30293975Y8289687D01*
X30301931Y8298904D01*
X30400784Y8472917D01*
X30463955Y8662816D01*
X30489038Y8861368D01*
X30489438Y8890000D01*
X30469909Y9089175D01*
X30412065Y9280764D01*
X30343557Y9409609D01*
X30323823Y9446723D01*
X30323822Y9446725D01*
X30318109Y9457469D01*
X30278889Y9505558D01*
X30199319Y9603121D01*
X30199316Y9603124D01*
X30191621Y9612559D01*
X30122156Y9670026D01*
X30060100Y9721363D01*
X30037418Y9740127D01*
X29913996Y9806861D01*
X29872082Y9829524D01*
X29872079Y9829525D01*
X29861373Y9835314D01*
X29786051Y9858630D01*
X29681830Y9890892D01*
X29681828Y9890892D01*
X29670193Y9894494D01*
X29471159Y9915413D01*
X29271852Y9897275D01*
X29079864Y9840770D01*
X29069068Y9835126D01*
X28972154Y9784460D01*
X28902508Y9748050D01*
X28746539Y9622647D01*
X28738711Y9613318D01*
X28738710Y9613317D01*
X28723380Y9595047D01*
X28617897Y9469339D01*
X28612032Y9458670D01*
X28612029Y9458666D01*
X28566054Y9375036D01*
X28521484Y9293963D01*
X28460970Y9103201D01*
X28438662Y8904317D01*
X21338207Y8904317D01*
X18798207Y11444317D01*
X30978662Y11444317D01*
X30979681Y11432181D01*
X30979681Y11432180D01*
X30992791Y11276059D01*
X30995408Y11244889D01*
X30998763Y11233188D01*
X30998764Y11233184D01*
X31011292Y11189495D01*
X31050572Y11052511D01*
X31056138Y11041681D01*
X31056139Y11041678D01*
X31093708Y10968578D01*
X31142051Y10874512D01*
X31149621Y10864961D01*
X31252549Y10735099D01*
X31266362Y10717671D01*
X31275634Y10709780D01*
X31363895Y10634664D01*
X31418769Y10587962D01*
X31593467Y10490327D01*
X31688634Y10459405D01*
X31772220Y10432246D01*
X31772222Y10432245D01*
X31783802Y10428483D01*
X31982525Y10404787D01*
X31994664Y10405721D01*
X31994666Y10405721D01*
X32169920Y10419206D01*
X32169925Y10419207D01*
X32182065Y10420141D01*
X32278445Y10447051D01*
X32363095Y10470685D01*
X32363097Y10470686D01*
X32374824Y10473960D01*
X32553457Y10564194D01*
X32566097Y10574069D01*
X32701564Y10679908D01*
X32701565Y10679909D01*
X32711162Y10687407D01*
X32822843Y10816790D01*
X32833973Y10829684D01*
X32833975Y10829687D01*
X32841931Y10838904D01*
X32940784Y11012917D01*
X33003955Y11202816D01*
X33029038Y11401368D01*
X33029438Y11430000D01*
X33009909Y11629175D01*
X32952065Y11820764D01*
X32883557Y11949609D01*
X32863823Y11986723D01*
X32863822Y11986725D01*
X32858109Y11997469D01*
X32818889Y12045558D01*
X32739319Y12143121D01*
X32739316Y12143124D01*
X32731621Y12152559D01*
X32662156Y12210026D01*
X32600100Y12261363D01*
X32577418Y12280127D01*
X32535570Y12302754D01*
X32412082Y12369524D01*
X32412079Y12369525D01*
X32401373Y12375314D01*
X32326051Y12398630D01*
X32221830Y12430892D01*
X32221828Y12430892D01*
X32210193Y12434494D01*
X32011159Y12455413D01*
X31811852Y12437275D01*
X31619864Y12380770D01*
X31609068Y12375126D01*
X31509476Y12323060D01*
X31442508Y12288050D01*
X31286539Y12162647D01*
X31278711Y12153318D01*
X31278710Y12153317D01*
X31267317Y12139739D01*
X31157897Y12009339D01*
X31152032Y11998670D01*
X31152029Y11998666D01*
X31115888Y11932925D01*
X31061484Y11833963D01*
X31000970Y11643201D01*
X30978662Y11444317D01*
X18798207Y11444317D01*
X18522430Y11720094D01*
X18468454Y11800876D01*
X18449500Y11896164D01*
X18449500Y14375133D01*
X18468454Y14470421D01*
X18491103Y14512928D01*
X18501849Y14529101D01*
X18539359Y14585558D01*
X18563029Y14621184D01*
X18563030Y14621187D01*
X18570731Y14632777D01*
X18614634Y14748353D01*
X31284282Y14748353D01*
X31289342Y14740781D01*
X31342614Y14703479D01*
X31361366Y14692652D01*
X31547823Y14605706D01*
X31568180Y14598297D01*
X31766894Y14545052D01*
X31788220Y14541291D01*
X31993176Y14523360D01*
X32014824Y14523360D01*
X32219780Y14541291D01*
X32241106Y14545052D01*
X32439820Y14598297D01*
X32460177Y14605706D01*
X32646634Y14692652D01*
X32665386Y14703479D01*
X32709382Y14734286D01*
X32723805Y14749353D01*
X32720138Y14757687D01*
X32021342Y15456484D01*
X32004000Y15468071D01*
X31986658Y15456484D01*
X31295870Y14765695D01*
X31284282Y14748353D01*
X18614634Y14748353D01*
X18630521Y14790177D01*
X18653955Y14956912D01*
X18654249Y14978000D01*
X18635481Y15145324D01*
X18580108Y15304332D01*
X18523968Y15394176D01*
X18498263Y15435313D01*
X18498260Y15435316D01*
X18490884Y15447121D01*
X18481074Y15457000D01*
X18382051Y15556717D01*
X18382048Y15556720D01*
X18372242Y15566594D01*
X18230079Y15656813D01*
X18071462Y15713294D01*
X18010352Y15720581D01*
X17917980Y15750684D01*
X17863766Y15791759D01*
X17838970Y15816555D01*
X30699981Y15816555D01*
X30717912Y15611599D01*
X30721673Y15590273D01*
X30774918Y15391559D01*
X30782327Y15371202D01*
X30869273Y15184745D01*
X30880100Y15165993D01*
X30910907Y15121997D01*
X30925974Y15107574D01*
X30934308Y15111241D01*
X31633105Y15810037D01*
X31644692Y15827379D01*
X32363308Y15827379D01*
X32374895Y15810037D01*
X33065684Y15119249D01*
X33083026Y15107661D01*
X33090598Y15112721D01*
X33127900Y15165993D01*
X33138727Y15184745D01*
X33225673Y15371202D01*
X33233082Y15391559D01*
X33286327Y15590273D01*
X33290088Y15611599D01*
X33308019Y15816555D01*
X33308019Y15838203D01*
X33290088Y16043159D01*
X33286327Y16064485D01*
X33233082Y16263199D01*
X33225673Y16283556D01*
X33138727Y16470013D01*
X33127900Y16488765D01*
X33097093Y16532761D01*
X33082026Y16547184D01*
X33073692Y16543517D01*
X32374895Y15844721D01*
X32363308Y15827379D01*
X31644692Y15827379D01*
X31633105Y15844721D01*
X30942316Y16535509D01*
X30924974Y16547097D01*
X30917402Y16542037D01*
X30880100Y16488765D01*
X30869273Y16470013D01*
X30782327Y16283556D01*
X30774918Y16263199D01*
X30721673Y16064485D01*
X30717912Y16043159D01*
X30699981Y15838203D01*
X30699981Y15816555D01*
X17838970Y15816555D01*
X16172792Y17482733D01*
X30903500Y17482733D01*
X30906618Y17456533D01*
X30952061Y17354226D01*
X31031287Y17275138D01*
X31119268Y17236241D01*
X31119275Y17236238D01*
X31133673Y17229873D01*
X31133378Y17229207D01*
X31204179Y17193907D01*
X31267918Y17120583D01*
X31298746Y17028449D01*
X31291969Y16931530D01*
X31283807Y16906779D01*
X31283705Y16906517D01*
X31287862Y16897071D01*
X31986658Y16198274D01*
X32004000Y16186687D01*
X32021342Y16198274D01*
X32712130Y16889063D01*
X32724393Y16907416D01*
X32716013Y16949544D01*
X32716012Y17046699D01*
X32753192Y17136458D01*
X32821890Y17205157D01*
X32875082Y17229465D01*
X32874846Y17229997D01*
X32977153Y17275440D01*
X33056241Y17354666D01*
X33101506Y17457052D01*
X33104500Y17482733D01*
X33104500Y19172025D01*
X33103611Y19179500D01*
X33103590Y19179675D01*
X33103589Y19179678D01*
X33101382Y19198225D01*
X33055939Y19300532D01*
X32976713Y19379620D01*
X32874327Y19424885D01*
X32848646Y19427879D01*
X31159354Y19427879D01*
X31152039Y19427008D01*
X31152031Y19427008D01*
X31151704Y19426969D01*
X31151701Y19426968D01*
X31133154Y19424761D01*
X31030847Y19379318D01*
X30951759Y19300092D01*
X30934385Y19260793D01*
X30916206Y19219673D01*
X30906494Y19197706D01*
X30903500Y19172025D01*
X30903500Y17482733D01*
X16172792Y17482733D01*
X16162101Y17493424D01*
X14457430Y19198094D01*
X14403454Y19278876D01*
X14384500Y19374164D01*
X14384500Y20107133D01*
X14403454Y20202421D01*
X14426103Y20244928D01*
X14433796Y20256506D01*
X14444560Y20272708D01*
X14498029Y20353184D01*
X14498030Y20353187D01*
X14505731Y20364777D01*
X14565521Y20522177D01*
X14588955Y20688912D01*
X14589249Y20710000D01*
X14570481Y20877324D01*
X14515108Y21036332D01*
X14474774Y21100881D01*
X14433263Y21167313D01*
X14433260Y21167316D01*
X14425884Y21179121D01*
X14406378Y21198764D01*
X14317051Y21288717D01*
X14317048Y21288720D01*
X14307242Y21298594D01*
X14165079Y21388813D01*
X14006462Y21445294D01*
X13992636Y21446943D01*
X13992635Y21446943D01*
X13937975Y21453461D01*
X13839273Y21465231D01*
X13825430Y21463776D01*
X13825427Y21463776D01*
X13766580Y21457591D01*
X13671821Y21447631D01*
X13512431Y21393370D01*
X13369022Y21305144D01*
X13359078Y21295406D01*
X13359074Y21295403D01*
X13260391Y21198764D01*
X13248724Y21187339D01*
X13157515Y21045810D01*
X13099927Y20887591D01*
X13078825Y20720545D01*
X5106500Y20720545D01*
X5106500Y21317846D01*
X5103382Y21344046D01*
X5096902Y21358634D01*
X5090074Y21453461D01*
X5120711Y21545659D01*
X5165275Y21602717D01*
X5251075Y21684566D01*
X5251077Y21684568D01*
X5258705Y21691845D01*
X5400579Y21882530D01*
X5508295Y22094393D01*
X5563744Y22272967D01*
X5575647Y22311301D01*
X5575648Y22311305D01*
X5578775Y22321376D01*
X5610004Y22556989D01*
X5608755Y22590270D01*
X5601482Y22783964D01*
X5601087Y22794495D01*
X5552281Y23027104D01*
X5464980Y23248163D01*
X5455930Y23263078D01*
X5347153Y23442335D01*
X5341681Y23451353D01*
X5330959Y23463710D01*
X5192820Y23622901D01*
X5192819Y23622902D01*
X5185910Y23630864D01*
X5002120Y23781562D01*
X4795567Y23899139D01*
X4572156Y23980234D01*
X4561772Y23982112D01*
X4561771Y23982112D01*
X4346350Y24021066D01*
X4346347Y24021066D01*
X4338275Y24022526D01*
X4323664Y24023215D01*
X4316293Y24023563D01*
X4316279Y24023563D01*
X4313381Y24023700D01*
X2846320Y24023700D01*
X2763518Y24016674D01*
X2679684Y24009561D01*
X2679679Y24009560D01*
X2669177Y24008669D01*
X2658972Y24006020D01*
X2658970Y24006020D01*
X2511899Y23967848D01*
X2439126Y23948960D01*
X2429519Y23944632D01*
X2429518Y23944632D01*
X2232040Y23855675D01*
X2232037Y23855673D01*
X2222424Y23851343D01*
X2213670Y23845450D01*
X2213671Y23845450D01*
X2034013Y23724497D01*
X2034009Y23724494D01*
X2025268Y23718609D01*
X2017644Y23711336D01*
X1926081Y23623989D01*
X1853295Y23554555D01*
X1711421Y23363870D01*
X1603705Y23152007D01*
X1581827Y23081548D01*
X1540397Y22948121D01*
X1533225Y22925024D01*
X1501996Y22689411D01*
X750500Y22689411D01*
X750500Y30809411D01*
X1501996Y30809411D01*
X1502391Y30798884D01*
X1502391Y30798880D01*
X1502985Y30783070D01*
X1510913Y30571905D01*
X1559719Y30339296D01*
X1647020Y30118237D01*
X1652488Y30109226D01*
X1652490Y30109222D01*
X1711530Y30011928D01*
X1770319Y29915047D01*
X1777230Y29907083D01*
X1777232Y29907080D01*
X1859873Y29811845D01*
X1926090Y29735536D01*
X2109880Y29584838D01*
X2316433Y29467261D01*
X2539844Y29386166D01*
X2550228Y29384288D01*
X2550229Y29384288D01*
X2765650Y29345334D01*
X2765653Y29345334D01*
X2773725Y29343874D01*
X2788336Y29343185D01*
X2795707Y29342837D01*
X2795721Y29342837D01*
X2798619Y29342700D01*
X4265680Y29342700D01*
X4348482Y29349726D01*
X4432316Y29356839D01*
X4432321Y29356840D01*
X4442823Y29357731D01*
X4453028Y29360380D01*
X4453030Y29360380D01*
X4662672Y29414792D01*
X4662673Y29414792D01*
X4672874Y29417440D01*
X4682482Y29421768D01*
X4879960Y29510725D01*
X4879963Y29510727D01*
X4889576Y29515057D01*
X4928878Y29541517D01*
X5077987Y29641903D01*
X5077991Y29641906D01*
X5086732Y29647791D01*
X5211814Y29767113D01*
X5251075Y29804566D01*
X5251077Y29804568D01*
X5258705Y29811845D01*
X5400579Y30002530D01*
X5508295Y30214393D01*
X5571548Y30418101D01*
X5575647Y30431301D01*
X5575648Y30431305D01*
X5578775Y30441376D01*
X5610004Y30676989D01*
X5609219Y30697917D01*
X5604691Y30818500D01*
X5601087Y30914495D01*
X5552281Y31147104D01*
X5464980Y31368163D01*
X5458798Y31378352D01*
X5347153Y31562335D01*
X5341681Y31571353D01*
X5273307Y31650148D01*
X5192820Y31742901D01*
X5192819Y31742902D01*
X5185910Y31750864D01*
X5078897Y31838609D01*
X5063601Y31851151D01*
X5001934Y31926226D01*
X4973691Y32019185D01*
X4983171Y32115877D01*
X5028932Y32201580D01*
X5104007Y32263247D01*
X5196966Y32291490D01*
X5221481Y32292700D01*
X5510835Y32292700D01*
X5606123Y32273746D01*
X5686905Y32219770D01*
X6563525Y31343150D01*
X6570741Y31335624D01*
X6610999Y31291844D01*
X6643058Y31271967D01*
X6662384Y31258684D01*
X6692417Y31235888D01*
X6708201Y31229639D01*
X6716285Y31225084D01*
X6724756Y31221312D01*
X6739186Y31212365D01*
X6775405Y31201842D01*
X6797585Y31194249D01*
X6806770Y31190612D01*
X6816872Y31186612D01*
X6816874Y31186612D01*
X6832653Y31180364D01*
X6849532Y31178590D01*
X6860389Y31175923D01*
X6871496Y31173925D01*
X6884025Y31170285D01*
X6894715Y31169500D01*
X6922974Y31169500D01*
X6949000Y31168136D01*
X6965773Y31166373D01*
X6965774Y31166373D01*
X6982654Y31164599D01*
X6999388Y31167429D01*
X7012966Y31167856D01*
X7032539Y31169500D01*
X8207409Y31169500D01*
X8217837Y31169282D01*
X8277294Y31166790D01*
X8314017Y31175404D01*
X8337078Y31179677D01*
X8343011Y31180490D01*
X8374432Y31184794D01*
X8390013Y31191537D01*
X8398947Y31194031D01*
X8407608Y31197356D01*
X8424136Y31201232D01*
X8439009Y31209409D01*
X8439013Y31209410D01*
X8457190Y31219403D01*
X8478253Y31229721D01*
X8497270Y31237951D01*
X8512855Y31244695D01*
X8526050Y31255380D01*
X8535615Y31261172D01*
X8544871Y31267605D01*
X8556308Y31273893D01*
X8564422Y31280897D01*
X8584409Y31300884D01*
X8603778Y31318323D01*
X8616875Y31328929D01*
X8630070Y31339614D01*
X8639906Y31353454D01*
X8649207Y31363359D01*
X8661877Y31378352D01*
X8723080Y31439555D01*
X8803862Y31493531D01*
X8899150Y31512485D01*
X8994438Y31493531D01*
X9075220Y31439555D01*
X9129196Y31358773D01*
X9148150Y31263485D01*
X9146598Y31235732D01*
X9134662Y31129317D01*
X9135681Y31117181D01*
X9135681Y31117180D01*
X9149439Y30953343D01*
X9151408Y30929889D01*
X9154763Y30918188D01*
X9154764Y30918184D01*
X9167418Y30874057D01*
X9206572Y30737511D01*
X9212138Y30726681D01*
X9212139Y30726678D01*
X9232264Y30687520D01*
X9298051Y30559512D01*
X9305621Y30549961D01*
X9391685Y30441376D01*
X9422362Y30402671D01*
X9574769Y30272962D01*
X9749467Y30175327D01*
X9844634Y30144405D01*
X9928220Y30117246D01*
X9928222Y30117245D01*
X9939802Y30113483D01*
X10138525Y30089787D01*
X10150664Y30090721D01*
X10150666Y30090721D01*
X10325920Y30104206D01*
X10325925Y30104207D01*
X10338065Y30105141D01*
X10434444Y30132050D01*
X10519095Y30155685D01*
X10519097Y30155686D01*
X10530824Y30158960D01*
X10709457Y30249194D01*
X10812234Y30329492D01*
X10857564Y30364908D01*
X10857565Y30364909D01*
X10867162Y30372407D01*
X10944719Y30462258D01*
X10989973Y30514684D01*
X10989975Y30514687D01*
X10997931Y30523904D01*
X11096784Y30697917D01*
X11159955Y30887816D01*
X11185038Y31086368D01*
X11185438Y31115000D01*
X11180290Y31167501D01*
X11173286Y31238940D01*
X11182852Y31335622D01*
X11228688Y31421285D01*
X11303817Y31482887D01*
X11396801Y31511049D01*
X11493483Y31501483D01*
X11579146Y31455647D01*
X11597168Y31439307D01*
X12044325Y30992150D01*
X12051543Y30984622D01*
X12091799Y30940844D01*
X12108644Y30930400D01*
X12123849Y30920972D01*
X12143178Y30907688D01*
X12173216Y30884888D01*
X12189005Y30878637D01*
X12197100Y30874075D01*
X12205564Y30870306D01*
X12219986Y30861365D01*
X12236281Y30856631D01*
X12236287Y30856628D01*
X12256214Y30850839D01*
X12278380Y30843251D01*
X12313453Y30829365D01*
X12330337Y30827591D01*
X12341203Y30824922D01*
X12352290Y30822927D01*
X12364825Y30819285D01*
X12375515Y30818500D01*
X12403774Y30818500D01*
X12429802Y30817136D01*
X12446573Y30815373D01*
X12446575Y30815373D01*
X12463454Y30813599D01*
X12480188Y30816429D01*
X12493766Y30816856D01*
X12513339Y30818500D01*
X21953409Y30818500D01*
X21963837Y30818282D01*
X22023294Y30815790D01*
X22060017Y30824404D01*
X22083078Y30828677D01*
X22089011Y30829490D01*
X22120432Y30833794D01*
X22136013Y30840537D01*
X22144947Y30843031D01*
X22153608Y30846356D01*
X22170136Y30850232D01*
X22185009Y30858409D01*
X22185013Y30858410D01*
X22203190Y30868403D01*
X22224253Y30878721D01*
X22243270Y30886951D01*
X22258855Y30893695D01*
X22272050Y30904380D01*
X22281615Y30910172D01*
X22290871Y30916605D01*
X22302308Y30922893D01*
X22310422Y30929897D01*
X22330409Y30949884D01*
X22349778Y30967323D01*
X22362875Y30977929D01*
X22376070Y30988614D01*
X22385906Y31002454D01*
X22395207Y31012359D01*
X22407877Y31027352D01*
X23197781Y31817256D01*
X23278563Y31871232D01*
X23373851Y31890186D01*
X23428803Y31884046D01*
X23471186Y31874456D01*
X23586745Y31869915D01*
X23671060Y31866602D01*
X23671064Y31866602D01*
X23682470Y31866154D01*
X23891730Y31896496D01*
X24091955Y31964463D01*
X24276442Y32067781D01*
X24285216Y32075078D01*
X24285220Y32075081D01*
X24430231Y32195685D01*
X24439012Y32202988D01*
X24574219Y32365558D01*
X24574272Y32365514D01*
X24639776Y32429327D01*
X24730014Y32465330D01*
X24775394Y32469500D01*
X25013204Y32469500D01*
X25108492Y32450546D01*
X25189274Y32396570D01*
X25216547Y32364210D01*
X25238244Y32333510D01*
X25283405Y32269609D01*
X25434865Y32122063D01*
X25610677Y32004589D01*
X25629172Y31996643D01*
X25794464Y31925628D01*
X25794468Y31925627D01*
X25804953Y31921122D01*
X26011186Y31874456D01*
X26126745Y31869915D01*
X26211060Y31866602D01*
X26211064Y31866602D01*
X26222470Y31866154D01*
X26431730Y31896496D01*
X26631955Y31964463D01*
X26816442Y32067781D01*
X26825216Y32075078D01*
X26825220Y32075081D01*
X26970231Y32195685D01*
X26979012Y32202988D01*
X27014386Y32245521D01*
X27106919Y32356780D01*
X27106922Y32356784D01*
X27114219Y32365558D01*
X27217537Y32550045D01*
X27285504Y32750270D01*
X27315846Y32959530D01*
X27317429Y33020000D01*
X27298081Y33230560D01*
X27273678Y33317088D01*
X27243786Y33423078D01*
X27243785Y33423080D01*
X27240686Y33434069D01*
X27147165Y33623710D01*
X27127342Y33650257D01*
X27066193Y33732145D01*
X27020651Y33793133D01*
X26865381Y33936663D01*
X26832439Y33957448D01*
X26696210Y34043403D01*
X26696206Y34043405D01*
X26686554Y34049495D01*
X26545750Y34105670D01*
X26500756Y34123621D01*
X26500752Y34123622D01*
X26490160Y34127848D01*
X26478975Y34130073D01*
X26478971Y34130074D01*
X26293968Y34166873D01*
X26293964Y34166873D01*
X26282775Y34169099D01*
X26166912Y34170616D01*
X26082752Y34171718D01*
X26082748Y34171718D01*
X26071346Y34171867D01*
X25960569Y34152832D01*
X25874206Y34137993D01*
X25874202Y34137992D01*
X25862953Y34136059D01*
X25852238Y34132106D01*
X25675289Y34066826D01*
X25675286Y34066824D01*
X25664575Y34062873D01*
X25482856Y33954762D01*
X25474271Y33947233D01*
X25332462Y33822871D01*
X25332458Y33822867D01*
X25323881Y33815345D01*
X25316816Y33806383D01*
X25316815Y33806382D01*
X25287331Y33768981D01*
X25207660Y33667918D01*
X25205632Y33665346D01*
X25131755Y33602249D01*
X25039356Y33572226D01*
X25010088Y33570500D01*
X24771725Y33570500D01*
X24676437Y33589454D01*
X24595655Y33643430D01*
X24572213Y33670517D01*
X24487479Y33783989D01*
X24480651Y33793133D01*
X24325381Y33936663D01*
X24292439Y33957448D01*
X24156210Y34043403D01*
X24156206Y34043405D01*
X24146554Y34049495D01*
X24005750Y34105670D01*
X23960756Y34123621D01*
X23960752Y34123622D01*
X23950160Y34127848D01*
X23938975Y34130073D01*
X23938971Y34130074D01*
X23753968Y34166873D01*
X23753964Y34166873D01*
X23742775Y34169099D01*
X23626912Y34170616D01*
X23542752Y34171718D01*
X23542748Y34171718D01*
X23531346Y34171867D01*
X23420569Y34152832D01*
X23334206Y34137993D01*
X23334202Y34137992D01*
X23322953Y34136059D01*
X23312238Y34132106D01*
X23135289Y34066826D01*
X23135286Y34066824D01*
X23124575Y34062873D01*
X22942856Y33954762D01*
X22934271Y33947233D01*
X22792462Y33822871D01*
X22792458Y33822867D01*
X22783881Y33815345D01*
X22666523Y33666477D01*
X22592649Y33603381D01*
X22500249Y33573358D01*
X22403394Y33580980D01*
X22316828Y33625087D01*
X22255341Y33696131D01*
X22249362Y33706487D01*
X22126347Y33882170D01*
X22112424Y33898764D01*
X21960761Y34050427D01*
X21944177Y34064343D01*
X21768478Y34187369D01*
X21749732Y34198192D01*
X21555343Y34288837D01*
X21534986Y34296246D01*
X21355691Y34344288D01*
X21334877Y34345652D01*
X21332989Y34341825D01*
X21332000Y34334311D01*
X21332000Y33019000D01*
X21313046Y32923712D01*
X21259070Y32842930D01*
X21178288Y32788954D01*
X21083000Y32770000D01*
X18541000Y32770000D01*
X18445712Y32788954D01*
X18364930Y32842930D01*
X18310954Y32923712D01*
X18292000Y33019000D01*
X18292000Y33294527D01*
X18792000Y33294527D01*
X18796069Y33274069D01*
X18816527Y33270000D01*
X20807473Y33270000D01*
X20827931Y33274069D01*
X20832000Y33294527D01*
X20832000Y34326109D01*
X20827931Y34346567D01*
X20823743Y34347400D01*
X20816229Y34346410D01*
X20629015Y34296246D01*
X20608652Y34288834D01*
X20414275Y34198195D01*
X20395518Y34187365D01*
X20219830Y34064347D01*
X20203236Y34050424D01*
X20051576Y33898764D01*
X20037650Y33882167D01*
X20015968Y33851202D01*
X19945787Y33784018D01*
X19855237Y33748806D01*
X19758106Y33750925D01*
X19669179Y33790055D01*
X19608032Y33851202D01*
X19586350Y33882167D01*
X19572424Y33898764D01*
X19420761Y34050427D01*
X19404177Y34064343D01*
X19228478Y34187369D01*
X19209732Y34198192D01*
X19015343Y34288837D01*
X18994986Y34296246D01*
X18815691Y34344288D01*
X18794877Y34345652D01*
X18792989Y34341825D01*
X18792000Y34334311D01*
X18792000Y33294527D01*
X18292000Y33294527D01*
X18292000Y34326109D01*
X18287931Y34346567D01*
X18283743Y34347400D01*
X18276229Y34346410D01*
X18089015Y34296246D01*
X18068652Y34288834D01*
X17874275Y34198195D01*
X17855518Y34187365D01*
X17679830Y34064347D01*
X17663236Y34050424D01*
X17530147Y33917335D01*
X17449365Y33863359D01*
X17354077Y33844405D01*
X17258789Y33863359D01*
X17178007Y33917335D01*
X17126517Y33992324D01*
X17113271Y34022144D01*
X17113271Y34022145D01*
X17103939Y34043153D01*
X17024713Y34122241D01*
X16922327Y34167506D01*
X16896646Y34170500D01*
X15107354Y34170500D01*
X15100039Y34169629D01*
X15100031Y34169629D01*
X15099704Y34169590D01*
X15099701Y34169589D01*
X15081154Y34167382D01*
X14978847Y34121939D01*
X14899759Y34042713D01*
X14890465Y34021690D01*
X14862393Y33958193D01*
X14854494Y33940327D01*
X14851500Y33914646D01*
X14851500Y32168500D01*
X14832546Y32073212D01*
X14778570Y31992430D01*
X14697788Y31938454D01*
X14602500Y31919500D01*
X12777164Y31919500D01*
X12681876Y31938454D01*
X12601094Y31992430D01*
X12375423Y32218101D01*
X12321447Y32298883D01*
X12302493Y32394171D01*
X12321447Y32489459D01*
X12375423Y32570241D01*
X12456205Y32624217D01*
X12551493Y32643171D01*
X12580975Y32641419D01*
X12678525Y32629787D01*
X12690664Y32630721D01*
X12690666Y32630721D01*
X12865920Y32644206D01*
X12865925Y32644207D01*
X12878065Y32645141D01*
X12983157Y32674483D01*
X13059095Y32695685D01*
X13059097Y32695686D01*
X13070824Y32698960D01*
X13249457Y32789194D01*
X13328014Y32850569D01*
X13397564Y32904908D01*
X13397565Y32904909D01*
X13407162Y32912407D01*
X13526142Y33050246D01*
X13529973Y33054684D01*
X13529975Y33054687D01*
X13537931Y33063904D01*
X13618367Y33205497D01*
X13630766Y33227323D01*
X13630767Y33227325D01*
X13636784Y33237917D01*
X13699955Y33427816D01*
X13725038Y33626368D01*
X13725438Y33655000D01*
X13705909Y33854175D01*
X13648065Y34045764D01*
X13604420Y34127848D01*
X13559823Y34211723D01*
X13559822Y34211725D01*
X13554109Y34222469D01*
X13529270Y34252925D01*
X13435319Y34368121D01*
X13435316Y34368124D01*
X13427621Y34377559D01*
X13394902Y34404627D01*
X13328391Y34459649D01*
X13273418Y34505127D01*
X13258765Y34513050D01*
X13108082Y34594524D01*
X13108079Y34594525D01*
X13097373Y34600314D01*
X12989472Y34633715D01*
X12917830Y34655892D01*
X12917828Y34655892D01*
X12906193Y34659494D01*
X12707159Y34680413D01*
X12507852Y34662275D01*
X12315864Y34605770D01*
X12305068Y34600126D01*
X12206750Y34548726D01*
X12138508Y34513050D01*
X11982539Y34387647D01*
X11974711Y34378318D01*
X11974710Y34378317D01*
X11965472Y34367308D01*
X11853897Y34234339D01*
X11848032Y34223670D01*
X11848029Y34223666D01*
X11806475Y34148078D01*
X11757484Y34058963D01*
X11696970Y33868201D01*
X11674662Y33669317D01*
X11675681Y33657181D01*
X11675681Y33657180D01*
X11686530Y33527977D01*
X11675615Y33431437D01*
X11628587Y33346422D01*
X11552606Y33285876D01*
X11459238Y33259015D01*
X11362698Y33269930D01*
X11283536Y33313180D01*
X11276201Y33321156D01*
X11261773Y33330102D01*
X11261769Y33330105D01*
X11244145Y33341032D01*
X11224813Y33354318D01*
X11208305Y33366848D01*
X11194783Y33377112D01*
X11178999Y33383361D01*
X11170910Y33387919D01*
X11162441Y33391690D01*
X11148014Y33400635D01*
X11111795Y33411158D01*
X11089615Y33418751D01*
X11078687Y33423078D01*
X11070328Y33426388D01*
X11070326Y33426388D01*
X11054547Y33432636D01*
X11037668Y33434410D01*
X11026811Y33437077D01*
X11015704Y33439075D01*
X11003175Y33442715D01*
X10992485Y33443500D01*
X10964226Y33443500D01*
X10938200Y33444864D01*
X10921427Y33446627D01*
X10921426Y33446627D01*
X10904546Y33448401D01*
X10887812Y33445571D01*
X10874234Y33445144D01*
X10854661Y33443500D01*
X9415591Y33443500D01*
X9405164Y33443718D01*
X9403144Y33443803D01*
X9345706Y33446210D01*
X9329186Y33442335D01*
X9329182Y33442335D01*
X9315450Y33439114D01*
X9308983Y33437597D01*
X9285919Y33433323D01*
X9248568Y33428206D01*
X9232988Y33421464D01*
X9224041Y33418966D01*
X9215390Y33415645D01*
X9198864Y33411769D01*
X9165811Y33393598D01*
X9144747Y33383279D01*
X9125725Y33375048D01*
X9125719Y33375044D01*
X9110145Y33368305D01*
X9096953Y33357623D01*
X9087395Y33351834D01*
X9078129Y33345394D01*
X9066693Y33339107D01*
X9058578Y33332103D01*
X9055351Y33328876D01*
X9052003Y33325765D01*
X9051198Y33326632D01*
X9049473Y33325479D01*
X9046103Y33323137D01*
X9046060Y33323199D01*
X8976168Y33276499D01*
X8880880Y33257545D01*
X8785592Y33276499D01*
X8704810Y33330475D01*
X8650834Y33411257D01*
X8631880Y33506545D01*
X8633844Y33537754D01*
X8644167Y33619469D01*
X8644168Y33619484D01*
X8645038Y33626368D01*
X8645438Y33655000D01*
X8625909Y33854175D01*
X8568065Y34045764D01*
X8524420Y34127848D01*
X8479823Y34211723D01*
X8479822Y34211725D01*
X8474109Y34222469D01*
X8449270Y34252925D01*
X8355319Y34368121D01*
X8355316Y34368124D01*
X8347621Y34377559D01*
X8314902Y34404627D01*
X8248391Y34459649D01*
X8193418Y34505127D01*
X8178765Y34513050D01*
X8028082Y34594524D01*
X8028079Y34594525D01*
X8017373Y34600314D01*
X7909472Y34633715D01*
X7837830Y34655892D01*
X7837828Y34655892D01*
X7826193Y34659494D01*
X7627159Y34680413D01*
X7427852Y34662275D01*
X7235864Y34605770D01*
X7225068Y34600126D01*
X7126750Y34548726D01*
X7058508Y34513050D01*
X6902539Y34387647D01*
X6894711Y34378318D01*
X6894710Y34378317D01*
X6885472Y34367308D01*
X6773897Y34234339D01*
X6768032Y34223670D01*
X6768029Y34223666D01*
X6726475Y34148078D01*
X6677484Y34058963D01*
X6616970Y33868201D01*
X6594662Y33669317D01*
X6595681Y33657181D01*
X6595681Y33657180D01*
X6611024Y33474459D01*
X6600109Y33377919D01*
X6553082Y33292904D01*
X6477100Y33232358D01*
X6383732Y33205497D01*
X6287192Y33216412D01*
X6205868Y33260844D01*
X6196201Y33271356D01*
X6181775Y33280301D01*
X6181773Y33280302D01*
X6164145Y33291232D01*
X6144813Y33304518D01*
X6128305Y33317048D01*
X6114783Y33327312D01*
X6098999Y33333561D01*
X6090910Y33338119D01*
X6082441Y33341890D01*
X6068014Y33350835D01*
X6031795Y33361358D01*
X6009615Y33368951D01*
X5994217Y33375048D01*
X5990328Y33376588D01*
X5990326Y33376588D01*
X5974547Y33382836D01*
X5957668Y33384610D01*
X5946811Y33387277D01*
X5935704Y33389275D01*
X5923175Y33392915D01*
X5912485Y33393700D01*
X5884226Y33393700D01*
X5858200Y33395064D01*
X5841427Y33396827D01*
X5841426Y33396827D01*
X5824546Y33398601D01*
X5807812Y33395771D01*
X5794234Y33395344D01*
X5774661Y33393700D01*
X5080684Y33393700D01*
X4985396Y33412654D01*
X4904614Y33466630D01*
X4886629Y33486675D01*
X4875536Y33500472D01*
X4810185Y33581753D01*
X4750340Y33631969D01*
X4725948Y33652437D01*
X4665137Y33728207D01*
X4637950Y33821480D01*
X4648528Y33918058D01*
X4695259Y34003236D01*
X4728624Y34036139D01*
X4799800Y34094189D01*
X4931118Y34252925D01*
X4937756Y34265202D01*
X5023313Y34423436D01*
X5023314Y34423439D01*
X5029103Y34434145D01*
X5041093Y34472879D01*
X5086421Y34619309D01*
X5086421Y34619311D01*
X5090023Y34630946D01*
X5111557Y34835831D01*
X5092886Y35040997D01*
X5034720Y35238628D01*
X4939274Y35421198D01*
X4819196Y35570545D01*
X20961825Y35570545D01*
X20963183Y35556694D01*
X20963183Y35556691D01*
X20976468Y35421198D01*
X20978255Y35402975D01*
X21031402Y35243209D01*
X21118624Y35099188D01*
X21128292Y35089176D01*
X21128294Y35089174D01*
X21163532Y35052685D01*
X21235586Y34978071D01*
X21376475Y34885875D01*
X21424798Y34867904D01*
X21521241Y34832037D01*
X21521245Y34832036D01*
X21534289Y34827185D01*
X21548083Y34825345D01*
X21548085Y34825344D01*
X21687389Y34806757D01*
X21687393Y34806757D01*
X21701183Y34804917D01*
X21715040Y34806178D01*
X21715044Y34806178D01*
X21855001Y34818915D01*
X21855004Y34818916D01*
X21868864Y34820177D01*
X22028997Y34872207D01*
X22051925Y34885875D01*
X22161668Y34951295D01*
X22161670Y34951297D01*
X22173623Y34958422D01*
X22176623Y34961279D01*
X22258960Y35001349D01*
X22322147Y35009500D01*
X28838384Y35009500D01*
X28933672Y34990546D01*
X29014454Y34936570D01*
X29068430Y34855788D01*
X29087384Y34760500D01*
X29068430Y34665212D01*
X29014454Y34584430D01*
X28953751Y34539839D01*
X28902508Y34513050D01*
X28746539Y34387647D01*
X28738711Y34378318D01*
X28738710Y34378317D01*
X28729472Y34367308D01*
X28617897Y34234339D01*
X28612032Y34223670D01*
X28612029Y34223666D01*
X28570475Y34148078D01*
X28521484Y34058963D01*
X28460970Y33868201D01*
X28438662Y33669317D01*
X28439681Y33657181D01*
X28439681Y33657180D01*
X28453328Y33494664D01*
X28455408Y33469889D01*
X28458763Y33458188D01*
X28458764Y33458184D01*
X28475266Y33400635D01*
X28510572Y33277511D01*
X28516138Y33266681D01*
X28516139Y33266678D01*
X28547582Y33205497D01*
X28602051Y33099512D01*
X28609621Y33089961D01*
X28713000Y32959530D01*
X28726362Y32942671D01*
X28878769Y32812962D01*
X29053467Y32715327D01*
X29148635Y32684405D01*
X29232220Y32657246D01*
X29232222Y32657245D01*
X29243802Y32653483D01*
X29442525Y32629787D01*
X29454664Y32630721D01*
X29454666Y32630721D01*
X29629920Y32644206D01*
X29629925Y32644207D01*
X29642065Y32645141D01*
X29747157Y32674483D01*
X29823095Y32695685D01*
X29823097Y32695686D01*
X29834824Y32698960D01*
X30013457Y32789194D01*
X30092014Y32850569D01*
X30161564Y32904908D01*
X30161565Y32904909D01*
X30171162Y32912407D01*
X30290142Y33050246D01*
X30293973Y33054684D01*
X30293975Y33054687D01*
X30301931Y33063904D01*
X30382367Y33205497D01*
X30394766Y33227323D01*
X30394767Y33227325D01*
X30400784Y33237917D01*
X30463955Y33427816D01*
X30489038Y33626368D01*
X30489438Y33655000D01*
X30481874Y33732145D01*
X30477286Y33778940D01*
X30486852Y33875622D01*
X30532688Y33961285D01*
X30607817Y34022887D01*
X30700801Y34051049D01*
X30797483Y34041483D01*
X30883146Y33995647D01*
X30901168Y33979307D01*
X32328465Y32552010D01*
X32382441Y32471228D01*
X32401395Y32375940D01*
X32382441Y32280652D01*
X32328465Y32199870D01*
X32247683Y32145894D01*
X32152395Y32126940D01*
X32126373Y32128304D01*
X32011159Y32140413D01*
X31811852Y32122275D01*
X31619864Y32065770D01*
X31609068Y32060126D01*
X31528212Y32017855D01*
X31442508Y31973050D01*
X31286539Y31847647D01*
X31157897Y31694339D01*
X31152032Y31683670D01*
X31152029Y31683666D01*
X31139764Y31661355D01*
X31061484Y31518963D01*
X31000970Y31328201D01*
X30978662Y31129317D01*
X30979681Y31117181D01*
X30979681Y31117180D01*
X30993439Y30953343D01*
X30995408Y30929889D01*
X30998763Y30918188D01*
X30998764Y30918184D01*
X31011418Y30874057D01*
X31050572Y30737511D01*
X31056138Y30726681D01*
X31056139Y30726678D01*
X31076264Y30687520D01*
X31142051Y30559512D01*
X31149621Y30549961D01*
X31235685Y30441376D01*
X31266362Y30402671D01*
X31418769Y30272962D01*
X31593467Y30175327D01*
X31688634Y30144405D01*
X31772220Y30117246D01*
X31772222Y30117245D01*
X31783802Y30113483D01*
X31982525Y30089787D01*
X31994664Y30090721D01*
X31994666Y30090721D01*
X32169920Y30104206D01*
X32169925Y30104207D01*
X32182065Y30105141D01*
X32278444Y30132050D01*
X32363095Y30155685D01*
X32363097Y30155686D01*
X32374824Y30158960D01*
X32553457Y30249194D01*
X32656234Y30329492D01*
X32701564Y30364908D01*
X32701565Y30364909D01*
X32711162Y30372407D01*
X32788719Y30462258D01*
X32833973Y30514684D01*
X32833975Y30514687D01*
X32841931Y30523904D01*
X32940784Y30697917D01*
X33003955Y30887816D01*
X33029038Y31086368D01*
X33029438Y31115000D01*
X33028034Y31129317D01*
X33017286Y31238941D01*
X33026852Y31335624D01*
X33072688Y31421287D01*
X33147817Y31482888D01*
X33240801Y31511050D01*
X33337484Y31501484D01*
X33423147Y31455648D01*
X33441168Y31439308D01*
X34097406Y30783070D01*
X34151382Y30702288D01*
X34170336Y30607000D01*
X34151382Y30511712D01*
X34097406Y30430930D01*
X30484163Y26817687D01*
X30476635Y26810469D01*
X30432844Y26770201D01*
X30423898Y26755773D01*
X30423895Y26755769D01*
X30412968Y26738145D01*
X30399683Y26718814D01*
X30376888Y26688783D01*
X30370639Y26672999D01*
X30366081Y26664910D01*
X30362310Y26656441D01*
X30353365Y26642014D01*
X30342842Y26605795D01*
X30335249Y26583615D01*
X30321364Y26548547D01*
X30319590Y26531668D01*
X30316923Y26520811D01*
X30314925Y26509704D01*
X30311285Y26497175D01*
X30310500Y26486485D01*
X30310500Y26458226D01*
X30309136Y26432200D01*
X30305599Y26398546D01*
X30308429Y26381812D01*
X30308856Y26368234D01*
X30310500Y26348661D01*
X30310500Y23083585D01*
X30291546Y22988297D01*
X30270801Y22948700D01*
X30184515Y22814810D01*
X30126927Y22656591D01*
X30125183Y22642783D01*
X30125182Y22642780D01*
X30118549Y22590270D01*
X30105825Y22489545D01*
X30107183Y22475694D01*
X30107183Y22475691D01*
X30120897Y22335824D01*
X30122255Y22321975D01*
X30175402Y22162209D01*
X30262624Y22018188D01*
X30272292Y22008176D01*
X30272294Y22008174D01*
X30286431Y21993535D01*
X30379586Y21897071D01*
X30520475Y21804875D01*
X30565324Y21788196D01*
X30665241Y21751037D01*
X30665245Y21751036D01*
X30678289Y21746185D01*
X30692083Y21744345D01*
X30692085Y21744344D01*
X30831389Y21725757D01*
X30831393Y21725757D01*
X30845183Y21723917D01*
X30859040Y21725178D01*
X30859044Y21725178D01*
X30999001Y21737915D01*
X30999004Y21737916D01*
X31012864Y21739177D01*
X31172997Y21791207D01*
X31198772Y21806572D01*
X31305668Y21870295D01*
X31305670Y21870297D01*
X31317623Y21877422D01*
X31439554Y21993535D01*
X31532731Y22133777D01*
X31592521Y22291177D01*
X31615955Y22457912D01*
X31616249Y22479000D01*
X31597481Y22646324D01*
X31542108Y22805332D01*
X31452884Y22948121D01*
X31455247Y22949598D01*
X31421022Y23016345D01*
X31411500Y23084547D01*
X31411500Y26084835D01*
X31430454Y26180123D01*
X31484430Y26260905D01*
X35207094Y29983570D01*
X35287876Y30037546D01*
X35383164Y30056500D01*
X49746500Y30056500D01*
X49841788Y30037546D01*
X49922570Y29983570D01*
X49976546Y29902788D01*
X49995500Y29807500D01*
X49995500Y28411591D01*
X49995282Y28401164D01*
X49992790Y28341706D01*
X49996666Y28325181D01*
X50001402Y28304991D01*
X50005677Y28281922D01*
X50010794Y28244568D01*
X50017537Y28228987D01*
X50020031Y28220053D01*
X50023356Y28211392D01*
X50027232Y28194864D01*
X50035409Y28179991D01*
X50035410Y28179987D01*
X50045403Y28161810D01*
X50055721Y28140747D01*
X50070695Y28106145D01*
X50081380Y28092950D01*
X50087172Y28083385D01*
X50093605Y28074129D01*
X50099893Y28062692D01*
X50106897Y28054578D01*
X50126884Y28034591D01*
X50144323Y28015222D01*
X50165614Y27988930D01*
X50179454Y27979094D01*
X50189359Y27969793D01*
X50204352Y27957123D01*
X51185905Y26975570D01*
X51239881Y26894788D01*
X51258835Y26799500D01*
X51239881Y26704212D01*
X51185905Y26623430D01*
X51105123Y26569454D01*
X51009835Y26550500D01*
X50105354Y26550500D01*
X50098039Y26549629D01*
X50098031Y26549629D01*
X50097704Y26549590D01*
X50097701Y26549589D01*
X50079154Y26547382D01*
X49976847Y26501939D01*
X49956851Y26481908D01*
X49906278Y26431247D01*
X49825543Y26377200D01*
X49730272Y26358163D01*
X49634967Y26377034D01*
X49554140Y26430939D01*
X49498982Y26486001D01*
X49498980Y26486002D01*
X49482713Y26502241D01*
X49380327Y26547506D01*
X49354646Y26550500D01*
X48191164Y26550500D01*
X48095876Y26569454D01*
X48015094Y26623430D01*
X47337687Y27300837D01*
X47330469Y27308365D01*
X47301694Y27339657D01*
X47290201Y27352156D01*
X47275773Y27361102D01*
X47275769Y27361105D01*
X47258145Y27372032D01*
X47238813Y27385318D01*
X47222305Y27397848D01*
X47208783Y27408112D01*
X47192999Y27414361D01*
X47184910Y27418919D01*
X47176441Y27422690D01*
X47162014Y27431635D01*
X47125795Y27442158D01*
X47103615Y27449751D01*
X47094430Y27453388D01*
X47084328Y27457388D01*
X47084326Y27457388D01*
X47068547Y27463636D01*
X47051668Y27465410D01*
X47040811Y27468077D01*
X47029704Y27470075D01*
X47017175Y27473715D01*
X47006485Y27474500D01*
X46978226Y27474500D01*
X46952200Y27475864D01*
X46935427Y27477627D01*
X46935426Y27477627D01*
X46918546Y27479401D01*
X46901812Y27476571D01*
X46888234Y27476144D01*
X46868661Y27474500D01*
X44834591Y27474500D01*
X44824164Y27474718D01*
X44820764Y27474860D01*
X44764706Y27477210D01*
X44727983Y27468596D01*
X44704922Y27464323D01*
X44699907Y27463636D01*
X44667568Y27459206D01*
X44651986Y27452463D01*
X44643057Y27449970D01*
X44634396Y27446646D01*
X44617864Y27442768D01*
X44602985Y27434588D01*
X44584818Y27424601D01*
X44563752Y27414281D01*
X44544724Y27406047D01*
X44544721Y27406045D01*
X44529145Y27399305D01*
X44515955Y27388624D01*
X44506386Y27382829D01*
X44497121Y27376389D01*
X44485692Y27370106D01*
X44477578Y27363102D01*
X44457596Y27343120D01*
X44438227Y27325681D01*
X44411930Y27304386D01*
X44402094Y27290546D01*
X44392796Y27280644D01*
X44380121Y27265645D01*
X36230701Y19116225D01*
X36149919Y19062249D01*
X36080659Y19044659D01*
X36032821Y19039631D01*
X35926482Y19003430D01*
X35897116Y18993433D01*
X35873431Y18985370D01*
X35730022Y18897144D01*
X35720078Y18887406D01*
X35720074Y18887403D01*
X35620352Y18789747D01*
X35609724Y18779339D01*
X35518515Y18637810D01*
X35460927Y18479591D01*
X35459183Y18465783D01*
X35459182Y18465780D01*
X35450376Y18396068D01*
X35439825Y18312545D01*
X35441183Y18298694D01*
X35441183Y18298691D01*
X35448519Y18223873D01*
X35456255Y18144975D01*
X35509402Y17985209D01*
X35596624Y17841188D01*
X35713586Y17720071D01*
X35743613Y17700422D01*
X35821498Y17649455D01*
X35854475Y17627875D01*
X35902798Y17609904D01*
X35999241Y17574037D01*
X35999245Y17574036D01*
X36012289Y17569185D01*
X36026083Y17567345D01*
X36026085Y17567344D01*
X36165389Y17548757D01*
X36165393Y17548757D01*
X36179183Y17546917D01*
X36193040Y17548178D01*
X36193044Y17548178D01*
X36333001Y17560915D01*
X36333004Y17560916D01*
X36346864Y17562177D01*
X36506997Y17614207D01*
X36529925Y17627875D01*
X36639668Y17693295D01*
X36639670Y17693297D01*
X36651623Y17700422D01*
X36773554Y17816535D01*
X36866731Y17956777D01*
X36926521Y18114177D01*
X36937953Y18195520D01*
X36969984Y18287242D01*
X37008460Y18336935D01*
X40669762Y21998237D01*
X44344430Y25672906D01*
X44425212Y25726882D01*
X44520500Y25745836D01*
X44615788Y25726882D01*
X44696570Y25672906D01*
X44750546Y25592124D01*
X44769500Y25496836D01*
X44769500Y24989743D01*
X44750546Y24894455D01*
X44696570Y24813673D01*
X40477768Y20594871D01*
X40455854Y20575399D01*
X40434890Y20558872D01*
X40402617Y20512177D01*
X40398096Y20505851D01*
X40364366Y20460184D01*
X40361973Y20453368D01*
X40357869Y20447431D01*
X40352938Y20431839D01*
X40352937Y20431837D01*
X40340759Y20393331D01*
X40338283Y20385911D01*
X40324902Y20347808D01*
X40324900Y20347801D01*
X40319481Y20332369D01*
X40319198Y20325155D01*
X40317020Y20318270D01*
X40316500Y20311663D01*
X40316500Y20261397D01*
X40316308Y20251620D01*
X40314162Y20197006D01*
X40316441Y20188409D01*
X40316500Y20187343D01*
X40316500Y14744126D01*
X40297546Y14648838D01*
X40253003Y14578240D01*
X40242604Y14569169D01*
X40145113Y14430453D01*
X40139659Y14416464D01*
X40088976Y14286472D01*
X40088975Y14286468D01*
X40083524Y14272487D01*
X40061394Y14104389D01*
X40079999Y13935865D01*
X40138266Y13776644D01*
X40232830Y13635917D01*
X40358233Y13521809D01*
X40371425Y13514647D01*
X40371424Y13514647D01*
X40494047Y13448068D01*
X40494050Y13448067D01*
X40507235Y13440908D01*
X40521747Y13437101D01*
X40521749Y13437100D01*
X40575813Y13422917D01*
X40671233Y13397884D01*
X40686245Y13397648D01*
X40686246Y13397648D01*
X40695111Y13397509D01*
X40711042Y13397259D01*
X40806019Y13376812D01*
X40885943Y13321574D01*
X40938644Y13239955D01*
X40956100Y13144381D01*
X40954001Y13115793D01*
X40952353Y13103273D01*
X40950394Y13088389D01*
X40968999Y12919865D01*
X41027266Y12760644D01*
X41121830Y12619917D01*
X41247233Y12505809D01*
X41260425Y12498647D01*
X41260424Y12498647D01*
X41383047Y12432068D01*
X41383050Y12432067D01*
X41396235Y12424908D01*
X41410747Y12421101D01*
X41410749Y12421100D01*
X41464813Y12406917D01*
X41560233Y12381884D01*
X41575246Y12381648D01*
X41575247Y12381648D01*
X41652901Y12380428D01*
X41747879Y12359980D01*
X41827803Y12304741D01*
X41882823Y12217031D01*
X41916266Y12125644D01*
X41924638Y12113185D01*
X41929297Y12106251D01*
X42010830Y11984917D01*
X42136233Y11870809D01*
X42149425Y11863647D01*
X42149424Y11863647D01*
X42272047Y11797068D01*
X42272050Y11797067D01*
X42285235Y11789908D01*
X42299747Y11786101D01*
X42299749Y11786100D01*
X42345152Y11774189D01*
X42449233Y11746884D01*
X42464246Y11746648D01*
X42464247Y11746648D01*
X42541901Y11745428D01*
X42636879Y11724980D01*
X42716803Y11669741D01*
X42771823Y11582031D01*
X42805266Y11490644D01*
X42899830Y11349917D01*
X42910933Y11339814D01*
X42911981Y11338600D01*
X42959897Y11254083D01*
X42971821Y11157662D01*
X42945940Y11064018D01*
X42913528Y11016592D01*
X42909604Y11013169D01*
X42812113Y10874453D01*
X42789631Y10816790D01*
X42769492Y10765137D01*
X42717219Y10683243D01*
X42637585Y10627587D01*
X42536198Y10606590D01*
X42463895Y10606969D01*
X42299032Y10567388D01*
X42285699Y10560506D01*
X42285698Y10560506D01*
X42161706Y10496509D01*
X42161704Y10496508D01*
X42148369Y10489625D01*
X42137059Y10479759D01*
X42137058Y10479758D01*
X42045890Y10400227D01*
X42020604Y10378169D01*
X41923113Y10239453D01*
X41898151Y10175430D01*
X41880492Y10130137D01*
X41828219Y10048243D01*
X41748585Y9992587D01*
X41647198Y9971590D01*
X41574895Y9971969D01*
X41410032Y9932388D01*
X41396699Y9925506D01*
X41396698Y9925506D01*
X41272706Y9861509D01*
X41272704Y9861508D01*
X41259369Y9854625D01*
X41248059Y9844759D01*
X41248058Y9844758D01*
X41243487Y9840770D01*
X41131604Y9743169D01*
X41122970Y9730884D01*
X41122969Y9730883D01*
X41101867Y9700857D01*
X41034113Y9604453D01*
X41021837Y9572967D01*
X40991492Y9495137D01*
X40939219Y9413243D01*
X40859585Y9357587D01*
X40758198Y9336590D01*
X40685895Y9336969D01*
X40521032Y9297388D01*
X40507699Y9290506D01*
X40507698Y9290506D01*
X40383706Y9226509D01*
X40383704Y9226508D01*
X40370369Y9219625D01*
X40359059Y9209759D01*
X40359058Y9209758D01*
X40270781Y9132749D01*
X40242604Y9108169D01*
X40233970Y9095884D01*
X40233969Y9095883D01*
X40231658Y9092595D01*
X40145113Y8969453D01*
X40139659Y8955464D01*
X40088976Y8825472D01*
X40088975Y8825468D01*
X40083524Y8811487D01*
X40061394Y8643389D01*
X40079999Y8474865D01*
X40138266Y8315644D01*
X40232830Y8174917D01*
X40358233Y8060809D01*
X40371425Y8053647D01*
X40371424Y8053647D01*
X40494047Y7987068D01*
X40494050Y7987067D01*
X40507235Y7979908D01*
X40521747Y7976101D01*
X40521749Y7976100D01*
X40575813Y7961917D01*
X40671233Y7936884D01*
X40686246Y7936648D01*
X40686247Y7936648D01*
X40730687Y7935950D01*
X40825666Y7915502D01*
X40902846Y7863051D01*
X40927129Y7838768D01*
X40946601Y7816854D01*
X40963128Y7795890D01*
X41009823Y7763617D01*
X41016149Y7759096D01*
X41061816Y7725366D01*
X41068632Y7722973D01*
X41074569Y7718869D01*
X41090161Y7713938D01*
X41090163Y7713937D01*
X41128669Y7701759D01*
X41136089Y7699283D01*
X41174192Y7685902D01*
X41174199Y7685900D01*
X41189631Y7680481D01*
X41196845Y7680198D01*
X41203730Y7678020D01*
X41210337Y7677500D01*
X41260603Y7677500D01*
X41270380Y7677308D01*
X41324994Y7675162D01*
X41333590Y7677441D01*
X41334654Y7677500D01*
X48926530Y7677500D01*
X48955797Y7675774D01*
X48982310Y7672636D01*
X49038102Y7682825D01*
X49045799Y7684106D01*
X49085768Y7690116D01*
X49085771Y7690117D01*
X49101962Y7692551D01*
X49108475Y7695679D01*
X49115573Y7696975D01*
X49130084Y7704513D01*
X49130087Y7704514D01*
X49165894Y7723114D01*
X49172887Y7726609D01*
X49185815Y7732817D01*
X49224079Y7751191D01*
X49229383Y7756094D01*
X49235788Y7759421D01*
X49240828Y7763725D01*
X49276370Y7799267D01*
X49283419Y7806044D01*
X49309888Y7830511D01*
X49309890Y7830513D01*
X49323556Y7843146D01*
X49328024Y7850838D01*
X49328735Y7851632D01*
X49433563Y7956460D01*
X49514345Y8010436D01*
X49609633Y8029390D01*
X49704921Y8010436D01*
X49785703Y7956460D01*
X49839679Y7875678D01*
X49858633Y7780390D01*
X49856907Y7751130D01*
X49844967Y7650246D01*
X49858796Y7439251D01*
X49861605Y7428190D01*
X49861606Y7428185D01*
X49896822Y7289524D01*
X49910845Y7234310D01*
X49915624Y7223943D01*
X49915626Y7223938D01*
X49951256Y7146652D01*
X49999369Y7042286D01*
X50005955Y7032967D01*
X50080914Y6926903D01*
X50121405Y6869609D01*
X50272865Y6722063D01*
X50448677Y6604589D01*
X50483628Y6589573D01*
X50632464Y6525628D01*
X50632468Y6525627D01*
X50642953Y6521122D01*
X50849186Y6474456D01*
X50964745Y6469915D01*
X51049060Y6466602D01*
X51049064Y6466602D01*
X51060470Y6466154D01*
X51269730Y6496496D01*
X51469955Y6564463D01*
X51654442Y6667781D01*
X51663216Y6675078D01*
X51663220Y6675081D01*
X51808231Y6795685D01*
X51817012Y6802988D01*
X51952219Y6965558D01*
X51952710Y6965149D01*
X52016130Y7026932D01*
X52106368Y7062935D01*
X52203515Y7061664D01*
X52292780Y7023314D01*
X52360575Y6953723D01*
X52367387Y6942608D01*
X52372638Y6933513D01*
X52495653Y6757830D01*
X52509576Y6741236D01*
X52661239Y6589573D01*
X52677823Y6575657D01*
X52853522Y6452631D01*
X52872268Y6441808D01*
X53066657Y6351163D01*
X53087014Y6343754D01*
X53266309Y6295712D01*
X53287123Y6294348D01*
X53289011Y6298175D01*
X53290000Y6305689D01*
X53290000Y6313891D01*
X53790000Y6313891D01*
X53794069Y6293433D01*
X53798257Y6292600D01*
X53805771Y6293590D01*
X53992986Y6343754D01*
X54013343Y6351163D01*
X54207732Y6441808D01*
X54226478Y6452631D01*
X54402177Y6575657D01*
X54418761Y6589573D01*
X54570424Y6741236D01*
X54584347Y6757830D01*
X54707365Y6933518D01*
X54718195Y6952275D01*
X54808834Y7146652D01*
X54816246Y7167015D01*
X54864288Y7346309D01*
X54865652Y7367123D01*
X54861825Y7369011D01*
X54854311Y7370000D01*
X53814527Y7370000D01*
X53794069Y7365931D01*
X53790000Y7345473D01*
X53790000Y6313891D01*
X53290000Y6313891D01*
X53290000Y7621000D01*
X53308954Y7716288D01*
X53362930Y7797070D01*
X53443712Y7851046D01*
X53539000Y7870000D01*
X54846109Y7870000D01*
X54866567Y7874069D01*
X54867400Y7878257D01*
X54866410Y7885771D01*
X54816246Y8072985D01*
X54808834Y8093348D01*
X54718195Y8287725D01*
X54707365Y8306482D01*
X54584347Y8482170D01*
X54570424Y8498764D01*
X54418761Y8650427D01*
X54402177Y8664343D01*
X54226482Y8787366D01*
X54217399Y8792610D01*
X54144353Y8856668D01*
X54101381Y8943803D01*
X54095026Y9040750D01*
X54126254Y9132749D01*
X54189749Y9205153D01*
X54194442Y9207781D01*
X54203216Y9215078D01*
X54203220Y9215081D01*
X54348231Y9335685D01*
X54357012Y9342988D01*
X54417349Y9415536D01*
X54484919Y9496780D01*
X54484922Y9496784D01*
X54492219Y9505558D01*
X54595537Y9690045D01*
X54663504Y9890270D01*
X54693846Y10099530D01*
X54695429Y10160000D01*
X54686016Y10262436D01*
X54677126Y10359192D01*
X54677125Y10359196D01*
X54676081Y10370560D01*
X54647843Y10470685D01*
X54621786Y10563078D01*
X54621785Y10563080D01*
X54618686Y10574069D01*
X54525165Y10763710D01*
X54398651Y10933133D01*
X54243381Y11076663D01*
X54214696Y11094762D01*
X54074210Y11183403D01*
X54074206Y11183405D01*
X54064554Y11189495D01*
X54053954Y11193724D01*
X54053944Y11193729D01*
X54043116Y11198049D01*
X53961636Y11250964D01*
X53906608Y11331033D01*
X53886409Y11426065D01*
X53904116Y11521593D01*
X53957031Y11603073D01*
X54013721Y11646572D01*
X54081605Y11684589D01*
X54194442Y11747781D01*
X54203216Y11755078D01*
X54203220Y11755081D01*
X54348231Y11875685D01*
X54357012Y11882988D01*
X54392386Y11925521D01*
X54484919Y12036780D01*
X54484922Y12036784D01*
X54492219Y12045558D01*
X54595537Y12230045D01*
X54663504Y12430270D01*
X54693846Y12639530D01*
X54695429Y12700000D01*
X54687592Y12785293D01*
X54677126Y12899192D01*
X54677125Y12899196D01*
X54676081Y12910560D01*
X54630136Y13073470D01*
X54621786Y13103078D01*
X54621785Y13103080D01*
X54618686Y13114069D01*
X54525165Y13303710D01*
X54505342Y13330257D01*
X54425558Y13437100D01*
X54398651Y13473133D01*
X54243381Y13616663D01*
X54214696Y13634762D01*
X54074210Y13723403D01*
X54074206Y13723405D01*
X54064554Y13729495D01*
X54053954Y13733724D01*
X54053944Y13733729D01*
X54043116Y13738049D01*
X53961636Y13790964D01*
X53906608Y13871033D01*
X53886409Y13966065D01*
X53904116Y14061593D01*
X53957031Y14143073D01*
X54013721Y14186572D01*
X54081605Y14224589D01*
X54194442Y14287781D01*
X54203216Y14295078D01*
X54203220Y14295081D01*
X54348231Y14415685D01*
X54357012Y14422988D01*
X54414853Y14492535D01*
X54484919Y14576780D01*
X54484922Y14576784D01*
X54492219Y14585558D01*
X54595537Y14770045D01*
X54663504Y14970270D01*
X54693846Y15179530D01*
X54695429Y15240000D01*
X54688433Y15316141D01*
X54677126Y15439192D01*
X54677125Y15439196D01*
X54676081Y15450560D01*
X54630664Y15611599D01*
X54621786Y15643078D01*
X54621785Y15643080D01*
X54618686Y15654069D01*
X54525165Y15843710D01*
X54398651Y16013133D01*
X54243381Y16156663D01*
X54222375Y16169917D01*
X54151905Y16236793D01*
X54112389Y16325549D01*
X54109847Y16422671D01*
X54144665Y16513373D01*
X54211543Y16583845D01*
X54300299Y16623361D01*
X54355250Y16629500D01*
X54434646Y16629500D01*
X54441961Y16630371D01*
X54441969Y16630371D01*
X54442296Y16630410D01*
X54442299Y16630411D01*
X54460846Y16632618D01*
X54563153Y16678061D01*
X54642241Y16757287D01*
X54687506Y16859673D01*
X54690500Y16885354D01*
X54690500Y18674646D01*
X54687382Y18700846D01*
X54641939Y18803153D01*
X54562713Y18882241D01*
X54512725Y18904341D01*
X54433238Y18960204D01*
X54381179Y19042235D01*
X54364475Y19137943D01*
X54385668Y19232758D01*
X54437336Y19308148D01*
X54570424Y19441236D01*
X54584347Y19457830D01*
X54707365Y19633518D01*
X54718195Y19652275D01*
X54808834Y19846652D01*
X54816246Y19867015D01*
X54864288Y20046309D01*
X54865652Y20067123D01*
X54861825Y20069011D01*
X54854311Y20070000D01*
X53539000Y20070000D01*
X53443712Y20088954D01*
X53362930Y20142930D01*
X53308954Y20223712D01*
X53290000Y20319000D01*
X53290000Y20321000D01*
X53308954Y20416288D01*
X53362930Y20497070D01*
X53443712Y20551046D01*
X53539000Y20570000D01*
X54846109Y20570000D01*
X54866567Y20574069D01*
X54867400Y20578257D01*
X54866410Y20585771D01*
X54816246Y20772985D01*
X54808834Y20793348D01*
X54718195Y20987725D01*
X54707365Y21006482D01*
X54584347Y21182170D01*
X54570424Y21198764D01*
X54418761Y21350427D01*
X54402177Y21364343D01*
X54226482Y21487366D01*
X54217399Y21492610D01*
X54144353Y21556668D01*
X54101381Y21643803D01*
X54095026Y21740750D01*
X54126254Y21832749D01*
X54189749Y21905153D01*
X54194442Y21907781D01*
X54203216Y21915078D01*
X54203220Y21915081D01*
X54348231Y22035685D01*
X54357012Y22042988D01*
X54412420Y22109609D01*
X54484919Y22196780D01*
X54484922Y22196784D01*
X54492219Y22205558D01*
X54595537Y22390045D01*
X54663504Y22590270D01*
X54693846Y22799530D01*
X54695429Y22860000D01*
X54683640Y22988297D01*
X54677126Y23059192D01*
X54677125Y23059196D01*
X54676081Y23070560D01*
X54631047Y23230240D01*
X54621786Y23263078D01*
X54621785Y23263080D01*
X54618686Y23274069D01*
X54525165Y23463710D01*
X54398651Y23633133D01*
X54243381Y23776663D01*
X54222375Y23789917D01*
X54151905Y23856793D01*
X54112389Y23945549D01*
X54109847Y24042671D01*
X54144665Y24133373D01*
X54211543Y24203845D01*
X54300299Y24243361D01*
X54355250Y24249500D01*
X54434646Y24249500D01*
X54441961Y24250371D01*
X54441969Y24250371D01*
X54442296Y24250410D01*
X54442299Y24250411D01*
X54460846Y24252618D01*
X54563153Y24298061D01*
X54642241Y24377287D01*
X54687506Y24479673D01*
X54690500Y24505354D01*
X54690500Y26294646D01*
X54687382Y26320846D01*
X54641939Y26423153D01*
X54562713Y26502241D01*
X54460327Y26547506D01*
X54434646Y26550500D01*
X53271164Y26550500D01*
X53175876Y26569454D01*
X53095094Y26623430D01*
X51169430Y28549094D01*
X51115454Y28629876D01*
X51096500Y28725164D01*
X51096500Y29767113D01*
X51115454Y29862401D01*
X51169430Y29943183D01*
X51250212Y29997159D01*
X51345500Y30016113D01*
X51440788Y29997159D01*
X51521570Y29943183D01*
X51546691Y29913821D01*
X51548848Y29910863D01*
X51554319Y29901847D01*
X51710090Y29722336D01*
X51893880Y29571638D01*
X52100433Y29454061D01*
X52323844Y29372966D01*
X52334228Y29371088D01*
X52334229Y29371088D01*
X52549650Y29332134D01*
X52549653Y29332134D01*
X52557725Y29330674D01*
X52572336Y29329985D01*
X52579707Y29329637D01*
X52579721Y29329637D01*
X52582619Y29329500D01*
X54049680Y29329500D01*
X54132482Y29336526D01*
X54216316Y29343639D01*
X54216321Y29343640D01*
X54226823Y29344531D01*
X54237028Y29347180D01*
X54237030Y29347180D01*
X54446672Y29401592D01*
X54446673Y29401592D01*
X54456874Y29404240D01*
X54495785Y29421768D01*
X54663960Y29497525D01*
X54663963Y29497527D01*
X54673576Y29501857D01*
X54787155Y29578323D01*
X54861987Y29628703D01*
X54861991Y29628706D01*
X54870732Y29634591D01*
X55042705Y29798645D01*
X55184579Y29989330D01*
X55292295Y30201193D01*
X55343130Y30364908D01*
X55359647Y30418101D01*
X55359648Y30418105D01*
X55362775Y30428176D01*
X55394004Y30663789D01*
X55393509Y30676989D01*
X55388297Y30815790D01*
X55385087Y30901295D01*
X55336281Y31133904D01*
X55248980Y31354963D01*
X55234788Y31378352D01*
X55131153Y31549135D01*
X55125681Y31558153D01*
X55107314Y31579320D01*
X54976820Y31729701D01*
X54976819Y31729702D01*
X54969910Y31737664D01*
X54961758Y31744348D01*
X54954195Y31751703D01*
X54955485Y31753030D01*
X54902717Y31817270D01*
X54874474Y31910229D01*
X54881726Y31996600D01*
X54887506Y32009673D01*
X54890500Y32035354D01*
X54890500Y33624646D01*
X54887382Y33650846D01*
X54878645Y33670517D01*
X54855591Y33722418D01*
X54841939Y33753153D01*
X54762713Y33832241D01*
X54704615Y33857926D01*
X54677448Y33869937D01*
X54677447Y33869937D01*
X54660327Y33877506D01*
X54634646Y33880500D01*
X52045354Y33880500D01*
X52038039Y33879629D01*
X52038031Y33879629D01*
X52037704Y33879590D01*
X52037701Y33879589D01*
X52019154Y33877382D01*
X52002083Y33869799D01*
X52002082Y33869799D01*
X51996377Y33867265D01*
X51916847Y33831939D01*
X51837759Y33752713D01*
X51816592Y33704835D01*
X51800890Y33669317D01*
X51792494Y33650327D01*
X51789500Y33624646D01*
X51789500Y32035354D01*
X51792618Y32009154D01*
X51799098Y31994566D01*
X51805926Y31899739D01*
X51775289Y31807541D01*
X51730725Y31750483D01*
X51658763Y31681834D01*
X51637295Y31661355D01*
X51631004Y31652899D01*
X51631000Y31652895D01*
X51545272Y31537672D01*
X51473185Y31472537D01*
X51381659Y31439946D01*
X51284629Y31444862D01*
X51196865Y31486535D01*
X51131730Y31558622D01*
X51099139Y31650148D01*
X51096500Y31686307D01*
X51096500Y34018409D01*
X51096718Y34028836D01*
X51097318Y34043153D01*
X51099210Y34088294D01*
X51090596Y34125017D01*
X51086323Y34148078D01*
X51083748Y34166873D01*
X51081206Y34185432D01*
X51074463Y34201014D01*
X51071970Y34209943D01*
X51068646Y34218604D01*
X51064768Y34235136D01*
X51053460Y34255705D01*
X51046601Y34268182D01*
X51036281Y34289248D01*
X51028047Y34308276D01*
X51028045Y34308279D01*
X51021305Y34323855D01*
X51010624Y34337045D01*
X51004829Y34346614D01*
X50998389Y34355879D01*
X50992106Y34367308D01*
X50985102Y34375422D01*
X50965120Y34395404D01*
X50947681Y34414773D01*
X50937071Y34427875D01*
X50926386Y34441070D01*
X50912546Y34450906D01*
X50902644Y34460204D01*
X50887645Y34472879D01*
X49506094Y35854430D01*
X49452118Y35935212D01*
X49433164Y36030500D01*
X49452118Y36125788D01*
X49506094Y36206570D01*
X49586876Y36260546D01*
X49682164Y36279500D01*
X51815316Y36279500D01*
X51910604Y36260546D01*
X51991386Y36206570D01*
X52009368Y36186529D01*
X52085815Y36091447D01*
X52095144Y36083619D01*
X52095146Y36083617D01*
X52108550Y36072370D01*
X52243630Y35959024D01*
X52254296Y35953160D01*
X52254298Y35953159D01*
X52413497Y35865639D01*
X52424162Y35859776D01*
X52435756Y35856098D01*
X52435761Y35856096D01*
X52608931Y35801164D01*
X52620532Y35797484D01*
X52632630Y35796127D01*
X52773944Y35780276D01*
X52773948Y35780276D01*
X52780864Y35779500D01*
X53891841Y35779500D01*
X53897884Y35780093D01*
X53897894Y35780093D01*
X53986833Y35788814D01*
X54045030Y35794520D01*
X54242251Y35854065D01*
X54262667Y35864920D01*
X54342775Y35907514D01*
X54424151Y35950782D01*
X54583800Y36080989D01*
X54594058Y36093388D01*
X54707358Y36230345D01*
X54715118Y36239725D01*
X54742638Y36290622D01*
X54807313Y36410236D01*
X54807314Y36410239D01*
X54813103Y36420945D01*
X54830723Y36477865D01*
X54870421Y36606109D01*
X54870421Y36606111D01*
X54874023Y36617746D01*
X54895557Y36822631D01*
X54876886Y37027797D01*
X54818720Y37225428D01*
X54723274Y37407998D01*
X54594185Y37568553D01*
X54554290Y37602029D01*
X54509948Y37639237D01*
X54449137Y37715007D01*
X54421950Y37808280D01*
X54432528Y37904858D01*
X54479259Y37990036D01*
X54512624Y38022939D01*
X54583800Y38080989D01*
X54715118Y38239725D01*
X54727596Y38262802D01*
X54807313Y38410236D01*
X54807314Y38410239D01*
X54813103Y38420945D01*
X54855785Y38558828D01*
X54870421Y38606109D01*
X54870421Y38606111D01*
X54874023Y38617746D01*
X54895557Y38822631D01*
X54876886Y39027797D01*
X54818720Y39225428D01*
X54723274Y39407998D01*
X54594185Y39568553D01*
X54554290Y39602029D01*
X54509948Y39639237D01*
X54449137Y39715007D01*
X54421950Y39808280D01*
X54432528Y39904858D01*
X54479259Y39990036D01*
X54512624Y40022939D01*
X54583800Y40080989D01*
X54607650Y40109818D01*
X54700028Y40221484D01*
X54715118Y40239725D01*
X54750908Y40305917D01*
X54807313Y40410236D01*
X54807314Y40410239D01*
X54813103Y40420945D01*
X54854307Y40554053D01*
X54870421Y40606109D01*
X54870421Y40606111D01*
X54874023Y40617746D01*
X54895557Y40822631D01*
X54876886Y41027797D01*
X54818720Y41225428D01*
X54723274Y41407998D01*
X54715638Y41417496D01*
X54708974Y41427679D01*
X54711747Y41429494D01*
X54677444Y41495183D01*
X54668851Y41591958D01*
X54697947Y41684653D01*
X54760301Y41759159D01*
X54777338Y41771714D01*
X54870732Y41834591D01*
X54993096Y41951320D01*
X55035075Y41991366D01*
X55035077Y41991368D01*
X55042705Y41998645D01*
X55184579Y42189330D01*
X55292295Y42401193D01*
X55335177Y42539296D01*
X55359647Y42618101D01*
X55359648Y42618105D01*
X55362775Y42628176D01*
X55394004Y42863789D01*
X55393509Y42876989D01*
X55386566Y43061906D01*
X55385087Y43101295D01*
X55336281Y43333904D01*
X55248980Y43554963D01*
X55203339Y43630178D01*
X55152811Y43713444D01*
X55125681Y43758153D01*
X55107314Y43779320D01*
X54976820Y43929701D01*
X54976819Y43929702D01*
X54969910Y43937664D01*
X54786120Y44088362D01*
X54579567Y44205939D01*
X54356156Y44287034D01*
X54345772Y44288912D01*
X54345771Y44288912D01*
X54130350Y44327866D01*
X54130347Y44327866D01*
X54122275Y44329326D01*
X54107664Y44330015D01*
X54100293Y44330363D01*
X54100279Y44330363D01*
X54097381Y44330500D01*
X52630320Y44330500D01*
X52547518Y44323474D01*
X52463684Y44316361D01*
X52463679Y44316360D01*
X52453177Y44315469D01*
X52442972Y44312820D01*
X52442970Y44312820D01*
X52233328Y44258408D01*
X52223126Y44255760D01*
X52213519Y44251432D01*
X52213518Y44251432D01*
X52016040Y44162475D01*
X52016037Y44162473D01*
X52006424Y44158143D01*
X51974210Y44136455D01*
X51818013Y44031297D01*
X51818009Y44031294D01*
X51809268Y44025409D01*
X51801644Y44018136D01*
X51647123Y43870730D01*
X51637295Y43861355D01*
X51495421Y43670670D01*
X51387705Y43458807D01*
X51384580Y43448742D01*
X51321324Y43245024D01*
X51317225Y43231824D01*
X51285996Y42996211D01*
X51286391Y42985684D01*
X51286391Y42985680D01*
X51287027Y42968743D01*
X51294913Y42758705D01*
X51343719Y42526096D01*
X51431020Y42305037D01*
X51436488Y42296026D01*
X51436490Y42296022D01*
X51487520Y42211928D01*
X51554319Y42101847D01*
X51561230Y42093883D01*
X51561232Y42093880D01*
X51643873Y41998645D01*
X51710090Y41922336D01*
X51718242Y41915652D01*
X51847864Y41809369D01*
X51893880Y41771638D01*
X51902547Y41766704D01*
X51970169Y41697290D01*
X52006171Y41607052D01*
X52004900Y41509906D01*
X51968934Y41425173D01*
X51964882Y41420275D01*
X51959092Y41409566D01*
X51959091Y41409565D01*
X51874851Y41253765D01*
X51866897Y41239055D01*
X51863296Y41227422D01*
X51812478Y41063254D01*
X51805977Y41042254D01*
X51784443Y40837369D01*
X51803114Y40632203D01*
X51861280Y40434572D01*
X51956726Y40252002D01*
X52085815Y40091447D01*
X52113896Y40067884D01*
X52170052Y40020763D01*
X52230863Y39944993D01*
X52258050Y39851720D01*
X52247472Y39755142D01*
X52200741Y39669964D01*
X52167376Y39637061D01*
X52096200Y39579011D01*
X52088441Y39569632D01*
X52088440Y39569631D01*
X52056229Y39530695D01*
X51964882Y39420275D01*
X51959092Y39409566D01*
X51959091Y39409565D01*
X51894580Y39290253D01*
X51866897Y39239055D01*
X51805977Y39042254D01*
X51784443Y38837369D01*
X51803114Y38632203D01*
X51861280Y38434572D01*
X51956726Y38252002D01*
X52085815Y38091447D01*
X52125710Y38057971D01*
X52170052Y38020763D01*
X52230863Y37944993D01*
X52258050Y37851720D01*
X52247472Y37755142D01*
X52200741Y37669964D01*
X52167376Y37637061D01*
X52096200Y37579011D01*
X52088436Y37569626D01*
X52088435Y37569625D01*
X52006663Y37470781D01*
X51931320Y37409442D01*
X51838238Y37381605D01*
X51814806Y37380500D01*
X41800591Y37380500D01*
X41790164Y37380718D01*
X41788144Y37380803D01*
X41730706Y37383210D01*
X41714186Y37379335D01*
X41714182Y37379335D01*
X41700450Y37376114D01*
X41693983Y37374597D01*
X41670919Y37370323D01*
X41633568Y37365206D01*
X41617988Y37358464D01*
X41609041Y37355966D01*
X41600390Y37352645D01*
X41583864Y37348769D01*
X41550811Y37330598D01*
X41529747Y37320279D01*
X41510725Y37312048D01*
X41510719Y37312044D01*
X41495145Y37305305D01*
X41481953Y37294623D01*
X41472395Y37288834D01*
X41463129Y37282394D01*
X41451693Y37276107D01*
X41443578Y37269103D01*
X41423591Y37249116D01*
X41404222Y37231677D01*
X41377930Y37210386D01*
X41368094Y37196546D01*
X41358793Y37186641D01*
X41346123Y37171648D01*
X39857640Y35683164D01*
X38417906Y34243430D01*
X38337124Y34189454D01*
X38241836Y34170500D01*
X37205354Y34170500D01*
X37198039Y34169629D01*
X37198031Y34169629D01*
X37197704Y34169590D01*
X37197701Y34169589D01*
X37179154Y34167382D01*
X37076847Y34121939D01*
X36997759Y34042713D01*
X36988465Y34021690D01*
X36960393Y33958193D01*
X36952494Y33940327D01*
X36949500Y33914646D01*
X36949500Y32125354D01*
X36952618Y32099154D01*
X36998061Y31996847D01*
X37077287Y31917759D01*
X37179673Y31872494D01*
X37205354Y31869500D01*
X38994646Y31869500D01*
X39001961Y31870371D01*
X39001969Y31870371D01*
X39002296Y31870410D01*
X39002299Y31870411D01*
X39020846Y31872618D01*
X39123153Y31918061D01*
X39202241Y31997287D01*
X39224341Y32047275D01*
X39280204Y32126762D01*
X39362235Y32178821D01*
X39457943Y32195525D01*
X39552758Y32174332D01*
X39628148Y32122664D01*
X39761239Y31989573D01*
X39777823Y31975657D01*
X39953522Y31852631D01*
X39972268Y31841808D01*
X40166657Y31751163D01*
X40187014Y31743754D01*
X40366309Y31695712D01*
X40387123Y31694348D01*
X40389011Y31698175D01*
X40390000Y31705689D01*
X40390000Y31713891D01*
X40890000Y31713891D01*
X40894069Y31693433D01*
X40898257Y31692600D01*
X40905771Y31693590D01*
X41092986Y31743754D01*
X41113343Y31751163D01*
X41307732Y31841808D01*
X41326478Y31852631D01*
X41502177Y31975657D01*
X41518761Y31989573D01*
X41670424Y32141236D01*
X41684350Y32157833D01*
X41706032Y32188798D01*
X41776213Y32255982D01*
X41866763Y32291194D01*
X41963894Y32289075D01*
X42052821Y32249945D01*
X42113968Y32188798D01*
X42135650Y32157833D01*
X42149576Y32141236D01*
X42301239Y31989573D01*
X42317823Y31975657D01*
X42493522Y31852631D01*
X42512268Y31841808D01*
X42706657Y31751163D01*
X42727014Y31743754D01*
X42906309Y31695712D01*
X42927123Y31694348D01*
X42929011Y31698175D01*
X42930000Y31705689D01*
X42930000Y31713891D01*
X43430000Y31713891D01*
X43434069Y31693433D01*
X43438257Y31692600D01*
X43445771Y31693590D01*
X43632986Y31743754D01*
X43653343Y31751163D01*
X43847732Y31841808D01*
X43866478Y31852631D01*
X44042177Y31975657D01*
X44058761Y31989573D01*
X44210424Y32141236D01*
X44224347Y32157830D01*
X44347360Y32333510D01*
X44354697Y32346219D01*
X44418755Y32419265D01*
X44505889Y32462237D01*
X44602836Y32468593D01*
X44694836Y32437366D01*
X44767882Y32373308D01*
X44773684Y32365432D01*
X44833601Y32280652D01*
X44841405Y32269609D01*
X44992865Y32122063D01*
X45168677Y32004589D01*
X45187172Y31996643D01*
X45352464Y31925628D01*
X45352468Y31925627D01*
X45362953Y31921122D01*
X45569186Y31874456D01*
X45684745Y31869915D01*
X45769060Y31866602D01*
X45769064Y31866602D01*
X45780470Y31866154D01*
X45989730Y31896496D01*
X46189955Y31964463D01*
X46374442Y32067781D01*
X46383216Y32075078D01*
X46383220Y32075081D01*
X46528231Y32195685D01*
X46537012Y32202988D01*
X46572386Y32245521D01*
X46664919Y32356780D01*
X46664922Y32356784D01*
X46672219Y32365558D01*
X46774883Y32548877D01*
X46837980Y32622754D01*
X46924546Y32666861D01*
X47021402Y32674483D01*
X47113802Y32644460D01*
X47187679Y32581363D01*
X47218262Y32531454D01*
X47248746Y32465330D01*
X47259369Y32442286D01*
X47265955Y32432967D01*
X47373601Y32280652D01*
X47381405Y32269609D01*
X47532865Y32122063D01*
X47708677Y32004589D01*
X47727172Y31996643D01*
X47892464Y31925628D01*
X47892468Y31925627D01*
X47902953Y31921122D01*
X48109186Y31874456D01*
X48224745Y31869915D01*
X48309060Y31866602D01*
X48309064Y31866602D01*
X48320470Y31866154D01*
X48529730Y31896496D01*
X48729955Y31964463D01*
X48914442Y32067781D01*
X48923216Y32075078D01*
X48923220Y32075081D01*
X49068231Y32195685D01*
X49077012Y32202988D01*
X49112386Y32245521D01*
X49204919Y32356780D01*
X49204922Y32356784D01*
X49212219Y32365558D01*
X49315537Y32550045D01*
X49383504Y32750270D01*
X49413846Y32959530D01*
X49415429Y33020000D01*
X49396081Y33230560D01*
X49371678Y33317088D01*
X49341786Y33423078D01*
X49341785Y33423080D01*
X49338686Y33434069D01*
X49245165Y33623710D01*
X49225342Y33650257D01*
X49164193Y33732145D01*
X49118651Y33793133D01*
X48963381Y33936663D01*
X48930439Y33957448D01*
X48794210Y34043403D01*
X48794206Y34043405D01*
X48784554Y34049495D01*
X48643750Y34105670D01*
X48598756Y34123621D01*
X48598752Y34123622D01*
X48588160Y34127848D01*
X48576975Y34130073D01*
X48576971Y34130074D01*
X48391968Y34166873D01*
X48391964Y34166873D01*
X48380775Y34169099D01*
X48264912Y34170616D01*
X48180752Y34171718D01*
X48180748Y34171718D01*
X48169346Y34171867D01*
X48058569Y34152832D01*
X47972206Y34137993D01*
X47972202Y34137992D01*
X47960953Y34136059D01*
X47950238Y34132106D01*
X47773289Y34066826D01*
X47773286Y34066824D01*
X47762575Y34062873D01*
X47580856Y33954762D01*
X47572271Y33947233D01*
X47430462Y33822871D01*
X47430458Y33822867D01*
X47421881Y33815345D01*
X47414816Y33806383D01*
X47414815Y33806382D01*
X47385331Y33768981D01*
X47290976Y33649292D01*
X47285663Y33639193D01*
X47285662Y33639192D01*
X47209622Y33494664D01*
X47148480Y33419160D01*
X47063099Y33372802D01*
X46966476Y33362647D01*
X46873322Y33390240D01*
X46797818Y33451382D01*
X46765941Y33500469D01*
X46716905Y33599904D01*
X46710217Y33613466D01*
X46710216Y33613468D01*
X46705165Y33623710D01*
X46685342Y33650257D01*
X46624193Y33732145D01*
X46578651Y33793133D01*
X46423381Y33936663D01*
X46390439Y33957448D01*
X46254210Y34043403D01*
X46254206Y34043405D01*
X46244554Y34049495D01*
X46103750Y34105670D01*
X46058756Y34123621D01*
X46058752Y34123622D01*
X46048160Y34127848D01*
X46036975Y34130073D01*
X46036971Y34130074D01*
X45851968Y34166873D01*
X45851964Y34166873D01*
X45840775Y34169099D01*
X45724912Y34170616D01*
X45640752Y34171718D01*
X45640748Y34171718D01*
X45629346Y34171867D01*
X45518569Y34152832D01*
X45432206Y34137993D01*
X45432202Y34137992D01*
X45420953Y34136059D01*
X45410238Y34132106D01*
X45233289Y34066826D01*
X45233286Y34066824D01*
X45222575Y34062873D01*
X45040856Y33954762D01*
X45032271Y33947233D01*
X44890462Y33822871D01*
X44890458Y33822867D01*
X44881881Y33815345D01*
X44764523Y33666477D01*
X44690649Y33603381D01*
X44598249Y33573358D01*
X44501394Y33580980D01*
X44414828Y33625087D01*
X44353341Y33696131D01*
X44347362Y33706487D01*
X44224347Y33882170D01*
X44210424Y33898764D01*
X44058761Y34050427D01*
X44042177Y34064343D01*
X43866478Y34187369D01*
X43847732Y34198192D01*
X43653343Y34288837D01*
X43632997Y34296242D01*
X43543886Y34320119D01*
X43459269Y34361848D01*
X43435731Y34349298D01*
X43433870Y34347666D01*
X43430989Y34341825D01*
X43430000Y34334311D01*
X43430000Y31713891D01*
X42930000Y31713891D01*
X42930000Y32745473D01*
X42925931Y32765931D01*
X42905473Y32770000D01*
X40914527Y32770000D01*
X40894069Y32765931D01*
X40890000Y32745473D01*
X40890000Y31713891D01*
X40390000Y31713891D01*
X40390000Y33294527D01*
X40890000Y33294527D01*
X40894069Y33274069D01*
X40914527Y33270000D01*
X42905473Y33270000D01*
X42925931Y33274069D01*
X42930000Y33294527D01*
X42930000Y34326109D01*
X42925931Y34346567D01*
X42921743Y34347400D01*
X42914229Y34346410D01*
X42727015Y34296246D01*
X42706652Y34288834D01*
X42512275Y34198195D01*
X42493518Y34187365D01*
X42317830Y34064347D01*
X42301236Y34050424D01*
X42149576Y33898764D01*
X42135650Y33882167D01*
X42113968Y33851202D01*
X42043787Y33784018D01*
X41953237Y33748806D01*
X41856106Y33750925D01*
X41767179Y33790055D01*
X41706032Y33851202D01*
X41684350Y33882167D01*
X41670424Y33898764D01*
X41518761Y34050427D01*
X41502177Y34064343D01*
X41326478Y34187369D01*
X41307732Y34198192D01*
X41113343Y34288837D01*
X41092986Y34296246D01*
X40913691Y34344288D01*
X40892877Y34345652D01*
X40890989Y34341825D01*
X40890000Y34334311D01*
X40890000Y33294527D01*
X40390000Y33294527D01*
X40390000Y34326109D01*
X40385492Y34348770D01*
X40376778Y34361812D01*
X40339598Y34451571D01*
X40339598Y34548726D01*
X40376778Y34638486D01*
X40407744Y34676219D01*
X41938095Y36206570D01*
X42018877Y36260546D01*
X42114165Y36279500D01*
X42675117Y36279500D01*
X42770405Y36260546D01*
X42851187Y36206570D01*
X42905163Y36125788D01*
X42924117Y36030500D01*
X42905163Y35935212D01*
X42898149Y35919786D01*
X42892055Y35907510D01*
X42884515Y35895810D01*
X42879755Y35882731D01*
X42879754Y35882730D01*
X42865334Y35843111D01*
X42826927Y35737591D01*
X42825183Y35723783D01*
X42825182Y35723780D01*
X42816376Y35654068D01*
X42805825Y35570545D01*
X42807183Y35556694D01*
X42807183Y35556691D01*
X42820468Y35421198D01*
X42822255Y35402975D01*
X42875402Y35243209D01*
X42962624Y35099188D01*
X42972292Y35089176D01*
X42972294Y35089174D01*
X43007532Y35052685D01*
X43079586Y34978071D01*
X43220475Y34885875D01*
X43268798Y34867904D01*
X43365241Y34832037D01*
X43365245Y34832036D01*
X43378289Y34827185D01*
X43392084Y34825344D01*
X43405598Y34821975D01*
X43404712Y34818420D01*
X43471504Y34795592D01*
X43490765Y34778629D01*
X43575831Y34807505D01*
X43585764Y34808610D01*
X43699001Y34818915D01*
X43699004Y34818916D01*
X43712864Y34820177D01*
X43872997Y34872207D01*
X43895925Y34885875D01*
X44005668Y34951295D01*
X44005670Y34951297D01*
X44017623Y34958422D01*
X44020623Y34961279D01*
X44102960Y35001349D01*
X44166147Y35009500D01*
X48690835Y35009500D01*
X48786123Y34990546D01*
X48866905Y34936570D01*
X49922570Y33880905D01*
X49976546Y33800123D01*
X49995500Y33704835D01*
X49995500Y31406500D01*
X49976546Y31311212D01*
X49922570Y31230430D01*
X49841788Y31176454D01*
X49746500Y31157500D01*
X35383165Y31157500D01*
X35287877Y31176454D01*
X35207095Y31230430D01*
X34219424Y32218101D01*
X34165448Y32298883D01*
X34146494Y32394171D01*
X34165448Y32489459D01*
X34219424Y32570241D01*
X34300206Y32624217D01*
X34395494Y32643171D01*
X34424973Y32641419D01*
X34522525Y32629787D01*
X34534664Y32630721D01*
X34534666Y32630721D01*
X34709920Y32644206D01*
X34709925Y32644207D01*
X34722065Y32645141D01*
X34827157Y32674483D01*
X34903095Y32695685D01*
X34903097Y32695686D01*
X34914824Y32698960D01*
X35093457Y32789194D01*
X35172014Y32850569D01*
X35241564Y32904908D01*
X35241565Y32904909D01*
X35251162Y32912407D01*
X35370142Y33050246D01*
X35373973Y33054684D01*
X35373975Y33054687D01*
X35381931Y33063904D01*
X35462367Y33205497D01*
X35474766Y33227323D01*
X35474767Y33227325D01*
X35480784Y33237917D01*
X35543955Y33427816D01*
X35569038Y33626368D01*
X35569438Y33655000D01*
X35549909Y33854175D01*
X35492065Y34045764D01*
X35448420Y34127848D01*
X35403823Y34211723D01*
X35403822Y34211725D01*
X35398109Y34222469D01*
X35373270Y34252925D01*
X35279319Y34368121D01*
X35279316Y34368124D01*
X35271621Y34377559D01*
X35238902Y34404627D01*
X35172391Y34459649D01*
X35117418Y34505127D01*
X35102765Y34513050D01*
X34952082Y34594524D01*
X34952079Y34594525D01*
X34941373Y34600314D01*
X34833472Y34633715D01*
X34761830Y34655892D01*
X34761828Y34655892D01*
X34750193Y34659494D01*
X34551159Y34680413D01*
X34351852Y34662275D01*
X34159864Y34605770D01*
X34149068Y34600126D01*
X34050750Y34548726D01*
X33982508Y34513050D01*
X33826539Y34387647D01*
X33818711Y34378318D01*
X33818710Y34378317D01*
X33809472Y34367308D01*
X33697897Y34234339D01*
X33692032Y34223670D01*
X33692029Y34223666D01*
X33650475Y34148078D01*
X33601484Y34058963D01*
X33540970Y33868201D01*
X33518662Y33669317D01*
X33519681Y33657181D01*
X33519681Y33657179D01*
X33530519Y33528107D01*
X33519604Y33431567D01*
X33472576Y33346552D01*
X33396595Y33286006D01*
X33303227Y33259145D01*
X33206687Y33270060D01*
X33121672Y33317088D01*
X33106329Y33331196D01*
X30500687Y35936837D01*
X30493469Y35944365D01*
X30480753Y35958193D01*
X30453201Y35988156D01*
X30438773Y35997102D01*
X30438769Y35997105D01*
X30421145Y36008032D01*
X30401813Y36021318D01*
X30371783Y36044112D01*
X30355999Y36050361D01*
X30347910Y36054919D01*
X30339441Y36058690D01*
X30325014Y36067635D01*
X30288795Y36078158D01*
X30266615Y36085751D01*
X30252230Y36091447D01*
X30247328Y36093388D01*
X30247326Y36093388D01*
X30231547Y36099636D01*
X30214668Y36101410D01*
X30203811Y36104077D01*
X30192704Y36106075D01*
X30180175Y36109715D01*
X30169485Y36110500D01*
X30141226Y36110500D01*
X30115200Y36111864D01*
X30098427Y36113627D01*
X30098426Y36113627D01*
X30081546Y36115401D01*
X30064812Y36112571D01*
X30051234Y36112144D01*
X30031661Y36110500D01*
X22322609Y36110500D01*
X22227321Y36129454D01*
X22189196Y36149258D01*
X22048079Y36238813D01*
X21889462Y36295294D01*
X21875636Y36296943D01*
X21875635Y36296943D01*
X21825332Y36302941D01*
X21722273Y36315231D01*
X21708430Y36313776D01*
X21708427Y36313776D01*
X21649580Y36307591D01*
X21554821Y36297631D01*
X21459562Y36265202D01*
X21423499Y36252925D01*
X21395431Y36243370D01*
X21252022Y36155144D01*
X21242078Y36145406D01*
X21242074Y36145403D01*
X21168441Y36073295D01*
X21131724Y36037339D01*
X21124181Y36025634D01*
X21124179Y36025632D01*
X21112837Y36008032D01*
X21040515Y35895810D01*
X20982927Y35737591D01*
X20981183Y35723783D01*
X20981182Y35723780D01*
X20972376Y35654068D01*
X20961825Y35570545D01*
X4819196Y35570545D01*
X4810185Y35581753D01*
X4770290Y35615229D01*
X4725948Y35652437D01*
X4665137Y35728207D01*
X4637950Y35821480D01*
X4648528Y35918058D01*
X4695259Y36003236D01*
X4728624Y36036139D01*
X4799800Y36094189D01*
X4931118Y36252925D01*
X4954027Y36295294D01*
X5023313Y36423436D01*
X5023314Y36423439D01*
X5029103Y36434145D01*
X5090023Y36630946D01*
X5111557Y36835831D01*
X5092886Y37040997D01*
X5034720Y37238628D01*
X4939274Y37421198D01*
X4810185Y37581753D01*
X4788553Y37599905D01*
X4747092Y37634694D01*
X4652370Y37714176D01*
X4626974Y37728138D01*
X4482503Y37807561D01*
X4482502Y37807561D01*
X4471838Y37813424D01*
X4460244Y37817102D01*
X4460239Y37817104D01*
X4287069Y37872036D01*
X4275468Y37875716D01*
X4238452Y37879868D01*
X4122056Y37892924D01*
X4122052Y37892924D01*
X4115136Y37893700D01*
X3004159Y37893700D01*
X2998116Y37893107D01*
X2998106Y37893107D01*
X2909167Y37884386D01*
X2850970Y37878680D01*
X2653749Y37819135D01*
X2642992Y37813415D01*
X2642991Y37813415D01*
X2631981Y37807561D01*
X2471849Y37722418D01*
X2312200Y37592211D01*
X2180882Y37433475D01*
X2175092Y37422766D01*
X2175091Y37422765D01*
X2092007Y37269103D01*
X2082897Y37252255D01*
X2021977Y37055454D01*
X2000443Y36850569D01*
X2019114Y36645403D01*
X2077280Y36447772D01*
X2172726Y36265202D01*
X2301815Y36104647D01*
X2339179Y36073295D01*
X2386052Y36033963D01*
X2446863Y35958193D01*
X2474050Y35864920D01*
X2463472Y35768342D01*
X2416741Y35683164D01*
X2383376Y35650261D01*
X2312200Y35592211D01*
X2180882Y35433475D01*
X2082897Y35252255D01*
X2021977Y35055454D01*
X2000443Y34850569D01*
X2019114Y34645403D01*
X2077280Y34447772D01*
X2172726Y34265202D01*
X2301815Y34104647D01*
X2341516Y34071334D01*
X2386052Y34033963D01*
X2446863Y33958193D01*
X2474050Y33864920D01*
X2463472Y33768342D01*
X2416741Y33683164D01*
X2383376Y33650261D01*
X2312200Y33592211D01*
X2304441Y33582832D01*
X2304440Y33582831D01*
X2295667Y33572226D01*
X2180882Y33433475D01*
X2175092Y33422766D01*
X2175091Y33422765D01*
X2092454Y33269930D01*
X2082897Y33252255D01*
X2079296Y33240622D01*
X2032659Y33089961D01*
X2021977Y33055454D01*
X2000443Y32850569D01*
X2019114Y32645403D01*
X2077280Y32447772D01*
X2172726Y32265202D01*
X2180362Y32255704D01*
X2187026Y32245521D01*
X2184253Y32243706D01*
X2218556Y32178017D01*
X2227149Y32081242D01*
X2198053Y31988547D01*
X2135699Y31914041D01*
X2118662Y31901486D01*
X2025268Y31838609D01*
X2017644Y31831336D01*
X1862846Y31683666D01*
X1853295Y31674555D01*
X1711421Y31483870D01*
X1603705Y31272007D01*
X1579560Y31194247D01*
X1546063Y31086368D01*
X1533225Y31045024D01*
X1501996Y30809411D01*
X750500Y30809411D01*
X750500Y39513353D01*
X9440282Y39513353D01*
X9445342Y39505781D01*
X9498614Y39468479D01*
X9517366Y39457652D01*
X9703823Y39370706D01*
X9724180Y39363297D01*
X9922894Y39310052D01*
X9944220Y39306291D01*
X10149176Y39288360D01*
X10170824Y39288360D01*
X10375780Y39306291D01*
X10397106Y39310052D01*
X10595820Y39363297D01*
X10616177Y39370706D01*
X10802634Y39457652D01*
X10821386Y39468479D01*
X10865382Y39499286D01*
X10879805Y39514353D01*
X10876138Y39522687D01*
X10177342Y40221484D01*
X10160000Y40233071D01*
X10142658Y40221484D01*
X9451870Y39530695D01*
X9440282Y39513353D01*
X750500Y39513353D01*
X750500Y43009411D01*
X1501996Y43009411D01*
X1502391Y42998884D01*
X1502391Y42998880D01*
X1505900Y42905427D01*
X1510913Y42771905D01*
X1559719Y42539296D01*
X1647020Y42318237D01*
X1652488Y42309226D01*
X1652490Y42309222D01*
X1711530Y42211928D01*
X1770319Y42115047D01*
X1777230Y42107083D01*
X1777232Y42107080D01*
X1905810Y41958907D01*
X1926090Y41935536D01*
X1934242Y41928852D01*
X1941805Y41921497D01*
X1940515Y41920170D01*
X1993283Y41855930D01*
X2021526Y41762971D01*
X2014274Y41676600D01*
X2008494Y41663527D01*
X2005500Y41637846D01*
X2005500Y40048554D01*
X2008618Y40022354D01*
X2016201Y40005283D01*
X2016201Y40005282D01*
X2021033Y39994404D01*
X2054061Y39920047D01*
X2133287Y39840959D01*
X2158277Y39829911D01*
X2212509Y39805935D01*
X2235673Y39795694D01*
X2261354Y39792700D01*
X4850646Y39792700D01*
X4857961Y39793571D01*
X4857969Y39793571D01*
X4858296Y39793610D01*
X4858299Y39793611D01*
X4876846Y39795818D01*
X4979153Y39841261D01*
X5058241Y39920487D01*
X5092679Y39998383D01*
X5095937Y40005752D01*
X5095937Y40005753D01*
X5103506Y40022873D01*
X5106500Y40048554D01*
X5106500Y40581555D01*
X8855981Y40581555D01*
X8873912Y40376599D01*
X8877673Y40355273D01*
X8930918Y40156559D01*
X8938327Y40136202D01*
X9025273Y39949745D01*
X9036100Y39930993D01*
X9066907Y39886997D01*
X9081974Y39872574D01*
X9090308Y39876241D01*
X9789105Y40575037D01*
X9800692Y40592379D01*
X10519308Y40592379D01*
X10530895Y40575037D01*
X11221684Y39884249D01*
X11239026Y39872661D01*
X11246598Y39877721D01*
X11283900Y39930993D01*
X11294727Y39949745D01*
X11381673Y40136202D01*
X11389082Y40156559D01*
X11442327Y40355273D01*
X11446088Y40376599D01*
X11464019Y40581555D01*
X11464019Y40603203D01*
X11446088Y40808159D01*
X11442327Y40829485D01*
X11389082Y41028199D01*
X11381673Y41048556D01*
X11294727Y41235013D01*
X11283900Y41253765D01*
X11253093Y41297761D01*
X11238026Y41312184D01*
X11229692Y41308517D01*
X10530895Y40609721D01*
X10519308Y40592379D01*
X9800692Y40592379D01*
X9789105Y40609721D01*
X9098316Y41300509D01*
X9080974Y41312097D01*
X9073402Y41307037D01*
X9036100Y41253765D01*
X9025273Y41235013D01*
X8938327Y41048556D01*
X8930918Y41028199D01*
X8877673Y40829485D01*
X8873912Y40808159D01*
X8855981Y40603203D01*
X8855981Y40581555D01*
X5106500Y40581555D01*
X5106500Y41637846D01*
X5103382Y41664046D01*
X5096902Y41678634D01*
X5090074Y41773461D01*
X5120711Y41865659D01*
X5165275Y41922717D01*
X5251075Y42004566D01*
X5251077Y42004568D01*
X5258705Y42011845D01*
X5400579Y42202530D01*
X5508295Y42414393D01*
X5552349Y42556269D01*
X5575647Y42631301D01*
X5575648Y42631305D01*
X5578775Y42641376D01*
X5610004Y42876989D01*
X5608937Y42905427D01*
X5602054Y43088743D01*
X5601087Y43114495D01*
X5552281Y43347104D01*
X5464980Y43568163D01*
X5427349Y43630178D01*
X5376821Y43713444D01*
X5341681Y43771353D01*
X5321659Y43794427D01*
X5192820Y43942901D01*
X5192819Y43942902D01*
X5185910Y43950864D01*
X5002120Y44101562D01*
X4795567Y44219139D01*
X4572156Y44300234D01*
X4561772Y44302112D01*
X4561771Y44302112D01*
X4346350Y44341066D01*
X4346347Y44341066D01*
X4338275Y44342526D01*
X4323664Y44343215D01*
X4316293Y44343563D01*
X4316279Y44343563D01*
X4313381Y44343700D01*
X2846320Y44343700D01*
X2763518Y44336674D01*
X2679684Y44329561D01*
X2679679Y44329560D01*
X2669177Y44328669D01*
X2658972Y44326020D01*
X2658970Y44326020D01*
X2449328Y44271608D01*
X2439126Y44268960D01*
X2429519Y44264632D01*
X2429518Y44264632D01*
X2232040Y44175675D01*
X2232037Y44175673D01*
X2222424Y44171343D01*
X2196142Y44153649D01*
X2034013Y44044497D01*
X2034009Y44044494D01*
X2025268Y44038609D01*
X2017644Y44031336D01*
X1902430Y43921427D01*
X1853295Y43874555D01*
X1711421Y43683870D01*
X1603705Y43472007D01*
X1596481Y43448742D01*
X1563568Y43342743D01*
X1533225Y43245024D01*
X1501996Y43009411D01*
X750500Y43009411D01*
X750500Y48290246D01*
X4944967Y48290246D01*
X4958796Y48079251D01*
X4961605Y48068190D01*
X4961606Y48068185D01*
X5008033Y47885382D01*
X5010845Y47874310D01*
X5015624Y47863943D01*
X5015626Y47863938D01*
X5061396Y47764657D01*
X5099369Y47682286D01*
X5221405Y47509609D01*
X5372865Y47362063D01*
X5548677Y47244589D01*
X5601911Y47221718D01*
X5732464Y47165628D01*
X5732468Y47165627D01*
X5742953Y47161122D01*
X5949186Y47114456D01*
X6064745Y47109915D01*
X6149060Y47106602D01*
X6149064Y47106602D01*
X6160470Y47106154D01*
X6369730Y47136496D01*
X6569955Y47204463D01*
X6695967Y47275033D01*
X6788366Y47305056D01*
X6885221Y47297434D01*
X6971787Y47253326D01*
X6999791Y47227437D01*
X7001725Y47225172D01*
X7037267Y47189630D01*
X7044044Y47182581D01*
X7068511Y47156112D01*
X7068513Y47156110D01*
X7081146Y47142444D01*
X7088838Y47137976D01*
X7089632Y47137265D01*
X7780129Y46446768D01*
X7799601Y46424854D01*
X7816128Y46403890D01*
X7862826Y46371615D01*
X7869118Y46367119D01*
X7914817Y46333365D01*
X7921634Y46330971D01*
X7927569Y46326869D01*
X7943165Y46321937D01*
X7943164Y46321937D01*
X7981635Y46309770D01*
X7989055Y46307294D01*
X8027183Y46293904D01*
X8027193Y46293902D01*
X8042631Y46288480D01*
X8049848Y46288196D01*
X8056730Y46286020D01*
X8063337Y46285500D01*
X8113595Y46285500D01*
X8123370Y46285308D01*
X8177994Y46283162D01*
X8186590Y46285441D01*
X8187658Y46285500D01*
X8854257Y46285500D01*
X8949545Y46266546D01*
X9030327Y46212570D01*
X10624948Y44617949D01*
X10678924Y44537167D01*
X10697878Y44441879D01*
X10678924Y44346591D01*
X10624948Y44265809D01*
X10544166Y44211833D01*
X10448878Y44192879D01*
X9315354Y44192879D01*
X9308039Y44192008D01*
X9308031Y44192008D01*
X9307704Y44191969D01*
X9307701Y44191968D01*
X9289154Y44189761D01*
X9186847Y44144318D01*
X9107759Y44065092D01*
X9092818Y44031297D01*
X9072237Y43984743D01*
X9062494Y43962706D01*
X9059500Y43937025D01*
X9059500Y42247733D01*
X9062618Y42221533D01*
X9108061Y42119226D01*
X9187287Y42040138D01*
X9275268Y42001241D01*
X9275275Y42001238D01*
X9289673Y41994873D01*
X9289378Y41994207D01*
X9360179Y41958907D01*
X9423918Y41885583D01*
X9454746Y41793449D01*
X9447969Y41696530D01*
X9439807Y41671779D01*
X9439705Y41671517D01*
X9443862Y41662071D01*
X10142658Y40963274D01*
X10160000Y40951687D01*
X10177342Y40963274D01*
X10868130Y41654063D01*
X10880393Y41672416D01*
X10872013Y41714544D01*
X10872012Y41811699D01*
X10909192Y41901458D01*
X10977890Y41970157D01*
X11031082Y41994465D01*
X11030846Y41994997D01*
X11039059Y41998645D01*
X11133153Y42040440D01*
X11212241Y42119666D01*
X11245136Y42194072D01*
X11249937Y42204931D01*
X11249937Y42204932D01*
X11257506Y42222052D01*
X11260500Y42247733D01*
X11260500Y43381257D01*
X11279454Y43476545D01*
X11333430Y43557327D01*
X11414212Y43611303D01*
X11509500Y43630257D01*
X11604788Y43611303D01*
X11685570Y43557327D01*
X16875570Y38367327D01*
X16929546Y38286545D01*
X16948500Y38191257D01*
X16948500Y37477126D01*
X16929546Y37381838D01*
X16885003Y37311240D01*
X16874604Y37302169D01*
X16777113Y37163453D01*
X16771659Y37149464D01*
X16720976Y37019472D01*
X16720975Y37019468D01*
X16715524Y37005487D01*
X16693394Y36837389D01*
X16711999Y36668865D01*
X16770266Y36509644D01*
X16864830Y36368917D01*
X16990233Y36254809D01*
X17003425Y36247647D01*
X17003424Y36247647D01*
X17126047Y36181068D01*
X17126050Y36181067D01*
X17139235Y36173908D01*
X17153747Y36170101D01*
X17153749Y36170100D01*
X17181877Y36162721D01*
X17303233Y36130884D01*
X17318245Y36130648D01*
X17318246Y36130648D01*
X17377097Y36129724D01*
X17472760Y36128221D01*
X17561715Y36148594D01*
X17623400Y36162721D01*
X17623404Y36162723D01*
X17638029Y36166072D01*
X17789498Y36242253D01*
X17918423Y36352366D01*
X18017361Y36490053D01*
X18080601Y36647366D01*
X18104490Y36815222D01*
X18104645Y36830000D01*
X18084276Y36998320D01*
X18024345Y37156923D01*
X17987601Y37210386D01*
X17936813Y37284283D01*
X17936810Y37284286D01*
X17928312Y37296651D01*
X17917107Y37306634D01*
X17911723Y37312741D01*
X17862925Y37396752D01*
X17849500Y37477408D01*
X17849500Y38439530D01*
X17851226Y38468796D01*
X17852176Y38476825D01*
X17852176Y38476826D01*
X17854364Y38495310D01*
X17844174Y38551106D01*
X17842894Y38558799D01*
X17836884Y38598768D01*
X17836883Y38598773D01*
X17834449Y38614962D01*
X17831321Y38621475D01*
X17830025Y38628573D01*
X17803886Y38678894D01*
X17800391Y38685887D01*
X17782890Y38722332D01*
X17775809Y38737079D01*
X17770906Y38742383D01*
X17767579Y38748788D01*
X17763275Y38753828D01*
X17727733Y38789370D01*
X17720955Y38796420D01*
X17695898Y38823527D01*
X17645136Y38906366D01*
X17629938Y39002325D01*
X17652619Y39096795D01*
X17709726Y39175395D01*
X17766860Y39214993D01*
X17916498Y39290253D01*
X18045423Y39400366D01*
X18144361Y39538053D01*
X18152237Y39557644D01*
X18202001Y39681435D01*
X18202002Y39681437D01*
X18207601Y39695366D01*
X18210397Y39715007D01*
X18230341Y39855149D01*
X18231490Y39863222D01*
X18231582Y39871963D01*
X18231642Y39872247D01*
X18232193Y39879496D01*
X18233148Y39879423D01*
X18251539Y39967046D01*
X18306364Y40047254D01*
X18392659Y40101384D01*
X18400029Y40103072D01*
X18551498Y40179253D01*
X18680423Y40289366D01*
X18779361Y40427053D01*
X18825516Y40541865D01*
X18837001Y40570435D01*
X18837002Y40570437D01*
X18842601Y40584366D01*
X18845696Y40606109D01*
X18865341Y40744149D01*
X18866490Y40752222D01*
X18866645Y40767000D01*
X18863951Y40789267D01*
X18858129Y40837369D01*
X18856463Y40851138D01*
X18863832Y40948013D01*
X18907713Y41034694D01*
X18981424Y41097984D01*
X19019312Y41115331D01*
X19020391Y41115720D01*
X19035029Y41119072D01*
X19048443Y41125819D01*
X19048447Y41125820D01*
X19111436Y41157501D01*
X19186498Y41195253D01*
X19201200Y41207809D01*
X19255006Y41253765D01*
X19269508Y41266150D01*
X19354275Y41313623D01*
X19450756Y41325043D01*
X19544263Y41298671D01*
X19598801Y41260978D01*
X19657233Y41207809D01*
X19670425Y41200647D01*
X19670424Y41200647D01*
X19793047Y41134068D01*
X19793050Y41134067D01*
X19806235Y41126908D01*
X19820748Y41123101D01*
X19820752Y41123099D01*
X19821595Y41122878D01*
X19822837Y41122274D01*
X19834712Y41117572D01*
X19834355Y41116669D01*
X19908956Y41080367D01*
X19973398Y41007660D01*
X20005111Y40915827D01*
X20005286Y40849528D01*
X19995394Y40774389D01*
X20013999Y40605865D01*
X20072266Y40446644D01*
X20166830Y40305917D01*
X20292233Y40191809D01*
X20305425Y40184647D01*
X20305424Y40184647D01*
X20428047Y40118068D01*
X20428050Y40118067D01*
X20441235Y40110908D01*
X20455748Y40107101D01*
X20469712Y40101572D01*
X20468579Y40098711D01*
X20533537Y40067107D01*
X20597984Y39994404D01*
X20629703Y39902573D01*
X20630658Y39887396D01*
X20630394Y39885389D01*
X20631303Y39877158D01*
X20631303Y39877153D01*
X20633506Y39857199D01*
X20648999Y39716865D01*
X20707266Y39557644D01*
X20801830Y39416917D01*
X20927233Y39302809D01*
X20940425Y39295647D01*
X20940424Y39295647D01*
X21063047Y39229068D01*
X21063050Y39229067D01*
X21076235Y39221908D01*
X21090747Y39218101D01*
X21090749Y39218100D01*
X21115496Y39211608D01*
X21240233Y39178884D01*
X21255245Y39178648D01*
X21255246Y39178648D01*
X21314097Y39177724D01*
X21409760Y39176221D01*
X21475284Y39191228D01*
X21560400Y39210721D01*
X21560404Y39210723D01*
X21575029Y39214072D01*
X21726498Y39290253D01*
X21741682Y39303221D01*
X21744385Y39305530D01*
X21829152Y39353003D01*
X21925634Y39364424D01*
X22019141Y39338053D01*
X22050341Y39319158D01*
X22059130Y39312912D01*
X22070233Y39302809D01*
X22083423Y39295648D01*
X22083425Y39295646D01*
X22206047Y39229068D01*
X22206050Y39229067D01*
X22219235Y39221908D01*
X22233747Y39218101D01*
X22233749Y39218100D01*
X22258496Y39211608D01*
X22383233Y39178884D01*
X22398245Y39178648D01*
X22398246Y39178648D01*
X22457097Y39177724D01*
X22552760Y39176221D01*
X22618284Y39191228D01*
X22703400Y39210721D01*
X22703404Y39210723D01*
X22718029Y39214072D01*
X22869498Y39290253D01*
X22998423Y39400366D01*
X23079612Y39513353D01*
X31284282Y39513353D01*
X31289342Y39505781D01*
X31342614Y39468479D01*
X31361366Y39457652D01*
X31547823Y39370706D01*
X31568180Y39363297D01*
X31766894Y39310052D01*
X31788220Y39306291D01*
X31993176Y39288360D01*
X32014824Y39288360D01*
X32219780Y39306291D01*
X32241106Y39310052D01*
X32439820Y39363297D01*
X32460177Y39370706D01*
X32646634Y39457652D01*
X32665386Y39468479D01*
X32709382Y39499286D01*
X32723805Y39514353D01*
X32720138Y39522687D01*
X32021342Y40221484D01*
X32004000Y40233071D01*
X31986658Y40221484D01*
X31295870Y39530695D01*
X31284282Y39513353D01*
X23079612Y39513353D01*
X23097361Y39538053D01*
X23105237Y39557644D01*
X23155001Y39681435D01*
X23155002Y39681437D01*
X23160601Y39695366D01*
X23163397Y39715007D01*
X23183342Y39855153D01*
X23183342Y39855159D01*
X23184490Y39863222D01*
X23184491Y39863291D01*
X23209886Y39954258D01*
X23255975Y40017872D01*
X23819658Y40581555D01*
X30699981Y40581555D01*
X30717912Y40376599D01*
X30721673Y40355273D01*
X30774918Y40156559D01*
X30782327Y40136202D01*
X30869273Y39949745D01*
X30880100Y39930993D01*
X30910907Y39886997D01*
X30925974Y39872574D01*
X30934308Y39876241D01*
X31633105Y40575037D01*
X31644692Y40592379D01*
X32363308Y40592379D01*
X32374895Y40575037D01*
X33065684Y39884249D01*
X33083026Y39872661D01*
X33090598Y39877721D01*
X33127900Y39930993D01*
X33138727Y39949745D01*
X33225673Y40136202D01*
X33233082Y40156559D01*
X33286327Y40355273D01*
X33290088Y40376599D01*
X33308019Y40581555D01*
X33308019Y40603203D01*
X33290088Y40808159D01*
X33286327Y40829485D01*
X33233082Y41028199D01*
X33225673Y41048556D01*
X33138727Y41235013D01*
X33127900Y41253765D01*
X33097093Y41297761D01*
X33082026Y41312184D01*
X33073692Y41308517D01*
X32374895Y40609721D01*
X32363308Y40592379D01*
X31644692Y40592379D01*
X31633105Y40609721D01*
X30942316Y41300509D01*
X30924974Y41312097D01*
X30917402Y41307037D01*
X30880100Y41253765D01*
X30869273Y41235013D01*
X30782327Y41048556D01*
X30774918Y41028199D01*
X30721673Y40829485D01*
X30717912Y40808159D01*
X30699981Y40603203D01*
X30699981Y40581555D01*
X23819658Y40581555D01*
X25485836Y42247733D01*
X30903500Y42247733D01*
X30906618Y42221533D01*
X30952061Y42119226D01*
X31031287Y42040138D01*
X31119268Y42001241D01*
X31119275Y42001238D01*
X31133673Y41994873D01*
X31133378Y41994207D01*
X31204179Y41958907D01*
X31267918Y41885583D01*
X31298746Y41793449D01*
X31291969Y41696530D01*
X31283807Y41671779D01*
X31283705Y41671517D01*
X31287862Y41662071D01*
X31986658Y40963274D01*
X32004000Y40951687D01*
X32021342Y40963274D01*
X32712130Y41654063D01*
X32724393Y41672416D01*
X32716013Y41714544D01*
X32716012Y41811699D01*
X32753192Y41901458D01*
X32821890Y41970157D01*
X32875082Y41994465D01*
X32874846Y41994997D01*
X32883059Y41998645D01*
X32977153Y42040440D01*
X33056241Y42119666D01*
X33089136Y42194072D01*
X33093937Y42204931D01*
X33093937Y42204932D01*
X33101506Y42222052D01*
X33104500Y42247733D01*
X33104500Y43381257D01*
X33123454Y43476545D01*
X33177430Y43557327D01*
X33258212Y43611303D01*
X33353500Y43630257D01*
X33448788Y43611303D01*
X33529570Y43557327D01*
X38719570Y38367327D01*
X38773546Y38286545D01*
X38792500Y38191257D01*
X38792500Y37477126D01*
X38773546Y37381838D01*
X38729003Y37311240D01*
X38718604Y37302169D01*
X38621113Y37163453D01*
X38615659Y37149464D01*
X38564976Y37019472D01*
X38564975Y37019468D01*
X38559524Y37005487D01*
X38537394Y36837389D01*
X38555999Y36668865D01*
X38614266Y36509644D01*
X38708830Y36368917D01*
X38834233Y36254809D01*
X38847425Y36247647D01*
X38847424Y36247647D01*
X38970047Y36181068D01*
X38970050Y36181067D01*
X38983235Y36173908D01*
X38997747Y36170101D01*
X38997749Y36170100D01*
X39025877Y36162721D01*
X39147233Y36130884D01*
X39162245Y36130648D01*
X39162246Y36130648D01*
X39221097Y36129724D01*
X39316760Y36128221D01*
X39405715Y36148594D01*
X39467400Y36162721D01*
X39467404Y36162723D01*
X39482029Y36166072D01*
X39633498Y36242253D01*
X39762423Y36352366D01*
X39861361Y36490053D01*
X39924601Y36647366D01*
X39948490Y36815222D01*
X39948645Y36830000D01*
X39928276Y36998320D01*
X39868345Y37156923D01*
X39831601Y37210386D01*
X39780813Y37284283D01*
X39780810Y37284286D01*
X39772312Y37296651D01*
X39761107Y37306634D01*
X39755723Y37312741D01*
X39706925Y37396752D01*
X39693500Y37477408D01*
X39693500Y38439531D01*
X39695226Y38468797D01*
X39696176Y38476826D01*
X39698364Y38495311D01*
X39688169Y38551128D01*
X39686888Y38558828D01*
X39680883Y38598773D01*
X39680883Y38598775D01*
X39678449Y38614962D01*
X39675321Y38621475D01*
X39674025Y38628573D01*
X39666490Y38643079D01*
X39666487Y38643086D01*
X39647871Y38678924D01*
X39644376Y38685918D01*
X39626890Y38722332D01*
X39626888Y38722336D01*
X39619809Y38737079D01*
X39614907Y38742382D01*
X39611579Y38748789D01*
X39607275Y38753828D01*
X39571733Y38789370D01*
X39564956Y38796419D01*
X39540489Y38822888D01*
X39540487Y38822890D01*
X39527854Y38836556D01*
X39520162Y38841024D01*
X39519368Y38841735D01*
X39448084Y38913019D01*
X39394108Y38993801D01*
X39375154Y39089089D01*
X39394108Y39184377D01*
X39448084Y39265159D01*
X39528866Y39319135D01*
X39568566Y39331805D01*
X39609029Y39341072D01*
X39760498Y39417253D01*
X39889423Y39527366D01*
X39988361Y39665053D01*
X40003522Y39702766D01*
X40046001Y39808435D01*
X40046002Y39808437D01*
X40051601Y39822366D01*
X40054248Y39840959D01*
X40074341Y39982149D01*
X40075490Y39990222D01*
X40075582Y39998963D01*
X40075642Y39999247D01*
X40076193Y40006496D01*
X40077148Y40006423D01*
X40095539Y40094046D01*
X40150364Y40174254D01*
X40236659Y40228384D01*
X40244029Y40230072D01*
X40395498Y40306253D01*
X40524423Y40416366D01*
X40623361Y40554053D01*
X40641523Y40599231D01*
X40681001Y40697435D01*
X40681002Y40697437D01*
X40686601Y40711366D01*
X40695571Y40774389D01*
X40709341Y40871149D01*
X40710490Y40879222D01*
X40710582Y40887963D01*
X40710642Y40888247D01*
X40711193Y40895496D01*
X40712148Y40895423D01*
X40730539Y40983046D01*
X40785364Y41063254D01*
X40871659Y41117384D01*
X40879029Y41119072D01*
X41030498Y41195253D01*
X41045200Y41207809D01*
X41099006Y41253765D01*
X41113508Y41266150D01*
X41198275Y41313623D01*
X41294756Y41325043D01*
X41388263Y41298671D01*
X41442801Y41260978D01*
X41501233Y41207809D01*
X41514425Y41200647D01*
X41514424Y41200647D01*
X41637047Y41134068D01*
X41637050Y41134067D01*
X41650235Y41126908D01*
X41664748Y41123101D01*
X41678712Y41117572D01*
X41677579Y41114711D01*
X41742537Y41083107D01*
X41806984Y41010404D01*
X41838703Y40918573D01*
X41839658Y40903396D01*
X41839394Y40901389D01*
X41857999Y40732865D01*
X41916266Y40573644D01*
X42010830Y40432917D01*
X42136233Y40318809D01*
X42149425Y40311647D01*
X42149424Y40311647D01*
X42272047Y40245068D01*
X42272050Y40245067D01*
X42285235Y40237908D01*
X42299748Y40234101D01*
X42313712Y40228572D01*
X42312579Y40225711D01*
X42377537Y40194107D01*
X42441984Y40121404D01*
X42473703Y40029573D01*
X42474658Y40014396D01*
X42474394Y40012389D01*
X42475303Y40004158D01*
X42475303Y40004153D01*
X42476841Y39990222D01*
X42492999Y39843865D01*
X42551266Y39684644D01*
X42645830Y39543917D01*
X42771233Y39429809D01*
X42784425Y39422647D01*
X42784424Y39422647D01*
X42907047Y39356068D01*
X42907050Y39356067D01*
X42920235Y39348908D01*
X42934747Y39345101D01*
X42934749Y39345100D01*
X42962877Y39337721D01*
X43084233Y39305884D01*
X43099245Y39305648D01*
X43099246Y39305648D01*
X43158097Y39304724D01*
X43253760Y39303221D01*
X43323346Y39319158D01*
X43404400Y39337721D01*
X43404404Y39337723D01*
X43419029Y39341072D01*
X43570498Y39417253D01*
X43584694Y39429377D01*
X43588385Y39432530D01*
X43673152Y39480003D01*
X43769634Y39491424D01*
X43863141Y39465053D01*
X43894341Y39446158D01*
X43903130Y39439912D01*
X43914233Y39429809D01*
X43927423Y39422648D01*
X43927425Y39422646D01*
X44050047Y39356068D01*
X44050050Y39356067D01*
X44063235Y39348908D01*
X44077747Y39345101D01*
X44077749Y39345100D01*
X44105877Y39337721D01*
X44227233Y39305884D01*
X44242245Y39305648D01*
X44242246Y39305648D01*
X44301097Y39304724D01*
X44396760Y39303221D01*
X44466346Y39319158D01*
X44547400Y39337721D01*
X44547404Y39337723D01*
X44562029Y39341072D01*
X44713498Y39417253D01*
X44842423Y39527366D01*
X44941361Y39665053D01*
X44956522Y39702766D01*
X44999001Y39808435D01*
X44999002Y39808437D01*
X45004601Y39822366D01*
X45007248Y39840959D01*
X45027342Y39982153D01*
X45027342Y39982159D01*
X45028490Y39990222D01*
X45028491Y39990291D01*
X45053886Y40081258D01*
X45099975Y40144872D01*
X49819232Y44864129D01*
X49841147Y44883602D01*
X49847493Y44888605D01*
X49862110Y44900128D01*
X49894383Y44946823D01*
X49898910Y44953158D01*
X49922907Y44985647D01*
X49932634Y44998816D01*
X49935027Y45005632D01*
X49939131Y45011569D01*
X49956241Y45065669D01*
X49958717Y45073089D01*
X49972098Y45111192D01*
X49972100Y45111199D01*
X49977519Y45126631D01*
X49977802Y45133845D01*
X49979980Y45140730D01*
X49980500Y45147337D01*
X49980500Y45197603D01*
X49980692Y45207380D01*
X49982107Y45243393D01*
X49982838Y45261994D01*
X49980559Y45270591D01*
X49980500Y45271657D01*
X49980500Y46860500D01*
X49999454Y46955788D01*
X50053430Y47036570D01*
X50134212Y47090546D01*
X50229500Y47109500D01*
X51694646Y47109500D01*
X51701961Y47110371D01*
X51701969Y47110371D01*
X51702296Y47110410D01*
X51702299Y47110411D01*
X51720846Y47112618D01*
X51823153Y47158061D01*
X51902241Y47237287D01*
X51947506Y47339673D01*
X51950500Y47365354D01*
X51950500Y49154646D01*
X51947382Y49180846D01*
X51901939Y49283153D01*
X51834010Y49350964D01*
X51831247Y49353722D01*
X51777200Y49434457D01*
X51758163Y49529728D01*
X51777034Y49625033D01*
X51830939Y49705860D01*
X51886001Y49761018D01*
X51886002Y49761020D01*
X51902241Y49777287D01*
X51930940Y49842202D01*
X51939937Y49862552D01*
X51939937Y49862553D01*
X51947506Y49879673D01*
X51950500Y49905354D01*
X51950500Y51694646D01*
X51947382Y51720846D01*
X51901939Y51823153D01*
X51822713Y51902241D01*
X51720327Y51947506D01*
X51694646Y51950500D01*
X49905354Y51950500D01*
X49898039Y51949629D01*
X49898031Y51949629D01*
X49897704Y51949590D01*
X49897701Y51949589D01*
X49879154Y51947382D01*
X49776847Y51901939D01*
X49697759Y51822713D01*
X49652494Y51720327D01*
X49649500Y51694646D01*
X49649500Y51611853D01*
X49630546Y51516565D01*
X49576570Y51435783D01*
X49495788Y51381807D01*
X49400500Y51362853D01*
X49305212Y51381807D01*
X49224430Y51435783D01*
X49200988Y51462871D01*
X49125483Y51563985D01*
X49125478Y51563991D01*
X49118651Y51573133D01*
X48963381Y51716663D01*
X48929694Y51737918D01*
X48794210Y51823403D01*
X48794206Y51823405D01*
X48784554Y51829495D01*
X48643750Y51885670D01*
X48598756Y51903621D01*
X48598752Y51903622D01*
X48588160Y51907848D01*
X48576975Y51910073D01*
X48576971Y51910074D01*
X48391968Y51946873D01*
X48391964Y51946873D01*
X48380775Y51949099D01*
X48264912Y51950616D01*
X48180752Y51951718D01*
X48180748Y51951718D01*
X48169346Y51951867D01*
X48058569Y51932832D01*
X47972206Y51917993D01*
X47972202Y51917992D01*
X47960953Y51916059D01*
X47950238Y51912106D01*
X47773289Y51846826D01*
X47773286Y51846824D01*
X47762575Y51842873D01*
X47580856Y51734762D01*
X47572271Y51727233D01*
X47430462Y51602871D01*
X47430458Y51602867D01*
X47421881Y51595345D01*
X47414816Y51586383D01*
X47414815Y51586382D01*
X47397162Y51563989D01*
X47290976Y51429292D01*
X47285663Y51419193D01*
X47285662Y51419192D01*
X47209622Y51274664D01*
X47148480Y51199160D01*
X47063099Y51152802D01*
X46966476Y51142647D01*
X46873322Y51170240D01*
X46797818Y51231382D01*
X46765941Y51280469D01*
X46720061Y51373505D01*
X46710217Y51393466D01*
X46710216Y51393468D01*
X46705165Y51403710D01*
X46578651Y51573133D01*
X46423381Y51716663D01*
X46389694Y51737918D01*
X46254210Y51823403D01*
X46254206Y51823405D01*
X46244554Y51829495D01*
X46103750Y51885670D01*
X46058756Y51903621D01*
X46058752Y51903622D01*
X46048160Y51907848D01*
X46036975Y51910073D01*
X46036971Y51910074D01*
X45851968Y51946873D01*
X45851964Y51946873D01*
X45840775Y51949099D01*
X45724912Y51950616D01*
X45640752Y51951718D01*
X45640748Y51951718D01*
X45629346Y51951867D01*
X45518569Y51932832D01*
X45432206Y51917993D01*
X45432202Y51917992D01*
X45420953Y51916059D01*
X45410238Y51912106D01*
X45233289Y51846826D01*
X45233286Y51846824D01*
X45222575Y51842873D01*
X45040856Y51734762D01*
X45032271Y51727233D01*
X44890462Y51602871D01*
X44890458Y51602867D01*
X44881881Y51595345D01*
X44874816Y51586383D01*
X44874815Y51586382D01*
X44857162Y51563989D01*
X44750976Y51429292D01*
X44745663Y51419193D01*
X44745662Y51419192D01*
X44669622Y51274664D01*
X44608480Y51199160D01*
X44523099Y51152802D01*
X44426476Y51142647D01*
X44333322Y51170240D01*
X44257818Y51231382D01*
X44225941Y51280469D01*
X44180061Y51373505D01*
X44170217Y51393466D01*
X44170216Y51393468D01*
X44165165Y51403710D01*
X44038651Y51573133D01*
X43883381Y51716663D01*
X43849694Y51737918D01*
X43714210Y51823403D01*
X43714206Y51823405D01*
X43704554Y51829495D01*
X43563750Y51885670D01*
X43518756Y51903621D01*
X43518752Y51903622D01*
X43508160Y51907848D01*
X43496975Y51910073D01*
X43496971Y51910074D01*
X43311968Y51946873D01*
X43311964Y51946873D01*
X43300775Y51949099D01*
X43184912Y51950616D01*
X43100752Y51951718D01*
X43100748Y51951718D01*
X43089346Y51951867D01*
X42978569Y51932832D01*
X42892206Y51917993D01*
X42892202Y51917992D01*
X42880953Y51916059D01*
X42870238Y51912106D01*
X42693289Y51846826D01*
X42693286Y51846824D01*
X42682575Y51842873D01*
X42500856Y51734762D01*
X42492271Y51727233D01*
X42350462Y51602871D01*
X42350458Y51602867D01*
X42341881Y51595345D01*
X42334816Y51586383D01*
X42334815Y51586382D01*
X42317162Y51563989D01*
X42210976Y51429292D01*
X42205663Y51419193D01*
X42205662Y51419192D01*
X42129622Y51274664D01*
X42068480Y51199160D01*
X41983099Y51152802D01*
X41886476Y51142647D01*
X41793322Y51170240D01*
X41717818Y51231382D01*
X41685941Y51280469D01*
X41640061Y51373505D01*
X41630217Y51393466D01*
X41630216Y51393468D01*
X41625165Y51403710D01*
X41498651Y51573133D01*
X41343381Y51716663D01*
X41309694Y51737918D01*
X41174210Y51823403D01*
X41174206Y51823405D01*
X41164554Y51829495D01*
X41023750Y51885670D01*
X40978756Y51903621D01*
X40978752Y51903622D01*
X40968160Y51907848D01*
X40956975Y51910073D01*
X40956971Y51910074D01*
X40771968Y51946873D01*
X40771964Y51946873D01*
X40760775Y51949099D01*
X40644912Y51950616D01*
X40560752Y51951718D01*
X40560748Y51951718D01*
X40549346Y51951867D01*
X40438569Y51932832D01*
X40352206Y51917993D01*
X40352202Y51917992D01*
X40340953Y51916059D01*
X40330238Y51912106D01*
X40153289Y51846826D01*
X40153286Y51846824D01*
X40142575Y51842873D01*
X39960856Y51734762D01*
X39952271Y51727233D01*
X39810462Y51602871D01*
X39810458Y51602867D01*
X39801881Y51595345D01*
X39794816Y51586383D01*
X39794815Y51586382D01*
X39777162Y51563989D01*
X39670976Y51429292D01*
X39665663Y51419193D01*
X39665662Y51419192D01*
X39589622Y51274664D01*
X39528480Y51199160D01*
X39443099Y51152802D01*
X39346476Y51142647D01*
X39253322Y51170240D01*
X39177818Y51231382D01*
X39145941Y51280469D01*
X39100061Y51373505D01*
X39090217Y51393466D01*
X39090216Y51393468D01*
X39085165Y51403710D01*
X38958651Y51573133D01*
X38803381Y51716663D01*
X38769694Y51737918D01*
X38634210Y51823403D01*
X38634206Y51823405D01*
X38624554Y51829495D01*
X38483750Y51885670D01*
X38438756Y51903621D01*
X38438752Y51903622D01*
X38428160Y51907848D01*
X38416975Y51910073D01*
X38416971Y51910074D01*
X38231968Y51946873D01*
X38231964Y51946873D01*
X38220775Y51949099D01*
X38104912Y51950616D01*
X38020752Y51951718D01*
X38020748Y51951718D01*
X38009346Y51951867D01*
X37898569Y51932832D01*
X37812206Y51917993D01*
X37812202Y51917992D01*
X37800953Y51916059D01*
X37790238Y51912106D01*
X37613289Y51846826D01*
X37613286Y51846824D01*
X37602575Y51842873D01*
X37420856Y51734762D01*
X37412271Y51727233D01*
X37270462Y51602871D01*
X37270458Y51602867D01*
X37261881Y51595345D01*
X37254816Y51586383D01*
X37254815Y51586382D01*
X37237162Y51563989D01*
X37130976Y51429292D01*
X37125663Y51419193D01*
X37125662Y51419192D01*
X37049622Y51274664D01*
X36988480Y51199160D01*
X36903099Y51152802D01*
X36806476Y51142647D01*
X36713322Y51170240D01*
X36637818Y51231382D01*
X36605941Y51280469D01*
X36560061Y51373505D01*
X36550217Y51393466D01*
X36550216Y51393468D01*
X36545165Y51403710D01*
X36418651Y51573133D01*
X36263381Y51716663D01*
X36229694Y51737918D01*
X36094210Y51823403D01*
X36094206Y51823405D01*
X36084554Y51829495D01*
X35943750Y51885670D01*
X35898756Y51903621D01*
X35898752Y51903622D01*
X35888160Y51907848D01*
X35876975Y51910073D01*
X35876971Y51910074D01*
X35691968Y51946873D01*
X35691964Y51946873D01*
X35680775Y51949099D01*
X35564912Y51950616D01*
X35480752Y51951718D01*
X35480748Y51951718D01*
X35469346Y51951867D01*
X35358569Y51932832D01*
X35272206Y51917993D01*
X35272202Y51917992D01*
X35260953Y51916059D01*
X35250238Y51912106D01*
X35073289Y51846826D01*
X35073286Y51846824D01*
X35062575Y51842873D01*
X34880856Y51734762D01*
X34872271Y51727233D01*
X34730462Y51602871D01*
X34730458Y51602867D01*
X34721881Y51595345D01*
X34714816Y51586383D01*
X34714815Y51586382D01*
X34697162Y51563989D01*
X34590976Y51429292D01*
X34585663Y51419193D01*
X34585662Y51419192D01*
X34509622Y51274664D01*
X34448480Y51199160D01*
X34363099Y51152802D01*
X34266476Y51142647D01*
X34173322Y51170240D01*
X34097818Y51231382D01*
X34065941Y51280469D01*
X34020061Y51373505D01*
X34010217Y51393466D01*
X34010216Y51393468D01*
X34005165Y51403710D01*
X33878651Y51573133D01*
X33723381Y51716663D01*
X33689694Y51737918D01*
X33554210Y51823403D01*
X33554206Y51823405D01*
X33544554Y51829495D01*
X33403750Y51885670D01*
X33358756Y51903621D01*
X33358752Y51903622D01*
X33348160Y51907848D01*
X33336975Y51910073D01*
X33336971Y51910074D01*
X33151968Y51946873D01*
X33151964Y51946873D01*
X33140775Y51949099D01*
X33024912Y51950616D01*
X32940752Y51951718D01*
X32940748Y51951718D01*
X32929346Y51951867D01*
X32818569Y51932832D01*
X32732206Y51917993D01*
X32732202Y51917992D01*
X32720953Y51916059D01*
X32710238Y51912106D01*
X32533289Y51846826D01*
X32533286Y51846824D01*
X32522575Y51842873D01*
X32340856Y51734762D01*
X32332271Y51727233D01*
X32190462Y51602871D01*
X32190458Y51602867D01*
X32181881Y51595345D01*
X32174816Y51586383D01*
X32174815Y51586382D01*
X32157162Y51563989D01*
X32050976Y51429292D01*
X31952523Y51242164D01*
X31949139Y51231264D01*
X31949138Y51231263D01*
X31939170Y51199160D01*
X31889820Y51040227D01*
X31864967Y50830246D01*
X31878796Y50619251D01*
X31909431Y50498626D01*
X31914516Y50401608D01*
X31882086Y50310026D01*
X31844163Y50261266D01*
X31460768Y49877871D01*
X31438854Y49858399D01*
X31417890Y49841872D01*
X31385617Y49795177D01*
X31381096Y49788851D01*
X31347366Y49743184D01*
X31344973Y49736368D01*
X31340869Y49730431D01*
X31335938Y49714839D01*
X31335937Y49714837D01*
X31323759Y49676331D01*
X31321283Y49668911D01*
X31307902Y49630808D01*
X31307900Y49630801D01*
X31302481Y49615369D01*
X31302198Y49608155D01*
X31300020Y49601270D01*
X31299500Y49594663D01*
X31299500Y49544397D01*
X31299308Y49534620D01*
X31297162Y49480006D01*
X31299441Y49471409D01*
X31299500Y49470343D01*
X31299500Y46015470D01*
X31297774Y45986204D01*
X31294636Y45959690D01*
X31297980Y45941382D01*
X31304823Y45903913D01*
X31306106Y45896201D01*
X31312116Y45856232D01*
X31314551Y45840038D01*
X31317679Y45833525D01*
X31318975Y45826427D01*
X31326513Y45811916D01*
X31326514Y45811913D01*
X31345114Y45776106D01*
X31348605Y45769121D01*
X31373191Y45717921D01*
X31378094Y45712617D01*
X31381421Y45706212D01*
X31385725Y45701172D01*
X31421267Y45665630D01*
X31428044Y45658581D01*
X31452511Y45632112D01*
X31452513Y45632110D01*
X31465146Y45618444D01*
X31472838Y45613976D01*
X31473632Y45613265D01*
X32468948Y44617949D01*
X32522924Y44537167D01*
X32541878Y44441879D01*
X32522924Y44346591D01*
X32468948Y44265809D01*
X32388166Y44211833D01*
X32292878Y44192879D01*
X31159354Y44192879D01*
X31152039Y44192008D01*
X31152031Y44192008D01*
X31151704Y44191969D01*
X31151701Y44191968D01*
X31133154Y44189761D01*
X31030847Y44144318D01*
X30951759Y44065092D01*
X30936818Y44031297D01*
X30916237Y43984743D01*
X30906494Y43962706D01*
X30903500Y43937025D01*
X30903500Y42247733D01*
X25485836Y42247733D01*
X27975232Y44737129D01*
X27997147Y44756602D01*
X28003493Y44761605D01*
X28018110Y44773128D01*
X28050383Y44819823D01*
X28054910Y44826158D01*
X28078907Y44858647D01*
X28088634Y44871816D01*
X28091027Y44878632D01*
X28095131Y44884569D01*
X28104894Y44915437D01*
X28112241Y44938669D01*
X28114717Y44946089D01*
X28128098Y44984192D01*
X28128100Y44984199D01*
X28133519Y44999631D01*
X28133802Y45006845D01*
X28135980Y45013730D01*
X28136500Y45020337D01*
X28136500Y45070603D01*
X28136692Y45080380D01*
X28138107Y45116393D01*
X28138838Y45134994D01*
X28136559Y45143591D01*
X28136500Y45144657D01*
X28136500Y46860500D01*
X28155454Y46955788D01*
X28209430Y47036570D01*
X28290212Y47090546D01*
X28385500Y47109500D01*
X29854646Y47109500D01*
X29861961Y47110371D01*
X29861969Y47110371D01*
X29862296Y47110410D01*
X29862299Y47110411D01*
X29880846Y47112618D01*
X29983153Y47158061D01*
X30062241Y47237287D01*
X30107506Y47339673D01*
X30110500Y47365354D01*
X30110500Y49154646D01*
X30107382Y49180846D01*
X30061939Y49283153D01*
X29994010Y49350964D01*
X29991247Y49353722D01*
X29937200Y49434457D01*
X29918163Y49529728D01*
X29937034Y49625033D01*
X29990939Y49705860D01*
X30046001Y49761018D01*
X30046002Y49761020D01*
X30062241Y49777287D01*
X30090940Y49842202D01*
X30099937Y49862552D01*
X30099937Y49862553D01*
X30107506Y49879673D01*
X30110500Y49905354D01*
X30110500Y51694646D01*
X30107382Y51720846D01*
X30061939Y51823153D01*
X29982713Y51902241D01*
X29880327Y51947506D01*
X29854646Y51950500D01*
X28065354Y51950500D01*
X28058039Y51949629D01*
X28058031Y51949629D01*
X28057704Y51949590D01*
X28057701Y51949589D01*
X28039154Y51947382D01*
X27936847Y51901939D01*
X27857759Y51822713D01*
X27812494Y51720327D01*
X27809500Y51694646D01*
X27809500Y51611853D01*
X27790546Y51516565D01*
X27736570Y51435783D01*
X27655788Y51381807D01*
X27560500Y51362853D01*
X27465212Y51381807D01*
X27384430Y51435783D01*
X27360988Y51462871D01*
X27285483Y51563985D01*
X27285478Y51563991D01*
X27278651Y51573133D01*
X27123381Y51716663D01*
X27089694Y51737918D01*
X26954210Y51823403D01*
X26954206Y51823405D01*
X26944554Y51829495D01*
X26803750Y51885670D01*
X26758756Y51903621D01*
X26758752Y51903622D01*
X26748160Y51907848D01*
X26736975Y51910073D01*
X26736971Y51910074D01*
X26551968Y51946873D01*
X26551964Y51946873D01*
X26540775Y51949099D01*
X26424912Y51950616D01*
X26340752Y51951718D01*
X26340748Y51951718D01*
X26329346Y51951867D01*
X26218569Y51932832D01*
X26132206Y51917993D01*
X26132202Y51917992D01*
X26120953Y51916059D01*
X26110238Y51912106D01*
X25933289Y51846826D01*
X25933286Y51846824D01*
X25922575Y51842873D01*
X25740856Y51734762D01*
X25732271Y51727233D01*
X25590462Y51602871D01*
X25590458Y51602867D01*
X25581881Y51595345D01*
X25574816Y51586383D01*
X25574815Y51586382D01*
X25557162Y51563989D01*
X25450976Y51429292D01*
X25445663Y51419193D01*
X25445662Y51419192D01*
X25369622Y51274664D01*
X25308480Y51199160D01*
X25223099Y51152802D01*
X25126476Y51142647D01*
X25033322Y51170240D01*
X24957818Y51231382D01*
X24925941Y51280469D01*
X24880061Y51373505D01*
X24870217Y51393466D01*
X24870216Y51393468D01*
X24865165Y51403710D01*
X24738651Y51573133D01*
X24583381Y51716663D01*
X24549694Y51737918D01*
X24414210Y51823403D01*
X24414206Y51823405D01*
X24404554Y51829495D01*
X24263750Y51885670D01*
X24218756Y51903621D01*
X24218752Y51903622D01*
X24208160Y51907848D01*
X24196975Y51910073D01*
X24196971Y51910074D01*
X24011968Y51946873D01*
X24011964Y51946873D01*
X24000775Y51949099D01*
X23884912Y51950616D01*
X23800752Y51951718D01*
X23800748Y51951718D01*
X23789346Y51951867D01*
X23678569Y51932832D01*
X23592206Y51917993D01*
X23592202Y51917992D01*
X23580953Y51916059D01*
X23570238Y51912106D01*
X23393289Y51846826D01*
X23393286Y51846824D01*
X23382575Y51842873D01*
X23200856Y51734762D01*
X23192271Y51727233D01*
X23050462Y51602871D01*
X23050458Y51602867D01*
X23041881Y51595345D01*
X23034816Y51586383D01*
X23034815Y51586382D01*
X23017162Y51563989D01*
X22910976Y51429292D01*
X22905663Y51419193D01*
X22905662Y51419192D01*
X22829622Y51274664D01*
X22768480Y51199160D01*
X22683099Y51152802D01*
X22586476Y51142647D01*
X22493322Y51170240D01*
X22417818Y51231382D01*
X22385941Y51280469D01*
X22340061Y51373505D01*
X22330217Y51393466D01*
X22330216Y51393468D01*
X22325165Y51403710D01*
X22198651Y51573133D01*
X22043381Y51716663D01*
X22009694Y51737918D01*
X21874210Y51823403D01*
X21874206Y51823405D01*
X21864554Y51829495D01*
X21723750Y51885670D01*
X21678756Y51903621D01*
X21678752Y51903622D01*
X21668160Y51907848D01*
X21656975Y51910073D01*
X21656971Y51910074D01*
X21471968Y51946873D01*
X21471964Y51946873D01*
X21460775Y51949099D01*
X21344912Y51950616D01*
X21260752Y51951718D01*
X21260748Y51951718D01*
X21249346Y51951867D01*
X21138569Y51932832D01*
X21052206Y51917993D01*
X21052202Y51917992D01*
X21040953Y51916059D01*
X21030238Y51912106D01*
X20853289Y51846826D01*
X20853286Y51846824D01*
X20842575Y51842873D01*
X20660856Y51734762D01*
X20652271Y51727233D01*
X20510462Y51602871D01*
X20510458Y51602867D01*
X20501881Y51595345D01*
X20494816Y51586383D01*
X20494815Y51586382D01*
X20477162Y51563989D01*
X20370976Y51429292D01*
X20365663Y51419193D01*
X20365662Y51419192D01*
X20289622Y51274664D01*
X20228480Y51199160D01*
X20143099Y51152802D01*
X20046476Y51142647D01*
X19953322Y51170240D01*
X19877818Y51231382D01*
X19845941Y51280469D01*
X19800061Y51373505D01*
X19790217Y51393466D01*
X19790216Y51393468D01*
X19785165Y51403710D01*
X19658651Y51573133D01*
X19503381Y51716663D01*
X19469694Y51737918D01*
X19334210Y51823403D01*
X19334206Y51823405D01*
X19324554Y51829495D01*
X19183750Y51885670D01*
X19138756Y51903621D01*
X19138752Y51903622D01*
X19128160Y51907848D01*
X19116975Y51910073D01*
X19116971Y51910074D01*
X18931968Y51946873D01*
X18931964Y51946873D01*
X18920775Y51949099D01*
X18804912Y51950616D01*
X18720752Y51951718D01*
X18720748Y51951718D01*
X18709346Y51951867D01*
X18598569Y51932832D01*
X18512206Y51917993D01*
X18512202Y51917992D01*
X18500953Y51916059D01*
X18490238Y51912106D01*
X18313289Y51846826D01*
X18313286Y51846824D01*
X18302575Y51842873D01*
X18120856Y51734762D01*
X18112271Y51727233D01*
X17970462Y51602871D01*
X17970458Y51602867D01*
X17961881Y51595345D01*
X17954816Y51586383D01*
X17954815Y51586382D01*
X17937162Y51563989D01*
X17830976Y51429292D01*
X17825663Y51419193D01*
X17825662Y51419192D01*
X17749622Y51274664D01*
X17688480Y51199160D01*
X17603099Y51152802D01*
X17506476Y51142647D01*
X17413322Y51170240D01*
X17337818Y51231382D01*
X17305941Y51280469D01*
X17260061Y51373505D01*
X17250217Y51393466D01*
X17250216Y51393468D01*
X17245165Y51403710D01*
X17118651Y51573133D01*
X16963381Y51716663D01*
X16929694Y51737918D01*
X16794210Y51823403D01*
X16794206Y51823405D01*
X16784554Y51829495D01*
X16643750Y51885670D01*
X16598756Y51903621D01*
X16598752Y51903622D01*
X16588160Y51907848D01*
X16576975Y51910073D01*
X16576971Y51910074D01*
X16391968Y51946873D01*
X16391964Y51946873D01*
X16380775Y51949099D01*
X16264912Y51950616D01*
X16180752Y51951718D01*
X16180748Y51951718D01*
X16169346Y51951867D01*
X16058569Y51932832D01*
X15972206Y51917993D01*
X15972202Y51917992D01*
X15960953Y51916059D01*
X15950238Y51912106D01*
X15773289Y51846826D01*
X15773286Y51846824D01*
X15762575Y51842873D01*
X15580856Y51734762D01*
X15572271Y51727233D01*
X15430462Y51602871D01*
X15430458Y51602867D01*
X15421881Y51595345D01*
X15304523Y51446477D01*
X15230649Y51383381D01*
X15138249Y51353358D01*
X15041394Y51360980D01*
X14954828Y51405087D01*
X14893341Y51476131D01*
X14887362Y51486487D01*
X14764347Y51662170D01*
X14750424Y51678764D01*
X14598761Y51830427D01*
X14582177Y51844343D01*
X14406478Y51967369D01*
X14387732Y51978192D01*
X14193343Y52068837D01*
X14172986Y52076246D01*
X13993691Y52124288D01*
X13972877Y52125652D01*
X13970989Y52121825D01*
X13970000Y52114311D01*
X13970000Y46953891D01*
X13974069Y46933433D01*
X13978257Y46932600D01*
X13985771Y46933590D01*
X14172986Y46983754D01*
X14201341Y46994074D01*
X14297366Y47008852D01*
X14391736Y46985758D01*
X14470085Y46928308D01*
X14520485Y46845248D01*
X14535500Y46760089D01*
X14535500Y44106743D01*
X14516546Y44011455D01*
X14462570Y43930673D01*
X14381788Y43876697D01*
X14286500Y43857743D01*
X14191212Y43876697D01*
X14110430Y43930673D01*
X11323672Y46717431D01*
X11269696Y46798213D01*
X11250742Y46893501D01*
X11269696Y46988789D01*
X11323672Y47069571D01*
X11404454Y47123547D01*
X11439937Y47135076D01*
X11449730Y47136496D01*
X11649955Y47204463D01*
X11834442Y47307781D01*
X11843216Y47315078D01*
X11843220Y47315081D01*
X11988231Y47435685D01*
X11997012Y47442988D01*
X12132219Y47605558D01*
X12132710Y47605149D01*
X12196130Y47666932D01*
X12286368Y47702935D01*
X12383515Y47701664D01*
X12472780Y47663314D01*
X12540575Y47593723D01*
X12547387Y47582608D01*
X12552638Y47573513D01*
X12675653Y47397830D01*
X12689576Y47381236D01*
X12841239Y47229573D01*
X12857823Y47215657D01*
X13033522Y47092631D01*
X13052268Y47081808D01*
X13246657Y46991163D01*
X13267014Y46983754D01*
X13446309Y46935712D01*
X13467123Y46934348D01*
X13469011Y46938175D01*
X13470000Y46945689D01*
X13470000Y52106109D01*
X13465931Y52126567D01*
X13461743Y52127400D01*
X13454229Y52126410D01*
X13267015Y52076246D01*
X13246652Y52068834D01*
X13052275Y51978195D01*
X13033518Y51967365D01*
X12857830Y51844347D01*
X12841236Y51830424D01*
X12689576Y51678764D01*
X12675653Y51662170D01*
X12552638Y51486487D01*
X12545726Y51474515D01*
X12481667Y51401471D01*
X12394531Y51358500D01*
X12297584Y51352146D01*
X12205585Y51383376D01*
X12130574Y51450033D01*
X12045479Y51563989D01*
X12038651Y51573133D01*
X11883381Y51716663D01*
X11849694Y51737918D01*
X11714210Y51823403D01*
X11714206Y51823405D01*
X11704554Y51829495D01*
X11563750Y51885670D01*
X11518756Y51903621D01*
X11518752Y51903622D01*
X11508160Y51907848D01*
X11496975Y51910073D01*
X11496971Y51910074D01*
X11311968Y51946873D01*
X11311964Y51946873D01*
X11300775Y51949099D01*
X11184912Y51950616D01*
X11100752Y51951718D01*
X11100748Y51951718D01*
X11089346Y51951867D01*
X10978569Y51932832D01*
X10892206Y51917993D01*
X10892202Y51917992D01*
X10880953Y51916059D01*
X10870238Y51912106D01*
X10693289Y51846826D01*
X10693286Y51846824D01*
X10682575Y51842873D01*
X10500856Y51734762D01*
X10492271Y51727233D01*
X10350462Y51602871D01*
X10350458Y51602867D01*
X10341881Y51595345D01*
X10334816Y51586383D01*
X10334815Y51586382D01*
X10317162Y51563989D01*
X10210976Y51429292D01*
X10205663Y51419193D01*
X10205662Y51419192D01*
X10129622Y51274664D01*
X10068480Y51199160D01*
X9983099Y51152802D01*
X9886476Y51142647D01*
X9793322Y51170240D01*
X9717818Y51231382D01*
X9685941Y51280469D01*
X9640061Y51373505D01*
X9630217Y51393466D01*
X9630216Y51393468D01*
X9625165Y51403710D01*
X9498651Y51573133D01*
X9343381Y51716663D01*
X9309694Y51737918D01*
X9174210Y51823403D01*
X9174206Y51823405D01*
X9164554Y51829495D01*
X9023750Y51885670D01*
X8978756Y51903621D01*
X8978752Y51903622D01*
X8968160Y51907848D01*
X8956975Y51910073D01*
X8956971Y51910074D01*
X8771968Y51946873D01*
X8771964Y51946873D01*
X8760775Y51949099D01*
X8644912Y51950616D01*
X8560752Y51951718D01*
X8560748Y51951718D01*
X8549346Y51951867D01*
X8438569Y51932832D01*
X8352206Y51917993D01*
X8352202Y51917992D01*
X8340953Y51916059D01*
X8330238Y51912106D01*
X8153289Y51846826D01*
X8153286Y51846824D01*
X8142575Y51842873D01*
X7960856Y51734762D01*
X7952271Y51727233D01*
X7810462Y51602871D01*
X7810458Y51602867D01*
X7801881Y51595345D01*
X7794816Y51586383D01*
X7794815Y51586382D01*
X7777162Y51563989D01*
X7670976Y51429292D01*
X7665663Y51419193D01*
X7665662Y51419192D01*
X7589622Y51274664D01*
X7528480Y51199160D01*
X7443099Y51152802D01*
X7346476Y51142647D01*
X7253322Y51170240D01*
X7177818Y51231382D01*
X7145941Y51280469D01*
X7100061Y51373505D01*
X7090217Y51393466D01*
X7090216Y51393468D01*
X7085165Y51403710D01*
X6958651Y51573133D01*
X6803381Y51716663D01*
X6769694Y51737918D01*
X6634210Y51823403D01*
X6634206Y51823405D01*
X6624554Y51829495D01*
X6483750Y51885670D01*
X6438756Y51903621D01*
X6438752Y51903622D01*
X6428160Y51907848D01*
X6416975Y51910073D01*
X6416971Y51910074D01*
X6231968Y51946873D01*
X6231964Y51946873D01*
X6220775Y51949099D01*
X6104912Y51950616D01*
X6020752Y51951718D01*
X6020748Y51951718D01*
X6009346Y51951867D01*
X5898569Y51932832D01*
X5812206Y51917993D01*
X5812202Y51917992D01*
X5800953Y51916059D01*
X5790238Y51912106D01*
X5613289Y51846826D01*
X5613286Y51846824D01*
X5602575Y51842873D01*
X5420856Y51734762D01*
X5412271Y51727233D01*
X5270462Y51602871D01*
X5270458Y51602867D01*
X5261881Y51595345D01*
X5254816Y51586383D01*
X5254815Y51586382D01*
X5237162Y51563989D01*
X5130976Y51429292D01*
X5032523Y51242164D01*
X5029139Y51231264D01*
X5029138Y51231263D01*
X5019170Y51199160D01*
X4969820Y51040227D01*
X4944967Y50830246D01*
X4958796Y50619251D01*
X4961605Y50608190D01*
X4961606Y50608185D01*
X4987551Y50506030D01*
X5010845Y50414310D01*
X5015624Y50403943D01*
X5015626Y50403938D01*
X5058920Y50310026D01*
X5099369Y50222286D01*
X5105955Y50212967D01*
X5121577Y50190863D01*
X5221405Y50049609D01*
X5372865Y49902063D01*
X5548677Y49784589D01*
X5603541Y49761018D01*
X5604723Y49760510D01*
X5684791Y49705480D01*
X5737705Y49623999D01*
X5755410Y49528471D01*
X5735210Y49433439D01*
X5680180Y49353371D01*
X5613626Y49306986D01*
X5613292Y49306827D01*
X5602575Y49302873D01*
X5592762Y49297035D01*
X5592760Y49297034D01*
X5534117Y49262145D01*
X5420856Y49194762D01*
X5412271Y49187233D01*
X5270462Y49062871D01*
X5270458Y49062867D01*
X5261881Y49055345D01*
X5254816Y49046383D01*
X5254815Y49046382D01*
X5237162Y49023989D01*
X5130976Y48889292D01*
X5032523Y48702164D01*
X4969820Y48500227D01*
X4944967Y48290246D01*
X750500Y48290246D01*
X750500Y50141924D01*
X751353Y50151675D01*
X751353Y50168546D01*
X755136Y50190000D01*
X751674Y50209635D01*
X751745Y50212167D01*
X766690Y50478284D01*
X769816Y50506030D01*
X792828Y50641471D01*
X815841Y50776919D01*
X822051Y50804123D01*
X898117Y51068154D01*
X907337Y51094504D01*
X907759Y51095522D01*
X1012486Y51348355D01*
X1024593Y51373497D01*
X1157507Y51613987D01*
X1172361Y51637627D01*
X1331357Y51861710D01*
X1348766Y51883540D01*
X1531847Y52088408D01*
X1551592Y52108153D01*
X1756460Y52291234D01*
X1778290Y52308643D01*
X2002373Y52467639D01*
X2026013Y52482493D01*
X2266503Y52615407D01*
X2291645Y52627514D01*
X2545496Y52732663D01*
X2571846Y52741883D01*
X2835877Y52817949D01*
X2863081Y52824159D01*
X2998528Y52847172D01*
X3133970Y52870184D01*
X3161716Y52873310D01*
X3427833Y52888255D01*
X3430365Y52888326D01*
X3450000Y52884864D01*
X3471454Y52888647D01*
X3488325Y52888647D01*
X3498076Y52889500D01*
X53401924Y52889500D01*
X53411675Y52888647D01*
G37*
%TD.AperFunction*%
%TA.AperFunction,Conductor*%
G36*
X48556288Y20551046D02*
G01*
X48637070Y20497070D01*
X48691046Y20416288D01*
X48710000Y20321000D01*
X48710000Y19013891D01*
X48714069Y18993433D01*
X48718257Y18992600D01*
X48725771Y18993590D01*
X48912986Y19043754D01*
X48943564Y19054883D01*
X48944333Y19052770D01*
X49022831Y19071982D01*
X49118856Y19057205D01*
X49201916Y19006806D01*
X49259367Y18928458D01*
X49282463Y18834088D01*
X49282700Y18823219D01*
X49282700Y18399943D01*
X49263746Y18304655D01*
X49209770Y18223873D01*
X43604413Y12618516D01*
X43523631Y12564540D01*
X43428343Y12545586D01*
X43333055Y12564540D01*
X43252273Y12618516D01*
X43195417Y12706572D01*
X43175652Y12758880D01*
X43175650Y12758884D01*
X43170345Y12772923D01*
X43130346Y12831122D01*
X43082813Y12900283D01*
X43082810Y12900286D01*
X43074312Y12912651D01*
X43063107Y12922634D01*
X43057723Y12928741D01*
X43008925Y13012752D01*
X42995500Y13093408D01*
X42995500Y16655257D01*
X43014454Y16750545D01*
X43068430Y16831327D01*
X45380455Y19143352D01*
X45461237Y19197328D01*
X45556525Y19216282D01*
X45611476Y19210142D01*
X45769186Y19174456D01*
X45884745Y19169915D01*
X45969060Y19166602D01*
X45969064Y19166602D01*
X45980470Y19166154D01*
X46189730Y19196496D01*
X46389955Y19264463D01*
X46574442Y19367781D01*
X46583216Y19375078D01*
X46583220Y19375081D01*
X46728231Y19495685D01*
X46737012Y19502988D01*
X46872219Y19665558D01*
X46872710Y19665149D01*
X46936130Y19726932D01*
X47026368Y19762935D01*
X47123515Y19761664D01*
X47212780Y19723314D01*
X47280575Y19653723D01*
X47287387Y19642608D01*
X47292638Y19633513D01*
X47415653Y19457830D01*
X47429576Y19441236D01*
X47581239Y19289573D01*
X47597823Y19275657D01*
X47773522Y19152631D01*
X47792268Y19141808D01*
X47986657Y19051163D01*
X48007014Y19043754D01*
X48186309Y18995712D01*
X48207123Y18994348D01*
X48209011Y18998175D01*
X48210000Y19005689D01*
X48210000Y20321000D01*
X48228954Y20416288D01*
X48282930Y20497070D01*
X48363712Y20551046D01*
X48459000Y20570000D01*
X48461000Y20570000D01*
X48556288Y20551046D01*
G37*
%TD.AperFunction*%
%TD*%
M02*
