%TF.GenerationSoftware,KiCad,Pcbnew,(6.0.10)*%
%TF.CreationDate,2023-04-16T17:05:03+02:00*%
%TF.ProjectId,arduino-level-shifter-shield,61726475-696e-46f2-9d6c-6576656c2d73,2*%
%TF.SameCoordinates,Original*%
%TF.FileFunction,Copper,L2,Bot*%
%TF.FilePolarity,Positive*%
%FSLAX46Y46*%
G04 Gerber Fmt 4.6, Leading zero omitted, Abs format (unit mm)*
G04 Created by KiCad (PCBNEW (6.0.10)) date 2023-04-16 17:05:03*
%MOMM*%
%LPD*%
G01*
G04 APERTURE LIST*
%TA.AperFunction,ComponentPad*%
%ADD10R,1.700000X1.700000*%
%TD*%
%TA.AperFunction,ComponentPad*%
%ADD11O,1.700000X1.700000*%
%TD*%
%TA.AperFunction,ComponentPad*%
%ADD12O,3.500000X2.200000*%
%TD*%
%TA.AperFunction,ComponentPad*%
%ADD13R,2.500000X1.500000*%
%TD*%
%TA.AperFunction,ComponentPad*%
%ADD14O,2.500000X1.500000*%
%TD*%
%TA.AperFunction,ComponentPad*%
%ADD15R,1.600000X1.600000*%
%TD*%
%TA.AperFunction,ComponentPad*%
%ADD16C,1.600000*%
%TD*%
%TA.AperFunction,ComponentPad*%
%ADD17C,1.440000*%
%TD*%
%TA.AperFunction,ViaPad*%
%ADD18C,0.900000*%
%TD*%
%TA.AperFunction,ViaPad*%
%ADD19C,0.800000*%
%TD*%
%TA.AperFunction,Conductor*%
%ADD20C,0.500000*%
%TD*%
%TA.AperFunction,Conductor*%
%ADD21C,0.300000*%
%TD*%
G04 APERTURE END LIST*
D10*
%TO.P,J53,1,Pin_1*%
%TO.N,/D8_A*%
X28960000Y48260000D03*
D11*
%TO.P,J53,2,Pin_2*%
%TO.N,/D9_A*%
X26420000Y48260000D03*
%TO.P,J53,3,Pin_3*%
%TO.N,/D10_A*%
X23880000Y48260000D03*
%TO.P,J53,4,Pin_4*%
%TO.N,/D11_A*%
X21340000Y48260000D03*
%TO.P,J53,5,Pin_5*%
%TO.N,/D12_A*%
X18800000Y48260000D03*
%TO.P,J53,6,Pin_6*%
%TO.N,/D13_A*%
X16260000Y48260000D03*
%TO.P,J53,7,Pin_7*%
%TO.N,GND*%
X13720000Y48260000D03*
%TO.P,J53,8,Pin_8*%
%TO.N,unconnected-(J53-Pad8)*%
X11180000Y48260000D03*
%TO.P,J53,9,Pin_9*%
%TO.N,/SDA_A*%
X8640000Y48260000D03*
%TO.P,J53,10,Pin_10*%
%TO.N,/SCL_A*%
X6100000Y48260000D03*
%TD*%
D12*
%TO.P,SW2,*%
%TO.N,*%
X3556000Y42943200D03*
X3556000Y30743200D03*
D13*
%TO.P,SW2,1,1*%
%TO.N,+3V3*%
X3556000Y40843200D03*
D14*
%TO.P,SW2,2,2*%
%TO.N,/VCC2*%
X3556000Y36843200D03*
%TO.P,SW2,3,3*%
%TO.N,/VCC2_REG*%
X3556000Y34843200D03*
%TO.P,SW2,4,4*%
%TO.N,/VCC2_EXT*%
X3556000Y32843200D03*
%TD*%
D10*
%TO.P,J46,1,Pin_1*%
%TO.N,/D0_B*%
X50800000Y50800000D03*
D11*
%TO.P,J46,2,Pin_2*%
%TO.N,/D1_B*%
X48260000Y50800000D03*
%TO.P,J46,3,Pin_3*%
%TO.N,/D2_B*%
X45720000Y50800000D03*
%TO.P,J46,4,Pin_4*%
%TO.N,/D3_B*%
X43180000Y50800000D03*
%TO.P,J46,5,Pin_5*%
%TO.N,/D4_B*%
X40640000Y50800000D03*
%TO.P,J46,6,Pin_6*%
%TO.N,/D5_B*%
X38100000Y50800000D03*
%TO.P,J46,7,Pin_7*%
%TO.N,/D6_B*%
X35560000Y50800000D03*
%TO.P,J46,8,Pin_8*%
%TO.N,/D7_B*%
X33020000Y50800000D03*
%TD*%
D15*
%TO.P,C13,1*%
%TO.N,/VCC1*%
X32004000Y43092379D03*
D16*
%TO.P,C13,2*%
%TO.N,GND*%
X32004000Y40592379D03*
%TD*%
D10*
%TO.P,J41,1,Pin_1*%
%TO.N,unconnected-(J41-Pad1)*%
X15240000Y2540000D03*
D11*
%TO.P,J41,2,Pin_2*%
%TO.N,/IOREF*%
X17780000Y2540000D03*
%TO.P,J41,3,Pin_3*%
%TO.N,unconnected-(J41-Pad3)*%
X20320000Y2540000D03*
%TO.P,J41,4,Pin_4*%
%TO.N,+3V3*%
X22860000Y2540000D03*
%TO.P,J41,5,Pin_5*%
%TO.N,+5V*%
X25400000Y2540000D03*
%TO.P,J41,6,Pin_6*%
%TO.N,GND*%
X27940000Y2540000D03*
%TO.P,J41,7,Pin_7*%
X30480000Y2540000D03*
%TO.P,J41,8,Pin_8*%
%TO.N,/VIN*%
X33020000Y2540000D03*
%TD*%
D10*
%TO.P,J56,1,Pin_1*%
%TO.N,/D0_A*%
X50800000Y48260000D03*
D11*
%TO.P,J56,2,Pin_2*%
%TO.N,/D1_A*%
X48260000Y48260000D03*
%TO.P,J56,3,Pin_3*%
%TO.N,/D2_A*%
X45720000Y48260000D03*
%TO.P,J56,4,Pin_4*%
%TO.N,/D3_A*%
X43180000Y48260000D03*
%TO.P,J56,5,Pin_5*%
%TO.N,/D4_A*%
X40640000Y48260000D03*
%TO.P,J56,6,Pin_6*%
%TO.N,/D5_A*%
X38100000Y48260000D03*
%TO.P,J56,7,Pin_7*%
%TO.N,/D6_A*%
X35560000Y48260000D03*
%TO.P,J56,8,Pin_8*%
%TO.N,/D7_A*%
X33020000Y48260000D03*
%TD*%
D10*
%TO.P,J55,1,Pin_1*%
%TO.N,/VCC3*%
X48460000Y30480000D03*
D11*
%TO.P,J55,2,Pin_2*%
%TO.N,/MOSI_A*%
X48460000Y27940000D03*
%TO.P,J55,3,Pin_3*%
%TO.N,GND*%
X48460000Y25400000D03*
%TD*%
D17*
%TO.P,R32,1*%
%TO.N,/VCC3_ADJ_MAX*%
X32004000Y6350000D03*
%TO.P,R32,2*%
%TO.N,/VCC3_ADJ_MIN*%
X29464000Y8890000D03*
%TO.P,R32,3*%
%TO.N,N/C*%
X32004000Y11430000D03*
%TD*%
D10*
%TO.P,J51,1,Pin_1*%
%TO.N,/S0_A*%
X51000000Y17780000D03*
D11*
%TO.P,J51,2,Pin_2*%
%TO.N,/S1_A*%
X51000000Y15240000D03*
%TO.P,J51,3,Pin_3*%
%TO.N,/S2_A*%
X51000000Y12700000D03*
%TO.P,J51,4,Pin_4*%
%TO.N,/S3_A*%
X51000000Y10160000D03*
%TO.P,J51,5,Pin_5*%
%TO.N,/VCC3*%
X51000000Y7620000D03*
%TD*%
D12*
%TO.P,SW3,*%
%TO.N,*%
X3556000Y22623200D03*
X3556000Y10423200D03*
D13*
%TO.P,SW3,1,1*%
%TO.N,+3V3*%
X3556000Y20523200D03*
D14*
%TO.P,SW3,2,2*%
%TO.N,/VCC3*%
X3556000Y16523200D03*
%TO.P,SW3,3,3*%
%TO.N,/VCC3_REG*%
X3556000Y14523200D03*
%TO.P,SW3,4,4*%
%TO.N,/VCC3_EXT*%
X3556000Y12523200D03*
%TD*%
D15*
%TO.P,C23,1*%
%TO.N,/VCC2*%
X10160000Y43092379D03*
D16*
%TO.P,C23,2*%
%TO.N,GND*%
X10160000Y40592379D03*
%TD*%
D10*
%TO.P,J43,1,Pin_1*%
%TO.N,unconnected-(J43-Pad1)*%
X50800000Y2540000D03*
D11*
%TO.P,J43,2,Pin_2*%
%TO.N,unconnected-(J43-Pad2)*%
X48260000Y2540000D03*
%TO.P,J43,3,Pin_3*%
%TO.N,unconnected-(J43-Pad3)*%
X45720000Y2540000D03*
%TO.P,J43,4,Pin_4*%
%TO.N,unconnected-(J43-Pad4)*%
X43180000Y2540000D03*
%TO.P,J43,5,Pin_5*%
%TO.N,unconnected-(J43-Pad5)*%
X40640000Y2540000D03*
%TO.P,J43,6,Pin_6*%
%TO.N,unconnected-(J43-Pad6)*%
X38100000Y2540000D03*
%TD*%
D10*
%TO.P,J52,1,Pin_1*%
%TO.N,/S0_B*%
X53540000Y17780000D03*
D11*
%TO.P,J52,2,Pin_2*%
%TO.N,/S1_B*%
X53540000Y15240000D03*
%TO.P,J52,3,Pin_3*%
%TO.N,/S2_B*%
X53540000Y12700000D03*
%TO.P,J52,4,Pin_4*%
%TO.N,/S3_B*%
X53540000Y10160000D03*
%TO.P,J52,5,Pin_5*%
%TO.N,GND*%
X53540000Y7620000D03*
%TD*%
D10*
%TO.P,J54,1,Pin_1*%
%TO.N,/MISO_A*%
X45920000Y30480000D03*
D11*
%TO.P,J54,2,Pin_2*%
%TO.N,/SCK_A*%
X45920000Y27940000D03*
%TO.P,J54,3,Pin_3*%
%TO.N,/RESET_A*%
X45920000Y25400000D03*
%TD*%
D17*
%TO.P,R22,1*%
%TO.N,/VCC2_ADJ_MAX*%
X12700000Y33655000D03*
%TO.P,R22,2*%
%TO.N,/VCC2_ADJ_MIN*%
X10160000Y31115000D03*
%TO.P,R22,3*%
%TO.N,N/C*%
X7620000Y33655000D03*
%TD*%
%TO.P,R12,1*%
%TO.N,/VCC1_ADJ_MAX*%
X34544000Y33655000D03*
%TO.P,R12,2*%
%TO.N,/VCC1_ADJ_MIN*%
X32004000Y31115000D03*
%TO.P,R12,3*%
%TO.N,N/C*%
X29464000Y33655000D03*
%TD*%
D10*
%TO.P,J1,1,Pin_1*%
%TO.N,/VCC1*%
X38300000Y33020000D03*
D11*
%TO.P,J1,2,Pin_2*%
%TO.N,GND*%
X40840000Y33020000D03*
%TO.P,J1,3,Pin_3*%
X43380000Y33020000D03*
%TO.P,J1,4,Pin_4*%
%TO.N,/VCC1_EXT*%
X45920000Y33020000D03*
%TO.P,J1,5,Pin_5*%
X48460000Y33020000D03*
%TD*%
D10*
%TO.P,J3,1,Pin_1*%
%TO.N,/VCC3_EXT*%
X5080000Y2540000D03*
D11*
%TO.P,J3,2,Pin_2*%
X7620000Y2540000D03*
%TO.P,J3,3,Pin_3*%
%TO.N,GND*%
X10160000Y2540000D03*
%TD*%
D10*
%TO.P,J42,1,Pin_1*%
%TO.N,/D8_B*%
X28960000Y50800000D03*
D11*
%TO.P,J42,2,Pin_2*%
%TO.N,/D9_B*%
X26420000Y50800000D03*
%TO.P,J42,3,Pin_3*%
%TO.N,/D10_B*%
X23880000Y50800000D03*
%TO.P,J42,4,Pin_4*%
%TO.N,/D11_B*%
X21340000Y50800000D03*
%TO.P,J42,5,Pin_5*%
%TO.N,/D12_B*%
X18800000Y50800000D03*
%TO.P,J42,6,Pin_6*%
%TO.N,/D13_B*%
X16260000Y50800000D03*
%TO.P,J42,7,Pin_7*%
%TO.N,GND*%
X13720000Y50800000D03*
%TO.P,J42,8,Pin_8*%
%TO.N,unconnected-(J42-Pad8)*%
X11180000Y50800000D03*
%TO.P,J42,9,Pin_9*%
%TO.N,/SDA_B*%
X8640000Y50800000D03*
%TO.P,J42,10,Pin_10*%
%TO.N,/SCL_B*%
X6100000Y50800000D03*
%TD*%
D10*
%TO.P,J2,1,Pin_1*%
%TO.N,/VCC2*%
X16002000Y33020000D03*
D11*
%TO.P,J2,2,Pin_2*%
%TO.N,GND*%
X18542000Y33020000D03*
%TO.P,J2,3,Pin_3*%
X21082000Y33020000D03*
%TO.P,J2,4,Pin_4*%
%TO.N,/VCC2_EXT*%
X23622000Y33020000D03*
%TO.P,J2,5,Pin_5*%
X26162000Y33020000D03*
%TD*%
D15*
%TO.P,C33,1*%
%TO.N,/VCC3*%
X32004000Y18327379D03*
D16*
%TO.P,C33,2*%
%TO.N,GND*%
X32004000Y15827379D03*
%TD*%
D12*
%TO.P,SW1,*%
%TO.N,*%
X53340000Y33266000D03*
X53340000Y45466000D03*
D13*
%TO.P,SW1,1,1*%
%TO.N,+3V3*%
X53340000Y35366000D03*
D14*
%TO.P,SW1,2,2*%
%TO.N,/VCC1*%
X53340000Y39366000D03*
%TO.P,SW1,3,3*%
%TO.N,/VCC1_REG*%
X53340000Y41366000D03*
%TO.P,SW1,4,4*%
%TO.N,/VCC1_EXT*%
X53340000Y43366000D03*
%TD*%
D11*
%TO.P,J47,3,Pin_3*%
%TO.N,/VIN*%
X19685000Y16510000D03*
%TO.P,J47,2,Pin_2*%
%TO.N,/VREG_IN*%
X17145000Y16510000D03*
D10*
%TO.P,J47,1,Pin_1*%
%TO.N,+5V*%
X14605000Y16510000D03*
%TD*%
%TO.P,J45,1,Pin_1*%
%TO.N,unconnected-(J45-Pad1)*%
X53540000Y30480000D03*
D11*
%TO.P,J45,2,Pin_2*%
%TO.N,/MOSI_B*%
X53540000Y27940000D03*
%TO.P,J45,3,Pin_3*%
%TO.N,GND*%
X53540000Y25400000D03*
%TD*%
D10*
%TO.P,J44,1,Pin_1*%
%TO.N,/MISO_B*%
X51000000Y30480000D03*
D11*
%TO.P,J44,2,Pin_2*%
%TO.N,/SCK_B*%
X51000000Y27940000D03*
%TO.P,J44,3,Pin_3*%
%TO.N,/RESET_B*%
X51000000Y25400000D03*
%TD*%
D18*
%TO.N,+5V*%
X15240000Y4826000D03*
%TO.N,GND*%
X26162000Y11938000D03*
X47945000Y41788000D03*
X15425500Y38412500D03*
X26096000Y41788000D03*
X24714200Y13208000D03*
X26289000Y24765000D03*
X24714200Y10922000D03*
X26289000Y27305000D03*
X26289000Y22479000D03*
X40753000Y17780000D03*
X42672000Y17794000D03*
X14605000Y39243000D03*
X36449000Y39370000D03*
X44196000Y6350000D03*
X6985000Y22479000D03*
X6985000Y24765000D03*
X47945000Y39878000D03*
X7239000Y27305000D03*
X26096000Y39878000D03*
X44979500Y7260500D03*
X37279500Y38412500D03*
%TO.N,/VCC1_REG*%
X34798000Y35687000D03*
%TO.N,/VCC3*%
X36372800Y18313400D03*
%TO.N,/VREG_IN*%
X13834000Y20710000D03*
%TO.N,/IOREF*%
X24638000Y19558000D03*
X24638000Y21844000D03*
X27889200Y36884430D03*
X37918570Y36884430D03*
D19*
%TO.N,/D8_B*%
X22479000Y39878000D03*
%TO.N,/D9_B*%
X21336000Y39878000D03*
%TO.N,/D10_B*%
X20701000Y40767000D03*
%TO.N,/D11_B*%
X20066000Y41783000D03*
%TO.N,/D12_B*%
X18796000Y41783000D03*
%TO.N,/D13_B*%
X18161000Y40767000D03*
%TO.N,/SDA_B*%
X17526000Y39878000D03*
%TO.N,/SCL_B*%
X17399000Y36830000D03*
%TO.N,/D0_B*%
X44323000Y40005000D03*
%TO.N,/D1_B*%
X43180000Y40005000D03*
%TO.N,/D2_B*%
X42545000Y40894000D03*
%TO.N,/D3_B*%
X41910000Y41783000D03*
%TO.N,/D4_B*%
X40640000Y41783000D03*
%TO.N,/D5_B*%
X39370000Y41783000D03*
%TO.N,/D6_B*%
X39370000Y40513000D03*
%TO.N,/D7_B*%
X38481000Y39878000D03*
%TO.N,/S0_A*%
X43434000Y10541000D03*
%TO.N,/S1_A*%
X42545000Y9906000D03*
%TO.N,/S2_A*%
X41656000Y9271000D03*
%TO.N,/S3_A*%
X40767000Y8636000D03*
%TO.N,/MISO_A*%
X40767000Y14097000D03*
%TO.N,/SCK_A*%
X41656000Y13081000D03*
%TO.N,/MOSI_A*%
X43434000Y11811000D03*
%TO.N,/RESET_A*%
X42545000Y12446000D03*
%TD*%
D20*
%TO.N,+5V*%
X14605000Y5461000D02*
X14605000Y16510000D01*
X15240000Y4826000D02*
X14605000Y5461000D01*
%TO.N,/VCC1_REG*%
X50292000Y40132000D02*
X51526000Y41366000D01*
X51526000Y41366000D02*
X53340000Y41366000D01*
X34798000Y35687000D02*
X49149000Y35687000D01*
X49149000Y35687000D02*
X50292000Y36830000D01*
X50292000Y36830000D02*
X50292000Y40132000D01*
%TO.N,/VCC3*%
X50165000Y32412000D02*
X50165000Y33655000D01*
X48460000Y30480000D02*
X48460000Y30707000D01*
X48460000Y30707000D02*
X50165000Y32412000D01*
X49149000Y34671000D02*
X37338000Y34671000D01*
X37338000Y34671000D02*
X36372800Y33705800D01*
X36372800Y33705800D02*
X36372800Y18313400D01*
X50165000Y33655000D02*
X49149000Y34671000D01*
%TO.N,/VCC2_EXT*%
X9398000Y32893000D02*
X10922000Y32893000D01*
X3556000Y32843200D02*
X5842000Y32843200D01*
X6965200Y31720000D02*
X8225000Y31720000D01*
X8225000Y31720000D02*
X9398000Y32893000D01*
X5842000Y32843200D02*
X6965200Y31720000D01*
X12446000Y31369000D02*
X21971000Y31369000D01*
X21971000Y31369000D02*
X23622000Y33020000D01*
X10922000Y32893000D02*
X12446000Y31369000D01*
X23622000Y33020000D02*
X26162000Y33020000D01*
%TO.N,/VREG_IN*%
X17145000Y16510000D02*
X13834000Y19821000D01*
X13834000Y19821000D02*
X13834000Y20710000D01*
%TO.N,/IOREF*%
X24638000Y19558000D02*
X24638000Y21844000D01*
X17780000Y10541000D02*
X24638000Y17399000D01*
X24638000Y17399000D02*
X24638000Y19558000D01*
X27889200Y36884430D02*
X37918570Y36884430D01*
X17780000Y2540000D02*
X17780000Y10541000D01*
D21*
%TO.N,/D8_B*%
X27686000Y45085000D02*
X27686000Y49526000D01*
X27686000Y49526000D02*
X28960000Y50800000D01*
X22479000Y39878000D02*
X27686000Y45085000D01*
%TO.N,/D9_B*%
X25146000Y49526000D02*
X26420000Y50800000D01*
X21336000Y39878000D02*
X21336000Y40259000D01*
X21336000Y40259000D02*
X25146000Y44069000D01*
X25146000Y44069000D02*
X25146000Y49526000D01*
%TO.N,/D10_B*%
X22606000Y42672000D02*
X22606000Y49526000D01*
X20701000Y40767000D02*
X22606000Y42672000D01*
X22606000Y49526000D02*
X23880000Y50800000D01*
%TO.N,/D11_B*%
X20066000Y49526000D02*
X21340000Y50800000D01*
X20066000Y41783000D02*
X20066000Y49526000D01*
%TO.N,/D12_B*%
X17526000Y49526000D02*
X18800000Y50800000D01*
X18796000Y41783000D02*
X17526000Y43053000D01*
X17526000Y43053000D02*
X17526000Y49526000D01*
%TO.N,/D13_B*%
X18161000Y40767000D02*
X14986000Y43942000D01*
X14986000Y43942000D02*
X14986000Y49526000D01*
X14986000Y49526000D02*
X16260000Y50800000D01*
%TO.N,/SDA_B*%
X17526000Y39878000D02*
X9906000Y47498000D01*
X9906000Y49534000D02*
X8640000Y50800000D01*
X9906000Y47498000D02*
X9906000Y49534000D01*
%TO.N,/SCL_B*%
X7366000Y49534000D02*
X6100000Y50800000D01*
X17399000Y36830000D02*
X17399000Y38481000D01*
X8128000Y46736000D02*
X7366000Y47498000D01*
X9144000Y46736000D02*
X8128000Y46736000D01*
X17399000Y38481000D02*
X9144000Y46736000D01*
X7366000Y47498000D02*
X7366000Y49534000D01*
%TO.N,/D0_B*%
X49530000Y45212000D02*
X49530000Y49530000D01*
X44323000Y40005000D02*
X49530000Y45212000D01*
X49530000Y49530000D02*
X50800000Y50800000D01*
%TO.N,/D1_B*%
X46990000Y49530000D02*
X48260000Y50800000D01*
X46990000Y43942000D02*
X46990000Y49530000D01*
X43180000Y40132000D02*
X46990000Y43942000D01*
X43180000Y40005000D02*
X43180000Y40132000D01*
%TO.N,/D2_B*%
X44450000Y49530000D02*
X45720000Y50800000D01*
X42545000Y40894000D02*
X44450000Y42799000D01*
X44450000Y42799000D02*
X44450000Y49530000D01*
%TO.N,/D3_B*%
X41910000Y49530000D02*
X43180000Y50800000D01*
X41910000Y41783000D02*
X41910000Y49530000D01*
%TO.N,/D4_B*%
X39370000Y43053000D02*
X39370000Y49530000D01*
X39370000Y49530000D02*
X40640000Y50800000D01*
X40640000Y41783000D02*
X39370000Y43053000D01*
%TO.N,/D5_B*%
X36830000Y44323000D02*
X36830000Y49530000D01*
X36830000Y49530000D02*
X38100000Y50800000D01*
X39370000Y41783000D02*
X36830000Y44323000D01*
%TO.N,/D6_B*%
X39370000Y40513000D02*
X38989000Y40894000D01*
X34290000Y45212000D02*
X34290000Y49530000D01*
X38989000Y40894000D02*
X38608000Y40894000D01*
X38608000Y40894000D02*
X34290000Y45212000D01*
X34290000Y49530000D02*
X35560000Y50800000D01*
%TO.N,/D7_B*%
X31750000Y49530000D02*
X33020000Y50800000D01*
X31750000Y46101000D02*
X31750000Y49530000D01*
X38481000Y39878000D02*
X37973000Y39878000D01*
X37973000Y39878000D02*
X31750000Y46101000D01*
%TO.N,/S0_A*%
X51000000Y17780000D02*
X50927000Y17780000D01*
X50927000Y17780000D02*
X43688000Y10541000D01*
X43688000Y10541000D02*
X43434000Y10541000D01*
%TO.N,/S1_A*%
X45412000Y9652000D02*
X51000000Y15240000D01*
X42545000Y9906000D02*
X42799000Y9652000D01*
X42799000Y9652000D02*
X45412000Y9652000D01*
%TO.N,/S2_A*%
X41656000Y9271000D02*
X42037000Y8890000D01*
X47190000Y8890000D02*
X51000000Y12700000D01*
X42037000Y8890000D02*
X47190000Y8890000D01*
%TO.N,/S3_A*%
X41275000Y8128000D02*
X40767000Y8636000D01*
X51000000Y10160000D02*
X48968000Y8128000D01*
X48968000Y8128000D02*
X41275000Y8128000D01*
%TO.N,/MISO_A*%
X43815000Y28375000D02*
X43815000Y17145000D01*
X45920000Y30480000D02*
X43815000Y28375000D01*
X43815000Y17145000D02*
X40767000Y14097000D01*
%TO.N,/SCK_A*%
X44577000Y16002000D02*
X41656000Y13081000D01*
X45920000Y27940000D02*
X44577000Y26597000D01*
X44577000Y26597000D02*
X44577000Y16002000D01*
%TO.N,/MOSI_A*%
X43434000Y11811000D02*
X47193200Y15570200D01*
X47193200Y26673200D02*
X48460000Y27940000D01*
X47193200Y15570200D02*
X47193200Y26673200D01*
%TO.N,/RESET_A*%
X45920000Y25400000D02*
X45920000Y15821000D01*
X45920000Y15821000D02*
X42545000Y12446000D01*
%TD*%
%TA.AperFunction,Conductor*%
%TO.N,GND*%
G36*
X53411675Y52888647D02*
G01*
X53428546Y52888647D01*
X53450000Y52884864D01*
X53469635Y52888326D01*
X53472167Y52888255D01*
X53738284Y52873310D01*
X53766030Y52870184D01*
X53901472Y52847172D01*
X54036919Y52824159D01*
X54064123Y52817949D01*
X54328154Y52741883D01*
X54354504Y52732663D01*
X54608355Y52627514D01*
X54633497Y52615407D01*
X54873987Y52482493D01*
X54897627Y52467639D01*
X55121710Y52308643D01*
X55143540Y52291234D01*
X55348408Y52108153D01*
X55368153Y52088408D01*
X55551234Y51883540D01*
X55568643Y51861710D01*
X55727639Y51637627D01*
X55742493Y51613987D01*
X55875407Y51373497D01*
X55887514Y51348355D01*
X55992241Y51095522D01*
X55992663Y51094504D01*
X56001883Y51068154D01*
X56077949Y50804123D01*
X56084159Y50776919D01*
X56107172Y50641472D01*
X56130184Y50506030D01*
X56133310Y50478284D01*
X56148255Y50212167D01*
X56148326Y50209635D01*
X56144864Y50190000D01*
X56148647Y50168546D01*
X56148647Y50151675D01*
X56149500Y50141924D01*
X56149500Y3238076D01*
X56148647Y3228325D01*
X56148647Y3211454D01*
X56144864Y3190000D01*
X56148326Y3170365D01*
X56148255Y3167833D01*
X56133310Y2901716D01*
X56130184Y2873970D01*
X56084160Y2603087D01*
X56077949Y2575877D01*
X56001885Y2311851D01*
X55992663Y2285496D01*
X55887514Y2031645D01*
X55875407Y2006503D01*
X55748003Y1775982D01*
X55742496Y1766017D01*
X55727639Y1742373D01*
X55568643Y1518290D01*
X55551234Y1496460D01*
X55368153Y1291592D01*
X55348408Y1271847D01*
X55143540Y1088766D01*
X55121710Y1071357D01*
X54897627Y912361D01*
X54873987Y897507D01*
X54633497Y764593D01*
X54608355Y752486D01*
X54355522Y647759D01*
X54354504Y647337D01*
X54328154Y638117D01*
X54064123Y562051D01*
X54036919Y555841D01*
X53901472Y532828D01*
X53766030Y509816D01*
X53738284Y506690D01*
X53472167Y491745D01*
X53469635Y491674D01*
X53450000Y495136D01*
X53428546Y491353D01*
X53411675Y491353D01*
X53401924Y490500D01*
X3498076Y490500D01*
X3488325Y491353D01*
X3471454Y491353D01*
X3450000Y495136D01*
X3430365Y491674D01*
X3427833Y491745D01*
X3161716Y506690D01*
X3133970Y509816D01*
X2998529Y532828D01*
X2863081Y555841D01*
X2835877Y562051D01*
X2571846Y638117D01*
X2545496Y647337D01*
X2544478Y647759D01*
X2291645Y752486D01*
X2266503Y764593D01*
X2026013Y897507D01*
X2002373Y912361D01*
X1778290Y1071357D01*
X1756460Y1088766D01*
X1551592Y1271847D01*
X1531847Y1291592D01*
X1348766Y1496460D01*
X1331357Y1518290D01*
X1241200Y1645354D01*
X3929500Y1645354D01*
X3932618Y1619154D01*
X3978061Y1516847D01*
X4057287Y1437759D01*
X4159673Y1392494D01*
X4185354Y1389500D01*
X5974646Y1389500D01*
X5981961Y1390371D01*
X5981969Y1390371D01*
X5982296Y1390410D01*
X5982299Y1390411D01*
X6000846Y1392618D01*
X6103153Y1438061D01*
X6182241Y1517287D01*
X6227506Y1619673D01*
X6230500Y1645354D01*
X6230500Y1728762D01*
X6249454Y1824050D01*
X6303430Y1904832D01*
X6384212Y1958808D01*
X6479500Y1977762D01*
X6574788Y1958808D01*
X6655570Y1904832D01*
X6682844Y1872471D01*
X6741405Y1789609D01*
X6892865Y1642063D01*
X7068677Y1524589D01*
X7136019Y1495657D01*
X7252464Y1445628D01*
X7252468Y1445627D01*
X7262953Y1441122D01*
X7469186Y1394456D01*
X7584745Y1389915D01*
X7669060Y1386602D01*
X7669064Y1386602D01*
X7680470Y1386154D01*
X7889730Y1416496D01*
X8089955Y1484463D01*
X8274442Y1587781D01*
X8283216Y1595078D01*
X8283220Y1595081D01*
X8428231Y1715685D01*
X8437012Y1722988D01*
X8572219Y1885558D01*
X8572710Y1885149D01*
X8636130Y1946932D01*
X8726368Y1982935D01*
X8823515Y1981664D01*
X8912780Y1943314D01*
X8980575Y1873723D01*
X8987387Y1862608D01*
X8992638Y1853513D01*
X9115653Y1677830D01*
X9129576Y1661236D01*
X9281239Y1509573D01*
X9297823Y1495657D01*
X9473522Y1372631D01*
X9492268Y1361808D01*
X9686657Y1271163D01*
X9707014Y1263754D01*
X9886309Y1215712D01*
X9907123Y1214348D01*
X9909011Y1218175D01*
X9910000Y1225689D01*
X9910000Y1233891D01*
X10410000Y1233891D01*
X10414069Y1213433D01*
X10418257Y1212600D01*
X10425771Y1213590D01*
X10612986Y1263754D01*
X10633343Y1271163D01*
X10827732Y1361808D01*
X10846478Y1372631D01*
X11022177Y1495657D01*
X11038761Y1509573D01*
X11190424Y1661236D01*
X11204347Y1677830D01*
X11327365Y1853518D01*
X11338195Y1872275D01*
X11428834Y2066652D01*
X11436246Y2087015D01*
X11484288Y2266309D01*
X11485652Y2287123D01*
X11481825Y2289011D01*
X11474311Y2290000D01*
X10434527Y2290000D01*
X10414069Y2285931D01*
X10410000Y2265473D01*
X10410000Y1233891D01*
X9910000Y1233891D01*
X9910000Y2814527D01*
X10410000Y2814527D01*
X10414069Y2794069D01*
X10434527Y2790000D01*
X11466109Y2790000D01*
X11486567Y2794069D01*
X11487400Y2798257D01*
X11486410Y2805771D01*
X11436246Y2992985D01*
X11428834Y3013348D01*
X11338195Y3207725D01*
X11327365Y3226482D01*
X11204347Y3402170D01*
X11190424Y3418764D01*
X11038761Y3570427D01*
X11022177Y3584343D01*
X10846478Y3707369D01*
X10827732Y3718192D01*
X10633343Y3808837D01*
X10612986Y3816246D01*
X10433691Y3864288D01*
X10412877Y3865652D01*
X10410989Y3861825D01*
X10410000Y3854311D01*
X10410000Y2814527D01*
X9910000Y2814527D01*
X9910000Y3846109D01*
X9905931Y3866567D01*
X9901743Y3867400D01*
X9894229Y3866410D01*
X9707015Y3816246D01*
X9686652Y3808834D01*
X9492275Y3718195D01*
X9473518Y3707365D01*
X9297830Y3584347D01*
X9281236Y3570424D01*
X9129576Y3418764D01*
X9115653Y3402170D01*
X8992638Y3226487D01*
X8985726Y3214515D01*
X8921667Y3141471D01*
X8834531Y3098500D01*
X8737584Y3092146D01*
X8645585Y3123376D01*
X8570574Y3190033D01*
X8551086Y3216131D01*
X8478651Y3313133D01*
X8323381Y3456663D01*
X8286632Y3479850D01*
X8154210Y3563403D01*
X8154206Y3563405D01*
X8144554Y3569495D01*
X8003750Y3625670D01*
X7958756Y3643621D01*
X7958752Y3643622D01*
X7948160Y3647848D01*
X7936975Y3650073D01*
X7936971Y3650074D01*
X7751968Y3686873D01*
X7751964Y3686873D01*
X7740775Y3689099D01*
X7624912Y3690616D01*
X7540752Y3691718D01*
X7540748Y3691718D01*
X7529346Y3691867D01*
X7418569Y3672832D01*
X7332206Y3657993D01*
X7332202Y3657992D01*
X7320953Y3656059D01*
X7310238Y3652106D01*
X7133289Y3586826D01*
X7133286Y3586824D01*
X7122575Y3582873D01*
X6940856Y3474762D01*
X6924988Y3460846D01*
X6790462Y3342871D01*
X6790458Y3342867D01*
X6781881Y3335345D01*
X6774816Y3326383D01*
X6774815Y3326382D01*
X6761944Y3310055D01*
X6677448Y3202871D01*
X6675044Y3199822D01*
X6601167Y3136725D01*
X6508768Y3106702D01*
X6411912Y3114324D01*
X6325346Y3158432D01*
X6262249Y3232309D01*
X6232226Y3324708D01*
X6230500Y3353976D01*
X6230500Y3434646D01*
X6227382Y3460846D01*
X6181939Y3563153D01*
X6102713Y3642241D01*
X6000327Y3687506D01*
X5974646Y3690500D01*
X4185354Y3690500D01*
X4178039Y3689629D01*
X4178031Y3689629D01*
X4177704Y3689590D01*
X4177701Y3689589D01*
X4159154Y3687382D01*
X4056847Y3641939D01*
X3977759Y3562713D01*
X3932494Y3460327D01*
X3929500Y3434646D01*
X3929500Y1645354D01*
X1241200Y1645354D01*
X1172361Y1742373D01*
X1157504Y1766017D01*
X1151997Y1775982D01*
X1024593Y2006503D01*
X1012486Y2031645D01*
X907337Y2285496D01*
X898115Y2311851D01*
X822051Y2575877D01*
X815840Y2603087D01*
X769816Y2873970D01*
X766690Y2901716D01*
X751745Y3167833D01*
X751674Y3170365D01*
X755136Y3190000D01*
X751353Y3211454D01*
X751353Y3228325D01*
X750500Y3238076D01*
X750500Y10489411D01*
X1501996Y10489411D01*
X1502391Y10478884D01*
X1502391Y10478880D01*
X1506455Y10370658D01*
X1510913Y10251905D01*
X1559719Y10019296D01*
X1647020Y9798237D01*
X1652488Y9789226D01*
X1652490Y9789222D01*
X1689102Y9728888D01*
X1770319Y9595047D01*
X1777230Y9587083D01*
X1777232Y9587080D01*
X1899027Y9446723D01*
X1926090Y9415536D01*
X2109880Y9264838D01*
X2316433Y9147261D01*
X2539844Y9066166D01*
X2550228Y9064288D01*
X2550229Y9064288D01*
X2765650Y9025334D01*
X2765653Y9025334D01*
X2773725Y9023874D01*
X2788336Y9023185D01*
X2795707Y9022837D01*
X2795721Y9022837D01*
X2798619Y9022700D01*
X4265680Y9022700D01*
X4348482Y9029726D01*
X4432316Y9036839D01*
X4432321Y9036840D01*
X4442823Y9037731D01*
X4453028Y9040380D01*
X4453030Y9040380D01*
X4662672Y9094792D01*
X4662673Y9094792D01*
X4672874Y9097440D01*
X4688465Y9104463D01*
X4879960Y9190725D01*
X4879963Y9190727D01*
X4889576Y9195057D01*
X5031351Y9290506D01*
X5077987Y9321903D01*
X5077991Y9321906D01*
X5086732Y9327791D01*
X5171706Y9408852D01*
X5251075Y9484566D01*
X5251077Y9484568D01*
X5258705Y9491845D01*
X5400579Y9682530D01*
X5508295Y9894393D01*
X5578775Y10121376D01*
X5610004Y10356989D01*
X5609495Y10370560D01*
X5603751Y10523546D01*
X5601087Y10594495D01*
X5552281Y10827104D01*
X5464980Y11048163D01*
X5455237Y11064220D01*
X5371099Y11202873D01*
X5341681Y11251353D01*
X5327368Y11267848D01*
X5192820Y11422901D01*
X5192819Y11422902D01*
X5185910Y11430864D01*
X5002120Y11581562D01*
X4993453Y11586496D01*
X4925831Y11655910D01*
X4889829Y11746148D01*
X4891100Y11843294D01*
X4927066Y11928027D01*
X4931118Y11932925D01*
X4943596Y11956002D01*
X5023313Y12103436D01*
X5023314Y12103439D01*
X5029103Y12114145D01*
X5059225Y12211454D01*
X5086421Y12299309D01*
X5086421Y12299311D01*
X5090023Y12310946D01*
X5111557Y12515831D01*
X5092886Y12720997D01*
X5034720Y12918628D01*
X4939274Y13101198D01*
X4810185Y13261753D01*
X4749276Y13312862D01*
X4725948Y13332437D01*
X4665137Y13408207D01*
X4637950Y13501480D01*
X4648528Y13598058D01*
X4695259Y13683236D01*
X4728624Y13716139D01*
X4799800Y13774189D01*
X4813492Y13790739D01*
X4881907Y13873439D01*
X4931118Y13932925D01*
X4937756Y13945202D01*
X5023313Y14103436D01*
X5023314Y14103439D01*
X5029103Y14114145D01*
X5090023Y14310946D01*
X5111557Y14515831D01*
X5092886Y14720997D01*
X5034720Y14918628D01*
X4939274Y15101198D01*
X4810185Y15261753D01*
X4754818Y15308212D01*
X4725948Y15332437D01*
X4665137Y15408207D01*
X4637950Y15501480D01*
X4648528Y15598058D01*
X4695259Y15683236D01*
X4728624Y15716139D01*
X4799800Y15774189D01*
X4811902Y15788817D01*
X4923358Y15923545D01*
X4931118Y15932925D01*
X4974486Y16013133D01*
X5023313Y16103436D01*
X5023314Y16103439D01*
X5029103Y16114145D01*
X5049196Y16179056D01*
X5086421Y16299309D01*
X5086421Y16299311D01*
X5090023Y16310946D01*
X5111557Y16515831D01*
X5092886Y16720997D01*
X5034720Y16918628D01*
X4939274Y17101198D01*
X4810185Y17261753D01*
X4794234Y17275138D01*
X4718843Y17338398D01*
X4652370Y17394176D01*
X4626974Y17408138D01*
X4482503Y17487561D01*
X4482502Y17487561D01*
X4471838Y17493424D01*
X4460244Y17497102D01*
X4460239Y17497104D01*
X4287069Y17552036D01*
X4275468Y17555716D01*
X4263370Y17557073D01*
X4122056Y17572924D01*
X4122052Y17572924D01*
X4115136Y17573700D01*
X3004159Y17573700D01*
X2998116Y17573107D01*
X2998106Y17573107D01*
X2909167Y17564386D01*
X2850970Y17558680D01*
X2653749Y17499135D01*
X2642992Y17493415D01*
X2642991Y17493415D01*
X2562799Y17450776D01*
X2471849Y17402418D01*
X2312200Y17272211D01*
X2304441Y17262832D01*
X2304440Y17262831D01*
X2278430Y17231390D01*
X2180882Y17113475D01*
X2175092Y17102766D01*
X2175091Y17102765D01*
X2093662Y16952164D01*
X2082897Y16932255D01*
X2079296Y16920622D01*
X2026094Y16748753D01*
X2021977Y16735454D01*
X2000443Y16530569D01*
X2019114Y16325403D01*
X2077280Y16127772D01*
X2172726Y15945202D01*
X2301815Y15784647D01*
X2341149Y15751642D01*
X2386052Y15713963D01*
X2446863Y15638193D01*
X2474050Y15544920D01*
X2463472Y15448342D01*
X2416741Y15363164D01*
X2383376Y15330261D01*
X2312200Y15272211D01*
X2304441Y15262832D01*
X2304440Y15262831D01*
X2257250Y15205788D01*
X2180882Y15113475D01*
X2175092Y15102766D01*
X2175091Y15102765D01*
X2103452Y14970270D01*
X2082897Y14932255D01*
X2079296Y14920622D01*
X2030161Y14761891D01*
X2021977Y14735454D01*
X2000443Y14530569D01*
X2019114Y14325403D01*
X2077280Y14127772D01*
X2172726Y13945202D01*
X2301815Y13784647D01*
X2326201Y13764185D01*
X2386052Y13713963D01*
X2446863Y13638193D01*
X2474050Y13544920D01*
X2463472Y13448342D01*
X2416741Y13363164D01*
X2383376Y13330261D01*
X2312200Y13272211D01*
X2180882Y13113475D01*
X2175092Y13102766D01*
X2175091Y13102765D01*
X2095562Y12955678D01*
X2082897Y12932255D01*
X2079296Y12920622D01*
X2029775Y12760644D01*
X2021977Y12735454D01*
X2000443Y12530569D01*
X2019114Y12325403D01*
X2077280Y12127772D01*
X2172726Y11945202D01*
X2180362Y11935704D01*
X2187026Y11925521D01*
X2184253Y11923706D01*
X2218556Y11858017D01*
X2227149Y11761242D01*
X2198053Y11668547D01*
X2135699Y11594041D01*
X2118662Y11581486D01*
X2025268Y11518609D01*
X1995953Y11490644D01*
X1861494Y11362376D01*
X1853295Y11354555D01*
X1711421Y11163870D01*
X1603705Y10952007D01*
X1595005Y10923989D01*
X1550045Y10779192D01*
X1533225Y10725024D01*
X1501996Y10489411D01*
X750500Y10489411D01*
X750500Y22689411D01*
X1501996Y22689411D01*
X1502391Y22678884D01*
X1502391Y22678880D01*
X1506068Y22580943D01*
X1510913Y22451905D01*
X1559719Y22219296D01*
X1647020Y21998237D01*
X1770319Y21795047D01*
X1777230Y21787083D01*
X1777232Y21787080D01*
X1890824Y21656177D01*
X1926090Y21615536D01*
X1934242Y21608852D01*
X1941805Y21601497D01*
X1940515Y21600170D01*
X1993283Y21535930D01*
X2021526Y21442971D01*
X2014274Y21356600D01*
X2008494Y21343527D01*
X2005500Y21317846D01*
X2005500Y19728554D01*
X2008618Y19702354D01*
X2054061Y19600047D01*
X2133287Y19520959D01*
X2157205Y19510385D01*
X2204011Y19489692D01*
X2235673Y19475694D01*
X2261354Y19472700D01*
X4850646Y19472700D01*
X4857961Y19473571D01*
X4857969Y19473571D01*
X4858296Y19473610D01*
X4858299Y19473611D01*
X4876846Y19475818D01*
X4979153Y19521261D01*
X5058241Y19600487D01*
X5103506Y19702873D01*
X5106500Y19728554D01*
X5106500Y20720545D01*
X13078825Y20720545D01*
X13080183Y20706694D01*
X13080183Y20706691D01*
X13082685Y20681174D01*
X13095255Y20552975D01*
X13148402Y20393209D01*
X13235013Y20250197D01*
X13235624Y20249188D01*
X13235538Y20249136D01*
X13274902Y20169664D01*
X13283500Y20104797D01*
X13283500Y19838591D01*
X13283282Y19828164D01*
X13280790Y19768706D01*
X13284666Y19752182D01*
X13284666Y19752180D01*
X13289401Y19731995D01*
X13293676Y19708929D01*
X13298794Y19671568D01*
X13305536Y19655987D01*
X13308031Y19647053D01*
X13311356Y19638392D01*
X13315232Y19621864D01*
X13323409Y19606991D01*
X13323410Y19606987D01*
X13333403Y19588810D01*
X13343721Y19567747D01*
X13347939Y19558000D01*
X13358695Y19533145D01*
X13369380Y19519950D01*
X13375172Y19510385D01*
X13381605Y19501129D01*
X13387893Y19489692D01*
X13394897Y19481578D01*
X13414884Y19461591D01*
X13432323Y19442222D01*
X13453614Y19415930D01*
X13467454Y19406094D01*
X13477359Y19396793D01*
X13492352Y19384123D01*
X14249893Y18626583D01*
X14790906Y18085570D01*
X14844882Y18004788D01*
X14863836Y17909500D01*
X14844882Y17814212D01*
X14790906Y17733430D01*
X14710124Y17679454D01*
X14614836Y17660500D01*
X13710354Y17660500D01*
X13703039Y17659629D01*
X13703031Y17659629D01*
X13702704Y17659590D01*
X13702701Y17659589D01*
X13684154Y17657382D01*
X13581847Y17611939D01*
X13502759Y17532713D01*
X13457494Y17430327D01*
X13454500Y17404646D01*
X13454500Y15615354D01*
X13457618Y15589154D01*
X13503061Y15486847D01*
X13582287Y15407759D01*
X13684673Y15362494D01*
X13710354Y15359500D01*
X13805500Y15359500D01*
X13900788Y15340546D01*
X13981570Y15286570D01*
X14035546Y15205788D01*
X14054500Y15110500D01*
X14054500Y5478591D01*
X14054282Y5468164D01*
X14051790Y5408706D01*
X14055666Y5392181D01*
X14060402Y5371991D01*
X14064677Y5348922D01*
X14069794Y5311568D01*
X14076537Y5295987D01*
X14079031Y5287053D01*
X14082356Y5278392D01*
X14086232Y5261864D01*
X14094409Y5246991D01*
X14094410Y5246987D01*
X14104403Y5228810D01*
X14114721Y5207747D01*
X14129695Y5173145D01*
X14140380Y5159950D01*
X14146172Y5150385D01*
X14152605Y5141129D01*
X14158893Y5129692D01*
X14165897Y5121578D01*
X14185884Y5101591D01*
X14203323Y5082222D01*
X14224614Y5055930D01*
X14238454Y5046094D01*
X14248359Y5036793D01*
X14263352Y5024123D01*
X14425468Y4862007D01*
X14479444Y4781225D01*
X14497210Y4710233D01*
X14501255Y4668975D01*
X14554402Y4509209D01*
X14641624Y4365188D01*
X14758586Y4244071D01*
X14788613Y4224422D01*
X14899475Y4151875D01*
X14898292Y4150067D01*
X14959868Y4101870D01*
X15007635Y4017269D01*
X15019390Y3920827D01*
X14993344Y3827229D01*
X14933461Y3750723D01*
X14848860Y3702956D01*
X14771091Y3690500D01*
X14345354Y3690500D01*
X14338039Y3689629D01*
X14338031Y3689629D01*
X14337704Y3689590D01*
X14337701Y3689589D01*
X14319154Y3687382D01*
X14216847Y3641939D01*
X14137759Y3562713D01*
X14092494Y3460327D01*
X14089500Y3434646D01*
X14089500Y1645354D01*
X14092618Y1619154D01*
X14138061Y1516847D01*
X14217287Y1437759D01*
X14319673Y1392494D01*
X14345354Y1389500D01*
X16134646Y1389500D01*
X16141961Y1390371D01*
X16141969Y1390371D01*
X16142296Y1390410D01*
X16142299Y1390411D01*
X16160846Y1392618D01*
X16263153Y1438061D01*
X16342241Y1517287D01*
X16387506Y1619673D01*
X16390500Y1645354D01*
X16390500Y1728762D01*
X16409454Y1824050D01*
X16463430Y1904832D01*
X16544212Y1958808D01*
X16639500Y1977762D01*
X16734788Y1958808D01*
X16815570Y1904832D01*
X16842844Y1872471D01*
X16901405Y1789609D01*
X17052865Y1642063D01*
X17228677Y1524589D01*
X17296019Y1495657D01*
X17412464Y1445628D01*
X17412468Y1445627D01*
X17422953Y1441122D01*
X17629186Y1394456D01*
X17744745Y1389915D01*
X17829060Y1386602D01*
X17829064Y1386602D01*
X17840470Y1386154D01*
X18049730Y1416496D01*
X18249955Y1484463D01*
X18434442Y1587781D01*
X18443216Y1595078D01*
X18443220Y1595081D01*
X18588231Y1715685D01*
X18597012Y1722988D01*
X18632799Y1766017D01*
X18724919Y1876780D01*
X18724922Y1876784D01*
X18732219Y1885558D01*
X18834883Y2068877D01*
X18897980Y2142754D01*
X18984546Y2186861D01*
X19081402Y2194483D01*
X19173802Y2164460D01*
X19247679Y2101363D01*
X19278262Y2051454D01*
X19310436Y1981664D01*
X19319369Y1962286D01*
X19325955Y1952967D01*
X19427648Y1809075D01*
X19441405Y1789609D01*
X19592865Y1642063D01*
X19768677Y1524589D01*
X19836019Y1495657D01*
X19952464Y1445628D01*
X19952468Y1445627D01*
X19962953Y1441122D01*
X20169186Y1394456D01*
X20284745Y1389915D01*
X20369060Y1386602D01*
X20369064Y1386602D01*
X20380470Y1386154D01*
X20589730Y1416496D01*
X20789955Y1484463D01*
X20974442Y1587781D01*
X20983216Y1595078D01*
X20983220Y1595081D01*
X21128231Y1715685D01*
X21137012Y1722988D01*
X21172799Y1766017D01*
X21264919Y1876780D01*
X21264922Y1876784D01*
X21272219Y1885558D01*
X21374883Y2068877D01*
X21437980Y2142754D01*
X21524546Y2186861D01*
X21621402Y2194483D01*
X21713802Y2164460D01*
X21787679Y2101363D01*
X21818262Y2051454D01*
X21850436Y1981664D01*
X21859369Y1962286D01*
X21865955Y1952967D01*
X21967648Y1809075D01*
X21981405Y1789609D01*
X22132865Y1642063D01*
X22308677Y1524589D01*
X22376019Y1495657D01*
X22492464Y1445628D01*
X22492468Y1445627D01*
X22502953Y1441122D01*
X22709186Y1394456D01*
X22824745Y1389915D01*
X22909060Y1386602D01*
X22909064Y1386602D01*
X22920470Y1386154D01*
X23129730Y1416496D01*
X23329955Y1484463D01*
X23514442Y1587781D01*
X23523216Y1595078D01*
X23523220Y1595081D01*
X23668231Y1715685D01*
X23677012Y1722988D01*
X23712799Y1766017D01*
X23804919Y1876780D01*
X23804922Y1876784D01*
X23812219Y1885558D01*
X23914883Y2068877D01*
X23977980Y2142754D01*
X24064546Y2186861D01*
X24161402Y2194483D01*
X24253802Y2164460D01*
X24327679Y2101363D01*
X24358262Y2051454D01*
X24390436Y1981664D01*
X24399369Y1962286D01*
X24405955Y1952967D01*
X24507648Y1809075D01*
X24521405Y1789609D01*
X24672865Y1642063D01*
X24848677Y1524589D01*
X24916019Y1495657D01*
X25032464Y1445628D01*
X25032468Y1445627D01*
X25042953Y1441122D01*
X25249186Y1394456D01*
X25364745Y1389915D01*
X25449060Y1386602D01*
X25449064Y1386602D01*
X25460470Y1386154D01*
X25669730Y1416496D01*
X25869955Y1484463D01*
X26054442Y1587781D01*
X26063216Y1595078D01*
X26063220Y1595081D01*
X26208231Y1715685D01*
X26217012Y1722988D01*
X26352219Y1885558D01*
X26352710Y1885149D01*
X26416130Y1946932D01*
X26506368Y1982935D01*
X26603515Y1981664D01*
X26692780Y1943314D01*
X26760575Y1873723D01*
X26767387Y1862608D01*
X26772638Y1853513D01*
X26895653Y1677830D01*
X26909576Y1661236D01*
X27061239Y1509573D01*
X27077823Y1495657D01*
X27253522Y1372631D01*
X27272268Y1361808D01*
X27466657Y1271163D01*
X27487014Y1263754D01*
X27666309Y1215712D01*
X27687123Y1214348D01*
X27689011Y1218175D01*
X27690000Y1225689D01*
X27690000Y1233891D01*
X28190000Y1233891D01*
X28194069Y1213433D01*
X28198257Y1212600D01*
X28205771Y1213590D01*
X28392986Y1263754D01*
X28413343Y1271163D01*
X28607732Y1361808D01*
X28626478Y1372631D01*
X28802177Y1495657D01*
X28818761Y1509573D01*
X28970424Y1661236D01*
X28984350Y1677833D01*
X29006032Y1708798D01*
X29076213Y1775982D01*
X29166763Y1811194D01*
X29263894Y1809075D01*
X29352821Y1769945D01*
X29413968Y1708798D01*
X29435650Y1677833D01*
X29449576Y1661236D01*
X29601239Y1509573D01*
X29617823Y1495657D01*
X29793522Y1372631D01*
X29812268Y1361808D01*
X30006657Y1271163D01*
X30027014Y1263754D01*
X30206309Y1215712D01*
X30227123Y1214348D01*
X30229011Y1218175D01*
X30230000Y1225689D01*
X30230000Y1233891D01*
X30730000Y1233891D01*
X30734069Y1213433D01*
X30738257Y1212600D01*
X30745771Y1213590D01*
X30932986Y1263754D01*
X30953343Y1271163D01*
X31147732Y1361808D01*
X31166478Y1372631D01*
X31342177Y1495657D01*
X31358761Y1509573D01*
X31510424Y1661236D01*
X31524347Y1677830D01*
X31647360Y1853510D01*
X31654697Y1866219D01*
X31718755Y1939265D01*
X31805889Y1982237D01*
X31902836Y1988593D01*
X31994836Y1957366D01*
X32067882Y1893308D01*
X32073684Y1885432D01*
X32127648Y1809075D01*
X32141405Y1789609D01*
X32292865Y1642063D01*
X32468677Y1524589D01*
X32536019Y1495657D01*
X32652464Y1445628D01*
X32652468Y1445627D01*
X32662953Y1441122D01*
X32869186Y1394456D01*
X32984745Y1389915D01*
X33069060Y1386602D01*
X33069064Y1386602D01*
X33080470Y1386154D01*
X33289730Y1416496D01*
X33489955Y1484463D01*
X33674442Y1587781D01*
X33683216Y1595078D01*
X33683220Y1595081D01*
X33828231Y1715685D01*
X33837012Y1722988D01*
X33872799Y1766017D01*
X33964919Y1876780D01*
X33964922Y1876784D01*
X33972219Y1885558D01*
X34075537Y2070045D01*
X34143504Y2270270D01*
X34173846Y2479530D01*
X34175429Y2540000D01*
X34172650Y2570246D01*
X36944967Y2570246D01*
X36958796Y2359251D01*
X36961605Y2348190D01*
X36961606Y2348185D01*
X36982613Y2265473D01*
X37010845Y2154310D01*
X37015624Y2143943D01*
X37015626Y2143938D01*
X37050230Y2068877D01*
X37099369Y1962286D01*
X37105955Y1952967D01*
X37207648Y1809075D01*
X37221405Y1789609D01*
X37372865Y1642063D01*
X37548677Y1524589D01*
X37616019Y1495657D01*
X37732464Y1445628D01*
X37732468Y1445627D01*
X37742953Y1441122D01*
X37949186Y1394456D01*
X38064745Y1389915D01*
X38149060Y1386602D01*
X38149064Y1386602D01*
X38160470Y1386154D01*
X38369730Y1416496D01*
X38569955Y1484463D01*
X38754442Y1587781D01*
X38763216Y1595078D01*
X38763220Y1595081D01*
X38908231Y1715685D01*
X38917012Y1722988D01*
X38952799Y1766017D01*
X39044919Y1876780D01*
X39044922Y1876784D01*
X39052219Y1885558D01*
X39154883Y2068877D01*
X39217980Y2142754D01*
X39304546Y2186861D01*
X39401402Y2194483D01*
X39493802Y2164460D01*
X39567679Y2101363D01*
X39598262Y2051454D01*
X39630436Y1981664D01*
X39639369Y1962286D01*
X39645955Y1952967D01*
X39747648Y1809075D01*
X39761405Y1789609D01*
X39912865Y1642063D01*
X40088677Y1524589D01*
X40156019Y1495657D01*
X40272464Y1445628D01*
X40272468Y1445627D01*
X40282953Y1441122D01*
X40489186Y1394456D01*
X40604745Y1389915D01*
X40689060Y1386602D01*
X40689064Y1386602D01*
X40700470Y1386154D01*
X40909730Y1416496D01*
X41109955Y1484463D01*
X41294442Y1587781D01*
X41303216Y1595078D01*
X41303220Y1595081D01*
X41448231Y1715685D01*
X41457012Y1722988D01*
X41492799Y1766017D01*
X41584919Y1876780D01*
X41584922Y1876784D01*
X41592219Y1885558D01*
X41694883Y2068877D01*
X41757980Y2142754D01*
X41844546Y2186861D01*
X41941402Y2194483D01*
X42033802Y2164460D01*
X42107679Y2101363D01*
X42138262Y2051454D01*
X42170436Y1981664D01*
X42179369Y1962286D01*
X42185955Y1952967D01*
X42287648Y1809075D01*
X42301405Y1789609D01*
X42452865Y1642063D01*
X42628677Y1524589D01*
X42696019Y1495657D01*
X42812464Y1445628D01*
X42812468Y1445627D01*
X42822953Y1441122D01*
X43029186Y1394456D01*
X43144745Y1389915D01*
X43229060Y1386602D01*
X43229064Y1386602D01*
X43240470Y1386154D01*
X43449730Y1416496D01*
X43649955Y1484463D01*
X43834442Y1587781D01*
X43843216Y1595078D01*
X43843220Y1595081D01*
X43988231Y1715685D01*
X43997012Y1722988D01*
X44032799Y1766017D01*
X44124919Y1876780D01*
X44124922Y1876784D01*
X44132219Y1885558D01*
X44234883Y2068877D01*
X44297980Y2142754D01*
X44384546Y2186861D01*
X44481402Y2194483D01*
X44573802Y2164460D01*
X44647679Y2101363D01*
X44678262Y2051454D01*
X44710436Y1981664D01*
X44719369Y1962286D01*
X44725955Y1952967D01*
X44827648Y1809075D01*
X44841405Y1789609D01*
X44992865Y1642063D01*
X45168677Y1524589D01*
X45236019Y1495657D01*
X45352464Y1445628D01*
X45352468Y1445627D01*
X45362953Y1441122D01*
X45569186Y1394456D01*
X45684745Y1389915D01*
X45769060Y1386602D01*
X45769064Y1386602D01*
X45780470Y1386154D01*
X45989730Y1416496D01*
X46189955Y1484463D01*
X46374442Y1587781D01*
X46383216Y1595078D01*
X46383220Y1595081D01*
X46528231Y1715685D01*
X46537012Y1722988D01*
X46572799Y1766017D01*
X46664919Y1876780D01*
X46664922Y1876784D01*
X46672219Y1885558D01*
X46774883Y2068877D01*
X46837980Y2142754D01*
X46924546Y2186861D01*
X47021402Y2194483D01*
X47113802Y2164460D01*
X47187679Y2101363D01*
X47218262Y2051454D01*
X47250436Y1981664D01*
X47259369Y1962286D01*
X47265955Y1952967D01*
X47367648Y1809075D01*
X47381405Y1789609D01*
X47532865Y1642063D01*
X47708677Y1524589D01*
X47776019Y1495657D01*
X47892464Y1445628D01*
X47892468Y1445627D01*
X47902953Y1441122D01*
X48109186Y1394456D01*
X48224745Y1389915D01*
X48309060Y1386602D01*
X48309064Y1386602D01*
X48320470Y1386154D01*
X48529730Y1416496D01*
X48729955Y1484463D01*
X48914442Y1587781D01*
X48923216Y1595078D01*
X48923220Y1595081D01*
X49068231Y1715685D01*
X49077012Y1722988D01*
X49202376Y1873723D01*
X49209058Y1881757D01*
X49284561Y1942899D01*
X49377715Y1970492D01*
X49474338Y1960337D01*
X49559720Y1913979D01*
X49620862Y1838476D01*
X49648455Y1745322D01*
X49649500Y1722537D01*
X49649500Y1645354D01*
X49652618Y1619154D01*
X49698061Y1516847D01*
X49777287Y1437759D01*
X49879673Y1392494D01*
X49905354Y1389500D01*
X51694646Y1389500D01*
X51701961Y1390371D01*
X51701969Y1390371D01*
X51702296Y1390410D01*
X51702299Y1390411D01*
X51720846Y1392618D01*
X51823153Y1438061D01*
X51902241Y1517287D01*
X51947506Y1619673D01*
X51950500Y1645354D01*
X51950500Y3434646D01*
X51947382Y3460846D01*
X51901939Y3563153D01*
X51822713Y3642241D01*
X51720327Y3687506D01*
X51694646Y3690500D01*
X49905354Y3690500D01*
X49898039Y3689629D01*
X49898031Y3689629D01*
X49897704Y3689590D01*
X49897701Y3689589D01*
X49879154Y3687382D01*
X49776847Y3641939D01*
X49697759Y3562713D01*
X49652494Y3460327D01*
X49649500Y3434646D01*
X49649500Y3351853D01*
X49630546Y3256565D01*
X49576570Y3175783D01*
X49495788Y3121807D01*
X49400500Y3102853D01*
X49305212Y3121807D01*
X49224430Y3175783D01*
X49200988Y3202871D01*
X49125483Y3303985D01*
X49125478Y3303991D01*
X49118651Y3313133D01*
X48963381Y3456663D01*
X48926632Y3479850D01*
X48794210Y3563403D01*
X48794206Y3563405D01*
X48784554Y3569495D01*
X48643750Y3625670D01*
X48598756Y3643621D01*
X48598752Y3643622D01*
X48588160Y3647848D01*
X48576975Y3650073D01*
X48576971Y3650074D01*
X48391968Y3686873D01*
X48391964Y3686873D01*
X48380775Y3689099D01*
X48264912Y3690616D01*
X48180752Y3691718D01*
X48180748Y3691718D01*
X48169346Y3691867D01*
X48058569Y3672832D01*
X47972206Y3657993D01*
X47972202Y3657992D01*
X47960953Y3656059D01*
X47950238Y3652106D01*
X47773289Y3586826D01*
X47773286Y3586824D01*
X47762575Y3582873D01*
X47580856Y3474762D01*
X47564988Y3460846D01*
X47430462Y3342871D01*
X47430458Y3342867D01*
X47421881Y3335345D01*
X47414816Y3326383D01*
X47414815Y3326382D01*
X47401944Y3310055D01*
X47290976Y3169292D01*
X47285663Y3159193D01*
X47285662Y3159192D01*
X47209622Y3014664D01*
X47148480Y2939160D01*
X47063099Y2892802D01*
X46966476Y2882647D01*
X46873322Y2910240D01*
X46797818Y2971382D01*
X46765941Y3020469D01*
X46719657Y3114324D01*
X46710217Y3133466D01*
X46710216Y3133468D01*
X46705165Y3143710D01*
X46578651Y3313133D01*
X46423381Y3456663D01*
X46386632Y3479850D01*
X46254210Y3563403D01*
X46254206Y3563405D01*
X46244554Y3569495D01*
X46103750Y3625670D01*
X46058756Y3643621D01*
X46058752Y3643622D01*
X46048160Y3647848D01*
X46036975Y3650073D01*
X46036971Y3650074D01*
X45851968Y3686873D01*
X45851964Y3686873D01*
X45840775Y3689099D01*
X45724912Y3690616D01*
X45640752Y3691718D01*
X45640748Y3691718D01*
X45629346Y3691867D01*
X45518569Y3672832D01*
X45432206Y3657993D01*
X45432202Y3657992D01*
X45420953Y3656059D01*
X45410238Y3652106D01*
X45233289Y3586826D01*
X45233286Y3586824D01*
X45222575Y3582873D01*
X45040856Y3474762D01*
X45024988Y3460846D01*
X44890462Y3342871D01*
X44890458Y3342867D01*
X44881881Y3335345D01*
X44874816Y3326383D01*
X44874815Y3326382D01*
X44861944Y3310055D01*
X44750976Y3169292D01*
X44745663Y3159193D01*
X44745662Y3159192D01*
X44669622Y3014664D01*
X44608480Y2939160D01*
X44523099Y2892802D01*
X44426476Y2882647D01*
X44333322Y2910240D01*
X44257818Y2971382D01*
X44225941Y3020469D01*
X44179657Y3114324D01*
X44170217Y3133466D01*
X44170216Y3133468D01*
X44165165Y3143710D01*
X44038651Y3313133D01*
X43883381Y3456663D01*
X43846632Y3479850D01*
X43714210Y3563403D01*
X43714206Y3563405D01*
X43704554Y3569495D01*
X43563750Y3625670D01*
X43518756Y3643621D01*
X43518752Y3643622D01*
X43508160Y3647848D01*
X43496975Y3650073D01*
X43496971Y3650074D01*
X43311968Y3686873D01*
X43311964Y3686873D01*
X43300775Y3689099D01*
X43184912Y3690616D01*
X43100752Y3691718D01*
X43100748Y3691718D01*
X43089346Y3691867D01*
X42978569Y3672832D01*
X42892206Y3657993D01*
X42892202Y3657992D01*
X42880953Y3656059D01*
X42870238Y3652106D01*
X42693289Y3586826D01*
X42693286Y3586824D01*
X42682575Y3582873D01*
X42500856Y3474762D01*
X42484988Y3460846D01*
X42350462Y3342871D01*
X42350458Y3342867D01*
X42341881Y3335345D01*
X42334816Y3326383D01*
X42334815Y3326382D01*
X42321944Y3310055D01*
X42210976Y3169292D01*
X42205663Y3159193D01*
X42205662Y3159192D01*
X42129622Y3014664D01*
X42068480Y2939160D01*
X41983099Y2892802D01*
X41886476Y2882647D01*
X41793322Y2910240D01*
X41717818Y2971382D01*
X41685941Y3020469D01*
X41639657Y3114324D01*
X41630217Y3133466D01*
X41630216Y3133468D01*
X41625165Y3143710D01*
X41498651Y3313133D01*
X41343381Y3456663D01*
X41306632Y3479850D01*
X41174210Y3563403D01*
X41174206Y3563405D01*
X41164554Y3569495D01*
X41023750Y3625670D01*
X40978756Y3643621D01*
X40978752Y3643622D01*
X40968160Y3647848D01*
X40956975Y3650073D01*
X40956971Y3650074D01*
X40771968Y3686873D01*
X40771964Y3686873D01*
X40760775Y3689099D01*
X40644912Y3690616D01*
X40560752Y3691718D01*
X40560748Y3691718D01*
X40549346Y3691867D01*
X40438569Y3672832D01*
X40352206Y3657993D01*
X40352202Y3657992D01*
X40340953Y3656059D01*
X40330238Y3652106D01*
X40153289Y3586826D01*
X40153286Y3586824D01*
X40142575Y3582873D01*
X39960856Y3474762D01*
X39944988Y3460846D01*
X39810462Y3342871D01*
X39810458Y3342867D01*
X39801881Y3335345D01*
X39794816Y3326383D01*
X39794815Y3326382D01*
X39781944Y3310055D01*
X39670976Y3169292D01*
X39665663Y3159193D01*
X39665662Y3159192D01*
X39589622Y3014664D01*
X39528480Y2939160D01*
X39443099Y2892802D01*
X39346476Y2882647D01*
X39253322Y2910240D01*
X39177818Y2971382D01*
X39145941Y3020469D01*
X39099657Y3114324D01*
X39090217Y3133466D01*
X39090216Y3133468D01*
X39085165Y3143710D01*
X38958651Y3313133D01*
X38803381Y3456663D01*
X38766632Y3479850D01*
X38634210Y3563403D01*
X38634206Y3563405D01*
X38624554Y3569495D01*
X38483750Y3625670D01*
X38438756Y3643621D01*
X38438752Y3643622D01*
X38428160Y3647848D01*
X38416975Y3650073D01*
X38416971Y3650074D01*
X38231968Y3686873D01*
X38231964Y3686873D01*
X38220775Y3689099D01*
X38104912Y3690616D01*
X38020752Y3691718D01*
X38020748Y3691718D01*
X38009346Y3691867D01*
X37898569Y3672832D01*
X37812206Y3657993D01*
X37812202Y3657992D01*
X37800953Y3656059D01*
X37790238Y3652106D01*
X37613289Y3586826D01*
X37613286Y3586824D01*
X37602575Y3582873D01*
X37420856Y3474762D01*
X37404988Y3460846D01*
X37270462Y3342871D01*
X37270458Y3342867D01*
X37261881Y3335345D01*
X37254816Y3326383D01*
X37254815Y3326382D01*
X37241944Y3310055D01*
X37130976Y3169292D01*
X37032523Y2982164D01*
X36969820Y2780227D01*
X36944967Y2570246D01*
X34172650Y2570246D01*
X34156081Y2750560D01*
X34098686Y2954069D01*
X34005165Y3143710D01*
X33878651Y3313133D01*
X33723381Y3456663D01*
X33686632Y3479850D01*
X33554210Y3563403D01*
X33554206Y3563405D01*
X33544554Y3569495D01*
X33403750Y3625670D01*
X33358756Y3643621D01*
X33358752Y3643622D01*
X33348160Y3647848D01*
X33336975Y3650073D01*
X33336971Y3650074D01*
X33151968Y3686873D01*
X33151964Y3686873D01*
X33140775Y3689099D01*
X33024912Y3690616D01*
X32940752Y3691718D01*
X32940748Y3691718D01*
X32929346Y3691867D01*
X32818569Y3672832D01*
X32732206Y3657993D01*
X32732202Y3657992D01*
X32720953Y3656059D01*
X32710238Y3652106D01*
X32533289Y3586826D01*
X32533286Y3586824D01*
X32522575Y3582873D01*
X32340856Y3474762D01*
X32324988Y3460846D01*
X32190462Y3342871D01*
X32190458Y3342867D01*
X32181881Y3335345D01*
X32064523Y3186477D01*
X31990649Y3123381D01*
X31898249Y3093358D01*
X31801394Y3100980D01*
X31714828Y3145087D01*
X31653341Y3216131D01*
X31647362Y3226487D01*
X31524347Y3402170D01*
X31510424Y3418764D01*
X31358761Y3570427D01*
X31342177Y3584343D01*
X31166478Y3707369D01*
X31147732Y3718192D01*
X30953343Y3808837D01*
X30932986Y3816246D01*
X30753691Y3864288D01*
X30732877Y3865652D01*
X30730989Y3861825D01*
X30730000Y3854311D01*
X30730000Y1233891D01*
X30230000Y1233891D01*
X30230000Y2265473D01*
X30225931Y2285931D01*
X30205473Y2290000D01*
X28214527Y2290000D01*
X28194069Y2285931D01*
X28190000Y2265473D01*
X28190000Y1233891D01*
X27690000Y1233891D01*
X27690000Y2814527D01*
X28190000Y2814527D01*
X28194069Y2794069D01*
X28214527Y2790000D01*
X30205473Y2790000D01*
X30225931Y2794069D01*
X30230000Y2814527D01*
X30230000Y3846109D01*
X30225931Y3866567D01*
X30221743Y3867400D01*
X30214229Y3866410D01*
X30027015Y3816246D01*
X30006652Y3808834D01*
X29812275Y3718195D01*
X29793518Y3707365D01*
X29617830Y3584347D01*
X29601236Y3570424D01*
X29449576Y3418764D01*
X29435650Y3402167D01*
X29413968Y3371202D01*
X29343787Y3304018D01*
X29253237Y3268806D01*
X29156106Y3270925D01*
X29067179Y3310055D01*
X29006032Y3371202D01*
X28984350Y3402167D01*
X28970424Y3418764D01*
X28818761Y3570427D01*
X28802177Y3584343D01*
X28626478Y3707369D01*
X28607732Y3718192D01*
X28413343Y3808837D01*
X28392986Y3816246D01*
X28213691Y3864288D01*
X28192877Y3865652D01*
X28190989Y3861825D01*
X28190000Y3854311D01*
X28190000Y2814527D01*
X27690000Y2814527D01*
X27690000Y3846109D01*
X27685931Y3866567D01*
X27681743Y3867400D01*
X27674229Y3866410D01*
X27487015Y3816246D01*
X27466652Y3808834D01*
X27272275Y3718195D01*
X27253518Y3707365D01*
X27077830Y3584347D01*
X27061236Y3570424D01*
X26909576Y3418764D01*
X26895653Y3402170D01*
X26772638Y3226487D01*
X26765726Y3214515D01*
X26701667Y3141471D01*
X26614531Y3098500D01*
X26517584Y3092146D01*
X26425585Y3123376D01*
X26350574Y3190033D01*
X26331086Y3216131D01*
X26258651Y3313133D01*
X26103381Y3456663D01*
X26066632Y3479850D01*
X25934210Y3563403D01*
X25934206Y3563405D01*
X25924554Y3569495D01*
X25783750Y3625670D01*
X25738756Y3643621D01*
X25738752Y3643622D01*
X25728160Y3647848D01*
X25716975Y3650073D01*
X25716971Y3650074D01*
X25531968Y3686873D01*
X25531964Y3686873D01*
X25520775Y3689099D01*
X25404912Y3690616D01*
X25320752Y3691718D01*
X25320748Y3691718D01*
X25309346Y3691867D01*
X25198569Y3672832D01*
X25112206Y3657993D01*
X25112202Y3657992D01*
X25100953Y3656059D01*
X25090238Y3652106D01*
X24913289Y3586826D01*
X24913286Y3586824D01*
X24902575Y3582873D01*
X24720856Y3474762D01*
X24704988Y3460846D01*
X24570462Y3342871D01*
X24570458Y3342867D01*
X24561881Y3335345D01*
X24554816Y3326383D01*
X24554815Y3326382D01*
X24541944Y3310055D01*
X24430976Y3169292D01*
X24425663Y3159193D01*
X24425662Y3159192D01*
X24349622Y3014664D01*
X24288480Y2939160D01*
X24203099Y2892802D01*
X24106476Y2882647D01*
X24013322Y2910240D01*
X23937818Y2971382D01*
X23905941Y3020469D01*
X23859657Y3114324D01*
X23850217Y3133466D01*
X23850216Y3133468D01*
X23845165Y3143710D01*
X23718651Y3313133D01*
X23563381Y3456663D01*
X23526632Y3479850D01*
X23394210Y3563403D01*
X23394206Y3563405D01*
X23384554Y3569495D01*
X23243750Y3625670D01*
X23198756Y3643621D01*
X23198752Y3643622D01*
X23188160Y3647848D01*
X23176975Y3650073D01*
X23176971Y3650074D01*
X22991968Y3686873D01*
X22991964Y3686873D01*
X22980775Y3689099D01*
X22864912Y3690616D01*
X22780752Y3691718D01*
X22780748Y3691718D01*
X22769346Y3691867D01*
X22658569Y3672832D01*
X22572206Y3657993D01*
X22572202Y3657992D01*
X22560953Y3656059D01*
X22550238Y3652106D01*
X22373289Y3586826D01*
X22373286Y3586824D01*
X22362575Y3582873D01*
X22180856Y3474762D01*
X22164988Y3460846D01*
X22030462Y3342871D01*
X22030458Y3342867D01*
X22021881Y3335345D01*
X22014816Y3326383D01*
X22014815Y3326382D01*
X22001944Y3310055D01*
X21890976Y3169292D01*
X21885663Y3159193D01*
X21885662Y3159192D01*
X21809622Y3014664D01*
X21748480Y2939160D01*
X21663099Y2892802D01*
X21566476Y2882647D01*
X21473322Y2910240D01*
X21397818Y2971382D01*
X21365941Y3020469D01*
X21319657Y3114324D01*
X21310217Y3133466D01*
X21310216Y3133468D01*
X21305165Y3143710D01*
X21178651Y3313133D01*
X21023381Y3456663D01*
X20986632Y3479850D01*
X20854210Y3563403D01*
X20854206Y3563405D01*
X20844554Y3569495D01*
X20703750Y3625670D01*
X20658756Y3643621D01*
X20658752Y3643622D01*
X20648160Y3647848D01*
X20636975Y3650073D01*
X20636971Y3650074D01*
X20451968Y3686873D01*
X20451964Y3686873D01*
X20440775Y3689099D01*
X20324912Y3690616D01*
X20240752Y3691718D01*
X20240748Y3691718D01*
X20229346Y3691867D01*
X20118569Y3672832D01*
X20032206Y3657993D01*
X20032202Y3657992D01*
X20020953Y3656059D01*
X20010238Y3652106D01*
X19833289Y3586826D01*
X19833286Y3586824D01*
X19822575Y3582873D01*
X19640856Y3474762D01*
X19624988Y3460846D01*
X19490462Y3342871D01*
X19490458Y3342867D01*
X19481881Y3335345D01*
X19474816Y3326383D01*
X19474815Y3326382D01*
X19461944Y3310055D01*
X19350976Y3169292D01*
X19345663Y3159193D01*
X19345662Y3159192D01*
X19269622Y3014664D01*
X19208480Y2939160D01*
X19123099Y2892802D01*
X19026476Y2882647D01*
X18933322Y2910240D01*
X18857818Y2971382D01*
X18825941Y3020469D01*
X18779657Y3114324D01*
X18770217Y3133466D01*
X18770216Y3133468D01*
X18765165Y3143710D01*
X18638651Y3313133D01*
X18483381Y3456663D01*
X18446629Y3479852D01*
X18376157Y3546727D01*
X18336640Y3635483D01*
X18330500Y3690437D01*
X18330500Y6364317D01*
X30978662Y6364317D01*
X30979681Y6352181D01*
X30979681Y6352180D01*
X30979767Y6351163D01*
X30995408Y6164889D01*
X30998763Y6153188D01*
X30998764Y6153184D01*
X31019106Y6082246D01*
X31050572Y5972511D01*
X31056138Y5961681D01*
X31056139Y5961678D01*
X31076365Y5922323D01*
X31142051Y5794512D01*
X31266362Y5637671D01*
X31418769Y5507962D01*
X31593467Y5410327D01*
X31688634Y5379405D01*
X31772220Y5352246D01*
X31772222Y5352245D01*
X31783802Y5348483D01*
X31982525Y5324787D01*
X31994664Y5325721D01*
X31994666Y5325721D01*
X32169920Y5339206D01*
X32169925Y5339207D01*
X32182065Y5340141D01*
X32278445Y5367051D01*
X32363095Y5390685D01*
X32363097Y5390686D01*
X32374824Y5393960D01*
X32553457Y5484194D01*
X32585826Y5509483D01*
X32701564Y5599908D01*
X32701565Y5599909D01*
X32711162Y5607407D01*
X32830470Y5745626D01*
X32833973Y5749684D01*
X32833975Y5749687D01*
X32841931Y5758904D01*
X32940784Y5932917D01*
X33003955Y6122816D01*
X33029038Y6321368D01*
X33029438Y6350000D01*
X33009909Y6549175D01*
X32952065Y6740764D01*
X32858109Y6917469D01*
X32826044Y6956785D01*
X32739319Y7063121D01*
X32739316Y7063124D01*
X32731621Y7072559D01*
X32577418Y7200127D01*
X32552330Y7213692D01*
X32412082Y7289524D01*
X32412079Y7289525D01*
X32401373Y7295314D01*
X32372638Y7304209D01*
X32221830Y7350892D01*
X32221828Y7350892D01*
X32210193Y7354494D01*
X32011159Y7375413D01*
X31811852Y7357275D01*
X31619864Y7300770D01*
X31609068Y7295126D01*
X31598353Y7289524D01*
X31442508Y7208050D01*
X31286539Y7082647D01*
X31278711Y7073318D01*
X31278710Y7073317D01*
X31269998Y7062935D01*
X31157897Y6929339D01*
X31152032Y6918670D01*
X31152029Y6918666D01*
X31105169Y6833427D01*
X31061484Y6753963D01*
X31000970Y6563201D01*
X30978662Y6364317D01*
X18330500Y6364317D01*
X18330500Y8904317D01*
X28438662Y8904317D01*
X28439681Y8892181D01*
X28439681Y8892180D01*
X28453114Y8732212D01*
X28455408Y8704889D01*
X28458763Y8693188D01*
X28458764Y8693184D01*
X28471025Y8650427D01*
X28510572Y8512511D01*
X28516138Y8501681D01*
X28516139Y8501678D01*
X28536365Y8462323D01*
X28602051Y8334512D01*
X28609621Y8324961D01*
X28653157Y8270033D01*
X28726362Y8177671D01*
X28878769Y8047962D01*
X29053467Y7950327D01*
X29148635Y7919405D01*
X29232220Y7892246D01*
X29232222Y7892245D01*
X29243802Y7888483D01*
X29442525Y7864787D01*
X29454664Y7865721D01*
X29454666Y7865721D01*
X29629920Y7879206D01*
X29629925Y7879207D01*
X29642065Y7880141D01*
X29768715Y7915502D01*
X29823095Y7930685D01*
X29823097Y7930686D01*
X29834824Y7933960D01*
X30013457Y8024194D01*
X30026097Y8034069D01*
X30161564Y8139908D01*
X30161565Y8139909D01*
X30171162Y8147407D01*
X30292282Y8287725D01*
X30293973Y8289684D01*
X30293975Y8289687D01*
X30301931Y8298904D01*
X30400784Y8472917D01*
X30463955Y8662816D01*
X30489038Y8861368D01*
X30489438Y8890000D01*
X30469909Y9089175D01*
X30412065Y9280764D01*
X30343557Y9409609D01*
X30323823Y9446723D01*
X30323822Y9446725D01*
X30318109Y9457469D01*
X30278889Y9505558D01*
X30199319Y9603121D01*
X30199316Y9603124D01*
X30191621Y9612559D01*
X30122156Y9670026D01*
X30060100Y9721363D01*
X30037418Y9740127D01*
X29913996Y9806861D01*
X29872082Y9829524D01*
X29872079Y9829525D01*
X29861373Y9835314D01*
X29786051Y9858630D01*
X29681830Y9890892D01*
X29681828Y9890892D01*
X29670193Y9894494D01*
X29471159Y9915413D01*
X29271852Y9897275D01*
X29079864Y9840770D01*
X29069068Y9835126D01*
X28972154Y9784460D01*
X28902508Y9748050D01*
X28746539Y9622647D01*
X28738711Y9613318D01*
X28738710Y9613317D01*
X28723380Y9595047D01*
X28617897Y9469339D01*
X28612032Y9458670D01*
X28612029Y9458666D01*
X28566054Y9375036D01*
X28521484Y9293963D01*
X28460970Y9103201D01*
X28438662Y8904317D01*
X18330500Y8904317D01*
X18330500Y10209835D01*
X18349454Y10305123D01*
X18403430Y10385905D01*
X19461842Y11444317D01*
X30978662Y11444317D01*
X30979681Y11432181D01*
X30979681Y11432180D01*
X30992791Y11276059D01*
X30995408Y11244889D01*
X30998763Y11233188D01*
X30998764Y11233184D01*
X31011292Y11189495D01*
X31050572Y11052511D01*
X31056138Y11041681D01*
X31056139Y11041678D01*
X31093708Y10968578D01*
X31142051Y10874512D01*
X31149621Y10864961D01*
X31252549Y10735099D01*
X31266362Y10717671D01*
X31275634Y10709780D01*
X31396508Y10606908D01*
X31418769Y10587962D01*
X31593467Y10490327D01*
X31688634Y10459405D01*
X31772220Y10432246D01*
X31772222Y10432245D01*
X31783802Y10428483D01*
X31982525Y10404787D01*
X31994664Y10405721D01*
X31994666Y10405721D01*
X32169920Y10419206D01*
X32169925Y10419207D01*
X32182065Y10420141D01*
X32278445Y10447051D01*
X32363095Y10470685D01*
X32363097Y10470686D01*
X32374824Y10473960D01*
X32553457Y10564194D01*
X32566097Y10574069D01*
X32701564Y10679908D01*
X32701565Y10679909D01*
X32711162Y10687407D01*
X32799158Y10789351D01*
X32833973Y10829684D01*
X32833975Y10829687D01*
X32841931Y10838904D01*
X32895460Y10933133D01*
X32934766Y11002323D01*
X32934767Y11002325D01*
X32940784Y11012917D01*
X33003955Y11202816D01*
X33029038Y11401368D01*
X33029438Y11430000D01*
X33009909Y11629175D01*
X32952065Y11820764D01*
X32883557Y11949609D01*
X32863823Y11986723D01*
X32863822Y11986725D01*
X32858109Y11997469D01*
X32818889Y12045558D01*
X32739319Y12143121D01*
X32739316Y12143124D01*
X32731621Y12152559D01*
X32662156Y12210026D01*
X32600100Y12261363D01*
X32577418Y12280127D01*
X32535570Y12302754D01*
X32412082Y12369524D01*
X32412079Y12369525D01*
X32401373Y12375314D01*
X32326051Y12398630D01*
X32221830Y12430892D01*
X32221828Y12430892D01*
X32210193Y12434494D01*
X32011159Y12455413D01*
X31811852Y12437275D01*
X31619864Y12380770D01*
X31609068Y12375126D01*
X31509476Y12323060D01*
X31442508Y12288050D01*
X31286539Y12162647D01*
X31278711Y12153318D01*
X31278710Y12153317D01*
X31267317Y12139739D01*
X31157897Y12009339D01*
X31152032Y11998670D01*
X31152029Y11998666D01*
X31115888Y11932925D01*
X31061484Y11833963D01*
X31000970Y11643201D01*
X30978662Y11444317D01*
X19461842Y11444317D01*
X22765878Y14748353D01*
X31284282Y14748353D01*
X31289342Y14740781D01*
X31342614Y14703479D01*
X31361366Y14692652D01*
X31547823Y14605706D01*
X31568180Y14598297D01*
X31766894Y14545052D01*
X31788220Y14541291D01*
X31993176Y14523360D01*
X32014824Y14523360D01*
X32219780Y14541291D01*
X32241106Y14545052D01*
X32439820Y14598297D01*
X32460177Y14605706D01*
X32646634Y14692652D01*
X32665386Y14703479D01*
X32709382Y14734286D01*
X32723805Y14749353D01*
X32720138Y14757687D01*
X32021342Y15456484D01*
X32004000Y15468071D01*
X31986658Y15456484D01*
X31295870Y14765695D01*
X31284282Y14748353D01*
X22765878Y14748353D01*
X23834080Y15816555D01*
X30699981Y15816555D01*
X30717912Y15611599D01*
X30721673Y15590273D01*
X30774918Y15391559D01*
X30782327Y15371202D01*
X30869273Y15184745D01*
X30880100Y15165993D01*
X30910907Y15121997D01*
X30925974Y15107574D01*
X30934308Y15111241D01*
X31633105Y15810037D01*
X31644692Y15827379D01*
X32363308Y15827379D01*
X32374895Y15810037D01*
X33065684Y15119249D01*
X33083026Y15107661D01*
X33090598Y15112721D01*
X33127900Y15165993D01*
X33138727Y15184745D01*
X33225673Y15371202D01*
X33233082Y15391559D01*
X33286327Y15590273D01*
X33290088Y15611599D01*
X33308019Y15816555D01*
X33308019Y15838203D01*
X33290088Y16043159D01*
X33286327Y16064485D01*
X33233082Y16263199D01*
X33225673Y16283556D01*
X33138727Y16470013D01*
X33127900Y16488765D01*
X33097093Y16532761D01*
X33082026Y16547184D01*
X33073692Y16543517D01*
X32374895Y15844721D01*
X32363308Y15827379D01*
X31644692Y15827379D01*
X31633105Y15844721D01*
X30942316Y16535509D01*
X30924974Y16547097D01*
X30917402Y16542037D01*
X30880100Y16488765D01*
X30869273Y16470013D01*
X30782327Y16283556D01*
X30774918Y16263199D01*
X30721673Y16064485D01*
X30717912Y16043159D01*
X30699981Y15838203D01*
X30699981Y15816555D01*
X23834080Y15816555D01*
X25014850Y16997325D01*
X25022378Y17004543D01*
X25023706Y17005764D01*
X25066156Y17044799D01*
X25086033Y17076858D01*
X25099316Y17096184D01*
X25111850Y17112697D01*
X25111850Y17112698D01*
X25122112Y17126217D01*
X25128361Y17142001D01*
X25132916Y17150085D01*
X25136688Y17158556D01*
X25145635Y17172986D01*
X25156158Y17209205D01*
X25163753Y17231390D01*
X25171388Y17250673D01*
X25177636Y17266453D01*
X25179410Y17283332D01*
X25182074Y17294177D01*
X25184074Y17305293D01*
X25187715Y17317825D01*
X25188500Y17328515D01*
X25188500Y17356764D01*
X25189864Y17382791D01*
X25191628Y17399572D01*
X25191628Y17399575D01*
X25193402Y17416454D01*
X25190571Y17433189D01*
X25190145Y17446758D01*
X25188500Y17466346D01*
X25188500Y17482733D01*
X30903500Y17482733D01*
X30906618Y17456533D01*
X30952061Y17354226D01*
X31031287Y17275138D01*
X31119268Y17236241D01*
X31119275Y17236238D01*
X31133673Y17229873D01*
X31133378Y17229207D01*
X31204179Y17193907D01*
X31267918Y17120583D01*
X31298746Y17028449D01*
X31291969Y16931530D01*
X31283807Y16906779D01*
X31283705Y16906517D01*
X31287862Y16897071D01*
X31986658Y16198274D01*
X32004000Y16186687D01*
X32021342Y16198274D01*
X32712130Y16889063D01*
X32724393Y16907416D01*
X32716013Y16949544D01*
X32716012Y17046699D01*
X32753192Y17136458D01*
X32821890Y17205157D01*
X32875082Y17229465D01*
X32874846Y17229997D01*
X32877982Y17231390D01*
X32977153Y17275440D01*
X33056241Y17354666D01*
X33101506Y17457052D01*
X33104500Y17482733D01*
X33104500Y19172025D01*
X33101382Y19198225D01*
X33055939Y19300532D01*
X32976713Y19379620D01*
X32918615Y19405305D01*
X32891448Y19417316D01*
X32891447Y19417316D01*
X32874327Y19424885D01*
X32848646Y19427879D01*
X31159354Y19427879D01*
X31152039Y19427008D01*
X31152031Y19427008D01*
X31151704Y19426969D01*
X31151701Y19426968D01*
X31133154Y19424761D01*
X31116083Y19417178D01*
X31116082Y19417178D01*
X31104359Y19411971D01*
X31030847Y19379318D01*
X30951759Y19300092D01*
X30942465Y19279069D01*
X30920464Y19229304D01*
X30906494Y19197706D01*
X30903500Y19172025D01*
X30903500Y17482733D01*
X25188500Y17482733D01*
X25188500Y18955133D01*
X25207454Y19050421D01*
X25230103Y19092928D01*
X25240849Y19109101D01*
X25248560Y19120708D01*
X25302029Y19201184D01*
X25302030Y19201187D01*
X25309731Y19212777D01*
X25369521Y19370177D01*
X25392955Y19536912D01*
X25393249Y19558000D01*
X25374481Y19725324D01*
X25319108Y19884332D01*
X25229884Y20027121D01*
X25232247Y20028598D01*
X25198022Y20095345D01*
X25188500Y20163547D01*
X25188500Y21241133D01*
X25207454Y21336421D01*
X25230103Y21378928D01*
X25239774Y21393483D01*
X25271093Y21440622D01*
X25302029Y21487184D01*
X25302030Y21487187D01*
X25309731Y21498777D01*
X25369521Y21656177D01*
X25392955Y21822912D01*
X25393249Y21844000D01*
X25374481Y22011324D01*
X25319108Y22170332D01*
X25282067Y22229610D01*
X25237263Y22301313D01*
X25237260Y22301316D01*
X25229884Y22313121D01*
X25211299Y22331836D01*
X25121051Y22422717D01*
X25121048Y22422720D01*
X25111242Y22432594D01*
X24969079Y22522813D01*
X24810462Y22579294D01*
X24796636Y22580943D01*
X24796635Y22580943D01*
X24746332Y22586941D01*
X24643273Y22599231D01*
X24629430Y22597776D01*
X24629427Y22597776D01*
X24570580Y22591591D01*
X24475821Y22581631D01*
X24316431Y22527370D01*
X24173022Y22439144D01*
X24163078Y22429406D01*
X24163074Y22429403D01*
X24156247Y22422717D01*
X24052724Y22321339D01*
X23961515Y22179810D01*
X23903927Y22021591D01*
X23882825Y21854545D01*
X23884183Y21840694D01*
X23884183Y21840691D01*
X23889440Y21787080D01*
X23899255Y21686975D01*
X23952402Y21527209D01*
X24039013Y21384197D01*
X24039624Y21383188D01*
X24039538Y21383136D01*
X24078902Y21303664D01*
X24087500Y21238797D01*
X24087500Y20162585D01*
X24068546Y20067297D01*
X24047801Y20027700D01*
X23961515Y19893810D01*
X23903927Y19735591D01*
X23902183Y19721783D01*
X23902182Y19721780D01*
X23902028Y19720559D01*
X23882825Y19568545D01*
X23884183Y19554694D01*
X23884183Y19554691D01*
X23896706Y19426969D01*
X23899255Y19400975D01*
X23952402Y19241209D01*
X24039013Y19098197D01*
X24039624Y19097188D01*
X24039538Y19097136D01*
X24078902Y19017664D01*
X24087500Y18952797D01*
X24087500Y17730165D01*
X24068546Y17634877D01*
X24014570Y17554095D01*
X17403163Y10942687D01*
X17395635Y10935469D01*
X17351844Y10895201D01*
X17342898Y10880773D01*
X17342895Y10880769D01*
X17331968Y10863145D01*
X17318683Y10843814D01*
X17295888Y10813783D01*
X17289639Y10797999D01*
X17285081Y10789910D01*
X17281310Y10781441D01*
X17272365Y10767014D01*
X17261842Y10730795D01*
X17254249Y10708615D01*
X17240364Y10673547D01*
X17238590Y10656668D01*
X17235923Y10645811D01*
X17233925Y10634704D01*
X17230285Y10622175D01*
X17229500Y10611485D01*
X17229500Y10583226D01*
X17228136Y10557200D01*
X17224599Y10523546D01*
X17227429Y10506812D01*
X17227856Y10493234D01*
X17229500Y10473661D01*
X17229500Y3692892D01*
X17210546Y3597604D01*
X17156570Y3516822D01*
X17119440Y3487946D01*
X17119903Y3487309D01*
X17110669Y3480600D01*
X17100856Y3474762D01*
X17084988Y3460846D01*
X16950462Y3342871D01*
X16950458Y3342867D01*
X16941881Y3335345D01*
X16934816Y3326383D01*
X16934815Y3326382D01*
X16921944Y3310055D01*
X16837448Y3202871D01*
X16835044Y3199822D01*
X16761167Y3136725D01*
X16668768Y3106702D01*
X16571912Y3114324D01*
X16485346Y3158432D01*
X16422249Y3232309D01*
X16392226Y3324708D01*
X16390500Y3353976D01*
X16390500Y3434646D01*
X16387382Y3460846D01*
X16341939Y3563153D01*
X16262713Y3642241D01*
X16160327Y3687506D01*
X16134646Y3690500D01*
X15704950Y3690500D01*
X15609662Y3709454D01*
X15528880Y3763430D01*
X15474904Y3844212D01*
X15455950Y3939500D01*
X15474904Y4034788D01*
X15528880Y4115570D01*
X15577451Y4153381D01*
X15684668Y4217295D01*
X15684670Y4217297D01*
X15696623Y4224422D01*
X15818554Y4340535D01*
X15911731Y4480777D01*
X15971521Y4638177D01*
X15994955Y4804912D01*
X15995249Y4826000D01*
X15976481Y4993324D01*
X15921108Y5152332D01*
X15879746Y5218526D01*
X15839263Y5283313D01*
X15839260Y5283316D01*
X15831884Y5295121D01*
X15822074Y5305000D01*
X15723051Y5404717D01*
X15723048Y5404720D01*
X15713242Y5414594D01*
X15571079Y5504813D01*
X15412462Y5561294D01*
X15375013Y5565760D01*
X15282645Y5595861D01*
X15208822Y5659022D01*
X15164790Y5745626D01*
X15155500Y5813007D01*
X15155500Y15110500D01*
X15174454Y15205788D01*
X15228430Y15286570D01*
X15309212Y15340546D01*
X15404500Y15359500D01*
X15499646Y15359500D01*
X15506961Y15360371D01*
X15506969Y15360371D01*
X15507296Y15360410D01*
X15507299Y15360411D01*
X15525846Y15362618D01*
X15545172Y15371202D01*
X15554641Y15375408D01*
X15628153Y15408061D01*
X15707241Y15487287D01*
X15752506Y15589673D01*
X15755500Y15615354D01*
X15755500Y15698762D01*
X15774454Y15794050D01*
X15828430Y15874832D01*
X15909212Y15928808D01*
X16004500Y15947762D01*
X16099788Y15928808D01*
X16180570Y15874832D01*
X16207844Y15842471D01*
X16266405Y15759609D01*
X16417865Y15612063D01*
X16593677Y15494589D01*
X16627106Y15480227D01*
X16777464Y15415628D01*
X16777468Y15415627D01*
X16787953Y15411122D01*
X16994186Y15364456D01*
X17109745Y15359915D01*
X17194060Y15356602D01*
X17194064Y15356602D01*
X17205470Y15356154D01*
X17414730Y15386496D01*
X17614955Y15454463D01*
X17799442Y15557781D01*
X17808216Y15565078D01*
X17808220Y15565081D01*
X17953231Y15685685D01*
X17962012Y15692988D01*
X18003480Y15742848D01*
X18089919Y15846780D01*
X18089922Y15846784D01*
X18097219Y15855558D01*
X18199883Y16038877D01*
X18262980Y16112754D01*
X18349546Y16156861D01*
X18446402Y16164483D01*
X18538802Y16134460D01*
X18612679Y16071363D01*
X18643262Y16021454D01*
X18678415Y15945202D01*
X18684369Y15932286D01*
X18690955Y15922967D01*
X18796101Y15774189D01*
X18806405Y15759609D01*
X18957865Y15612063D01*
X19133677Y15494589D01*
X19167106Y15480227D01*
X19317464Y15415628D01*
X19317468Y15415627D01*
X19327953Y15411122D01*
X19534186Y15364456D01*
X19649745Y15359915D01*
X19734060Y15356602D01*
X19734064Y15356602D01*
X19745470Y15356154D01*
X19954730Y15386496D01*
X20154955Y15454463D01*
X20339442Y15557781D01*
X20348216Y15565078D01*
X20348220Y15565081D01*
X20493231Y15685685D01*
X20502012Y15692988D01*
X20543480Y15742848D01*
X20629919Y15846780D01*
X20629922Y15846784D01*
X20637219Y15855558D01*
X20740537Y16040045D01*
X20808504Y16240270D01*
X20838846Y16449530D01*
X20840429Y16510000D01*
X20831190Y16610546D01*
X20822126Y16709192D01*
X20822125Y16709196D01*
X20821081Y16720560D01*
X20781994Y16859154D01*
X20766786Y16913078D01*
X20766785Y16913080D01*
X20763686Y16924069D01*
X20670165Y17113710D01*
X20543651Y17283133D01*
X20388381Y17426663D01*
X20371629Y17437233D01*
X20219210Y17533403D01*
X20219206Y17533405D01*
X20209554Y17539495D01*
X20068750Y17595670D01*
X20023756Y17613621D01*
X20023752Y17613622D01*
X20013160Y17617848D01*
X20001975Y17620073D01*
X20001971Y17620074D01*
X19816968Y17656873D01*
X19816964Y17656873D01*
X19805775Y17659099D01*
X19689912Y17660616D01*
X19605752Y17661718D01*
X19605748Y17661718D01*
X19594346Y17661867D01*
X19494986Y17644794D01*
X19397206Y17627993D01*
X19397202Y17627992D01*
X19385953Y17626059D01*
X19375238Y17622106D01*
X19198289Y17556826D01*
X19198286Y17556824D01*
X19187575Y17552873D01*
X19005856Y17444762D01*
X18992167Y17432757D01*
X18855462Y17312871D01*
X18855458Y17312867D01*
X18846881Y17305345D01*
X18839816Y17296383D01*
X18839815Y17296382D01*
X18816221Y17266453D01*
X18715976Y17139292D01*
X18710663Y17129193D01*
X18710662Y17129192D01*
X18634622Y16984664D01*
X18573480Y16909160D01*
X18488099Y16862802D01*
X18391476Y16852647D01*
X18298322Y16880240D01*
X18222818Y16941382D01*
X18190941Y16990469D01*
X18130165Y17113710D01*
X18003651Y17283133D01*
X17848381Y17426663D01*
X17831629Y17437233D01*
X17679210Y17533403D01*
X17679206Y17533405D01*
X17669554Y17539495D01*
X17528750Y17595670D01*
X17483756Y17613621D01*
X17483752Y17613622D01*
X17473160Y17617848D01*
X17461975Y17620073D01*
X17461971Y17620074D01*
X17276968Y17656873D01*
X17276964Y17656873D01*
X17265775Y17659099D01*
X17149912Y17660616D01*
X17065752Y17661718D01*
X17065748Y17661718D01*
X17054346Y17661867D01*
X16998975Y17652353D01*
X16940178Y17642250D01*
X16843056Y17644794D01*
X16754301Y17684311D01*
X16721941Y17711584D01*
X14475406Y19958118D01*
X14421430Y20038900D01*
X14402476Y20134188D01*
X14421430Y20229476D01*
X14444078Y20271982D01*
X14451209Y20282715D01*
X14505731Y20364777D01*
X14565521Y20522177D01*
X14588955Y20688912D01*
X14589249Y20710000D01*
X14570481Y20877324D01*
X14515108Y21036332D01*
X14501872Y21057514D01*
X14433263Y21167313D01*
X14433260Y21167316D01*
X14425884Y21179121D01*
X14408047Y21197083D01*
X14317051Y21288717D01*
X14317048Y21288720D01*
X14307242Y21298594D01*
X14165079Y21388813D01*
X14006462Y21445294D01*
X13992636Y21446943D01*
X13992635Y21446943D01*
X13937975Y21453461D01*
X13839273Y21465231D01*
X13825430Y21463776D01*
X13825427Y21463776D01*
X13766580Y21457591D01*
X13671821Y21447631D01*
X13512431Y21393370D01*
X13369022Y21305144D01*
X13359078Y21295406D01*
X13359074Y21295403D01*
X13258674Y21197083D01*
X13248724Y21187339D01*
X13157515Y21045810D01*
X13099927Y20887591D01*
X13078825Y20720545D01*
X5106500Y20720545D01*
X5106500Y21317846D01*
X5103382Y21344046D01*
X5096902Y21358634D01*
X5090074Y21453461D01*
X5120711Y21545659D01*
X5165275Y21602717D01*
X5251075Y21684566D01*
X5251077Y21684568D01*
X5258705Y21691845D01*
X5400579Y21882530D01*
X5508295Y22094393D01*
X5550281Y22229610D01*
X5575647Y22311301D01*
X5575648Y22311305D01*
X5578775Y22321376D01*
X5610004Y22556989D01*
X5609248Y22577144D01*
X5601482Y22783964D01*
X5601087Y22794495D01*
X5552281Y23027104D01*
X5464980Y23248163D01*
X5341681Y23451353D01*
X5259469Y23546095D01*
X5192820Y23622901D01*
X5192819Y23622902D01*
X5185910Y23630864D01*
X5002120Y23781562D01*
X4795567Y23899139D01*
X4572156Y23980234D01*
X4561772Y23982112D01*
X4561771Y23982112D01*
X4346350Y24021066D01*
X4346347Y24021066D01*
X4338275Y24022526D01*
X4323664Y24023215D01*
X4316293Y24023563D01*
X4316279Y24023563D01*
X4313381Y24023700D01*
X2846320Y24023700D01*
X2763518Y24016674D01*
X2679684Y24009561D01*
X2679679Y24009560D01*
X2669177Y24008669D01*
X2658972Y24006020D01*
X2658970Y24006020D01*
X2545746Y23976633D01*
X2439126Y23948960D01*
X2429519Y23944632D01*
X2429518Y23944632D01*
X2232040Y23855675D01*
X2232037Y23855673D01*
X2222424Y23851343D01*
X2213670Y23845450D01*
X2213671Y23845450D01*
X2034013Y23724497D01*
X2034009Y23724494D01*
X2025268Y23718609D01*
X1853295Y23554555D01*
X1711421Y23363870D01*
X1603705Y23152007D01*
X1533225Y22925024D01*
X1501996Y22689411D01*
X750500Y22689411D01*
X750500Y30809411D01*
X1501996Y30809411D01*
X1510913Y30571905D01*
X1559719Y30339296D01*
X1647020Y30118237D01*
X1652488Y30109226D01*
X1652490Y30109222D01*
X1655534Y30104206D01*
X1770319Y29915047D01*
X1777230Y29907083D01*
X1777232Y29907080D01*
X1859873Y29811845D01*
X1926090Y29735536D01*
X2109880Y29584838D01*
X2316433Y29467261D01*
X2539844Y29386166D01*
X2550228Y29384288D01*
X2550229Y29384288D01*
X2765650Y29345334D01*
X2765653Y29345334D01*
X2773725Y29343874D01*
X2788336Y29343185D01*
X2795707Y29342837D01*
X2795721Y29342837D01*
X2798619Y29342700D01*
X4265680Y29342700D01*
X4348482Y29349726D01*
X4432316Y29356839D01*
X4432321Y29356840D01*
X4442823Y29357731D01*
X4453028Y29360380D01*
X4453030Y29360380D01*
X4662672Y29414792D01*
X4662673Y29414792D01*
X4672874Y29417440D01*
X4725218Y29441019D01*
X4879960Y29510725D01*
X4879963Y29510727D01*
X4889576Y29515057D01*
X4993225Y29584838D01*
X5077987Y29641903D01*
X5077991Y29641906D01*
X5086732Y29647791D01*
X5258705Y29811845D01*
X5400579Y30002530D01*
X5508295Y30214393D01*
X5578775Y30441376D01*
X5610004Y30676989D01*
X5609219Y30697917D01*
X5604691Y30818500D01*
X5601087Y30914495D01*
X5552281Y31147104D01*
X5464980Y31368163D01*
X5458798Y31378352D01*
X5347153Y31562335D01*
X5341681Y31571353D01*
X5259469Y31666095D01*
X5192820Y31742901D01*
X5192819Y31742902D01*
X5185910Y31750864D01*
X5088271Y31830923D01*
X5063601Y31851151D01*
X5001934Y31926226D01*
X4973691Y32019185D01*
X4983171Y32115877D01*
X5028932Y32201580D01*
X5104007Y32263247D01*
X5196966Y32291490D01*
X5221481Y32292700D01*
X5510835Y32292700D01*
X5606123Y32273746D01*
X5686905Y32219770D01*
X6563525Y31343150D01*
X6570743Y31335622D01*
X6610999Y31291844D01*
X6643058Y31271967D01*
X6662384Y31258684D01*
X6692417Y31235888D01*
X6708201Y31229639D01*
X6716285Y31225084D01*
X6724756Y31221312D01*
X6739186Y31212365D01*
X6775405Y31201842D01*
X6797585Y31194249D01*
X6806770Y31190612D01*
X6816872Y31186612D01*
X6816874Y31186612D01*
X6832653Y31180364D01*
X6849532Y31178590D01*
X6860389Y31175923D01*
X6871496Y31173925D01*
X6884025Y31170285D01*
X6894715Y31169500D01*
X6922974Y31169500D01*
X6949000Y31168136D01*
X6965773Y31166373D01*
X6965774Y31166373D01*
X6982654Y31164599D01*
X6999388Y31167429D01*
X7012966Y31167856D01*
X7032539Y31169500D01*
X8207409Y31169500D01*
X8217837Y31169282D01*
X8277294Y31166790D01*
X8314017Y31175404D01*
X8337078Y31179677D01*
X8343011Y31180490D01*
X8374432Y31184794D01*
X8390013Y31191537D01*
X8398947Y31194031D01*
X8407608Y31197356D01*
X8424136Y31201232D01*
X8439009Y31209409D01*
X8439013Y31209410D01*
X8457190Y31219403D01*
X8478253Y31229721D01*
X8497270Y31237951D01*
X8512855Y31244695D01*
X8526050Y31255380D01*
X8535615Y31261172D01*
X8544871Y31267605D01*
X8556308Y31273893D01*
X8564422Y31280897D01*
X8584409Y31300884D01*
X8603778Y31318323D01*
X8616875Y31328929D01*
X8630070Y31339614D01*
X8639906Y31353454D01*
X8649207Y31363359D01*
X8661877Y31378352D01*
X8723080Y31439555D01*
X8803862Y31493531D01*
X8899150Y31512485D01*
X8994438Y31493531D01*
X9075220Y31439555D01*
X9129196Y31358773D01*
X9148150Y31263485D01*
X9146598Y31235732D01*
X9134662Y31129317D01*
X9135681Y31117181D01*
X9135681Y31117180D01*
X9149439Y30953343D01*
X9151408Y30929889D01*
X9154763Y30918188D01*
X9154764Y30918184D01*
X9167418Y30874057D01*
X9206572Y30737511D01*
X9212138Y30726681D01*
X9212139Y30726678D01*
X9232264Y30687520D01*
X9298051Y30559512D01*
X9305621Y30549961D01*
X9391685Y30441376D01*
X9422362Y30402671D01*
X9574769Y30272962D01*
X9749467Y30175327D01*
X9844634Y30144405D01*
X9928220Y30117246D01*
X9928222Y30117245D01*
X9939802Y30113483D01*
X10138525Y30089787D01*
X10150664Y30090721D01*
X10150666Y30090721D01*
X10325920Y30104206D01*
X10325925Y30104207D01*
X10338065Y30105141D01*
X10434444Y30132050D01*
X10519095Y30155685D01*
X10519097Y30155686D01*
X10530824Y30158960D01*
X10709457Y30249194D01*
X10812234Y30329492D01*
X10857564Y30364908D01*
X10857565Y30364909D01*
X10867162Y30372407D01*
X10944719Y30462258D01*
X10989973Y30514684D01*
X10989975Y30514687D01*
X10997931Y30523904D01*
X11096784Y30697917D01*
X11159955Y30887816D01*
X11185038Y31086368D01*
X11185438Y31115000D01*
X11180290Y31167501D01*
X11173286Y31238940D01*
X11182852Y31335622D01*
X11228688Y31421285D01*
X11303817Y31482887D01*
X11396801Y31511049D01*
X11493483Y31501483D01*
X11579146Y31455647D01*
X11597168Y31439307D01*
X12044325Y30992150D01*
X12051543Y30984622D01*
X12091799Y30940844D01*
X12108644Y30930400D01*
X12123849Y30920972D01*
X12143178Y30907688D01*
X12173216Y30884888D01*
X12189005Y30878637D01*
X12197100Y30874075D01*
X12205564Y30870306D01*
X12219986Y30861365D01*
X12236281Y30856631D01*
X12236287Y30856628D01*
X12256214Y30850839D01*
X12278380Y30843251D01*
X12313453Y30829365D01*
X12330337Y30827591D01*
X12341203Y30824922D01*
X12352290Y30822927D01*
X12364825Y30819285D01*
X12375515Y30818500D01*
X12403774Y30818500D01*
X12429802Y30817136D01*
X12446573Y30815373D01*
X12446575Y30815373D01*
X12463454Y30813599D01*
X12480188Y30816429D01*
X12493766Y30816856D01*
X12513339Y30818500D01*
X21953409Y30818500D01*
X21963837Y30818282D01*
X22023294Y30815790D01*
X22060017Y30824404D01*
X22083078Y30828677D01*
X22089011Y30829490D01*
X22120432Y30833794D01*
X22136013Y30840537D01*
X22144947Y30843031D01*
X22153608Y30846356D01*
X22170136Y30850232D01*
X22185009Y30858409D01*
X22185013Y30858410D01*
X22203190Y30868403D01*
X22224253Y30878721D01*
X22243270Y30886951D01*
X22258855Y30893695D01*
X22272050Y30904380D01*
X22281615Y30910172D01*
X22290871Y30916605D01*
X22302308Y30922893D01*
X22310422Y30929897D01*
X22330409Y30949884D01*
X22349778Y30967323D01*
X22362875Y30977929D01*
X22376070Y30988614D01*
X22385906Y31002454D01*
X22395207Y31012359D01*
X22407877Y31027352D01*
X22509842Y31129317D01*
X30978662Y31129317D01*
X30979681Y31117181D01*
X30979681Y31117180D01*
X30993439Y30953343D01*
X30995408Y30929889D01*
X30998763Y30918188D01*
X30998764Y30918184D01*
X31011418Y30874057D01*
X31050572Y30737511D01*
X31056138Y30726681D01*
X31056139Y30726678D01*
X31076264Y30687520D01*
X31142051Y30559512D01*
X31149621Y30549961D01*
X31235685Y30441376D01*
X31266362Y30402671D01*
X31418769Y30272962D01*
X31593467Y30175327D01*
X31688634Y30144405D01*
X31772220Y30117246D01*
X31772222Y30117245D01*
X31783802Y30113483D01*
X31982525Y30089787D01*
X31994664Y30090721D01*
X31994666Y30090721D01*
X32169920Y30104206D01*
X32169925Y30104207D01*
X32182065Y30105141D01*
X32278444Y30132050D01*
X32363095Y30155685D01*
X32363097Y30155686D01*
X32374824Y30158960D01*
X32553457Y30249194D01*
X32656234Y30329492D01*
X32701564Y30364908D01*
X32701565Y30364909D01*
X32711162Y30372407D01*
X32788719Y30462258D01*
X32833973Y30514684D01*
X32833975Y30514687D01*
X32841931Y30523904D01*
X32940784Y30697917D01*
X33003955Y30887816D01*
X33029038Y31086368D01*
X33029438Y31115000D01*
X33009909Y31314175D01*
X32952065Y31505764D01*
X32915525Y31574485D01*
X32863823Y31671723D01*
X32863822Y31671725D01*
X32858109Y31682469D01*
X32850415Y31691903D01*
X32739319Y31828121D01*
X32739316Y31828124D01*
X32731621Y31837559D01*
X32715192Y31851151D01*
X32586798Y31957367D01*
X32577418Y31965127D01*
X32562765Y31973050D01*
X32412082Y32054524D01*
X32412079Y32054525D01*
X32401373Y32060314D01*
X32372638Y32069209D01*
X32221830Y32115892D01*
X32221828Y32115892D01*
X32210193Y32119494D01*
X32011159Y32140413D01*
X31811852Y32122275D01*
X31619864Y32065770D01*
X31609068Y32060126D01*
X31558182Y32033523D01*
X31442508Y31973050D01*
X31286539Y31847647D01*
X31278711Y31838318D01*
X31278710Y31838317D01*
X31261038Y31817256D01*
X31157897Y31694339D01*
X31152032Y31683670D01*
X31152029Y31683666D01*
X31105169Y31598427D01*
X31061484Y31518963D01*
X31000970Y31328201D01*
X30978662Y31129317D01*
X22509842Y31129317D01*
X23197781Y31817256D01*
X23278563Y31871232D01*
X23373851Y31890186D01*
X23428803Y31884046D01*
X23471186Y31874456D01*
X23586745Y31869915D01*
X23671060Y31866602D01*
X23671064Y31866602D01*
X23682470Y31866154D01*
X23891730Y31896496D01*
X24091955Y31964463D01*
X24276442Y32067781D01*
X24285216Y32075078D01*
X24285220Y32075081D01*
X24430231Y32195685D01*
X24439012Y32202988D01*
X24574219Y32365558D01*
X24574272Y32365514D01*
X24639776Y32429327D01*
X24730014Y32465330D01*
X24775394Y32469500D01*
X25013204Y32469500D01*
X25108492Y32450546D01*
X25189274Y32396570D01*
X25216547Y32364210D01*
X25242586Y32327366D01*
X25283405Y32269609D01*
X25434865Y32122063D01*
X25610677Y32004589D01*
X25638978Y31992430D01*
X25794464Y31925628D01*
X25794468Y31925627D01*
X25804953Y31921122D01*
X26011186Y31874456D01*
X26126745Y31869915D01*
X26211060Y31866602D01*
X26211064Y31866602D01*
X26222470Y31866154D01*
X26431730Y31896496D01*
X26631955Y31964463D01*
X26816442Y32067781D01*
X26825216Y32075078D01*
X26825220Y32075081D01*
X26970231Y32195685D01*
X26979012Y32202988D01*
X27012877Y32243706D01*
X27106919Y32356780D01*
X27106922Y32356784D01*
X27114219Y32365558D01*
X27217537Y32550045D01*
X27285504Y32750270D01*
X27315846Y32959530D01*
X27317429Y33020000D01*
X27311000Y33089961D01*
X27299126Y33219192D01*
X27299125Y33219196D01*
X27298081Y33230560D01*
X27273689Y33317048D01*
X27243786Y33423078D01*
X27243785Y33423080D01*
X27240686Y33434069D01*
X27147165Y33623710D01*
X27136936Y33637409D01*
X27113109Y33669317D01*
X28438662Y33669317D01*
X28439681Y33657181D01*
X28439681Y33657180D01*
X28453328Y33494664D01*
X28455408Y33469889D01*
X28458763Y33458188D01*
X28458764Y33458184D01*
X28475266Y33400635D01*
X28510572Y33277511D01*
X28516138Y33266681D01*
X28516139Y33266678D01*
X28545103Y33210320D01*
X28602051Y33099512D01*
X28609621Y33089961D01*
X28717303Y32954101D01*
X28726362Y32942671D01*
X28878769Y32812962D01*
X29053467Y32715327D01*
X29148635Y32684405D01*
X29232220Y32657246D01*
X29232222Y32657245D01*
X29243802Y32653483D01*
X29442525Y32629787D01*
X29454664Y32630721D01*
X29454666Y32630721D01*
X29629920Y32644206D01*
X29629925Y32644207D01*
X29642065Y32645141D01*
X29747157Y32674483D01*
X29823095Y32695685D01*
X29823097Y32695686D01*
X29834824Y32698960D01*
X30013457Y32789194D01*
X30092014Y32850569D01*
X30161564Y32904908D01*
X30161565Y32904909D01*
X30171162Y32912407D01*
X30272761Y33030110D01*
X30293973Y33054684D01*
X30293975Y33054687D01*
X30301931Y33063904D01*
X30385107Y33210320D01*
X30394766Y33227323D01*
X30394767Y33227325D01*
X30400784Y33237917D01*
X30463955Y33427816D01*
X30489038Y33626368D01*
X30489438Y33655000D01*
X30469909Y33854175D01*
X30412065Y34045764D01*
X30368420Y34127848D01*
X30323823Y34211723D01*
X30323822Y34211725D01*
X30318109Y34222469D01*
X30293270Y34252925D01*
X30199319Y34368121D01*
X30199316Y34368124D01*
X30191621Y34377559D01*
X30157500Y34405787D01*
X30046798Y34497367D01*
X30037418Y34505127D01*
X29986528Y34532643D01*
X29872082Y34594524D01*
X29872079Y34594525D01*
X29861373Y34600314D01*
X29715714Y34645403D01*
X29681830Y34655892D01*
X29681828Y34655892D01*
X29670193Y34659494D01*
X29471159Y34680413D01*
X29271852Y34662275D01*
X29079864Y34605770D01*
X29069068Y34600126D01*
X29000433Y34564244D01*
X28902508Y34513050D01*
X28746539Y34387647D01*
X28738711Y34378318D01*
X28738710Y34378317D01*
X28724522Y34361409D01*
X28617897Y34234339D01*
X28612032Y34223670D01*
X28612029Y34223666D01*
X28565169Y34138427D01*
X28521484Y34058963D01*
X28460970Y33868201D01*
X28438662Y33669317D01*
X27113109Y33669317D01*
X27057334Y33744009D01*
X27020651Y33793133D01*
X26865381Y33936663D01*
X26855723Y33942757D01*
X26696210Y34043403D01*
X26696206Y34043405D01*
X26686554Y34049495D01*
X26580317Y34091879D01*
X26500756Y34123621D01*
X26500752Y34123622D01*
X26490160Y34127848D01*
X26478975Y34130073D01*
X26478971Y34130074D01*
X26293968Y34166873D01*
X26293964Y34166873D01*
X26282775Y34169099D01*
X26166912Y34170616D01*
X26082752Y34171718D01*
X26082748Y34171718D01*
X26071346Y34171867D01*
X25960569Y34152832D01*
X25874206Y34137993D01*
X25874202Y34137992D01*
X25862953Y34136059D01*
X25852238Y34132106D01*
X25675289Y34066826D01*
X25675286Y34066824D01*
X25664575Y34062873D01*
X25482856Y33954762D01*
X25474271Y33947233D01*
X25332462Y33822871D01*
X25332458Y33822867D01*
X25323881Y33815345D01*
X25316816Y33806383D01*
X25316815Y33806382D01*
X25205632Y33665346D01*
X25131755Y33602249D01*
X25039356Y33572226D01*
X25010088Y33570500D01*
X24771725Y33570500D01*
X24676437Y33589454D01*
X24595655Y33643430D01*
X24572213Y33670517D01*
X24487479Y33783989D01*
X24480651Y33793133D01*
X24325381Y33936663D01*
X24315723Y33942757D01*
X24156210Y34043403D01*
X24156206Y34043405D01*
X24146554Y34049495D01*
X24040317Y34091879D01*
X23960756Y34123621D01*
X23960752Y34123622D01*
X23950160Y34127848D01*
X23938975Y34130073D01*
X23938971Y34130074D01*
X23753968Y34166873D01*
X23753964Y34166873D01*
X23742775Y34169099D01*
X23626912Y34170616D01*
X23542752Y34171718D01*
X23542748Y34171718D01*
X23531346Y34171867D01*
X23420569Y34152832D01*
X23334206Y34137993D01*
X23334202Y34137992D01*
X23322953Y34136059D01*
X23312238Y34132106D01*
X23135289Y34066826D01*
X23135286Y34066824D01*
X23124575Y34062873D01*
X22942856Y33954762D01*
X22934271Y33947233D01*
X22792462Y33822871D01*
X22792458Y33822867D01*
X22783881Y33815345D01*
X22666523Y33666477D01*
X22592649Y33603381D01*
X22500249Y33573358D01*
X22403394Y33580980D01*
X22316828Y33625087D01*
X22255341Y33696131D01*
X22249362Y33706487D01*
X22126347Y33882170D01*
X22112424Y33898764D01*
X21960761Y34050427D01*
X21944177Y34064343D01*
X21768478Y34187369D01*
X21749732Y34198192D01*
X21555343Y34288837D01*
X21534986Y34296246D01*
X21355691Y34344288D01*
X21334877Y34345652D01*
X21332989Y34341825D01*
X21332000Y34334311D01*
X21332000Y33019000D01*
X21313046Y32923712D01*
X21259070Y32842930D01*
X21178288Y32788954D01*
X21083000Y32770000D01*
X18541000Y32770000D01*
X18445712Y32788954D01*
X18364930Y32842930D01*
X18310954Y32923712D01*
X18292000Y33019000D01*
X18292000Y33294527D01*
X18792000Y33294527D01*
X18796069Y33274069D01*
X18816527Y33270000D01*
X20807473Y33270000D01*
X20827931Y33274069D01*
X20832000Y33294527D01*
X20832000Y34326109D01*
X20827931Y34346567D01*
X20823743Y34347400D01*
X20816229Y34346410D01*
X20629015Y34296246D01*
X20608652Y34288834D01*
X20414275Y34198195D01*
X20395518Y34187365D01*
X20219830Y34064347D01*
X20203236Y34050424D01*
X20051576Y33898764D01*
X20037650Y33882167D01*
X20015968Y33851202D01*
X19945787Y33784018D01*
X19855237Y33748806D01*
X19758106Y33750925D01*
X19669179Y33790055D01*
X19608032Y33851202D01*
X19586350Y33882167D01*
X19572424Y33898764D01*
X19420761Y34050427D01*
X19404177Y34064343D01*
X19228478Y34187369D01*
X19209732Y34198192D01*
X19015343Y34288837D01*
X18994986Y34296246D01*
X18815691Y34344288D01*
X18794877Y34345652D01*
X18792989Y34341825D01*
X18792000Y34334311D01*
X18792000Y33294527D01*
X18292000Y33294527D01*
X18292000Y34326109D01*
X18287931Y34346567D01*
X18283743Y34347400D01*
X18276229Y34346410D01*
X18089015Y34296246D01*
X18068652Y34288834D01*
X17874275Y34198195D01*
X17855518Y34187365D01*
X17679830Y34064347D01*
X17663236Y34050424D01*
X17530147Y33917335D01*
X17449365Y33863359D01*
X17354077Y33844405D01*
X17258789Y33863359D01*
X17178007Y33917335D01*
X17126517Y33992324D01*
X17113271Y34022144D01*
X17113271Y34022145D01*
X17103939Y34043153D01*
X17024713Y34122241D01*
X16922327Y34167506D01*
X16896646Y34170500D01*
X15107354Y34170500D01*
X15100039Y34169629D01*
X15100031Y34169629D01*
X15099704Y34169590D01*
X15099701Y34169589D01*
X15081154Y34167382D01*
X14978847Y34121939D01*
X14899759Y34042713D01*
X14877482Y33992324D01*
X14862393Y33958193D01*
X14854494Y33940327D01*
X14851500Y33914646D01*
X14851500Y32168500D01*
X14832546Y32073212D01*
X14778570Y31992430D01*
X14697788Y31938454D01*
X14602500Y31919500D01*
X12777164Y31919500D01*
X12681876Y31938454D01*
X12601094Y31992430D01*
X12375423Y32218101D01*
X12321447Y32298883D01*
X12302493Y32394171D01*
X12321447Y32489459D01*
X12375423Y32570241D01*
X12456205Y32624217D01*
X12551493Y32643171D01*
X12580975Y32641419D01*
X12678525Y32629787D01*
X12690664Y32630721D01*
X12690666Y32630721D01*
X12865920Y32644206D01*
X12865925Y32644207D01*
X12878065Y32645141D01*
X12983157Y32674483D01*
X13059095Y32695685D01*
X13059097Y32695686D01*
X13070824Y32698960D01*
X13249457Y32789194D01*
X13328014Y32850569D01*
X13397564Y32904908D01*
X13397565Y32904909D01*
X13407162Y32912407D01*
X13508761Y33030110D01*
X13529973Y33054684D01*
X13529975Y33054687D01*
X13537931Y33063904D01*
X13621107Y33210320D01*
X13630766Y33227323D01*
X13630767Y33227325D01*
X13636784Y33237917D01*
X13699955Y33427816D01*
X13725038Y33626368D01*
X13725438Y33655000D01*
X13705909Y33854175D01*
X13648065Y34045764D01*
X13604420Y34127848D01*
X13559823Y34211723D01*
X13559822Y34211725D01*
X13554109Y34222469D01*
X13529270Y34252925D01*
X13435319Y34368121D01*
X13435316Y34368124D01*
X13427621Y34377559D01*
X13393500Y34405787D01*
X13282798Y34497367D01*
X13273418Y34505127D01*
X13222528Y34532643D01*
X13108082Y34594524D01*
X13108079Y34594525D01*
X13097373Y34600314D01*
X12951714Y34645403D01*
X12917830Y34655892D01*
X12917828Y34655892D01*
X12906193Y34659494D01*
X12707159Y34680413D01*
X12507852Y34662275D01*
X12315864Y34605770D01*
X12305068Y34600126D01*
X12236433Y34564244D01*
X12138508Y34513050D01*
X11982539Y34387647D01*
X11974711Y34378318D01*
X11974710Y34378317D01*
X11960522Y34361409D01*
X11853897Y34234339D01*
X11848032Y34223670D01*
X11848029Y34223666D01*
X11801169Y34138427D01*
X11757484Y34058963D01*
X11696970Y33868201D01*
X11674662Y33669317D01*
X11675681Y33657181D01*
X11675681Y33657180D01*
X11686530Y33527977D01*
X11675615Y33431437D01*
X11628587Y33346422D01*
X11552606Y33285876D01*
X11459238Y33259015D01*
X11362698Y33269930D01*
X11283536Y33313180D01*
X11276201Y33321156D01*
X11261773Y33330102D01*
X11261769Y33330105D01*
X11244145Y33341032D01*
X11224813Y33354318D01*
X11208305Y33366848D01*
X11194783Y33377112D01*
X11178999Y33383361D01*
X11170910Y33387919D01*
X11162441Y33391690D01*
X11148014Y33400635D01*
X11111795Y33411158D01*
X11089615Y33418751D01*
X11078687Y33423078D01*
X11070328Y33426388D01*
X11070326Y33426388D01*
X11054547Y33432636D01*
X11037668Y33434410D01*
X11026811Y33437077D01*
X11015704Y33439075D01*
X11003175Y33442715D01*
X10992485Y33443500D01*
X10964226Y33443500D01*
X10938200Y33444864D01*
X10921427Y33446627D01*
X10921426Y33446627D01*
X10904546Y33448401D01*
X10887812Y33445571D01*
X10874234Y33445144D01*
X10854661Y33443500D01*
X9415591Y33443500D01*
X9405164Y33443718D01*
X9403144Y33443803D01*
X9345706Y33446210D01*
X9329186Y33442335D01*
X9329182Y33442335D01*
X9315450Y33439114D01*
X9308983Y33437597D01*
X9285919Y33433323D01*
X9248568Y33428206D01*
X9232988Y33421464D01*
X9224041Y33418966D01*
X9215390Y33415645D01*
X9198864Y33411769D01*
X9165811Y33393598D01*
X9144747Y33383279D01*
X9125725Y33375048D01*
X9125719Y33375044D01*
X9110145Y33368305D01*
X9096953Y33357623D01*
X9087395Y33351834D01*
X9078129Y33345394D01*
X9066693Y33339107D01*
X9058578Y33332103D01*
X9055351Y33328876D01*
X9052003Y33325765D01*
X9051198Y33326632D01*
X9049473Y33325479D01*
X9046103Y33323137D01*
X9046060Y33323199D01*
X8976168Y33276499D01*
X8880880Y33257545D01*
X8785592Y33276499D01*
X8704810Y33330475D01*
X8650834Y33411257D01*
X8631880Y33506545D01*
X8633844Y33537754D01*
X8644167Y33619469D01*
X8644168Y33619484D01*
X8645038Y33626368D01*
X8645438Y33655000D01*
X8625909Y33854175D01*
X8568065Y34045764D01*
X8524420Y34127848D01*
X8479823Y34211723D01*
X8479822Y34211725D01*
X8474109Y34222469D01*
X8449270Y34252925D01*
X8355319Y34368121D01*
X8355316Y34368124D01*
X8347621Y34377559D01*
X8313500Y34405787D01*
X8202798Y34497367D01*
X8193418Y34505127D01*
X8142528Y34532643D01*
X8028082Y34594524D01*
X8028079Y34594525D01*
X8017373Y34600314D01*
X7871714Y34645403D01*
X7837830Y34655892D01*
X7837828Y34655892D01*
X7826193Y34659494D01*
X7627159Y34680413D01*
X7427852Y34662275D01*
X7235864Y34605770D01*
X7225068Y34600126D01*
X7156433Y34564244D01*
X7058508Y34513050D01*
X6902539Y34387647D01*
X6894711Y34378318D01*
X6894710Y34378317D01*
X6880522Y34361409D01*
X6773897Y34234339D01*
X6768032Y34223670D01*
X6768029Y34223666D01*
X6721169Y34138427D01*
X6677484Y34058963D01*
X6616970Y33868201D01*
X6594662Y33669317D01*
X6595681Y33657181D01*
X6595681Y33657180D01*
X6611024Y33474459D01*
X6600109Y33377919D01*
X6553082Y33292904D01*
X6477100Y33232358D01*
X6383732Y33205497D01*
X6287192Y33216412D01*
X6205868Y33260844D01*
X6196201Y33271356D01*
X6181775Y33280301D01*
X6181773Y33280302D01*
X6164145Y33291232D01*
X6144813Y33304518D01*
X6128305Y33317048D01*
X6114783Y33327312D01*
X6098999Y33333561D01*
X6090910Y33338119D01*
X6082441Y33341890D01*
X6068014Y33350835D01*
X6031795Y33361358D01*
X6009615Y33368951D01*
X5994217Y33375048D01*
X5990328Y33376588D01*
X5990326Y33376588D01*
X5974547Y33382836D01*
X5957668Y33384610D01*
X5946811Y33387277D01*
X5935704Y33389275D01*
X5923175Y33392915D01*
X5912485Y33393700D01*
X5884226Y33393700D01*
X5858200Y33395064D01*
X5841427Y33396827D01*
X5841426Y33396827D01*
X5824546Y33398601D01*
X5807812Y33395771D01*
X5794234Y33395344D01*
X5774661Y33393700D01*
X5080684Y33393700D01*
X4985396Y33412654D01*
X4904614Y33466630D01*
X4886629Y33486675D01*
X4875536Y33500472D01*
X4810185Y33581753D01*
X4749276Y33632862D01*
X4725948Y33652437D01*
X4665137Y33728207D01*
X4637950Y33821480D01*
X4648528Y33918058D01*
X4695259Y34003236D01*
X4728624Y34036139D01*
X4799800Y34094189D01*
X4821567Y34120500D01*
X4897033Y34211723D01*
X4931118Y34252925D01*
X4949263Y34286483D01*
X5023313Y34423436D01*
X5023314Y34423439D01*
X5029103Y34434145D01*
X5036938Y34459457D01*
X5086421Y34619309D01*
X5086421Y34619311D01*
X5090023Y34630946D01*
X5111557Y34835831D01*
X5092886Y35040997D01*
X5034720Y35238628D01*
X4939274Y35421198D01*
X4810185Y35581753D01*
X4770290Y35615229D01*
X4725948Y35652437D01*
X4665137Y35728207D01*
X4637950Y35821480D01*
X4648528Y35918058D01*
X4695259Y36003236D01*
X4728624Y36036139D01*
X4799800Y36094189D01*
X4829929Y36130608D01*
X4902167Y36217929D01*
X4931118Y36252925D01*
X4937756Y36265202D01*
X5023313Y36423436D01*
X5023314Y36423439D01*
X5029103Y36434145D01*
X5046409Y36490053D01*
X5086421Y36619309D01*
X5086421Y36619311D01*
X5090023Y36630946D01*
X5111557Y36835831D01*
X5092886Y37040997D01*
X5034720Y37238628D01*
X4939274Y37421198D01*
X4810185Y37581753D01*
X4788553Y37599905D01*
X4741173Y37639661D01*
X4652370Y37714176D01*
X4626974Y37728138D01*
X4482503Y37807561D01*
X4482502Y37807561D01*
X4471838Y37813424D01*
X4460244Y37817102D01*
X4460239Y37817104D01*
X4287069Y37872036D01*
X4275468Y37875716D01*
X4238452Y37879868D01*
X4122056Y37892924D01*
X4122052Y37892924D01*
X4115136Y37893700D01*
X3004159Y37893700D01*
X2998116Y37893107D01*
X2998106Y37893107D01*
X2909167Y37884386D01*
X2850970Y37878680D01*
X2653749Y37819135D01*
X2471849Y37722418D01*
X2312200Y37592211D01*
X2304441Y37582832D01*
X2304440Y37582831D01*
X2285971Y37560506D01*
X2180882Y37433475D01*
X2175092Y37422766D01*
X2175091Y37422765D01*
X2106902Y37296651D01*
X2082897Y37252255D01*
X2079296Y37240622D01*
X2028060Y37075104D01*
X2021977Y37055454D01*
X2000443Y36850569D01*
X2019114Y36645403D01*
X2077280Y36447772D01*
X2082924Y36436976D01*
X2090003Y36423436D01*
X2172726Y36265202D01*
X2301815Y36104647D01*
X2325313Y36084930D01*
X2386052Y36033963D01*
X2446863Y35958193D01*
X2474050Y35864920D01*
X2463472Y35768342D01*
X2416741Y35683164D01*
X2383376Y35650261D01*
X2312200Y35592211D01*
X2180882Y35433475D01*
X2175092Y35422766D01*
X2175091Y35422765D01*
X2094810Y35274287D01*
X2082897Y35252255D01*
X2079296Y35240622D01*
X2029852Y35080893D01*
X2021977Y35055454D01*
X2000443Y34850569D01*
X2019114Y34645403D01*
X2077280Y34447772D01*
X2172726Y34265202D01*
X2301815Y34104647D01*
X2332131Y34079209D01*
X2386052Y34033963D01*
X2446863Y33958193D01*
X2474050Y33864920D01*
X2463472Y33768342D01*
X2416741Y33683164D01*
X2383376Y33650261D01*
X2312200Y33592211D01*
X2304441Y33582832D01*
X2304440Y33582831D01*
X2292025Y33567824D01*
X2180882Y33433475D01*
X2175092Y33422766D01*
X2175091Y33422765D01*
X2092454Y33269930D01*
X2082897Y33252255D01*
X2079296Y33240622D01*
X2032659Y33089961D01*
X2021977Y33055454D01*
X2000443Y32850569D01*
X2019114Y32645403D01*
X2077280Y32447772D01*
X2172726Y32265202D01*
X2180362Y32255704D01*
X2187026Y32245521D01*
X2184253Y32243706D01*
X2218556Y32178017D01*
X2227149Y32081242D01*
X2198053Y31988547D01*
X2135699Y31914041D01*
X2118662Y31901486D01*
X2025268Y31838609D01*
X2017644Y31831336D01*
X1862846Y31683666D01*
X1853295Y31674555D01*
X1711421Y31483870D01*
X1603705Y31272007D01*
X1579560Y31194247D01*
X1546063Y31086368D01*
X1533225Y31045024D01*
X1501996Y30809411D01*
X750500Y30809411D01*
X750500Y39513353D01*
X9440282Y39513353D01*
X9445342Y39505781D01*
X9498614Y39468479D01*
X9517366Y39457652D01*
X9703823Y39370706D01*
X9724180Y39363297D01*
X9922894Y39310052D01*
X9944220Y39306291D01*
X10149176Y39288360D01*
X10170824Y39288360D01*
X10375780Y39306291D01*
X10397106Y39310052D01*
X10595820Y39363297D01*
X10616177Y39370706D01*
X10802634Y39457652D01*
X10821386Y39468479D01*
X10865382Y39499286D01*
X10879805Y39514353D01*
X10876138Y39522687D01*
X10177342Y40221484D01*
X10160000Y40233071D01*
X10142658Y40221484D01*
X9451870Y39530695D01*
X9440282Y39513353D01*
X750500Y39513353D01*
X750500Y43009411D01*
X1501996Y43009411D01*
X1502391Y42998884D01*
X1502391Y42998880D01*
X1505900Y42905427D01*
X1510913Y42771905D01*
X1559719Y42539296D01*
X1647020Y42318237D01*
X1652488Y42309226D01*
X1652490Y42309222D01*
X1711530Y42211928D01*
X1770319Y42115047D01*
X1777230Y42107083D01*
X1777232Y42107080D01*
X1905810Y41958907D01*
X1926090Y41935536D01*
X1934242Y41928852D01*
X1941805Y41921497D01*
X1940515Y41920170D01*
X1993283Y41855930D01*
X2021526Y41762971D01*
X2014274Y41676600D01*
X2008494Y41663527D01*
X2005500Y41637846D01*
X2005500Y40048554D01*
X2008618Y40022354D01*
X2016201Y40005283D01*
X2016201Y40005282D01*
X2021033Y39994404D01*
X2054061Y39920047D01*
X2133287Y39840959D01*
X2235673Y39795694D01*
X2261354Y39792700D01*
X4850646Y39792700D01*
X4857961Y39793571D01*
X4857969Y39793571D01*
X4858296Y39793610D01*
X4858299Y39793611D01*
X4876846Y39795818D01*
X4979153Y39841261D01*
X5058241Y39920487D01*
X5095230Y40004153D01*
X5095937Y40005752D01*
X5095937Y40005753D01*
X5103506Y40022873D01*
X5106500Y40048554D01*
X5106500Y40581555D01*
X8855981Y40581555D01*
X8873912Y40376599D01*
X8877673Y40355273D01*
X8930918Y40156559D01*
X8938327Y40136202D01*
X9025273Y39949745D01*
X9036100Y39930993D01*
X9066907Y39886997D01*
X9081974Y39872574D01*
X9090308Y39876241D01*
X9789105Y40575037D01*
X9800692Y40592379D01*
X10519308Y40592379D01*
X10530895Y40575037D01*
X11221684Y39884249D01*
X11239026Y39872661D01*
X11246598Y39877721D01*
X11283900Y39930993D01*
X11294727Y39949745D01*
X11381673Y40136202D01*
X11389082Y40156559D01*
X11442327Y40355273D01*
X11446088Y40376599D01*
X11464019Y40581555D01*
X11464019Y40603203D01*
X11446088Y40808159D01*
X11442327Y40829485D01*
X11389082Y41028199D01*
X11381673Y41048556D01*
X11294727Y41235013D01*
X11283900Y41253765D01*
X11253093Y41297761D01*
X11238026Y41312184D01*
X11229692Y41308517D01*
X10530895Y40609721D01*
X10519308Y40592379D01*
X9800692Y40592379D01*
X9789105Y40609721D01*
X9098316Y41300509D01*
X9080974Y41312097D01*
X9073402Y41307037D01*
X9036100Y41253765D01*
X9025273Y41235013D01*
X8938327Y41048556D01*
X8930918Y41028199D01*
X8877673Y40829485D01*
X8873912Y40808159D01*
X8855981Y40603203D01*
X8855981Y40581555D01*
X5106500Y40581555D01*
X5106500Y41637846D01*
X5103382Y41664046D01*
X5096902Y41678634D01*
X5090074Y41773461D01*
X5120711Y41865659D01*
X5165275Y41922717D01*
X5251075Y42004566D01*
X5251077Y42004568D01*
X5258705Y42011845D01*
X5400579Y42202530D01*
X5508295Y42414393D01*
X5553179Y42558943D01*
X5575647Y42631301D01*
X5575648Y42631305D01*
X5578775Y42641376D01*
X5610004Y42876989D01*
X5608937Y42905427D01*
X5602054Y43088743D01*
X5601087Y43114495D01*
X5552281Y43347104D01*
X5464980Y43568163D01*
X5427349Y43630178D01*
X5389283Y43692908D01*
X5341681Y43771353D01*
X5321659Y43794427D01*
X5192820Y43942901D01*
X5192819Y43942902D01*
X5185910Y43950864D01*
X5002120Y44101562D01*
X4795567Y44219139D01*
X4572156Y44300234D01*
X4561772Y44302112D01*
X4561771Y44302112D01*
X4346350Y44341066D01*
X4346347Y44341066D01*
X4338275Y44342526D01*
X4323664Y44343215D01*
X4316293Y44343563D01*
X4316279Y44343563D01*
X4313381Y44343700D01*
X2846320Y44343700D01*
X2763518Y44336674D01*
X2679684Y44329561D01*
X2679679Y44329560D01*
X2669177Y44328669D01*
X2658972Y44326020D01*
X2658970Y44326020D01*
X2545746Y44296633D01*
X2439126Y44268960D01*
X2429519Y44264632D01*
X2429518Y44264632D01*
X2232040Y44175675D01*
X2232037Y44175673D01*
X2222424Y44171343D01*
X2213670Y44165450D01*
X2213671Y44165450D01*
X2034013Y44044497D01*
X2034009Y44044494D01*
X2025268Y44038609D01*
X2017644Y44031336D01*
X1911205Y43929798D01*
X1853295Y43874555D01*
X1711421Y43683870D01*
X1603705Y43472007D01*
X1600580Y43461942D01*
X1563568Y43342743D01*
X1533225Y43245024D01*
X1501996Y43009411D01*
X750500Y43009411D01*
X750500Y48290246D01*
X4944967Y48290246D01*
X4958796Y48079251D01*
X4961605Y48068190D01*
X4961606Y48068185D01*
X5008033Y47885382D01*
X5010845Y47874310D01*
X5015624Y47863943D01*
X5015626Y47863938D01*
X5061396Y47764657D01*
X5099369Y47682286D01*
X5221405Y47509609D01*
X5372865Y47362063D01*
X5548677Y47244589D01*
X5601911Y47221718D01*
X5732464Y47165628D01*
X5732468Y47165627D01*
X5742953Y47161122D01*
X5949186Y47114456D01*
X6064745Y47109915D01*
X6149060Y47106602D01*
X6149064Y47106602D01*
X6160470Y47106154D01*
X6369730Y47136496D01*
X6569955Y47204463D01*
X6695967Y47275033D01*
X6788366Y47305056D01*
X6885221Y47297434D01*
X6971787Y47253326D01*
X6999791Y47227437D01*
X7001725Y47225172D01*
X7037267Y47189630D01*
X7044044Y47182581D01*
X7068511Y47156112D01*
X7068513Y47156110D01*
X7081146Y47142444D01*
X7088838Y47137976D01*
X7089632Y47137265D01*
X7780129Y46446768D01*
X7799601Y46424854D01*
X7816128Y46403890D01*
X7862826Y46371615D01*
X7869118Y46367119D01*
X7914817Y46333365D01*
X7921634Y46330971D01*
X7927569Y46326869D01*
X7943165Y46321937D01*
X7943164Y46321937D01*
X7981635Y46309770D01*
X7989055Y46307294D01*
X8027183Y46293904D01*
X8027193Y46293902D01*
X8042631Y46288480D01*
X8049848Y46288196D01*
X8056730Y46286020D01*
X8063337Y46285500D01*
X8113595Y46285500D01*
X8123370Y46285308D01*
X8177994Y46283162D01*
X8186590Y46285441D01*
X8187658Y46285500D01*
X8854257Y46285500D01*
X8949545Y46266546D01*
X9030327Y46212570D01*
X10624948Y44617949D01*
X10678924Y44537167D01*
X10697878Y44441879D01*
X10678924Y44346591D01*
X10624948Y44265809D01*
X10544166Y44211833D01*
X10448878Y44192879D01*
X9315354Y44192879D01*
X9308039Y44192008D01*
X9308031Y44192008D01*
X9307704Y44191969D01*
X9307701Y44191968D01*
X9289154Y44189761D01*
X9186847Y44144318D01*
X9107759Y44065092D01*
X9092768Y44031183D01*
X9072237Y43984743D01*
X9062494Y43962706D01*
X9059500Y43937025D01*
X9059500Y42247733D01*
X9062618Y42221533D01*
X9108061Y42119226D01*
X9187287Y42040138D01*
X9275268Y42001241D01*
X9275275Y42001238D01*
X9289673Y41994873D01*
X9289378Y41994207D01*
X9360179Y41958907D01*
X9423918Y41885583D01*
X9454746Y41793449D01*
X9447969Y41696530D01*
X9439807Y41671779D01*
X9439705Y41671517D01*
X9443862Y41662071D01*
X10142658Y40963274D01*
X10160000Y40951687D01*
X10177342Y40963274D01*
X10868130Y41654063D01*
X10880393Y41672416D01*
X10872013Y41714544D01*
X10872012Y41811699D01*
X10909192Y41901458D01*
X10977890Y41970157D01*
X11031082Y41994465D01*
X11030846Y41994997D01*
X11133153Y42040440D01*
X11212241Y42119666D01*
X11257506Y42222052D01*
X11260500Y42247733D01*
X11260500Y43381257D01*
X11279454Y43476545D01*
X11333430Y43557327D01*
X11414212Y43611303D01*
X11509500Y43630257D01*
X11604788Y43611303D01*
X11685570Y43557327D01*
X16875570Y38367327D01*
X16929546Y38286545D01*
X16948500Y38191257D01*
X16948500Y37477126D01*
X16929546Y37381838D01*
X16885003Y37311240D01*
X16874604Y37302169D01*
X16777113Y37163453D01*
X16771659Y37149464D01*
X16720976Y37019472D01*
X16720975Y37019468D01*
X16715524Y37005487D01*
X16693394Y36837389D01*
X16711999Y36668865D01*
X16770266Y36509644D01*
X16864830Y36368917D01*
X16990233Y36254809D01*
X17003425Y36247647D01*
X17003424Y36247647D01*
X17126047Y36181068D01*
X17126050Y36181067D01*
X17139235Y36173908D01*
X17153747Y36170101D01*
X17153749Y36170100D01*
X17205716Y36156467D01*
X17303233Y36130884D01*
X17318245Y36130648D01*
X17318246Y36130648D01*
X17377097Y36129724D01*
X17472760Y36128221D01*
X17544306Y36144607D01*
X17623400Y36162721D01*
X17623404Y36162723D01*
X17638029Y36166072D01*
X17789498Y36242253D01*
X17918423Y36352366D01*
X18017361Y36490053D01*
X18022959Y36503978D01*
X18075001Y36633435D01*
X18075002Y36633437D01*
X18080601Y36647366D01*
X18082740Y36662390D01*
X18103341Y36807149D01*
X18104490Y36815222D01*
X18104645Y36830000D01*
X18096782Y36894975D01*
X27134025Y36894975D01*
X27135383Y36881124D01*
X27135383Y36881121D01*
X27144536Y36787774D01*
X27150455Y36727405D01*
X27203602Y36567639D01*
X27290824Y36423618D01*
X27300492Y36413606D01*
X27300494Y36413604D01*
X27314631Y36398965D01*
X27407786Y36302501D01*
X27548675Y36210305D01*
X27596998Y36192334D01*
X27693441Y36156467D01*
X27693445Y36156466D01*
X27706489Y36151615D01*
X27720283Y36149775D01*
X27720285Y36149774D01*
X27859589Y36131187D01*
X27859593Y36131187D01*
X27873383Y36129347D01*
X27887240Y36130608D01*
X27887244Y36130608D01*
X28027201Y36143345D01*
X28027204Y36143346D01*
X28041064Y36144607D01*
X28201197Y36196637D01*
X28224125Y36210305D01*
X28333868Y36275725D01*
X28333870Y36275727D01*
X28345823Y36282852D01*
X28348823Y36285709D01*
X28431160Y36325779D01*
X28494347Y36333930D01*
X33879145Y36333930D01*
X33974433Y36314976D01*
X34055215Y36261000D01*
X34109191Y36180218D01*
X34128145Y36084930D01*
X34113129Y35999769D01*
X34063927Y35864591D01*
X34062183Y35850783D01*
X34062182Y35850780D01*
X34058481Y35821480D01*
X34042825Y35697545D01*
X34044183Y35683694D01*
X34044183Y35683691D01*
X34054178Y35581753D01*
X34059255Y35529975D01*
X34112402Y35370209D01*
X34199624Y35226188D01*
X34209292Y35216176D01*
X34209294Y35216174D01*
X34264206Y35159311D01*
X34316586Y35105071D01*
X34328235Y35097448D01*
X34343350Y35087557D01*
X34412704Y35019520D01*
X34450743Y34930121D01*
X34451674Y34832970D01*
X34415357Y34742858D01*
X34347320Y34673504D01*
X34277306Y34640335D01*
X34159864Y34605770D01*
X34149068Y34600126D01*
X34080433Y34564244D01*
X33982508Y34513050D01*
X33826539Y34387647D01*
X33818711Y34378318D01*
X33818710Y34378317D01*
X33804522Y34361409D01*
X33697897Y34234339D01*
X33692032Y34223670D01*
X33692029Y34223666D01*
X33645169Y34138427D01*
X33601484Y34058963D01*
X33540970Y33868201D01*
X33518662Y33669317D01*
X33519681Y33657181D01*
X33519681Y33657180D01*
X33533328Y33494664D01*
X33535408Y33469889D01*
X33538763Y33458188D01*
X33538764Y33458184D01*
X33555266Y33400635D01*
X33590572Y33277511D01*
X33596138Y33266681D01*
X33596139Y33266678D01*
X33625103Y33210320D01*
X33682051Y33099512D01*
X33689621Y33089961D01*
X33797303Y32954101D01*
X33806362Y32942671D01*
X33958769Y32812962D01*
X34133467Y32715327D01*
X34228635Y32684405D01*
X34312220Y32657246D01*
X34312222Y32657245D01*
X34323802Y32653483D01*
X34522525Y32629787D01*
X34534664Y32630721D01*
X34534666Y32630721D01*
X34709920Y32644206D01*
X34709925Y32644207D01*
X34722065Y32645141D01*
X34827157Y32674483D01*
X34903095Y32695685D01*
X34903097Y32695686D01*
X34914824Y32698960D01*
X35093457Y32789194D01*
X35172014Y32850569D01*
X35241564Y32904908D01*
X35241565Y32904909D01*
X35251162Y32912407D01*
X35381931Y33063904D01*
X35383911Y33062195D01*
X35440232Y33115742D01*
X35530901Y33150645D01*
X35628025Y33148193D01*
X35716818Y33108760D01*
X35783761Y33038349D01*
X35818664Y32947680D01*
X35822300Y32905281D01*
X35822300Y18917985D01*
X35803346Y18822697D01*
X35782601Y18783100D01*
X35696315Y18649210D01*
X35638727Y18490991D01*
X35617625Y18323945D01*
X35618983Y18310094D01*
X35618983Y18310091D01*
X35621485Y18284574D01*
X35634055Y18156375D01*
X35687202Y17996609D01*
X35774424Y17852588D01*
X35891386Y17731471D01*
X35970876Y17679454D01*
X36016193Y17649799D01*
X36032275Y17639275D01*
X36089891Y17617848D01*
X36177041Y17585437D01*
X36177045Y17585436D01*
X36190089Y17580585D01*
X36203883Y17578745D01*
X36203885Y17578744D01*
X36343189Y17560157D01*
X36343193Y17560157D01*
X36356983Y17558317D01*
X36370840Y17559578D01*
X36370844Y17559578D01*
X36510801Y17572315D01*
X36510804Y17572316D01*
X36524664Y17573577D01*
X36684797Y17625607D01*
X36699583Y17634421D01*
X36817468Y17704695D01*
X36817470Y17704697D01*
X36829423Y17711822D01*
X36951354Y17827935D01*
X37044531Y17968177D01*
X37104321Y18125577D01*
X37127755Y18292312D01*
X37128049Y18313400D01*
X37109281Y18480724D01*
X37053908Y18639732D01*
X36964684Y18782521D01*
X36967047Y18783998D01*
X36932822Y18850745D01*
X36923300Y18918947D01*
X36923300Y31692969D01*
X36942254Y31788257D01*
X36996230Y31869039D01*
X37077012Y31923015D01*
X37172300Y31941969D01*
X37267588Y31923015D01*
X37277285Y31917761D01*
X37277287Y31917759D01*
X37277294Y31917756D01*
X37361494Y31880531D01*
X37379673Y31872494D01*
X37405354Y31869500D01*
X39194646Y31869500D01*
X39201961Y31870371D01*
X39201969Y31870371D01*
X39202296Y31870410D01*
X39202299Y31870411D01*
X39220846Y31872618D01*
X39323153Y31918061D01*
X39402241Y31997287D01*
X39424341Y32047275D01*
X39480204Y32126762D01*
X39562235Y32178821D01*
X39657943Y32195525D01*
X39752758Y32174332D01*
X39828148Y32122664D01*
X39961239Y31989573D01*
X39977823Y31975657D01*
X40153522Y31852631D01*
X40172268Y31841808D01*
X40366657Y31751163D01*
X40387014Y31743754D01*
X40566309Y31695712D01*
X40587123Y31694348D01*
X40589011Y31698175D01*
X40590000Y31705689D01*
X40590000Y31713891D01*
X41090000Y31713891D01*
X41094069Y31693433D01*
X41098257Y31692600D01*
X41105771Y31693590D01*
X41292986Y31743754D01*
X41313343Y31751163D01*
X41507732Y31841808D01*
X41526478Y31852631D01*
X41702177Y31975657D01*
X41718761Y31989573D01*
X41870424Y32141236D01*
X41884350Y32157833D01*
X41906032Y32188798D01*
X41976213Y32255982D01*
X42066763Y32291194D01*
X42163894Y32289075D01*
X42252821Y32249945D01*
X42313968Y32188798D01*
X42335650Y32157833D01*
X42349576Y32141236D01*
X42501239Y31989573D01*
X42517823Y31975657D01*
X42693522Y31852631D01*
X42712268Y31841808D01*
X42906657Y31751163D01*
X42927014Y31743754D01*
X43106309Y31695712D01*
X43127123Y31694348D01*
X43129011Y31698175D01*
X43130000Y31705689D01*
X43130000Y32745473D01*
X43125931Y32765931D01*
X43105473Y32770000D01*
X41114527Y32770000D01*
X41094069Y32765931D01*
X41090000Y32745473D01*
X41090000Y31713891D01*
X40590000Y31713891D01*
X40590000Y33021000D01*
X40608954Y33116288D01*
X40662930Y33197070D01*
X40743712Y33251046D01*
X40839000Y33270000D01*
X43381000Y33270000D01*
X43476288Y33251046D01*
X43557070Y33197070D01*
X43611046Y33116288D01*
X43630000Y33021000D01*
X43630000Y31713891D01*
X43634069Y31693433D01*
X43638257Y31692600D01*
X43645771Y31693590D01*
X43832986Y31743754D01*
X43853343Y31751163D01*
X44047732Y31841808D01*
X44066478Y31852631D01*
X44242177Y31975657D01*
X44258761Y31989573D01*
X44410424Y32141236D01*
X44424347Y32157830D01*
X44547360Y32333510D01*
X44554697Y32346219D01*
X44618755Y32419265D01*
X44705889Y32462237D01*
X44802836Y32468593D01*
X44894836Y32437366D01*
X44967882Y32373308D01*
X44973684Y32365432D01*
X45027648Y32289075D01*
X45041405Y32269609D01*
X45192865Y32122063D01*
X45226135Y32099833D01*
X45246035Y32086536D01*
X45314734Y32017837D01*
X45351913Y31928078D01*
X45351914Y31830923D01*
X45314734Y31741163D01*
X45246035Y31672464D01*
X45156276Y31635285D01*
X45107698Y31630500D01*
X45025354Y31630500D01*
X45018039Y31629629D01*
X45018031Y31629629D01*
X45017704Y31629590D01*
X45017701Y31629589D01*
X44999154Y31627382D01*
X44896847Y31581939D01*
X44817759Y31502713D01*
X44808465Y31481690D01*
X44781760Y31421285D01*
X44772494Y31400327D01*
X44769500Y31374646D01*
X44769500Y30069744D01*
X44750546Y29974456D01*
X44696570Y29893674D01*
X43525768Y28722872D01*
X43503864Y28703408D01*
X43482890Y28686872D01*
X43450617Y28640177D01*
X43446096Y28633851D01*
X43412366Y28588184D01*
X43409973Y28581368D01*
X43405869Y28575431D01*
X43400938Y28559839D01*
X43400937Y28559837D01*
X43388759Y28521331D01*
X43386283Y28513911D01*
X43372902Y28475808D01*
X43372900Y28475801D01*
X43367481Y28460369D01*
X43367198Y28453155D01*
X43365020Y28446270D01*
X43364500Y28439663D01*
X43364500Y28389397D01*
X43364308Y28379620D01*
X43362162Y28325006D01*
X43364441Y28316409D01*
X43364500Y28315343D01*
X43364500Y17434743D01*
X43345546Y17339455D01*
X43291570Y17258673D01*
X40903582Y14870685D01*
X40822800Y14816709D01*
X40726209Y14797758D01*
X40723358Y14797773D01*
X40685895Y14797969D01*
X40521032Y14758388D01*
X40507699Y14751506D01*
X40507698Y14751506D01*
X40383706Y14687509D01*
X40383704Y14687508D01*
X40370369Y14680625D01*
X40359059Y14670759D01*
X40359058Y14670758D01*
X40349347Y14662286D01*
X40242604Y14569169D01*
X40233970Y14556884D01*
X40233969Y14556883D01*
X40196605Y14503719D01*
X40145113Y14430453D01*
X40139659Y14416464D01*
X40088976Y14286472D01*
X40088975Y14286468D01*
X40083524Y14272487D01*
X40061394Y14104389D01*
X40079999Y13935865D01*
X40138266Y13776644D01*
X40232830Y13635917D01*
X40358233Y13521809D01*
X40371425Y13514647D01*
X40371424Y13514647D01*
X40494047Y13448068D01*
X40494050Y13448067D01*
X40507235Y13440908D01*
X40521747Y13437101D01*
X40521749Y13437100D01*
X40575813Y13422917D01*
X40671233Y13397884D01*
X40686245Y13397648D01*
X40686246Y13397648D01*
X40695111Y13397509D01*
X40711042Y13397259D01*
X40806019Y13376812D01*
X40885943Y13321574D01*
X40938644Y13239955D01*
X40956100Y13144381D01*
X40954001Y13115793D01*
X40952353Y13103273D01*
X40950394Y13088389D01*
X40968999Y12919865D01*
X41027266Y12760644D01*
X41121830Y12619917D01*
X41247233Y12505809D01*
X41260425Y12498647D01*
X41260424Y12498647D01*
X41383047Y12432068D01*
X41383050Y12432067D01*
X41396235Y12424908D01*
X41410747Y12421101D01*
X41410749Y12421100D01*
X41464813Y12406917D01*
X41560233Y12381884D01*
X41575246Y12381648D01*
X41575247Y12381648D01*
X41652901Y12380428D01*
X41747879Y12359980D01*
X41827803Y12304741D01*
X41882823Y12217031D01*
X41916266Y12125644D01*
X41924638Y12113185D01*
X41929297Y12106251D01*
X42010830Y11984917D01*
X42136233Y11870809D01*
X42149425Y11863647D01*
X42149424Y11863647D01*
X42272047Y11797068D01*
X42272050Y11797067D01*
X42285235Y11789908D01*
X42299747Y11786101D01*
X42299749Y11786100D01*
X42345152Y11774189D01*
X42449233Y11746884D01*
X42464246Y11746648D01*
X42464247Y11746648D01*
X42541901Y11745428D01*
X42636879Y11724980D01*
X42716803Y11669741D01*
X42771823Y11582031D01*
X42805266Y11490644D01*
X42899830Y11349917D01*
X42910933Y11339814D01*
X42911981Y11338600D01*
X42959897Y11254083D01*
X42971821Y11157662D01*
X42945940Y11064018D01*
X42913528Y11016592D01*
X42909604Y11013169D01*
X42812113Y10874453D01*
X42789631Y10816790D01*
X42769492Y10765137D01*
X42717219Y10683243D01*
X42637585Y10627587D01*
X42536198Y10606590D01*
X42463895Y10606969D01*
X42299032Y10567388D01*
X42285699Y10560506D01*
X42285698Y10560506D01*
X42161706Y10496509D01*
X42161704Y10496508D01*
X42148369Y10489625D01*
X42137059Y10479759D01*
X42137058Y10479758D01*
X42045890Y10400227D01*
X42020604Y10378169D01*
X41923113Y10239453D01*
X41898151Y10175430D01*
X41880492Y10130137D01*
X41828219Y10048243D01*
X41748585Y9992587D01*
X41647198Y9971590D01*
X41574895Y9971969D01*
X41410032Y9932388D01*
X41396699Y9925506D01*
X41396698Y9925506D01*
X41272706Y9861509D01*
X41272704Y9861508D01*
X41259369Y9854625D01*
X41248059Y9844759D01*
X41248058Y9844758D01*
X41243487Y9840770D01*
X41131604Y9743169D01*
X41122970Y9730884D01*
X41122969Y9730883D01*
X41101867Y9700857D01*
X41034113Y9604453D01*
X41021837Y9572967D01*
X40991492Y9495137D01*
X40939219Y9413243D01*
X40859585Y9357587D01*
X40758198Y9336590D01*
X40685895Y9336969D01*
X40521032Y9297388D01*
X40507699Y9290506D01*
X40507698Y9290506D01*
X40383706Y9226509D01*
X40383704Y9226508D01*
X40370369Y9219625D01*
X40359059Y9209759D01*
X40359058Y9209758D01*
X40270781Y9132749D01*
X40242604Y9108169D01*
X40233970Y9095884D01*
X40233969Y9095883D01*
X40231658Y9092595D01*
X40145113Y8969453D01*
X40139659Y8955464D01*
X40088976Y8825472D01*
X40088975Y8825468D01*
X40083524Y8811487D01*
X40061394Y8643389D01*
X40079999Y8474865D01*
X40138266Y8315644D01*
X40232830Y8174917D01*
X40358233Y8060809D01*
X40371425Y8053647D01*
X40371424Y8053647D01*
X40494047Y7987068D01*
X40494050Y7987067D01*
X40507235Y7979908D01*
X40521747Y7976101D01*
X40521749Y7976100D01*
X40575813Y7961917D01*
X40671233Y7936884D01*
X40686246Y7936648D01*
X40686247Y7936648D01*
X40730687Y7935950D01*
X40825666Y7915502D01*
X40902846Y7863051D01*
X40927129Y7838768D01*
X40946601Y7816854D01*
X40963128Y7795890D01*
X41009823Y7763617D01*
X41016149Y7759096D01*
X41061816Y7725366D01*
X41068632Y7722973D01*
X41074569Y7718869D01*
X41090161Y7713938D01*
X41090163Y7713937D01*
X41128669Y7701759D01*
X41136089Y7699283D01*
X41174192Y7685902D01*
X41174199Y7685900D01*
X41189631Y7680481D01*
X41196845Y7680198D01*
X41203730Y7678020D01*
X41210337Y7677500D01*
X41260603Y7677500D01*
X41270380Y7677308D01*
X41324994Y7675162D01*
X41333590Y7677441D01*
X41334654Y7677500D01*
X48926530Y7677500D01*
X48955797Y7675774D01*
X48982310Y7672636D01*
X49038102Y7682825D01*
X49045799Y7684106D01*
X49085768Y7690116D01*
X49085771Y7690117D01*
X49101962Y7692551D01*
X49108475Y7695679D01*
X49115573Y7696975D01*
X49130084Y7704513D01*
X49130087Y7704514D01*
X49165894Y7723114D01*
X49172887Y7726609D01*
X49185815Y7732817D01*
X49224079Y7751191D01*
X49229383Y7756094D01*
X49235788Y7759421D01*
X49240828Y7763725D01*
X49276370Y7799267D01*
X49283419Y7806044D01*
X49309888Y7830511D01*
X49309890Y7830513D01*
X49323556Y7843146D01*
X49328024Y7850838D01*
X49328735Y7851632D01*
X49433563Y7956460D01*
X49514345Y8010436D01*
X49609633Y8029390D01*
X49704921Y8010436D01*
X49785703Y7956460D01*
X49839679Y7875678D01*
X49858633Y7780390D01*
X49856907Y7751130D01*
X49844967Y7650246D01*
X49858796Y7439251D01*
X49861605Y7428190D01*
X49861606Y7428185D01*
X49896822Y7289524D01*
X49910845Y7234310D01*
X49915624Y7223943D01*
X49915626Y7223938D01*
X49951256Y7146652D01*
X49999369Y7042286D01*
X50005955Y7032967D01*
X50080914Y6926903D01*
X50121405Y6869609D01*
X50272865Y6722063D01*
X50448677Y6604589D01*
X50483628Y6589573D01*
X50632464Y6525628D01*
X50632468Y6525627D01*
X50642953Y6521122D01*
X50849186Y6474456D01*
X50964745Y6469915D01*
X51049060Y6466602D01*
X51049064Y6466602D01*
X51060470Y6466154D01*
X51269730Y6496496D01*
X51469955Y6564463D01*
X51654442Y6667781D01*
X51663216Y6675078D01*
X51663220Y6675081D01*
X51808231Y6795685D01*
X51817012Y6802988D01*
X51952219Y6965558D01*
X51952710Y6965149D01*
X52016130Y7026932D01*
X52106368Y7062935D01*
X52203515Y7061664D01*
X52292780Y7023314D01*
X52360575Y6953723D01*
X52367387Y6942608D01*
X52372638Y6933513D01*
X52495653Y6757830D01*
X52509576Y6741236D01*
X52661239Y6589573D01*
X52677823Y6575657D01*
X52853522Y6452631D01*
X52872268Y6441808D01*
X53066657Y6351163D01*
X53087014Y6343754D01*
X53266309Y6295712D01*
X53287123Y6294348D01*
X53289011Y6298175D01*
X53290000Y6305689D01*
X53290000Y6313891D01*
X53790000Y6313891D01*
X53794069Y6293433D01*
X53798257Y6292600D01*
X53805771Y6293590D01*
X53992986Y6343754D01*
X54013343Y6351163D01*
X54207732Y6441808D01*
X54226478Y6452631D01*
X54402177Y6575657D01*
X54418761Y6589573D01*
X54570424Y6741236D01*
X54584347Y6757830D01*
X54707365Y6933518D01*
X54718195Y6952275D01*
X54808834Y7146652D01*
X54816246Y7167015D01*
X54864288Y7346309D01*
X54865652Y7367123D01*
X54861825Y7369011D01*
X54854311Y7370000D01*
X53814527Y7370000D01*
X53794069Y7365931D01*
X53790000Y7345473D01*
X53790000Y6313891D01*
X53290000Y6313891D01*
X53290000Y7621000D01*
X53308954Y7716288D01*
X53362930Y7797070D01*
X53443712Y7851046D01*
X53539000Y7870000D01*
X54846109Y7870000D01*
X54866567Y7874069D01*
X54867400Y7878257D01*
X54866410Y7885771D01*
X54816246Y8072985D01*
X54808834Y8093348D01*
X54718195Y8287725D01*
X54707365Y8306482D01*
X54584347Y8482170D01*
X54570424Y8498764D01*
X54418761Y8650427D01*
X54402177Y8664343D01*
X54226482Y8787366D01*
X54217399Y8792610D01*
X54144353Y8856668D01*
X54101381Y8943803D01*
X54095026Y9040750D01*
X54126254Y9132749D01*
X54189749Y9205153D01*
X54194442Y9207781D01*
X54203216Y9215078D01*
X54203220Y9215081D01*
X54348231Y9335685D01*
X54357012Y9342988D01*
X54417349Y9415536D01*
X54484919Y9496780D01*
X54484922Y9496784D01*
X54492219Y9505558D01*
X54595537Y9690045D01*
X54663504Y9890270D01*
X54693846Y10099530D01*
X54695429Y10160000D01*
X54686016Y10262436D01*
X54677126Y10359192D01*
X54677125Y10359196D01*
X54676081Y10370560D01*
X54647004Y10473661D01*
X54621786Y10563078D01*
X54621785Y10563080D01*
X54618686Y10574069D01*
X54525165Y10763710D01*
X54398651Y10933133D01*
X54243381Y11076663D01*
X54214696Y11094762D01*
X54074210Y11183403D01*
X54074206Y11183405D01*
X54064554Y11189495D01*
X54053954Y11193724D01*
X54053944Y11193729D01*
X54043116Y11198049D01*
X53961636Y11250964D01*
X53906608Y11331033D01*
X53886409Y11426065D01*
X53904116Y11521593D01*
X53957031Y11603073D01*
X54013721Y11646572D01*
X54081605Y11684589D01*
X54194442Y11747781D01*
X54203216Y11755078D01*
X54203220Y11755081D01*
X54348231Y11875685D01*
X54357012Y11882988D01*
X54392386Y11925521D01*
X54484919Y12036780D01*
X54484922Y12036784D01*
X54492219Y12045558D01*
X54595537Y12230045D01*
X54663504Y12430270D01*
X54693846Y12639530D01*
X54695429Y12700000D01*
X54688561Y12774739D01*
X54677126Y12899192D01*
X54677125Y12899196D01*
X54676081Y12910560D01*
X54630136Y13073470D01*
X54621786Y13103078D01*
X54621785Y13103080D01*
X54618686Y13114069D01*
X54525165Y13303710D01*
X54505342Y13330257D01*
X54425558Y13437100D01*
X54398651Y13473133D01*
X54243381Y13616663D01*
X54214696Y13634762D01*
X54074210Y13723403D01*
X54074206Y13723405D01*
X54064554Y13729495D01*
X54053954Y13733724D01*
X54053944Y13733729D01*
X54043116Y13738049D01*
X53961636Y13790964D01*
X53906608Y13871033D01*
X53886409Y13966065D01*
X53904116Y14061593D01*
X53957031Y14143073D01*
X54013721Y14186572D01*
X54081605Y14224589D01*
X54194442Y14287781D01*
X54203216Y14295078D01*
X54203220Y14295081D01*
X54348231Y14415685D01*
X54357012Y14422988D01*
X54412420Y14489609D01*
X54484919Y14576780D01*
X54484922Y14576784D01*
X54492219Y14585558D01*
X54595537Y14770045D01*
X54663504Y14970270D01*
X54693846Y15179530D01*
X54695429Y15240000D01*
X54689161Y15308212D01*
X54677126Y15439192D01*
X54677125Y15439196D01*
X54676081Y15450560D01*
X54636994Y15589154D01*
X54621786Y15643078D01*
X54621785Y15643080D01*
X54618686Y15654069D01*
X54525165Y15843710D01*
X54398651Y16013133D01*
X54243381Y16156663D01*
X54222375Y16169917D01*
X54151905Y16236793D01*
X54112389Y16325549D01*
X54109847Y16422671D01*
X54144665Y16513373D01*
X54211543Y16583845D01*
X54300299Y16623361D01*
X54355250Y16629500D01*
X54434646Y16629500D01*
X54441961Y16630371D01*
X54441969Y16630371D01*
X54442296Y16630410D01*
X54442299Y16630411D01*
X54460846Y16632618D01*
X54563153Y16678061D01*
X54642241Y16757287D01*
X54687506Y16859673D01*
X54690500Y16885354D01*
X54690500Y18674646D01*
X54687382Y18700846D01*
X54641939Y18803153D01*
X54562713Y18882241D01*
X54460327Y18927506D01*
X54434646Y18930500D01*
X52645354Y18930500D01*
X52638039Y18929629D01*
X52638031Y18929629D01*
X52637704Y18929590D01*
X52637701Y18929589D01*
X52619154Y18927382D01*
X52516847Y18881939D01*
X52459802Y18824794D01*
X52446278Y18811247D01*
X52365543Y18757200D01*
X52270272Y18738163D01*
X52174967Y18757034D01*
X52094140Y18810939D01*
X52038982Y18866001D01*
X52038980Y18866002D01*
X52022713Y18882241D01*
X51920327Y18927506D01*
X51894646Y18930500D01*
X50105354Y18930500D01*
X50098039Y18929629D01*
X50098031Y18929629D01*
X50097704Y18929590D01*
X50097701Y18929589D01*
X50079154Y18927382D01*
X49976847Y18881939D01*
X49897759Y18802713D01*
X49852494Y18700327D01*
X49849500Y18674646D01*
X49849500Y17442743D01*
X49830546Y17347455D01*
X49776570Y17266673D01*
X48068770Y15558873D01*
X47987988Y15504897D01*
X47892700Y15485943D01*
X47797412Y15504897D01*
X47716630Y15558873D01*
X47662654Y15639655D01*
X47643700Y15734943D01*
X47643700Y23900380D01*
X47662654Y23995668D01*
X47716630Y24076450D01*
X47797412Y24130426D01*
X47892700Y24149380D01*
X47977858Y24134365D01*
X48007010Y24123755D01*
X48186309Y24075712D01*
X48207123Y24074348D01*
X48209011Y24078175D01*
X48210000Y24085689D01*
X48210000Y25401000D01*
X48228954Y25496288D01*
X48282930Y25577070D01*
X48363712Y25631046D01*
X48459000Y25650000D01*
X48461000Y25650000D01*
X48556288Y25631046D01*
X48637070Y25577070D01*
X48691046Y25496288D01*
X48710000Y25401000D01*
X48710000Y24093891D01*
X48714069Y24073433D01*
X48718257Y24072600D01*
X48725771Y24073590D01*
X48912986Y24123754D01*
X48933343Y24131163D01*
X49127732Y24221808D01*
X49146478Y24232631D01*
X49322177Y24355657D01*
X49338761Y24369573D01*
X49490424Y24521236D01*
X49504347Y24537830D01*
X49627360Y24713510D01*
X49634697Y24726219D01*
X49698755Y24799265D01*
X49785889Y24842237D01*
X49882836Y24848593D01*
X49974836Y24817366D01*
X50047882Y24753308D01*
X50053684Y24745432D01*
X50076239Y24713518D01*
X50121405Y24649609D01*
X50272865Y24502063D01*
X50448677Y24384589D01*
X50483628Y24369573D01*
X50632464Y24305628D01*
X50632468Y24305627D01*
X50642953Y24301122D01*
X50849186Y24254456D01*
X50964745Y24249915D01*
X51049060Y24246602D01*
X51049064Y24246602D01*
X51060470Y24246154D01*
X51269730Y24276496D01*
X51469955Y24344463D01*
X51654442Y24447781D01*
X51663216Y24455078D01*
X51663220Y24455081D01*
X51808231Y24575685D01*
X51817012Y24582988D01*
X51952219Y24745558D01*
X51952710Y24745149D01*
X52016130Y24806932D01*
X52106368Y24842935D01*
X52203515Y24841664D01*
X52292780Y24803314D01*
X52360575Y24733723D01*
X52367387Y24722608D01*
X52372638Y24713513D01*
X52495653Y24537830D01*
X52509576Y24521236D01*
X52661239Y24369573D01*
X52677823Y24355657D01*
X52853522Y24232631D01*
X52872268Y24221808D01*
X53066657Y24131163D01*
X53087014Y24123754D01*
X53266309Y24075712D01*
X53287123Y24074348D01*
X53289011Y24078175D01*
X53290000Y24085689D01*
X53290000Y24093891D01*
X53790000Y24093891D01*
X53794069Y24073433D01*
X53798257Y24072600D01*
X53805771Y24073590D01*
X53992986Y24123754D01*
X54013343Y24131163D01*
X54207732Y24221808D01*
X54226478Y24232631D01*
X54402177Y24355657D01*
X54418761Y24369573D01*
X54570424Y24521236D01*
X54584347Y24537830D01*
X54707365Y24713518D01*
X54718195Y24732275D01*
X54808834Y24926652D01*
X54816246Y24947015D01*
X54864288Y25126309D01*
X54865652Y25147123D01*
X54861825Y25149011D01*
X54854311Y25150000D01*
X53814527Y25150000D01*
X53794069Y25145931D01*
X53790000Y25125473D01*
X53790000Y24093891D01*
X53290000Y24093891D01*
X53290000Y25401000D01*
X53308954Y25496288D01*
X53362930Y25577070D01*
X53443712Y25631046D01*
X53539000Y25650000D01*
X54846109Y25650000D01*
X54866567Y25654069D01*
X54867400Y25658257D01*
X54866410Y25665771D01*
X54816246Y25852985D01*
X54808834Y25873348D01*
X54718195Y26067725D01*
X54707365Y26086482D01*
X54584347Y26262170D01*
X54570424Y26278764D01*
X54418761Y26430427D01*
X54402177Y26444343D01*
X54226482Y26567366D01*
X54217399Y26572610D01*
X54144353Y26636668D01*
X54101381Y26723803D01*
X54095026Y26820750D01*
X54126254Y26912749D01*
X54189749Y26985153D01*
X54194442Y26987781D01*
X54203216Y26995078D01*
X54203220Y26995081D01*
X54348231Y27115685D01*
X54357012Y27122988D01*
X54412420Y27189609D01*
X54484919Y27276780D01*
X54484922Y27276784D01*
X54492219Y27285558D01*
X54595537Y27470045D01*
X54663504Y27670270D01*
X54693846Y27879530D01*
X54695429Y27940000D01*
X54690705Y27991416D01*
X54677126Y28139192D01*
X54677125Y28139196D01*
X54676081Y28150560D01*
X54629608Y28315343D01*
X54621786Y28343078D01*
X54621785Y28343080D01*
X54618686Y28354069D01*
X54525165Y28543710D01*
X54513123Y28559837D01*
X54418261Y28686872D01*
X54398651Y28713133D01*
X54243381Y28856663D01*
X54222375Y28869917D01*
X54151905Y28936793D01*
X54112389Y29025549D01*
X54109847Y29122671D01*
X54144665Y29213373D01*
X54211543Y29283845D01*
X54300299Y29323361D01*
X54355250Y29329500D01*
X54434646Y29329500D01*
X54441961Y29330371D01*
X54441969Y29330371D01*
X54442296Y29330410D01*
X54442299Y29330411D01*
X54460846Y29332618D01*
X54563153Y29378061D01*
X54642241Y29457287D01*
X54687506Y29559673D01*
X54690500Y29585354D01*
X54690500Y31374646D01*
X54687382Y31400846D01*
X54641939Y31503153D01*
X54562713Y31582241D01*
X54556190Y31585125D01*
X54498676Y31643959D01*
X54462518Y31734135D01*
X54463621Y31831284D01*
X54501817Y31920615D01*
X54571291Y31988530D01*
X54605001Y32006966D01*
X54663956Y32033523D01*
X54663961Y32033526D01*
X54673576Y32037857D01*
X54759786Y32095897D01*
X54861987Y32164703D01*
X54861991Y32164706D01*
X54870732Y32170591D01*
X54949279Y32245521D01*
X55035075Y32327366D01*
X55035077Y32327368D01*
X55042705Y32334645D01*
X55184579Y32525330D01*
X55292295Y32737193D01*
X55344488Y32905281D01*
X55359647Y32954101D01*
X55359648Y32954105D01*
X55362775Y32964176D01*
X55394004Y33199789D01*
X55392971Y33227323D01*
X55388298Y33351769D01*
X55385087Y33437295D01*
X55336281Y33669904D01*
X55248980Y33890963D01*
X55238995Y33907419D01*
X55165727Y34028159D01*
X55125681Y34094153D01*
X55117511Y34103569D01*
X54976820Y34265701D01*
X54976819Y34265702D01*
X54969910Y34273664D01*
X54961758Y34280348D01*
X54954195Y34287703D01*
X54955485Y34289030D01*
X54902717Y34353270D01*
X54874474Y34446229D01*
X54881726Y34532600D01*
X54887506Y34545673D01*
X54890500Y34571354D01*
X54890500Y36160646D01*
X54887382Y36186846D01*
X54841939Y36289153D01*
X54762713Y36368241D01*
X54660327Y36413506D01*
X54634646Y36416500D01*
X52045354Y36416500D01*
X52038039Y36415629D01*
X52038031Y36415629D01*
X52037704Y36415590D01*
X52037701Y36415589D01*
X52019154Y36413382D01*
X51916847Y36367939D01*
X51837759Y36288713D01*
X51792494Y36186327D01*
X51789500Y36160646D01*
X51789500Y34571354D01*
X51792618Y34545154D01*
X51799098Y34530566D01*
X51805926Y34435739D01*
X51775289Y34343541D01*
X51730725Y34286483D01*
X51652357Y34211723D01*
X51637295Y34197355D01*
X51495421Y34006670D01*
X51387705Y33794807D01*
X51379095Y33767078D01*
X51321885Y33582831D01*
X51317225Y33567824D01*
X51285996Y33332211D01*
X51286391Y33321684D01*
X51286391Y33321680D01*
X51288744Y33259015D01*
X51294913Y33094705D01*
X51343719Y32862096D01*
X51431020Y32641037D01*
X51436488Y32632026D01*
X51436490Y32632022D01*
X51486235Y32550045D01*
X51554319Y32437847D01*
X51561230Y32429883D01*
X51561232Y32429880D01*
X51681577Y32291194D01*
X51710090Y32258336D01*
X51893880Y32107638D01*
X51908784Y32099154D01*
X51914506Y32095897D01*
X51987941Y32032286D01*
X52031443Y31945414D01*
X52038390Y31848508D01*
X52007723Y31756320D01*
X51944112Y31682885D01*
X51857240Y31639383D01*
X51791326Y31630500D01*
X50765825Y31630500D01*
X50670537Y31649454D01*
X50589755Y31703430D01*
X50535779Y31784212D01*
X50516825Y31879500D01*
X50535779Y31974788D01*
X50573968Y32038220D01*
X50580657Y32046306D01*
X50593156Y32057799D01*
X50602102Y32072227D01*
X50602105Y32072231D01*
X50613032Y32089855D01*
X50626318Y32109187D01*
X50636252Y32122275D01*
X50649112Y32139217D01*
X50655361Y32155001D01*
X50659919Y32163090D01*
X50663690Y32171559D01*
X50672635Y32185986D01*
X50683158Y32222205D01*
X50690753Y32244390D01*
X50693629Y32251652D01*
X50697584Y32261642D01*
X50698388Y32263672D01*
X50698388Y32263674D01*
X50704636Y32279453D01*
X50706410Y32296332D01*
X50709077Y32307189D01*
X50711075Y32318296D01*
X50714715Y32330825D01*
X50715500Y32341515D01*
X50715500Y32369774D01*
X50716864Y32395800D01*
X50718627Y32412573D01*
X50718627Y32412574D01*
X50720401Y32429454D01*
X50717571Y32446188D01*
X50717144Y32459766D01*
X50715500Y32479339D01*
X50715500Y33637409D01*
X50715718Y33647836D01*
X50717499Y33690334D01*
X50718210Y33707294D01*
X50709596Y33744017D01*
X50705323Y33767078D01*
X50702510Y33787611D01*
X50700206Y33804432D01*
X50693463Y33820013D01*
X50690969Y33828947D01*
X50687644Y33837608D01*
X50683768Y33854136D01*
X50675591Y33869009D01*
X50675590Y33869013D01*
X50665597Y33887190D01*
X50655279Y33908253D01*
X50647049Y33927270D01*
X50640305Y33942855D01*
X50629620Y33956050D01*
X50623828Y33965615D01*
X50617395Y33974871D01*
X50611107Y33986308D01*
X50604103Y33994422D01*
X50584116Y34014409D01*
X50566677Y34033778D01*
X50556071Y34046875D01*
X50545386Y34060070D01*
X50531549Y34069903D01*
X50521640Y34079209D01*
X50506646Y34091879D01*
X50052852Y34545673D01*
X49595595Y35002929D01*
X49541618Y35083711D01*
X49522664Y35178999D01*
X49541618Y35274287D01*
X49595594Y35355069D01*
X50668837Y36428313D01*
X50676365Y36435531D01*
X50707657Y36464306D01*
X50720156Y36475799D01*
X50729102Y36490227D01*
X50729105Y36490231D01*
X50740032Y36507855D01*
X50753318Y36527187D01*
X50776112Y36557217D01*
X50782361Y36573001D01*
X50786919Y36581090D01*
X50790690Y36589559D01*
X50799635Y36603986D01*
X50810158Y36640205D01*
X50817753Y36662390D01*
X50825388Y36681672D01*
X50825388Y36681674D01*
X50831636Y36697453D01*
X50833410Y36714332D01*
X50836077Y36725189D01*
X50838075Y36736296D01*
X50841715Y36748825D01*
X50842500Y36759515D01*
X50842500Y36787774D01*
X50843864Y36813800D01*
X50845627Y36830573D01*
X50845627Y36830574D01*
X50847401Y36847454D01*
X50844571Y36864188D01*
X50844144Y36877766D01*
X50842500Y36897339D01*
X50842500Y39800835D01*
X50861454Y39896123D01*
X50915430Y39976905D01*
X51657898Y40719373D01*
X51738680Y40773349D01*
X51833968Y40792303D01*
X51929256Y40773349D01*
X52010038Y40719373D01*
X52028015Y40699336D01*
X52085815Y40627447D01*
X52114708Y40603203D01*
X52170052Y40556763D01*
X52230863Y40480993D01*
X52258050Y40387720D01*
X52247472Y40291142D01*
X52200741Y40205964D01*
X52167376Y40173061D01*
X52096200Y40115011D01*
X51964882Y39956275D01*
X51959092Y39945566D01*
X51959091Y39945565D01*
X51876201Y39792262D01*
X51866897Y39775055D01*
X51863296Y39763422D01*
X51812604Y39599661D01*
X51805977Y39578254D01*
X51784443Y39373369D01*
X51803114Y39168203D01*
X51861280Y38970572D01*
X51956726Y38788002D01*
X52085815Y38627447D01*
X52095144Y38619619D01*
X52095146Y38619617D01*
X52114904Y38603038D01*
X52243630Y38495024D01*
X52254296Y38489160D01*
X52254298Y38489159D01*
X52413497Y38401639D01*
X52424162Y38395776D01*
X52435756Y38392098D01*
X52435761Y38392096D01*
X52608931Y38337164D01*
X52620532Y38333484D01*
X52632630Y38332127D01*
X52773944Y38316276D01*
X52773948Y38316276D01*
X52780864Y38315500D01*
X53891841Y38315500D01*
X53897884Y38316093D01*
X53897894Y38316093D01*
X53986833Y38324814D01*
X54045030Y38330520D01*
X54242251Y38390065D01*
X54424151Y38486782D01*
X54583800Y38616989D01*
X54715118Y38775725D01*
X54727596Y38798802D01*
X54807313Y38946236D01*
X54807314Y38946239D01*
X54813103Y38956945D01*
X54874023Y39153746D01*
X54895557Y39358631D01*
X54876886Y39563797D01*
X54818720Y39761428D01*
X54723274Y39943998D01*
X54594185Y40104553D01*
X54532207Y40156559D01*
X54509948Y40175237D01*
X54449137Y40251007D01*
X54421950Y40344280D01*
X54432528Y40440858D01*
X54479259Y40526036D01*
X54512624Y40558939D01*
X54583800Y40616989D01*
X54715118Y40775725D01*
X54736624Y40815500D01*
X54807313Y40946236D01*
X54807314Y40946239D01*
X54813103Y40956945D01*
X54847941Y41069487D01*
X54870421Y41142109D01*
X54870421Y41142111D01*
X54874023Y41153746D01*
X54895557Y41358631D01*
X54876886Y41563797D01*
X54818720Y41761428D01*
X54723274Y41943998D01*
X54594185Y42104553D01*
X54551120Y42140689D01*
X54509948Y42175237D01*
X54449137Y42251007D01*
X54421950Y42344280D01*
X54432528Y42440858D01*
X54479259Y42526036D01*
X54512624Y42558939D01*
X54583800Y42616989D01*
X54715118Y42775725D01*
X54761062Y42860697D01*
X54807313Y42946236D01*
X54807314Y42946239D01*
X54813103Y42956945D01*
X54853901Y43088743D01*
X54870421Y43142109D01*
X54870421Y43142111D01*
X54874023Y43153746D01*
X54895557Y43358631D01*
X54876886Y43563797D01*
X54818720Y43761428D01*
X54723274Y43943998D01*
X54715638Y43953496D01*
X54708974Y43963679D01*
X54711747Y43965494D01*
X54677444Y44031183D01*
X54668851Y44127958D01*
X54697947Y44220653D01*
X54760301Y44295159D01*
X54777338Y44307714D01*
X54870732Y44370591D01*
X54971060Y44466299D01*
X55035075Y44527366D01*
X55035077Y44527368D01*
X55042705Y44534645D01*
X55184579Y44725330D01*
X55292295Y44937193D01*
X55328034Y45052292D01*
X55359647Y45154101D01*
X55359648Y45154105D01*
X55362775Y45164176D01*
X55394004Y45399789D01*
X55385087Y45637295D01*
X55336281Y45869904D01*
X55248980Y46090963D01*
X55125681Y46294153D01*
X55113155Y46308589D01*
X54976820Y46465701D01*
X54976819Y46465702D01*
X54969910Y46473664D01*
X54786120Y46624362D01*
X54579567Y46741939D01*
X54356156Y46823034D01*
X54345772Y46824912D01*
X54345771Y46824912D01*
X54130350Y46863866D01*
X54130347Y46863866D01*
X54122275Y46865326D01*
X54107664Y46866015D01*
X54100293Y46866363D01*
X54100279Y46866363D01*
X54097381Y46866500D01*
X52630320Y46866500D01*
X52547518Y46859474D01*
X52463684Y46852361D01*
X52463679Y46852360D01*
X52453177Y46851469D01*
X52442972Y46848820D01*
X52442970Y46848820D01*
X52233328Y46794408D01*
X52223126Y46791760D01*
X52213519Y46787432D01*
X52213518Y46787432D01*
X52016040Y46698475D01*
X52016037Y46698473D01*
X52006424Y46694143D01*
X51997670Y46688250D01*
X51997671Y46688250D01*
X51818013Y46567297D01*
X51818009Y46567294D01*
X51809268Y46561409D01*
X51637295Y46397355D01*
X51495421Y46206670D01*
X51387705Y45994807D01*
X51359231Y45903106D01*
X51322739Y45785581D01*
X51317225Y45767824D01*
X51285996Y45532211D01*
X51294913Y45294705D01*
X51343719Y45062096D01*
X51431020Y44841037D01*
X51436488Y44832026D01*
X51436490Y44832022D01*
X51487776Y44747506D01*
X51554319Y44637847D01*
X51561230Y44629883D01*
X51561232Y44629880D01*
X51641684Y44537167D01*
X51710090Y44458336D01*
X51893880Y44307638D01*
X51902547Y44302704D01*
X51970169Y44233290D01*
X52006171Y44143052D01*
X52004900Y44045906D01*
X51968934Y43961173D01*
X51964882Y43956275D01*
X51959092Y43945566D01*
X51959091Y43945565D01*
X51884731Y43808038D01*
X51866897Y43775055D01*
X51863296Y43763422D01*
X51822075Y43630257D01*
X51805977Y43578254D01*
X51784443Y43373369D01*
X51803114Y43168203D01*
X51861280Y42970572D01*
X51956726Y42788002D01*
X52085815Y42627447D01*
X52120230Y42598569D01*
X52170052Y42556763D01*
X52230863Y42480993D01*
X52258050Y42387720D01*
X52247472Y42291142D01*
X52200741Y42205964D01*
X52167376Y42173061D01*
X52096200Y42115011D01*
X52088436Y42105626D01*
X52088435Y42105625D01*
X52006663Y42006781D01*
X51931320Y41945442D01*
X51838238Y41917605D01*
X51814806Y41916500D01*
X51543591Y41916500D01*
X51533164Y41916718D01*
X51531144Y41916803D01*
X51473706Y41919210D01*
X51457186Y41915335D01*
X51457182Y41915335D01*
X51443450Y41912114D01*
X51436983Y41910597D01*
X51413919Y41906323D01*
X51376568Y41901206D01*
X51360988Y41894464D01*
X51352041Y41891966D01*
X51343390Y41888645D01*
X51326864Y41884769D01*
X51293811Y41866598D01*
X51272747Y41856279D01*
X51253725Y41848048D01*
X51253719Y41848044D01*
X51238145Y41841305D01*
X51224953Y41830623D01*
X51215395Y41824834D01*
X51206129Y41818394D01*
X51194693Y41812107D01*
X51186578Y41805103D01*
X51166591Y41785116D01*
X51147222Y41767677D01*
X51120930Y41746386D01*
X51111094Y41732546D01*
X51101793Y41722641D01*
X51089123Y41707648D01*
X49915163Y40533687D01*
X49907635Y40526469D01*
X49863844Y40486201D01*
X49854898Y40471773D01*
X49854895Y40471769D01*
X49843968Y40454145D01*
X49830683Y40434814D01*
X49807888Y40404783D01*
X49801639Y40388999D01*
X49797081Y40380910D01*
X49793310Y40372441D01*
X49784365Y40358014D01*
X49773842Y40321795D01*
X49766249Y40299615D01*
X49752364Y40264547D01*
X49750590Y40247668D01*
X49747923Y40236811D01*
X49745925Y40225704D01*
X49742285Y40213175D01*
X49741500Y40202485D01*
X49741500Y40174226D01*
X49740136Y40148200D01*
X49736599Y40114546D01*
X49739429Y40097812D01*
X49739856Y40084234D01*
X49741500Y40064661D01*
X49741500Y37161164D01*
X49722546Y37065876D01*
X49668570Y36985095D01*
X48993907Y36310431D01*
X48913125Y36256454D01*
X48817837Y36237500D01*
X38836639Y36237500D01*
X38741351Y36256454D01*
X38660569Y36310430D01*
X38606593Y36391212D01*
X38587639Y36486500D01*
X38603867Y36574921D01*
X38606118Y36580845D01*
X38650091Y36696607D01*
X38673525Y36863342D01*
X38673819Y36884430D01*
X38655051Y37051754D01*
X38599678Y37210762D01*
X38586442Y37231944D01*
X38517833Y37341743D01*
X38517830Y37341746D01*
X38510454Y37353551D01*
X38482364Y37381838D01*
X38401621Y37463147D01*
X38401618Y37463150D01*
X38391812Y37473024D01*
X38249649Y37563243D01*
X38091032Y37619724D01*
X38077206Y37621373D01*
X38077205Y37621373D01*
X38026902Y37627371D01*
X37923843Y37639661D01*
X37910000Y37638206D01*
X37909997Y37638206D01*
X37851150Y37632021D01*
X37756391Y37622061D01*
X37668708Y37592211D01*
X37637988Y37581753D01*
X37597001Y37567800D01*
X37453592Y37479574D01*
X37452832Y37480810D01*
X37379779Y37443987D01*
X37313233Y37434930D01*
X28494809Y37434930D01*
X28399521Y37453884D01*
X28361396Y37473688D01*
X28220279Y37563243D01*
X28061662Y37619724D01*
X28047836Y37621373D01*
X28047835Y37621373D01*
X27997532Y37627371D01*
X27894473Y37639661D01*
X27880630Y37638206D01*
X27880627Y37638206D01*
X27821780Y37632021D01*
X27727021Y37622061D01*
X27639338Y37592211D01*
X27608618Y37581753D01*
X27567631Y37567800D01*
X27424222Y37479574D01*
X27414278Y37469836D01*
X27414274Y37469833D01*
X27313874Y37371513D01*
X27303924Y37361769D01*
X27296381Y37350064D01*
X27296379Y37350062D01*
X27261958Y37296651D01*
X27212715Y37220240D01*
X27155127Y37062021D01*
X27134025Y36894975D01*
X18096782Y36894975D01*
X18084276Y36998320D01*
X18024345Y37156923D01*
X17972784Y37231944D01*
X17936813Y37284283D01*
X17936810Y37284286D01*
X17928312Y37296651D01*
X17917107Y37306634D01*
X17911723Y37312741D01*
X17862925Y37396752D01*
X17849500Y37477408D01*
X17849500Y38439530D01*
X17851226Y38468796D01*
X17852176Y38476825D01*
X17854364Y38495310D01*
X17844175Y38551102D01*
X17842894Y38558799D01*
X17836884Y38598768D01*
X17836883Y38598771D01*
X17834449Y38614962D01*
X17831321Y38621475D01*
X17830025Y38628573D01*
X17803886Y38678894D01*
X17800391Y38685887D01*
X17775809Y38737079D01*
X17770906Y38742383D01*
X17767579Y38748788D01*
X17763275Y38753828D01*
X17727733Y38789370D01*
X17720955Y38796420D01*
X17695898Y38823527D01*
X17645136Y38906366D01*
X17629938Y39002325D01*
X17652619Y39096795D01*
X17709726Y39175395D01*
X17766860Y39214993D01*
X17916498Y39290253D01*
X18045423Y39400366D01*
X18144361Y39538053D01*
X18160577Y39578391D01*
X18202001Y39681435D01*
X18202002Y39681437D01*
X18207601Y39695366D01*
X18213590Y39737442D01*
X18230341Y39855149D01*
X18231490Y39863222D01*
X18231582Y39871963D01*
X18231642Y39872247D01*
X18232193Y39879496D01*
X18233148Y39879423D01*
X18251539Y39967046D01*
X18306364Y40047254D01*
X18392659Y40101384D01*
X18400029Y40103072D01*
X18551498Y40179253D01*
X18680423Y40289366D01*
X18779361Y40427053D01*
X18804726Y40490149D01*
X18837001Y40570435D01*
X18837002Y40570437D01*
X18842601Y40584366D01*
X18846210Y40609721D01*
X18865341Y40744149D01*
X18866490Y40752222D01*
X18866645Y40767000D01*
X18865590Y40775725D01*
X18856463Y40851137D01*
X18863832Y40948013D01*
X18907713Y41034694D01*
X18981424Y41097984D01*
X19019312Y41115331D01*
X19020391Y41115720D01*
X19035029Y41119072D01*
X19048443Y41125819D01*
X19048447Y41125820D01*
X19113478Y41158528D01*
X19186498Y41195253D01*
X19201200Y41207809D01*
X19255006Y41253765D01*
X19269508Y41266150D01*
X19354275Y41313623D01*
X19450756Y41325043D01*
X19544263Y41298671D01*
X19598801Y41260978D01*
X19657233Y41207809D01*
X19670425Y41200647D01*
X19670424Y41200647D01*
X19793047Y41134068D01*
X19793050Y41134067D01*
X19806235Y41126908D01*
X19820748Y41123101D01*
X19820752Y41123099D01*
X19821595Y41122878D01*
X19822837Y41122274D01*
X19834712Y41117572D01*
X19834355Y41116669D01*
X19908956Y41080367D01*
X19973398Y41007660D01*
X20005111Y40915827D01*
X20005286Y40849528D01*
X19995394Y40774389D01*
X20013999Y40605865D01*
X20072266Y40446644D01*
X20166830Y40305917D01*
X20292233Y40191809D01*
X20305425Y40184647D01*
X20305424Y40184647D01*
X20428047Y40118068D01*
X20428050Y40118067D01*
X20441235Y40110908D01*
X20455748Y40107101D01*
X20469712Y40101572D01*
X20468579Y40098711D01*
X20533537Y40067107D01*
X20597984Y39994404D01*
X20629703Y39902573D01*
X20630658Y39887396D01*
X20630394Y39885389D01*
X20631303Y39877158D01*
X20631303Y39877153D01*
X20633506Y39857199D01*
X20648999Y39716865D01*
X20707266Y39557644D01*
X20801830Y39416917D01*
X20927233Y39302809D01*
X20940425Y39295647D01*
X20940424Y39295647D01*
X21063047Y39229068D01*
X21063050Y39229067D01*
X21076235Y39221908D01*
X21090747Y39218101D01*
X21090749Y39218100D01*
X21115496Y39211608D01*
X21240233Y39178884D01*
X21255245Y39178648D01*
X21255246Y39178648D01*
X21314097Y39177724D01*
X21409760Y39176221D01*
X21475284Y39191228D01*
X21560400Y39210721D01*
X21560404Y39210723D01*
X21575029Y39214072D01*
X21726498Y39290253D01*
X21741682Y39303221D01*
X21744385Y39305530D01*
X21829152Y39353003D01*
X21925634Y39364424D01*
X22019141Y39338053D01*
X22050341Y39319158D01*
X22059130Y39312912D01*
X22070233Y39302809D01*
X22083423Y39295648D01*
X22083425Y39295646D01*
X22206047Y39229068D01*
X22206050Y39229067D01*
X22219235Y39221908D01*
X22233747Y39218101D01*
X22233749Y39218100D01*
X22258496Y39211608D01*
X22383233Y39178884D01*
X22398245Y39178648D01*
X22398246Y39178648D01*
X22457097Y39177724D01*
X22552760Y39176221D01*
X22618284Y39191228D01*
X22703400Y39210721D01*
X22703404Y39210723D01*
X22718029Y39214072D01*
X22869498Y39290253D01*
X22998423Y39400366D01*
X23079612Y39513353D01*
X31284282Y39513353D01*
X31289342Y39505781D01*
X31342614Y39468479D01*
X31361366Y39457652D01*
X31547823Y39370706D01*
X31568180Y39363297D01*
X31766894Y39310052D01*
X31788220Y39306291D01*
X31993176Y39288360D01*
X32014824Y39288360D01*
X32219780Y39306291D01*
X32241106Y39310052D01*
X32439820Y39363297D01*
X32460177Y39370706D01*
X32646634Y39457652D01*
X32665386Y39468479D01*
X32709382Y39499286D01*
X32723805Y39514353D01*
X32720138Y39522687D01*
X32021342Y40221484D01*
X32004000Y40233071D01*
X31986658Y40221484D01*
X31295870Y39530695D01*
X31284282Y39513353D01*
X23079612Y39513353D01*
X23097361Y39538053D01*
X23113577Y39578391D01*
X23155001Y39681435D01*
X23155002Y39681437D01*
X23160601Y39695366D01*
X23166590Y39737442D01*
X23183342Y39855153D01*
X23183342Y39855159D01*
X23184490Y39863222D01*
X23184491Y39863291D01*
X23209886Y39954258D01*
X23255975Y40017872D01*
X23819658Y40581555D01*
X30699981Y40581555D01*
X30717912Y40376599D01*
X30721673Y40355273D01*
X30774918Y40156559D01*
X30782327Y40136202D01*
X30869273Y39949745D01*
X30880100Y39930993D01*
X30910907Y39886997D01*
X30925974Y39872574D01*
X30934308Y39876241D01*
X31633105Y40575037D01*
X31644692Y40592379D01*
X32363308Y40592379D01*
X32374895Y40575037D01*
X33065684Y39884249D01*
X33083026Y39872661D01*
X33090598Y39877721D01*
X33127900Y39930993D01*
X33138727Y39949745D01*
X33225673Y40136202D01*
X33233082Y40156559D01*
X33286327Y40355273D01*
X33290088Y40376599D01*
X33308019Y40581555D01*
X33308019Y40603203D01*
X33290088Y40808159D01*
X33286327Y40829485D01*
X33233082Y41028199D01*
X33225673Y41048556D01*
X33138727Y41235013D01*
X33127900Y41253765D01*
X33097093Y41297761D01*
X33082026Y41312184D01*
X33073692Y41308517D01*
X32374895Y40609721D01*
X32363308Y40592379D01*
X31644692Y40592379D01*
X31633105Y40609721D01*
X30942316Y41300509D01*
X30924974Y41312097D01*
X30917402Y41307037D01*
X30880100Y41253765D01*
X30869273Y41235013D01*
X30782327Y41048556D01*
X30774918Y41028199D01*
X30721673Y40829485D01*
X30717912Y40808159D01*
X30699981Y40603203D01*
X30699981Y40581555D01*
X23819658Y40581555D01*
X25485836Y42247733D01*
X30903500Y42247733D01*
X30906618Y42221533D01*
X30952061Y42119226D01*
X31031287Y42040138D01*
X31119268Y42001241D01*
X31119275Y42001238D01*
X31133673Y41994873D01*
X31133378Y41994207D01*
X31204179Y41958907D01*
X31267918Y41885583D01*
X31298746Y41793449D01*
X31291969Y41696530D01*
X31283807Y41671779D01*
X31283705Y41671517D01*
X31287862Y41662071D01*
X31986658Y40963274D01*
X32004000Y40951687D01*
X32021342Y40963274D01*
X32712130Y41654063D01*
X32724393Y41672416D01*
X32716013Y41714544D01*
X32716012Y41811699D01*
X32753192Y41901458D01*
X32821890Y41970157D01*
X32875082Y41994465D01*
X32874846Y41994997D01*
X32977153Y42040440D01*
X33056241Y42119666D01*
X33101506Y42222052D01*
X33104500Y42247733D01*
X33104500Y43508257D01*
X33123454Y43603545D01*
X33177430Y43684327D01*
X33258212Y43738303D01*
X33353500Y43757257D01*
X33448788Y43738303D01*
X33529570Y43684327D01*
X37625129Y39588768D01*
X37644601Y39566854D01*
X37661128Y39545890D01*
X37707823Y39513617D01*
X37714149Y39509096D01*
X37759816Y39475366D01*
X37766632Y39472973D01*
X37772569Y39468869D01*
X37788161Y39463938D01*
X37788163Y39463937D01*
X37826669Y39451759D01*
X37834089Y39449283D01*
X37872193Y39435902D01*
X37872197Y39435901D01*
X37887631Y39430481D01*
X37894758Y39430201D01*
X37895120Y39430110D01*
X37900083Y39428540D01*
X37992562Y39375304D01*
X38072233Y39302809D01*
X38085425Y39295647D01*
X38085424Y39295647D01*
X38208047Y39229068D01*
X38208050Y39229067D01*
X38221235Y39221908D01*
X38235747Y39218101D01*
X38235749Y39218100D01*
X38260496Y39211608D01*
X38385233Y39178884D01*
X38400245Y39178648D01*
X38400246Y39178648D01*
X38459097Y39177724D01*
X38554760Y39176221D01*
X38620284Y39191228D01*
X38705400Y39210721D01*
X38705404Y39210723D01*
X38720029Y39214072D01*
X38871498Y39290253D01*
X39000423Y39400366D01*
X39099361Y39538053D01*
X39106728Y39556377D01*
X39146816Y39656100D01*
X39199943Y39737442D01*
X39280155Y39792262D01*
X39381758Y39812195D01*
X39443760Y39811221D01*
X39509284Y39826228D01*
X39594400Y39845721D01*
X39594404Y39845723D01*
X39609029Y39849072D01*
X39760498Y39925253D01*
X39849166Y40000983D01*
X39878011Y40025619D01*
X39878012Y40025620D01*
X39889423Y40035366D01*
X39988361Y40173053D01*
X39998353Y40197908D01*
X40046001Y40316435D01*
X40046002Y40316437D01*
X40051601Y40330366D01*
X40058795Y40380910D01*
X40074341Y40490149D01*
X40075490Y40498222D01*
X40075645Y40513000D01*
X40063992Y40609296D01*
X40057079Y40666424D01*
X40057078Y40666427D01*
X40055276Y40681320D01*
X40049972Y40695356D01*
X40049971Y40695361D01*
X39996228Y40837587D01*
X39980276Y40933424D01*
X40002213Y41028070D01*
X40058701Y41107116D01*
X40141137Y41158528D01*
X40236974Y41174480D01*
X40331620Y41152543D01*
X40347965Y41144429D01*
X40367047Y41134068D01*
X40367050Y41134067D01*
X40380235Y41126908D01*
X40394747Y41123101D01*
X40394749Y41123100D01*
X40426727Y41114711D01*
X40544233Y41083884D01*
X40559245Y41083648D01*
X40559246Y41083648D01*
X40618097Y41082724D01*
X40713760Y41081221D01*
X40779284Y41096228D01*
X40864400Y41115721D01*
X40864404Y41115723D01*
X40879029Y41119072D01*
X41030498Y41195253D01*
X41045200Y41207809D01*
X41099006Y41253765D01*
X41113508Y41266150D01*
X41198275Y41313623D01*
X41294756Y41325043D01*
X41388263Y41298671D01*
X41442801Y41260978D01*
X41501233Y41207809D01*
X41514425Y41200647D01*
X41514424Y41200647D01*
X41637047Y41134068D01*
X41637050Y41134067D01*
X41650235Y41126908D01*
X41664748Y41123101D01*
X41678712Y41117572D01*
X41677579Y41114711D01*
X41742537Y41083107D01*
X41806984Y41010404D01*
X41838703Y40918573D01*
X41839658Y40903396D01*
X41839394Y40901389D01*
X41857999Y40732865D01*
X41916266Y40573644D01*
X42010830Y40432917D01*
X42136233Y40318809D01*
X42149425Y40311647D01*
X42149424Y40311647D01*
X42272047Y40245068D01*
X42272050Y40245067D01*
X42285235Y40237908D01*
X42299748Y40234101D01*
X42313712Y40228572D01*
X42312579Y40225711D01*
X42377537Y40194107D01*
X42441984Y40121404D01*
X42473703Y40029573D01*
X42474658Y40014396D01*
X42474394Y40012389D01*
X42475303Y40004158D01*
X42475303Y40004153D01*
X42476841Y39990222D01*
X42492999Y39843865D01*
X42551266Y39684644D01*
X42645830Y39543917D01*
X42771233Y39429809D01*
X42784425Y39422647D01*
X42784424Y39422647D01*
X42907047Y39356068D01*
X42907050Y39356067D01*
X42920235Y39348908D01*
X42934747Y39345101D01*
X42934749Y39345100D01*
X42962877Y39337721D01*
X43084233Y39305884D01*
X43099245Y39305648D01*
X43099246Y39305648D01*
X43158097Y39304724D01*
X43253760Y39303221D01*
X43323346Y39319158D01*
X43404400Y39337721D01*
X43404404Y39337723D01*
X43419029Y39341072D01*
X43570498Y39417253D01*
X43583105Y39428020D01*
X43588385Y39432530D01*
X43673152Y39480003D01*
X43769634Y39491424D01*
X43863141Y39465053D01*
X43894341Y39446158D01*
X43903130Y39439912D01*
X43914233Y39429809D01*
X43927423Y39422648D01*
X43927425Y39422646D01*
X44050047Y39356068D01*
X44050050Y39356067D01*
X44063235Y39348908D01*
X44077747Y39345101D01*
X44077749Y39345100D01*
X44105877Y39337721D01*
X44227233Y39305884D01*
X44242245Y39305648D01*
X44242246Y39305648D01*
X44301097Y39304724D01*
X44396760Y39303221D01*
X44466346Y39319158D01*
X44547400Y39337721D01*
X44547404Y39337723D01*
X44562029Y39341072D01*
X44713498Y39417253D01*
X44821025Y39509090D01*
X44831011Y39517619D01*
X44831012Y39517620D01*
X44842423Y39527366D01*
X44941361Y39665053D01*
X44959523Y39710231D01*
X44999001Y39808435D01*
X44999002Y39808437D01*
X45004601Y39822366D01*
X45007248Y39840959D01*
X45027342Y39982153D01*
X45027342Y39982159D01*
X45028490Y39990222D01*
X45028491Y39990291D01*
X45053886Y40081258D01*
X45099975Y40144872D01*
X49819232Y44864129D01*
X49841147Y44883602D01*
X49847493Y44888605D01*
X49862110Y44900128D01*
X49894383Y44946823D01*
X49898910Y44953158D01*
X49922907Y44985647D01*
X49932634Y44998816D01*
X49935027Y45005632D01*
X49939131Y45011569D01*
X49956241Y45065669D01*
X49958717Y45073089D01*
X49972098Y45111192D01*
X49972100Y45111199D01*
X49977519Y45126631D01*
X49977802Y45133845D01*
X49979980Y45140730D01*
X49980500Y45147337D01*
X49980500Y45197603D01*
X49980692Y45207380D01*
X49982107Y45243393D01*
X49982838Y45261994D01*
X49980559Y45270591D01*
X49980500Y45271657D01*
X49980500Y46860500D01*
X49999454Y46955788D01*
X50053430Y47036570D01*
X50134212Y47090546D01*
X50229500Y47109500D01*
X51694646Y47109500D01*
X51701961Y47110371D01*
X51701969Y47110371D01*
X51702296Y47110410D01*
X51702299Y47110411D01*
X51720846Y47112618D01*
X51823153Y47158061D01*
X51902241Y47237287D01*
X51947506Y47339673D01*
X51950500Y47365354D01*
X51950500Y49154646D01*
X51947382Y49180846D01*
X51901939Y49283153D01*
X51834010Y49350964D01*
X51831247Y49353722D01*
X51777200Y49434457D01*
X51758163Y49529728D01*
X51777034Y49625033D01*
X51830939Y49705860D01*
X51886001Y49761018D01*
X51886002Y49761020D01*
X51902241Y49777287D01*
X51930940Y49842202D01*
X51939937Y49862552D01*
X51939937Y49862553D01*
X51947506Y49879673D01*
X51950500Y49905354D01*
X51950500Y51694646D01*
X51947382Y51720846D01*
X51901939Y51823153D01*
X51822713Y51902241D01*
X51720327Y51947506D01*
X51694646Y51950500D01*
X49905354Y51950500D01*
X49898039Y51949629D01*
X49898031Y51949629D01*
X49897704Y51949590D01*
X49897701Y51949589D01*
X49879154Y51947382D01*
X49776847Y51901939D01*
X49697759Y51822713D01*
X49652494Y51720327D01*
X49649500Y51694646D01*
X49649500Y51611853D01*
X49630546Y51516565D01*
X49576570Y51435783D01*
X49495788Y51381807D01*
X49400500Y51362853D01*
X49305212Y51381807D01*
X49224430Y51435783D01*
X49200988Y51462871D01*
X49125483Y51563985D01*
X49125478Y51563991D01*
X49118651Y51573133D01*
X48963381Y51716663D01*
X48929694Y51737918D01*
X48794210Y51823403D01*
X48794206Y51823405D01*
X48784554Y51829495D01*
X48643750Y51885670D01*
X48598756Y51903621D01*
X48598752Y51903622D01*
X48588160Y51907848D01*
X48576975Y51910073D01*
X48576971Y51910074D01*
X48391968Y51946873D01*
X48391964Y51946873D01*
X48380775Y51949099D01*
X48264912Y51950616D01*
X48180752Y51951718D01*
X48180748Y51951718D01*
X48169346Y51951867D01*
X48058569Y51932832D01*
X47972206Y51917993D01*
X47972202Y51917992D01*
X47960953Y51916059D01*
X47950238Y51912106D01*
X47773289Y51846826D01*
X47773286Y51846824D01*
X47762575Y51842873D01*
X47580856Y51734762D01*
X47572271Y51727233D01*
X47430462Y51602871D01*
X47430458Y51602867D01*
X47421881Y51595345D01*
X47414816Y51586383D01*
X47414815Y51586382D01*
X47397162Y51563989D01*
X47290976Y51429292D01*
X47285663Y51419193D01*
X47285662Y51419192D01*
X47209622Y51274664D01*
X47148480Y51199160D01*
X47063099Y51152802D01*
X46966476Y51142647D01*
X46873322Y51170240D01*
X46797818Y51231382D01*
X46765941Y51280469D01*
X46720061Y51373505D01*
X46710217Y51393466D01*
X46710216Y51393468D01*
X46705165Y51403710D01*
X46578651Y51573133D01*
X46423381Y51716663D01*
X46389694Y51737918D01*
X46254210Y51823403D01*
X46254206Y51823405D01*
X46244554Y51829495D01*
X46103750Y51885670D01*
X46058756Y51903621D01*
X46058752Y51903622D01*
X46048160Y51907848D01*
X46036975Y51910073D01*
X46036971Y51910074D01*
X45851968Y51946873D01*
X45851964Y51946873D01*
X45840775Y51949099D01*
X45724912Y51950616D01*
X45640752Y51951718D01*
X45640748Y51951718D01*
X45629346Y51951867D01*
X45518569Y51932832D01*
X45432206Y51917993D01*
X45432202Y51917992D01*
X45420953Y51916059D01*
X45410238Y51912106D01*
X45233289Y51846826D01*
X45233286Y51846824D01*
X45222575Y51842873D01*
X45040856Y51734762D01*
X45032271Y51727233D01*
X44890462Y51602871D01*
X44890458Y51602867D01*
X44881881Y51595345D01*
X44874816Y51586383D01*
X44874815Y51586382D01*
X44857162Y51563989D01*
X44750976Y51429292D01*
X44745663Y51419193D01*
X44745662Y51419192D01*
X44669622Y51274664D01*
X44608480Y51199160D01*
X44523099Y51152802D01*
X44426476Y51142647D01*
X44333322Y51170240D01*
X44257818Y51231382D01*
X44225941Y51280469D01*
X44180061Y51373505D01*
X44170217Y51393466D01*
X44170216Y51393468D01*
X44165165Y51403710D01*
X44038651Y51573133D01*
X43883381Y51716663D01*
X43849694Y51737918D01*
X43714210Y51823403D01*
X43714206Y51823405D01*
X43704554Y51829495D01*
X43563750Y51885670D01*
X43518756Y51903621D01*
X43518752Y51903622D01*
X43508160Y51907848D01*
X43496975Y51910073D01*
X43496971Y51910074D01*
X43311968Y51946873D01*
X43311964Y51946873D01*
X43300775Y51949099D01*
X43184912Y51950616D01*
X43100752Y51951718D01*
X43100748Y51951718D01*
X43089346Y51951867D01*
X42978569Y51932832D01*
X42892206Y51917993D01*
X42892202Y51917992D01*
X42880953Y51916059D01*
X42870238Y51912106D01*
X42693289Y51846826D01*
X42693286Y51846824D01*
X42682575Y51842873D01*
X42500856Y51734762D01*
X42492271Y51727233D01*
X42350462Y51602871D01*
X42350458Y51602867D01*
X42341881Y51595345D01*
X42334816Y51586383D01*
X42334815Y51586382D01*
X42317162Y51563989D01*
X42210976Y51429292D01*
X42205663Y51419193D01*
X42205662Y51419192D01*
X42129622Y51274664D01*
X42068480Y51199160D01*
X41983099Y51152802D01*
X41886476Y51142647D01*
X41793322Y51170240D01*
X41717818Y51231382D01*
X41685941Y51280469D01*
X41640061Y51373505D01*
X41630217Y51393466D01*
X41630216Y51393468D01*
X41625165Y51403710D01*
X41498651Y51573133D01*
X41343381Y51716663D01*
X41309694Y51737918D01*
X41174210Y51823403D01*
X41174206Y51823405D01*
X41164554Y51829495D01*
X41023750Y51885670D01*
X40978756Y51903621D01*
X40978752Y51903622D01*
X40968160Y51907848D01*
X40956975Y51910073D01*
X40956971Y51910074D01*
X40771968Y51946873D01*
X40771964Y51946873D01*
X40760775Y51949099D01*
X40644912Y51950616D01*
X40560752Y51951718D01*
X40560748Y51951718D01*
X40549346Y51951867D01*
X40438569Y51932832D01*
X40352206Y51917993D01*
X40352202Y51917992D01*
X40340953Y51916059D01*
X40330238Y51912106D01*
X40153289Y51846826D01*
X40153286Y51846824D01*
X40142575Y51842873D01*
X39960856Y51734762D01*
X39952271Y51727233D01*
X39810462Y51602871D01*
X39810458Y51602867D01*
X39801881Y51595345D01*
X39794816Y51586383D01*
X39794815Y51586382D01*
X39777162Y51563989D01*
X39670976Y51429292D01*
X39665663Y51419193D01*
X39665662Y51419192D01*
X39589622Y51274664D01*
X39528480Y51199160D01*
X39443099Y51152802D01*
X39346476Y51142647D01*
X39253322Y51170240D01*
X39177818Y51231382D01*
X39145941Y51280469D01*
X39100061Y51373505D01*
X39090217Y51393466D01*
X39090216Y51393468D01*
X39085165Y51403710D01*
X38958651Y51573133D01*
X38803381Y51716663D01*
X38769694Y51737918D01*
X38634210Y51823403D01*
X38634206Y51823405D01*
X38624554Y51829495D01*
X38483750Y51885670D01*
X38438756Y51903621D01*
X38438752Y51903622D01*
X38428160Y51907848D01*
X38416975Y51910073D01*
X38416971Y51910074D01*
X38231968Y51946873D01*
X38231964Y51946873D01*
X38220775Y51949099D01*
X38104912Y51950616D01*
X38020752Y51951718D01*
X38020748Y51951718D01*
X38009346Y51951867D01*
X37898569Y51932832D01*
X37812206Y51917993D01*
X37812202Y51917992D01*
X37800953Y51916059D01*
X37790238Y51912106D01*
X37613289Y51846826D01*
X37613286Y51846824D01*
X37602575Y51842873D01*
X37420856Y51734762D01*
X37412271Y51727233D01*
X37270462Y51602871D01*
X37270458Y51602867D01*
X37261881Y51595345D01*
X37254816Y51586383D01*
X37254815Y51586382D01*
X37237162Y51563989D01*
X37130976Y51429292D01*
X37125663Y51419193D01*
X37125662Y51419192D01*
X37049622Y51274664D01*
X36988480Y51199160D01*
X36903099Y51152802D01*
X36806476Y51142647D01*
X36713322Y51170240D01*
X36637818Y51231382D01*
X36605941Y51280469D01*
X36560061Y51373505D01*
X36550217Y51393466D01*
X36550216Y51393468D01*
X36545165Y51403710D01*
X36418651Y51573133D01*
X36263381Y51716663D01*
X36229694Y51737918D01*
X36094210Y51823403D01*
X36094206Y51823405D01*
X36084554Y51829495D01*
X35943750Y51885670D01*
X35898756Y51903621D01*
X35898752Y51903622D01*
X35888160Y51907848D01*
X35876975Y51910073D01*
X35876971Y51910074D01*
X35691968Y51946873D01*
X35691964Y51946873D01*
X35680775Y51949099D01*
X35564912Y51950616D01*
X35480752Y51951718D01*
X35480748Y51951718D01*
X35469346Y51951867D01*
X35358569Y51932832D01*
X35272206Y51917993D01*
X35272202Y51917992D01*
X35260953Y51916059D01*
X35250238Y51912106D01*
X35073289Y51846826D01*
X35073286Y51846824D01*
X35062575Y51842873D01*
X34880856Y51734762D01*
X34872271Y51727233D01*
X34730462Y51602871D01*
X34730458Y51602867D01*
X34721881Y51595345D01*
X34714816Y51586383D01*
X34714815Y51586382D01*
X34697162Y51563989D01*
X34590976Y51429292D01*
X34585663Y51419193D01*
X34585662Y51419192D01*
X34509622Y51274664D01*
X34448480Y51199160D01*
X34363099Y51152802D01*
X34266476Y51142647D01*
X34173322Y51170240D01*
X34097818Y51231382D01*
X34065941Y51280469D01*
X34020061Y51373505D01*
X34010217Y51393466D01*
X34010216Y51393468D01*
X34005165Y51403710D01*
X33878651Y51573133D01*
X33723381Y51716663D01*
X33689694Y51737918D01*
X33554210Y51823403D01*
X33554206Y51823405D01*
X33544554Y51829495D01*
X33403750Y51885670D01*
X33358756Y51903621D01*
X33358752Y51903622D01*
X33348160Y51907848D01*
X33336975Y51910073D01*
X33336971Y51910074D01*
X33151968Y51946873D01*
X33151964Y51946873D01*
X33140775Y51949099D01*
X33024912Y51950616D01*
X32940752Y51951718D01*
X32940748Y51951718D01*
X32929346Y51951867D01*
X32818569Y51932832D01*
X32732206Y51917993D01*
X32732202Y51917992D01*
X32720953Y51916059D01*
X32710238Y51912106D01*
X32533289Y51846826D01*
X32533286Y51846824D01*
X32522575Y51842873D01*
X32340856Y51734762D01*
X32332271Y51727233D01*
X32190462Y51602871D01*
X32190458Y51602867D01*
X32181881Y51595345D01*
X32174816Y51586383D01*
X32174815Y51586382D01*
X32157162Y51563989D01*
X32050976Y51429292D01*
X31952523Y51242164D01*
X31949139Y51231264D01*
X31949138Y51231263D01*
X31939170Y51199160D01*
X31889820Y51040227D01*
X31864967Y50830246D01*
X31878796Y50619251D01*
X31909431Y50498626D01*
X31914516Y50401608D01*
X31882086Y50310026D01*
X31844163Y50261266D01*
X31460768Y49877871D01*
X31438854Y49858399D01*
X31417890Y49841872D01*
X31385617Y49795177D01*
X31381096Y49788851D01*
X31347366Y49743184D01*
X31344973Y49736368D01*
X31340869Y49730431D01*
X31335938Y49714839D01*
X31335937Y49714837D01*
X31323759Y49676331D01*
X31321283Y49668911D01*
X31307902Y49630808D01*
X31307900Y49630801D01*
X31302481Y49615369D01*
X31302198Y49608155D01*
X31300020Y49601270D01*
X31299500Y49594663D01*
X31299500Y49544397D01*
X31299308Y49534620D01*
X31297162Y49480006D01*
X31299441Y49471409D01*
X31299500Y49470343D01*
X31299500Y46142470D01*
X31297774Y46113204D01*
X31294636Y46086690D01*
X31297980Y46068382D01*
X31304823Y46030913D01*
X31306106Y46023201D01*
X31310376Y45994807D01*
X31314551Y45967038D01*
X31317679Y45960525D01*
X31318975Y45953427D01*
X31326513Y45938916D01*
X31326514Y45938913D01*
X31345114Y45903106D01*
X31348605Y45896121D01*
X31373191Y45844921D01*
X31378094Y45839617D01*
X31381421Y45833212D01*
X31385725Y45828172D01*
X31421267Y45792630D01*
X31428044Y45785581D01*
X31452511Y45759112D01*
X31452513Y45759110D01*
X31465146Y45745444D01*
X31472838Y45740976D01*
X31473632Y45740265D01*
X32595948Y44617949D01*
X32649924Y44537167D01*
X32668878Y44441879D01*
X32649924Y44346591D01*
X32595948Y44265809D01*
X32515166Y44211833D01*
X32419878Y44192879D01*
X31159354Y44192879D01*
X31152039Y44192008D01*
X31152031Y44192008D01*
X31151704Y44191969D01*
X31151701Y44191968D01*
X31133154Y44189761D01*
X31030847Y44144318D01*
X30951759Y44065092D01*
X30936768Y44031183D01*
X30916237Y43984743D01*
X30906494Y43962706D01*
X30903500Y43937025D01*
X30903500Y42247733D01*
X25485836Y42247733D01*
X27975232Y44737129D01*
X27997147Y44756602D01*
X28003493Y44761605D01*
X28018110Y44773128D01*
X28050383Y44819823D01*
X28054910Y44826158D01*
X28078907Y44858647D01*
X28088634Y44871816D01*
X28091027Y44878632D01*
X28095131Y44884569D01*
X28104894Y44915437D01*
X28112241Y44938669D01*
X28114717Y44946089D01*
X28128098Y44984192D01*
X28128100Y44984199D01*
X28133519Y44999631D01*
X28133802Y45006845D01*
X28135980Y45013730D01*
X28136500Y45020337D01*
X28136500Y45070603D01*
X28136692Y45080380D01*
X28138107Y45116393D01*
X28138838Y45134994D01*
X28136559Y45143591D01*
X28136500Y45144657D01*
X28136500Y46860500D01*
X28155454Y46955788D01*
X28209430Y47036570D01*
X28290212Y47090546D01*
X28385500Y47109500D01*
X29854646Y47109500D01*
X29861961Y47110371D01*
X29861969Y47110371D01*
X29862296Y47110410D01*
X29862299Y47110411D01*
X29880846Y47112618D01*
X29983153Y47158061D01*
X30062241Y47237287D01*
X30107506Y47339673D01*
X30110500Y47365354D01*
X30110500Y49154646D01*
X30107382Y49180846D01*
X30061939Y49283153D01*
X29994010Y49350964D01*
X29991247Y49353722D01*
X29937200Y49434457D01*
X29918163Y49529728D01*
X29937034Y49625033D01*
X29990939Y49705860D01*
X30046001Y49761018D01*
X30046002Y49761020D01*
X30062241Y49777287D01*
X30090940Y49842202D01*
X30099937Y49862552D01*
X30099937Y49862553D01*
X30107506Y49879673D01*
X30110500Y49905354D01*
X30110500Y51694646D01*
X30107382Y51720846D01*
X30061939Y51823153D01*
X29982713Y51902241D01*
X29880327Y51947506D01*
X29854646Y51950500D01*
X28065354Y51950500D01*
X28058039Y51949629D01*
X28058031Y51949629D01*
X28057704Y51949590D01*
X28057701Y51949589D01*
X28039154Y51947382D01*
X27936847Y51901939D01*
X27857759Y51822713D01*
X27812494Y51720327D01*
X27809500Y51694646D01*
X27809500Y51611853D01*
X27790546Y51516565D01*
X27736570Y51435783D01*
X27655788Y51381807D01*
X27560500Y51362853D01*
X27465212Y51381807D01*
X27384430Y51435783D01*
X27360988Y51462871D01*
X27285483Y51563985D01*
X27285478Y51563991D01*
X27278651Y51573133D01*
X27123381Y51716663D01*
X27089694Y51737918D01*
X26954210Y51823403D01*
X26954206Y51823405D01*
X26944554Y51829495D01*
X26803750Y51885670D01*
X26758756Y51903621D01*
X26758752Y51903622D01*
X26748160Y51907848D01*
X26736975Y51910073D01*
X26736971Y51910074D01*
X26551968Y51946873D01*
X26551964Y51946873D01*
X26540775Y51949099D01*
X26424912Y51950616D01*
X26340752Y51951718D01*
X26340748Y51951718D01*
X26329346Y51951867D01*
X26218569Y51932832D01*
X26132206Y51917993D01*
X26132202Y51917992D01*
X26120953Y51916059D01*
X26110238Y51912106D01*
X25933289Y51846826D01*
X25933286Y51846824D01*
X25922575Y51842873D01*
X25740856Y51734762D01*
X25732271Y51727233D01*
X25590462Y51602871D01*
X25590458Y51602867D01*
X25581881Y51595345D01*
X25574816Y51586383D01*
X25574815Y51586382D01*
X25557162Y51563989D01*
X25450976Y51429292D01*
X25445663Y51419193D01*
X25445662Y51419192D01*
X25369622Y51274664D01*
X25308480Y51199160D01*
X25223099Y51152802D01*
X25126476Y51142647D01*
X25033322Y51170240D01*
X24957818Y51231382D01*
X24925941Y51280469D01*
X24880061Y51373505D01*
X24870217Y51393466D01*
X24870216Y51393468D01*
X24865165Y51403710D01*
X24738651Y51573133D01*
X24583381Y51716663D01*
X24549694Y51737918D01*
X24414210Y51823403D01*
X24414206Y51823405D01*
X24404554Y51829495D01*
X24263750Y51885670D01*
X24218756Y51903621D01*
X24218752Y51903622D01*
X24208160Y51907848D01*
X24196975Y51910073D01*
X24196971Y51910074D01*
X24011968Y51946873D01*
X24011964Y51946873D01*
X24000775Y51949099D01*
X23884912Y51950616D01*
X23800752Y51951718D01*
X23800748Y51951718D01*
X23789346Y51951867D01*
X23678569Y51932832D01*
X23592206Y51917993D01*
X23592202Y51917992D01*
X23580953Y51916059D01*
X23570238Y51912106D01*
X23393289Y51846826D01*
X23393286Y51846824D01*
X23382575Y51842873D01*
X23200856Y51734762D01*
X23192271Y51727233D01*
X23050462Y51602871D01*
X23050458Y51602867D01*
X23041881Y51595345D01*
X23034816Y51586383D01*
X23034815Y51586382D01*
X23017162Y51563989D01*
X22910976Y51429292D01*
X22905663Y51419193D01*
X22905662Y51419192D01*
X22829622Y51274664D01*
X22768480Y51199160D01*
X22683099Y51152802D01*
X22586476Y51142647D01*
X22493322Y51170240D01*
X22417818Y51231382D01*
X22385941Y51280469D01*
X22340061Y51373505D01*
X22330217Y51393466D01*
X22330216Y51393468D01*
X22325165Y51403710D01*
X22198651Y51573133D01*
X22043381Y51716663D01*
X22009694Y51737918D01*
X21874210Y51823403D01*
X21874206Y51823405D01*
X21864554Y51829495D01*
X21723750Y51885670D01*
X21678756Y51903621D01*
X21678752Y51903622D01*
X21668160Y51907848D01*
X21656975Y51910073D01*
X21656971Y51910074D01*
X21471968Y51946873D01*
X21471964Y51946873D01*
X21460775Y51949099D01*
X21344912Y51950616D01*
X21260752Y51951718D01*
X21260748Y51951718D01*
X21249346Y51951867D01*
X21138569Y51932832D01*
X21052206Y51917993D01*
X21052202Y51917992D01*
X21040953Y51916059D01*
X21030238Y51912106D01*
X20853289Y51846826D01*
X20853286Y51846824D01*
X20842575Y51842873D01*
X20660856Y51734762D01*
X20652271Y51727233D01*
X20510462Y51602871D01*
X20510458Y51602867D01*
X20501881Y51595345D01*
X20494816Y51586383D01*
X20494815Y51586382D01*
X20477162Y51563989D01*
X20370976Y51429292D01*
X20365663Y51419193D01*
X20365662Y51419192D01*
X20289622Y51274664D01*
X20228480Y51199160D01*
X20143099Y51152802D01*
X20046476Y51142647D01*
X19953322Y51170240D01*
X19877818Y51231382D01*
X19845941Y51280469D01*
X19800061Y51373505D01*
X19790217Y51393466D01*
X19790216Y51393468D01*
X19785165Y51403710D01*
X19658651Y51573133D01*
X19503381Y51716663D01*
X19469694Y51737918D01*
X19334210Y51823403D01*
X19334206Y51823405D01*
X19324554Y51829495D01*
X19183750Y51885670D01*
X19138756Y51903621D01*
X19138752Y51903622D01*
X19128160Y51907848D01*
X19116975Y51910073D01*
X19116971Y51910074D01*
X18931968Y51946873D01*
X18931964Y51946873D01*
X18920775Y51949099D01*
X18804912Y51950616D01*
X18720752Y51951718D01*
X18720748Y51951718D01*
X18709346Y51951867D01*
X18598569Y51932832D01*
X18512206Y51917993D01*
X18512202Y51917992D01*
X18500953Y51916059D01*
X18490238Y51912106D01*
X18313289Y51846826D01*
X18313286Y51846824D01*
X18302575Y51842873D01*
X18120856Y51734762D01*
X18112271Y51727233D01*
X17970462Y51602871D01*
X17970458Y51602867D01*
X17961881Y51595345D01*
X17954816Y51586383D01*
X17954815Y51586382D01*
X17937162Y51563989D01*
X17830976Y51429292D01*
X17825663Y51419193D01*
X17825662Y51419192D01*
X17749622Y51274664D01*
X17688480Y51199160D01*
X17603099Y51152802D01*
X17506476Y51142647D01*
X17413322Y51170240D01*
X17337818Y51231382D01*
X17305941Y51280469D01*
X17260061Y51373505D01*
X17250217Y51393466D01*
X17250216Y51393468D01*
X17245165Y51403710D01*
X17118651Y51573133D01*
X16963381Y51716663D01*
X16929694Y51737918D01*
X16794210Y51823403D01*
X16794206Y51823405D01*
X16784554Y51829495D01*
X16643750Y51885670D01*
X16598756Y51903621D01*
X16598752Y51903622D01*
X16588160Y51907848D01*
X16576975Y51910073D01*
X16576971Y51910074D01*
X16391968Y51946873D01*
X16391964Y51946873D01*
X16380775Y51949099D01*
X16264912Y51950616D01*
X16180752Y51951718D01*
X16180748Y51951718D01*
X16169346Y51951867D01*
X16058569Y51932832D01*
X15972206Y51917993D01*
X15972202Y51917992D01*
X15960953Y51916059D01*
X15950238Y51912106D01*
X15773289Y51846826D01*
X15773286Y51846824D01*
X15762575Y51842873D01*
X15580856Y51734762D01*
X15572271Y51727233D01*
X15430462Y51602871D01*
X15430458Y51602867D01*
X15421881Y51595345D01*
X15304523Y51446477D01*
X15230649Y51383381D01*
X15138249Y51353358D01*
X15041394Y51360980D01*
X14954828Y51405087D01*
X14893341Y51476131D01*
X14887362Y51486487D01*
X14764347Y51662170D01*
X14750424Y51678764D01*
X14598761Y51830427D01*
X14582177Y51844343D01*
X14406478Y51967369D01*
X14387732Y51978192D01*
X14193343Y52068837D01*
X14172986Y52076246D01*
X13993691Y52124288D01*
X13972877Y52125652D01*
X13970989Y52121825D01*
X13970000Y52114311D01*
X13970000Y46953891D01*
X13974069Y46933433D01*
X13978257Y46932600D01*
X13985771Y46933590D01*
X14172986Y46983754D01*
X14201341Y46994074D01*
X14297366Y47008852D01*
X14391736Y46985758D01*
X14470085Y46928308D01*
X14520485Y46845248D01*
X14535500Y46760089D01*
X14535500Y44106743D01*
X14516546Y44011455D01*
X14462570Y43930673D01*
X14381788Y43876697D01*
X14286500Y43857743D01*
X14191212Y43876697D01*
X14110430Y43930673D01*
X11323672Y46717431D01*
X11269696Y46798213D01*
X11250742Y46893501D01*
X11269696Y46988789D01*
X11323672Y47069571D01*
X11404454Y47123547D01*
X11439937Y47135076D01*
X11449730Y47136496D01*
X11649955Y47204463D01*
X11834442Y47307781D01*
X11843216Y47315078D01*
X11843220Y47315081D01*
X11988231Y47435685D01*
X11997012Y47442988D01*
X12132219Y47605558D01*
X12132710Y47605149D01*
X12196130Y47666932D01*
X12286368Y47702935D01*
X12383515Y47701664D01*
X12472780Y47663314D01*
X12540575Y47593723D01*
X12547387Y47582608D01*
X12552638Y47573513D01*
X12675653Y47397830D01*
X12689576Y47381236D01*
X12841239Y47229573D01*
X12857823Y47215657D01*
X13033522Y47092631D01*
X13052268Y47081808D01*
X13246657Y46991163D01*
X13267014Y46983754D01*
X13446309Y46935712D01*
X13467123Y46934348D01*
X13469011Y46938175D01*
X13470000Y46945689D01*
X13470000Y52106109D01*
X13465931Y52126567D01*
X13461743Y52127400D01*
X13454229Y52126410D01*
X13267015Y52076246D01*
X13246652Y52068834D01*
X13052275Y51978195D01*
X13033518Y51967365D01*
X12857830Y51844347D01*
X12841236Y51830424D01*
X12689576Y51678764D01*
X12675653Y51662170D01*
X12552638Y51486487D01*
X12545726Y51474515D01*
X12481667Y51401471D01*
X12394531Y51358500D01*
X12297584Y51352146D01*
X12205585Y51383376D01*
X12130574Y51450033D01*
X12045479Y51563989D01*
X12038651Y51573133D01*
X11883381Y51716663D01*
X11849694Y51737918D01*
X11714210Y51823403D01*
X11714206Y51823405D01*
X11704554Y51829495D01*
X11563750Y51885670D01*
X11518756Y51903621D01*
X11518752Y51903622D01*
X11508160Y51907848D01*
X11496975Y51910073D01*
X11496971Y51910074D01*
X11311968Y51946873D01*
X11311964Y51946873D01*
X11300775Y51949099D01*
X11184912Y51950616D01*
X11100752Y51951718D01*
X11100748Y51951718D01*
X11089346Y51951867D01*
X10978569Y51932832D01*
X10892206Y51917993D01*
X10892202Y51917992D01*
X10880953Y51916059D01*
X10870238Y51912106D01*
X10693289Y51846826D01*
X10693286Y51846824D01*
X10682575Y51842873D01*
X10500856Y51734762D01*
X10492271Y51727233D01*
X10350462Y51602871D01*
X10350458Y51602867D01*
X10341881Y51595345D01*
X10334816Y51586383D01*
X10334815Y51586382D01*
X10317162Y51563989D01*
X10210976Y51429292D01*
X10205663Y51419193D01*
X10205662Y51419192D01*
X10129622Y51274664D01*
X10068480Y51199160D01*
X9983099Y51152802D01*
X9886476Y51142647D01*
X9793322Y51170240D01*
X9717818Y51231382D01*
X9685941Y51280469D01*
X9640061Y51373505D01*
X9630217Y51393466D01*
X9630216Y51393468D01*
X9625165Y51403710D01*
X9498651Y51573133D01*
X9343381Y51716663D01*
X9309694Y51737918D01*
X9174210Y51823403D01*
X9174206Y51823405D01*
X9164554Y51829495D01*
X9023750Y51885670D01*
X8978756Y51903621D01*
X8978752Y51903622D01*
X8968160Y51907848D01*
X8956975Y51910073D01*
X8956971Y51910074D01*
X8771968Y51946873D01*
X8771964Y51946873D01*
X8760775Y51949099D01*
X8644912Y51950616D01*
X8560752Y51951718D01*
X8560748Y51951718D01*
X8549346Y51951867D01*
X8438569Y51932832D01*
X8352206Y51917993D01*
X8352202Y51917992D01*
X8340953Y51916059D01*
X8330238Y51912106D01*
X8153289Y51846826D01*
X8153286Y51846824D01*
X8142575Y51842873D01*
X7960856Y51734762D01*
X7952271Y51727233D01*
X7810462Y51602871D01*
X7810458Y51602867D01*
X7801881Y51595345D01*
X7794816Y51586383D01*
X7794815Y51586382D01*
X7777162Y51563989D01*
X7670976Y51429292D01*
X7665663Y51419193D01*
X7665662Y51419192D01*
X7589622Y51274664D01*
X7528480Y51199160D01*
X7443099Y51152802D01*
X7346476Y51142647D01*
X7253322Y51170240D01*
X7177818Y51231382D01*
X7145941Y51280469D01*
X7100061Y51373505D01*
X7090217Y51393466D01*
X7090216Y51393468D01*
X7085165Y51403710D01*
X6958651Y51573133D01*
X6803381Y51716663D01*
X6769694Y51737918D01*
X6634210Y51823403D01*
X6634206Y51823405D01*
X6624554Y51829495D01*
X6483750Y51885670D01*
X6438756Y51903621D01*
X6438752Y51903622D01*
X6428160Y51907848D01*
X6416975Y51910073D01*
X6416971Y51910074D01*
X6231968Y51946873D01*
X6231964Y51946873D01*
X6220775Y51949099D01*
X6104912Y51950616D01*
X6020752Y51951718D01*
X6020748Y51951718D01*
X6009346Y51951867D01*
X5898569Y51932832D01*
X5812206Y51917993D01*
X5812202Y51917992D01*
X5800953Y51916059D01*
X5790238Y51912106D01*
X5613289Y51846826D01*
X5613286Y51846824D01*
X5602575Y51842873D01*
X5420856Y51734762D01*
X5412271Y51727233D01*
X5270462Y51602871D01*
X5270458Y51602867D01*
X5261881Y51595345D01*
X5254816Y51586383D01*
X5254815Y51586382D01*
X5237162Y51563989D01*
X5130976Y51429292D01*
X5032523Y51242164D01*
X5029139Y51231264D01*
X5029138Y51231263D01*
X5019170Y51199160D01*
X4969820Y51040227D01*
X4944967Y50830246D01*
X4958796Y50619251D01*
X4961605Y50608190D01*
X4961606Y50608185D01*
X4987551Y50506030D01*
X5010845Y50414310D01*
X5015624Y50403943D01*
X5015626Y50403938D01*
X5058920Y50310026D01*
X5099369Y50222286D01*
X5105955Y50212967D01*
X5121577Y50190863D01*
X5221405Y50049609D01*
X5372865Y49902063D01*
X5548677Y49784589D01*
X5603541Y49761018D01*
X5604723Y49760510D01*
X5684791Y49705480D01*
X5737705Y49623999D01*
X5755410Y49528471D01*
X5735210Y49433439D01*
X5680180Y49353371D01*
X5613626Y49306986D01*
X5613292Y49306827D01*
X5602575Y49302873D01*
X5592762Y49297035D01*
X5592760Y49297034D01*
X5534117Y49262145D01*
X5420856Y49194762D01*
X5412271Y49187233D01*
X5270462Y49062871D01*
X5270458Y49062867D01*
X5261881Y49055345D01*
X5254816Y49046383D01*
X5254815Y49046382D01*
X5237162Y49023989D01*
X5130976Y48889292D01*
X5032523Y48702164D01*
X4969820Y48500227D01*
X4944967Y48290246D01*
X750500Y48290246D01*
X750500Y50141924D01*
X751353Y50151675D01*
X751353Y50168546D01*
X755136Y50190000D01*
X751674Y50209635D01*
X751745Y50212167D01*
X766690Y50478284D01*
X769816Y50506030D01*
X792828Y50641471D01*
X815841Y50776919D01*
X822051Y50804123D01*
X898117Y51068154D01*
X907337Y51094504D01*
X907759Y51095522D01*
X1012486Y51348355D01*
X1024593Y51373497D01*
X1157507Y51613987D01*
X1172361Y51637627D01*
X1331357Y51861710D01*
X1348766Y51883540D01*
X1531847Y52088408D01*
X1551592Y52108153D01*
X1756460Y52291234D01*
X1778290Y52308643D01*
X2002373Y52467639D01*
X2026013Y52482493D01*
X2266503Y52615407D01*
X2291645Y52627514D01*
X2545496Y52732663D01*
X2571846Y52741883D01*
X2835877Y52817949D01*
X2863081Y52824159D01*
X2998528Y52847172D01*
X3133970Y52870184D01*
X3161716Y52873310D01*
X3427833Y52888255D01*
X3430365Y52888326D01*
X3450000Y52884864D01*
X3471454Y52888647D01*
X3488325Y52888647D01*
X3498076Y52889500D01*
X53401924Y52889500D01*
X53411675Y52888647D01*
G37*
%TD.AperFunction*%
%TD*%
M02*
